<svg width="1000" height="1000" viewBox="0 0 1000 1000" fill="none" xmlns="http://www.w3.org/2000/svg">
<rect width="1000" height="1000" fill="white"/>
<path d="M962.697 658.76V668.962C962.699 673.653 962.447 678.341 961.943 683.005C961.688 685.377 961.361 687.729 960.963 690.061C960.571 692.452 960.11 694.834 959.591 697.186C957.829 705.152 955.312 712.933 952.074 720.422C950.493 724.061 948.765 727.602 946.89 731.045C933.348 755.849 912.099 775.571 886.355 787.228C885.081 787.81 883.797 788.368 882.504 788.904C878.976 790.367 875.366 791.674 871.675 792.824C866.42 794.471 861.064 795.78 855.642 796.744C848.138 798.059 840.534 798.715 832.916 798.704H780.28C765.497 798.709 753.516 810.695 753.516 825.478V925.369H305.96V825.497C305.972 815.857 300.783 806.959 292.387 802.222C291.286 801.583 290.136 801.033 288.947 800.576C288.193 800.282 287.428 800.017 286.644 799.782C285.678 799.505 284.696 799.282 283.704 799.116C282.213 798.851 280.701 798.72 279.186 798.724H190.614C189.213 798.724 187.831 798.724 186.439 798.665C183.009 798.56 179.609 798.328 176.237 797.969C169.045 797.207 161.927 795.863 154.952 793.951C150.849 792.834 146.828 791.527 142.888 790.031C138.948 788.535 135.192 786.902 131.618 785.131C127.698 783.217 123.889 781.126 120.191 778.859C114.441 775.336 108.964 771.385 103.806 767.04C100.846 764.551 98.0008 761.938 95.2699 759.2C89.009 752.941 83.3795 746.08 78.4629 738.718C73.537 731.374 69.3546 723.557 65.9777 715.384C63.5373 709.476 61.5328 703.397 59.9801 697.196C59.3725 694.844 58.8433 692.462 58.3729 690.071C55.275 674.293 54.9996 658.091 57.5595 642.218C57.9417 639.817 58.3827 637.445 58.9021 635.093C62.2862 619.567 68.3981 604.765 76.9537 591.375C101.68 552.506 144.566 528.981 190.634 529.018H294.543C303.482 529.029 312.086 525.613 318.582 519.473L319.327 518.757C325.901 512.185 329.592 503.269 329.588 493.973C329.596 487.537 327.822 481.225 324.462 475.735C322.841 473.065 320.863 470.629 318.582 468.493C312.085 462.353 303.483 458.934 294.543 458.938H119.241C97.8166 458.971 77.2375 450.584 61.9401 435.585L61.2835 434.938C45.9107 419.575 37.2734 398.733 37.2734 377C37.2734 355.267 45.9107 334.425 61.2835 319.063C61.4991 318.847 61.7147 318.631 61.9401 318.426C62.0087 318.347 62.0773 318.288 62.1459 318.22C77.4212 303.356 97.8979 295.047 119.211 295.062C136.07 295.097 152.338 288.85 164.84 277.54C165.889 276.56 166.898 275.58 167.888 274.6C168.525 273.953 169.142 273.287 169.75 272.64C173.481 268.477 176.684 263.869 179.285 258.92C180.265 257.019 181.245 255 182.049 253.04C183.875 248.623 185.222 244.024 186.067 239.32C186.067 239.163 186.126 238.997 186.145 238.84C186.568 236.457 186.856 234.052 187.008 231.637C187.106 230.167 187.155 228.697 187.155 227.188V157.98C187.152 150.88 189.971 144.07 194.99 139.049C200.01 134.027 206.819 131.206 213.918 131.206H837.777C863.643 131.176 887.996 143.393 903.437 164.144C903.603 164.35 903.76 164.566 903.917 164.781C905.224 166.545 906.449 168.361 907.592 170.23C908.268 171.298 908.905 172.386 909.552 173.493C911.315 176.683 912.864 179.986 914.187 183.382C914.981 185.41 915.696 187.468 916.324 189.575C917.534 193.667 918.416 197.848 918.96 202.08C919.215 203.916 919.404 205.768 919.528 207.637C919.656 209.459 919.714 211.292 919.714 213.144C919.714 215.986 919.567 218.789 919.293 221.553C919.185 222.64 919.048 223.728 918.881 224.806C918.568 227.109 918.137 229.383 917.627 231.617C917.059 234.057 916.382 236.517 915.608 238.82C913.257 245.945 909.929 252.709 905.72 258.92C890.468 281.506 865.001 295.051 837.747 295.072H771.107C753.005 295.053 736.461 305.31 728.428 321.532C727.928 322.512 727.448 323.541 727.046 324.58C725.692 327.811 724.706 331.184 724.106 334.635C723.652 337.289 723.426 339.978 723.43 342.671C723.42 355.305 728.435 367.424 737.369 376.357C746.304 385.29 758.424 390.302 771.058 390.289C771.93 390.289 772.793 390.289 773.655 390.348C781.069 390.63 788.371 392.254 795.205 395.14C796.93 395.865 798.606 396.665 800.233 397.541C802.351 398.674 804.402 399.927 806.378 401.294C823.027 412.825 832.954 431.796 832.935 452.049V494.189C832.905 513.211 845.364 529.997 863.58 535.476C871.362 537.79 878.983 540.612 886.394 543.924C891.891 546.381 897.247 549.142 902.437 552.195C909.497 556.35 916.171 561.129 922.38 566.473C930.809 573.681 938.153 582.068 944.185 591.375C949.744 600.004 954.074 609.365 957.052 619.188C958.28 623.198 959.294 627.271 960.09 631.389C960.326 632.604 960.551 633.839 960.767 635.093C961.149 637.416 961.482 639.797 961.747 642.218C962.375 647.709 962.692 653.232 962.697 658.76V658.76Z" fill="#F3F4FE"/>
<path d="M305.96 850.605V825.497C305.972 815.857 300.783 806.959 292.387 802.222C291.285 801.583 290.135 801.033 288.947 800.576C288.192 800.282 287.428 800.017 286.644 799.782C285.677 799.505 284.696 799.282 283.704 799.116C282.213 798.851 280.701 798.72 279.186 798.724H190.614C189.212 798.724 187.83 798.724 186.439 798.665C183.009 798.56 179.608 798.328 176.237 797.969C169.045 797.207 161.926 795.863 154.951 793.951C150.849 792.834 146.827 791.527 142.888 790.031L218.475 529.018H294.543C303.482 529.029 312.085 525.613 318.582 519.473L319.327 518.757C325.9 512.185 329.592 503.269 329.587 493.973C329.596 487.537 327.822 481.225 324.462 475.735C322.84 473.065 320.862 470.629 318.582 468.493C312.085 462.353 303.482 458.934 294.543 458.938H238.771L333.684 131.197H514.268L305.96 850.605Z" fill="#E7EAFC"/>
<path d="M826.34 131.197L778.899 295.062H771.176C753.074 295.043 736.53 305.3 728.497 321.522C727.997 322.502 727.517 323.531 727.116 324.57C725.762 327.801 724.775 331.174 724.176 334.625C723.721 337.28 723.495 339.968 723.499 342.661C723.501 361.716 734.857 378.938 752.37 386.447L596.364 925.369H415.779L645.766 131.197L826.34 131.197Z" fill="#E7EAFC"/>
<path d="M919.528 207.627H187.154V164.134H903.417C903.583 164.34 903.74 164.556 903.897 164.771C905.204 166.535 906.429 168.352 907.572 170.22C908.248 171.288 908.885 172.376 909.532 173.484C911.295 176.673 912.844 179.976 914.167 183.372C914.961 185.4 915.677 187.458 916.304 189.565C917.521 193.659 918.409 197.844 918.959 202.08C919.214 203.909 919.404 205.758 919.528 207.627Z" fill="#E3E7FB"/>
<path d="M918.882 224.796C918.568 227.099 918.137 229.373 917.627 231.607C917.059 234.048 916.383 236.507 915.609 238.81H186.146C186.568 236.428 186.856 234.023 187.008 231.607C187.106 230.137 187.155 228.667 187.155 227.158V224.796H918.882Z" fill="#E3E7FB"/>
<path d="M630.692 360.174H551.586L491.571 131.197H690.707L630.692 360.174Z" fill="#CBD2F7"/>
<rect x="538.494" y="348.913" width="105.301" height="18.032" rx="9.016" fill="#CBD2F7"/>
<rect x="556.124" y="370.219" width="70.021" height="10.045" rx="5.0225" fill="#CBD2F7"/>
<rect x="556.124" y="383.537" width="70.021" height="10.045" rx="5.0225" fill="#CBD2F7"/>
<rect x="556.124" y="396.865" width="70.021" height="10.045" rx="5.0225" fill="#CBD2F7"/>
<rect x="556.124" y="410.183" width="70.021" height="10.045" rx="5.0225" fill="#CBD2F7"/>
<rect x="556.124" y="423.501" width="70.021" height="10.045" rx="5.0225" fill="#CBD2F7"/>
<rect x="556.124" y="436.819" width="70.021" height="10.045" rx="5.0225" fill="#CBD2F7"/>
<rect x="556.124" y="450.147" width="70.021" height="10.045" rx="5.0225" fill="#CBD2F7"/>
<rect x="490.102" y="464.622" width="202.076" height="18.1006" rx="9.0503" fill="#CBD2F7"/>
<path d="M560.427 375.246L620.824 388.564" stroke="#CBD2F7" stroke-width="6" stroke-linecap="round"/>
<path d="M560.427 388.564L620.824 401.882" stroke="#CBD2F7" stroke-width="6" stroke-linecap="round"/>
<path d="M560.427 401.882L620.824 415.201" stroke="#CBD2F7" stroke-width="6" stroke-linecap="round"/>
<path d="M560.427 415.201L620.824 428.529" stroke="#CBD2F7" stroke-width="6" stroke-linecap="round"/>
<path d="M560.427 428.529L620.824 441.847" stroke="#CBD2F7" stroke-width="6" stroke-linecap="round"/>
<path d="M560.427 441.847L620.824 455.165" stroke="#CBD2F7" stroke-width="6" stroke-linecap="round"/>
<path d="M366.828 329.157H311.752V321.317H366.828C381.685 321.3 393.727 309.263 393.749 294.406V131.197H401.589V294.406C401.562 313.591 386.013 329.135 366.828 329.157V329.157Z" fill="#B2BEED"/>
<path d="M393.611 635.093H382.831V409.036C382.821 400.024 375.517 392.72 366.505 392.71H333.469C318.505 392.693 306.378 380.567 306.362 365.603V304.843C306.351 295.836 299.052 288.537 290.045 288.526H261.86C252.849 288.531 245.544 295.832 245.533 304.843V397.943C245.517 412.907 233.391 425.033 218.427 425.05H197.954C182.99 425.033 170.864 412.907 170.848 397.943V352.412C170.837 343.399 163.533 336.096 154.521 336.085H140.34C131.328 336.096 124.024 343.399 124.013 352.412V635.093H113.233V352.412C113.25 337.448 125.376 325.321 140.34 325.305H154.482C169.446 325.321 181.572 337.448 181.588 352.412V397.913C181.599 406.926 188.903 414.229 197.915 414.24H218.348C227.361 414.229 234.664 406.926 234.675 397.913V304.813C234.688 297.616 237.559 290.719 242.658 285.64C247.756 280.56 254.663 277.713 261.86 277.726H290.084C305.043 277.742 317.165 289.865 317.181 304.823V365.583C317.192 374.596 324.495 381.899 333.508 381.91H366.544C381.508 381.926 393.634 394.053 393.651 409.017L393.611 635.093Z" fill="#B2BEED"/>
<path d="M358.88 444.846H410.82C419.827 444.846 427.128 452.147 427.128 461.153V642.218H342.563V461.153C342.563 456.826 344.283 452.677 347.343 449.619C350.404 446.56 354.554 444.843 358.88 444.846V444.846Z" fill="#B2BEED"/>
<path d="M371.14 426.853H405.283C409.072 426.853 412.143 429.924 412.143 433.713V487.907H364.329V433.713C364.329 429.943 367.371 426.88 371.14 426.853V426.853Z" fill="#B2BEED"/>
<path d="M263.664 547.628H334.224C335.761 547.628 337.007 548.874 337.007 550.411V635.093H263.664V547.628H263.664Z" fill="#B2BEED"/>
<path d="M320.914 547.628V635.093H247.601V550.411C247.601 548.874 248.847 547.628 250.384 547.628H320.914Z" fill="#D9DFFF"/>
<path d="M320.914 547.628V635.093H247.601V615.062C279.696 615.062 305.715 589.043 305.715 556.948V547.628L320.914 547.628Z" fill="#CBD2F7"/>
<rect x="254.833" y="558.869" width="7.3696" height="37.142" rx="3.6848" fill="white"/>
<path d="M406.498 547.628H477.058C478.595 547.628 479.841 548.874 479.841 550.411V635.093H406.498V547.628H406.498Z" fill="#B2BEED"/>
<path d="M463.74 547.628V635.093H390.436V550.411C390.435 548.889 391.658 547.649 393.18 547.628H463.74Z" fill="#D9DFFF"/>
<path d="M463.74 547.628V635.093H390.436V615.062C422.527 615.056 448.54 589.039 448.54 556.948V547.628L463.74 547.628Z" fill="#CBD2F7"/>
<rect x="397.668" y="558.869" width="7.3696" height="37.142" rx="3.6848" fill="white"/>
<path d="M549.343 547.628H619.903C621.44 547.628 622.686 548.874 622.686 550.411V635.093H549.343V547.628Z" fill="#B2BEED"/>
<path d="M606.585 547.628V635.093H533.32V550.411C533.32 548.874 534.566 547.628 536.104 547.628H606.585Z" fill="#D9DFFF"/>
<path d="M606.585 547.628V635.093H533.32V615.062C565.416 615.062 591.434 589.043 591.434 556.948V547.628L606.585 547.628Z" fill="#CBD2F7"/>
<rect x="540.514" y="558.869" width="7.3696" height="37.142" rx="3.6848" fill="white"/>
<path d="M692.178 547.628H762.738C764.275 547.628 765.521 548.874 765.521 550.411V635.093H692.178V547.628Z" fill="#B2BEED"/>
<path d="M749.43 547.628V635.093H676.116V550.411C676.116 548.874 677.362 547.628 678.899 547.628H749.43Z" fill="#D9DFFF"/>
<path d="M749.43 547.628V635.093H676.116V615.062C708.212 615.062 734.23 589.043 734.23 556.948V547.628L749.43 547.628Z" fill="#CBD2F7"/>
<rect x="683.349" y="558.869" width="7.3696" height="37.142" rx="3.6848" fill="white"/>
<path d="M962.698 658.76V668.962C962.699 673.653 962.447 678.341 961.943 683.005C961.688 685.377 961.362 687.729 960.963 690.061C960.571 692.452 960.11 694.834 959.591 697.186H59.9804C59.3728 694.834 58.8436 692.452 58.3732 690.061C55.2753 674.284 54.9999 658.082 57.5598 642.208C57.942 639.807 58.383 637.435 58.9024 635.083H960.806C961.188 637.406 961.522 639.787 961.786 642.208C962.401 647.704 962.706 653.23 962.698 658.76V658.76Z" fill="#7F93C9"/>
<path d="M962.697 658.76V668.962C962.698 673.653 962.446 678.341 961.942 683.005C961.687 685.377 961.361 687.729 960.962 690.061H58.3234C55.2255 674.284 54.9501 658.082 57.51 642.208H961.785C962.401 647.704 962.705 653.23 962.697 658.76V658.76Z" fill="#CBD2F7"/>
<rect x="154.952" y="941.843" width="72.5788" height="17.2578" rx="8.6289" transform="rotate(-180 154.952 941.843)" fill="#D2D6FA"/>
<rect x="955.72" y="941.843" width="793.741" height="17.2578" rx="8.6289" transform="rotate(-180 955.72 941.843)" fill="#D2D6FA"/>
<path d="M703.536 866.804H751.84V906.455H703.536V866.804Z" fill="#D85E66"/>
<path d="M751.86 866.804V877.398C745.743 884.324 736.948 888.291 727.708 888.291C718.468 888.291 709.672 884.324 703.556 877.398V866.804H751.86Z" fill="#C44E5F"/>
<path d="M750.596 900.702L722.039 898.487C714.643 887.075 700.621 881.885 687.577 885.732C674.532 889.579 665.571 901.547 665.552 915.147H757.672V908.287C757.666 904.295 754.578 900.985 750.596 900.702V900.702Z" fill="#4160B2"/>
<path d="M699.43 884.63C683.785 886.266 671.902 899.456 671.902 915.187H665.552C665.541 906.486 669.224 898.19 675.685 892.362C682.146 886.535 690.777 883.724 699.43 884.63V884.63Z" fill="#4E75C2"/>
<path d="M763.365 919.685C763.37 922.071 761.597 924.088 759.23 924.389C759.026 924.421 758.819 924.437 758.612 924.438H667.022C666.766 924.436 666.511 924.42 666.257 924.389C662.604 923.983 659.841 920.896 659.841 917.22C659.841 913.545 662.604 910.457 666.257 910.052C666.639 910.022 667.022 910.022 667.404 910.052L670.932 910.238L680.977 910.777L685.651 911.032L695.687 911.571L700.361 911.825L710.406 912.364L715.081 912.609L725.116 913.148L729.8 913.403L739.836 913.942L744.51 914.197L754.555 914.736L758.867 914.961H759.23C760.31 915.105 761.31 915.613 762.062 916.402C762.905 917.287 763.372 918.463 763.365 919.685V919.685Z" fill="#254987"/>
<path d="M670.931 910.218V924.438H666.257V910.052C666.638 910.022 667.022 910.022 667.403 910.052L670.931 910.218Z" fill="#1F447A"/>
<path d="M685.651 911.012V924.438H680.967V910.757L685.651 911.012Z" fill="#1F447A"/>
<path d="M700.361 911.806V924.438H695.687V911.551L700.361 911.806Z" fill="#1F447A"/>
<path d="M715.081 912.59V924.438H710.406V912.335L715.081 912.59Z" fill="#1F447A"/>
<path d="M729.801 913.384V924.438H725.116V913.129L729.801 913.384Z" fill="#1F447A"/>
<path d="M744.511 914.178V924.438H739.836V913.923L744.511 914.178Z" fill="#1F447A"/>
<path d="M759.229 914.981V924.438H754.555V914.717L758.867 914.942L759.229 914.981Z" fill="#1F447A"/>
<path d="M759.916 566.875V850.389C759.915 860.64 755.021 870.274 746.744 876.32C745.335 877.365 743.837 878.283 742.266 879.064C737.753 881.375 732.753 882.574 727.683 882.563C709.891 882.563 695.466 868.142 695.461 850.35V566.875H759.916Z" fill="#254987"/>
<path d="M669.403 292.936C676.263 319.161 696.843 331.303 716.649 330.107L750.949 291.662C756.411 285.565 757.907 276.882 754.8 269.308C752.26 263.164 748.36 257.676 743.393 253.256C718.393 230.951 674.999 242.378 668.982 284.361C668.557 287.219 668.7 290.133 669.403 292.936Z" fill="#D85E66"/>
<path d="M678.781 259.684C688.295 247.016 703.872 240.424 719.589 242.416C735.306 244.408 748.747 254.677 754.8 269.318C757.911 276.882 756.431 285.557 750.988 291.662L745.98 297.14C751.416 291.036 752.892 282.365 749.782 274.806C744.228 261.402 732.436 251.587 718.246 248.559C704.056 245.531 689.285 249.676 678.742 259.645L678.781 259.684Z" fill="#ED858F"/>
<path d="M679.017 267.867C691.795 253.541 713.768 252.286 728.095 265.065C738.703 274.525 742.479 289.492 737.631 302.853C736.125 307.005 733.84 310.83 730.898 314.123L684.436 365.799C671.639 380.05 649.724 381.26 635.436 368.504C628.541 362.352 624.38 353.708 623.873 344.482C623.365 335.256 626.553 326.208 632.731 319.337L679.017 267.867Z" fill="#D85E66"/>
<path d="M724.931 389.429C734.624 400.898 733.183 418.054 721.714 427.746V427.746C710.244 437.439 693.089 435.998 683.396 424.529L629.914 361.241C620.221 349.772 621.662 332.616 633.132 322.924V322.924C644.601 313.231 661.757 314.672 671.449 326.141L724.931 389.429Z" fill="#D85E66"/>
<path d="M689.973 423.913L649.617 376.167L643.952 369.454L636.485 360.634C635.372 359.319 634.388 357.902 633.545 356.401C630.787 350.368 629.811 343.673 630.732 337.104C631.644 330.54 634.423 324.377 638.739 319.347C638.925 319.121 639.111 318.906 639.307 318.69L668.785 285.899L676.861 276.923C677.856 273.045 679.282 269.291 681.114 265.731C687.386 253.318 699.127 244.575 712.817 242.123C694.354 242.623 676.253 254.677 670.285 277.599L632.731 319.386C628.091 324.525 625.103 330.941 624.156 337.8C622.675 344.366 623.681 351.248 626.979 357.116C628.975 361.473 631.855 365.367 635.436 368.553C636.073 369.111 636.72 369.65 637.396 370.16L683.456 424.618C689.245 431.476 698.048 435.03 706.976 434.115C708.071 434.003 709.157 433.823 710.23 433.576C702.398 433.432 695.012 429.909 689.973 423.913V423.913Z" fill="#ED858F"/>
<path d="M693.324 647.402H710.7V703.752H693.324C689.747 703.752 686.847 700.852 686.847 697.274V653.86C686.857 650.29 689.755 647.402 693.324 647.402V647.402Z" fill="#254987"/>
<path d="M816.972 702.817L799.695 704.923L792.877 648.987L810.154 646.881C813.705 646.448 816.935 648.976 817.368 652.528L822.621 695.623C823.042 699.168 820.516 702.385 816.972 702.817V702.817Z" fill="#30529B"/>
<circle cx="722.342" cy="418.542" r="41.3266" fill="#EFDCDC"/>
<path d="M774.645 392.21H726.203L734.2 334.458H782.641L774.645 392.21Z" fill="#D85E66"/>
<path d="M772.342 392.2H718.854L725.91 372.179C726.347 370.935 727.531 370.11 728.85 370.13H775.841C776.842 370.12 777.787 370.597 778.372 371.41C778.957 372.224 779.109 373.271 778.781 374.217L772.342 392.2Z" fill="#FFEBEB"/>
<path d="M863.61 905.622H811.709L803.604 876.055L798.675 858.043H850.566L852.134 863.756L863.61 905.622Z" fill="#F0A284"/>
<path d="M709.921 275.463L730.545 278.487C738.267 279.619 743.61 286.796 742.477 294.519L740.402 308.675C739.241 316.596 731.879 322.075 723.959 320.914C712.767 319.273 705.024 308.87 706.664 297.678L709.919 275.473L709.921 275.463Z" fill="#54233A"/>
<path d="M709.465 299.159C708.273 307.238 711.998 315.253 718.942 319.553C710.338 315.929 705.275 306.945 706.633 297.708L709.896 275.502L730.525 278.52C732.592 278.825 734.566 279.581 736.307 280.735C735.357 280.376 734.371 280.117 733.367 279.961L712.738 276.942L709.465 299.159Z" fill="#662F49"/>
<path d="M752.722 373.345C771.312 373.796 788.473 383.422 798.549 399.051C808.624 414.68 810.308 434.284 803.045 451.402C791.756 477.94 786.503 506.654 786.503 535.496C786.508 553.558 771.882 568.21 753.82 568.237H740.874C715.668 568.237 695.235 547.804 695.235 522.599V429.44C695.242 414.322 701.346 399.845 712.166 389.287C722.986 378.728 737.608 372.981 752.722 373.345V373.345Z" fill="#FFEBEB"/>
<path d="M703.693 522.599V429.44C703.692 414.875 709.37 400.883 719.52 390.436C723.012 386.842 726.967 383.727 731.28 381.175L732.936 376.461L734.435 372.198C734.878 370.958 736.059 370.136 737.375 370.15H728.918C727.601 370.133 726.418 370.957 725.978 372.198L722.813 381.175C705.736 391.259 695.252 409.609 695.235 429.44V522.54C695.235 547.746 715.668 568.179 740.874 568.179H749.331C724.149 568.179 703.725 547.781 703.693 522.599V522.599Z" fill="white"/>
<path d="M784.876 500.196C791.609 483.095 790.756 461.672 777.585 440.857C776.015 438.345 773.983 436.154 771.597 434.399C759.945 425.834 748.077 422.11 737.023 422.11C719.726 422.11 704.408 431.233 694.971 445.267C688.841 454.434 685.421 465.144 685.102 476.166V478.254C685.051 489.991 688.504 501.477 695.02 511.241V522.599C695.02 547.8 715.447 568.232 740.649 568.237H753.545C762.231 568.24 770.561 564.792 776.704 558.651C782.846 552.51 786.297 544.181 786.297 535.496C786.297 533.359 786.326 531.226 786.385 529.096L775.076 523.589C777.457 518.287 780.721 510.721 784.876 500.196V500.196Z" fill="#30529B"/>
<path d="M852.134 863.756C849.139 873.54 841.253 881.049 831.336 883.563C821.418 886.077 810.907 883.231 803.614 876.055L798.714 858.043H850.654L852.134 863.756Z" fill="#D85E66"/>
<path d="M741.168 608.858C729.002 608.858 717.334 604.025 708.731 595.422C700.128 586.819 695.294 575.151 695.294 562.985V524.892H787.042V562.985C787.042 575.151 782.209 586.819 773.606 595.422C765.003 604.025 753.335 608.858 741.168 608.858V608.858Z" fill="#30529B"/>
<path d="M841.197 874.164C839.944 875.137 838.61 875.999 837.208 876.741C829.186 881.032 819.626 881.348 811.338 877.599C803.049 873.849 796.975 866.459 794.901 857.602L726.948 566.875L764.472 566.542H768.971L786.924 566.385L851.888 844.274C854.518 855.473 850.333 867.174 841.197 874.164V874.164Z" fill="#30529B"/>
<path d="M794.98 285.302L794.715 288.477L794.45 291.544L793.804 299.286L793.647 301.246L793.51 302.824L791.216 330.176V330.421L791.001 332.939C789.546 350.566 775.586 364.57 757.965 366.083C755.901 366.264 753.825 366.264 751.762 366.083L739.374 365.044C723.821 363.741 711.979 350.541 712.366 334.939C712.366 334.37 712.415 333.782 712.464 333.204L715.6 295.396L715.707 294.033L715.845 292.416L715.992 290.701C716.164 288.532 716.605 286.392 717.305 284.331C721.261 272.626 732.686 265.123 745 266.143L781.318 269.2C781.862 269.24 782.402 269.315 782.935 269.426C790.417 270.862 795.612 277.709 794.98 285.302V285.302Z" fill="#F0A284"/>
<path d="M794.98 285.302L794.715 288.477L794.45 291.544L794.058 296.297L793.804 299.286L793.647 301.246L793.51 302.824L791.216 330.176V330.421L791.001 332.939C790.842 334.94 790.515 336.923 790.021 338.868C789.962 339.123 789.893 339.378 789.815 339.633C785.775 354.24 773.075 364.794 757.975 366.093C755.911 366.274 753.835 366.274 751.771 366.093L739.384 365.054C723.831 363.751 711.989 350.551 712.375 334.948C712.375 334.38 712.424 333.792 712.473 333.214L715.6 295.396L715.707 294.033L715.845 292.416L715.992 290.701C716.164 288.532 716.605 286.392 717.305 284.331C720.699 274.311 729.649 267.21 740.178 266.182C741.788 266.03 743.409 266.03 745.019 266.182L781.338 269.239C781.881 269.279 782.422 269.354 782.955 269.465C790.413 270.908 795.593 277.73 794.98 285.302V285.302Z" fill="#F0A284"/>
<path d="M757.358 366.122C755.479 366.269 753.592 366.269 751.713 366.122L739.326 365.083C723.772 363.781 711.93 350.581 712.317 334.978C712.317 334.409 712.366 333.821 712.415 333.243L715.6 295.396L715.708 294.033L715.845 292.416L715.992 290.701C716.164 288.532 716.605 286.392 717.305 284.331C720.699 274.311 729.649 267.21 740.178 266.182C741.788 266.03 743.409 266.03 745.019 266.182H745.431C734.904 267.209 725.956 274.311 722.568 284.331C721.868 286.392 721.427 288.532 721.254 290.701L721.107 292.416L720.97 294.033L720.862 295.396L717.687 333.214C717.687 333.792 717.609 334.38 717.589 334.948C717.203 350.551 729.045 363.751 744.598 365.054L756.985 366.093L757.358 366.122Z" fill="#FCB798"/>
<path d="M702.781 557.007H714.483V644.227C714.483 647.474 711.85 650.107 708.603 650.107C705.355 650.107 702.723 647.474 702.723 644.227V557.007L702.781 557.007Z" fill="#30529B"/>
<circle cx="708.633" cy="646.157" r="9.9666" stroke="#30529B" stroke-width="6.89"/>
<path d="M725.4 466.21C725.4 466.21 724.067 379.127 784.131 377.294C784.131 377.294 783.769 378.647 785.964 381.783C785.964 381.783 747.538 373.551 748.91 459.203L725.4 466.21Z" fill="#30529B"/>
<path d="M784.092 377.294C754.094 378.206 739.414 400.373 732.22 422.374C716.903 423.893 703.526 432.576 694.98 445.296C688.851 454.463 685.431 465.173 685.112 476.196V478.283C685.064 490.01 688.513 501.484 695.02 511.241V522.599C695.004 537.129 701.921 550.796 713.64 559.388C703.5 550.733 697.668 538.066 697.685 524.735V513.387C691.165 503.625 687.705 492.139 687.748 480.4C687.748 479.704 687.748 478.999 687.748 478.313C688.072 467.291 691.492 456.582 697.617 447.413C705.515 435.653 717.52 427.372 731.358 424.971C732.514 424.775 733.69 424.599 734.866 424.491C735.131 423.697 735.396 422.923 735.67 422.139C742.942 401.51 757.073 381.381 784.562 379.558C784.178 378.869 784.014 378.079 784.092 377.294V377.294Z" fill="#617EC1"/>
<circle cx="789.522" cy="418.542" r="41.3266" fill="#FFEBEB"/>
<path d="M830.848 418.542C830.834 430.783 825.4 442.389 816.009 450.24C806.617 458.09 794.231 461.379 782.182 459.222C801.838 455.649 816.126 438.53 816.126 418.552C816.126 398.574 801.838 381.455 782.182 377.882C794.231 375.725 806.617 379.014 816.009 386.865C825.4 394.715 830.834 406.321 830.848 418.562V418.542Z" fill="#EFDCDC"/>
<circle cx="739.649" cy="432.164" r="5.9682" fill="#254987"/>
<circle cx="738.15" cy="430.244" r="4.5766" fill="#FFEBEB"/>
<path d="M698.117 456.459H743.745C744.773 456.458 745.75 456.907 746.419 457.687C747.087 458.467 747.382 459.5 747.224 460.516C745.23 473.498 734.06 483.082 720.926 483.082C707.792 483.082 696.623 473.498 694.628 460.516C694.474 459.499 694.771 458.466 695.441 457.686C696.111 456.907 697.088 456.458 698.117 456.459V456.459Z" fill="#254987"/>
<path d="M696.421 454.244H742.06C743.086 454.244 744.061 454.691 744.731 455.468C745.401 456.246 745.7 457.276 745.549 458.291C743.554 471.273 732.385 480.857 719.25 480.857C706.116 480.857 694.947 471.273 692.952 458.291C692.798 457.279 693.093 456.25 693.759 455.472C694.425 454.695 695.397 454.246 696.421 454.244V454.244Z" fill="#4160B2"/>
<path d="M777.478 281.9L797.69 286.996C805.258 288.904 809.846 296.585 807.938 304.153L804.44 318.027C803.503 321.757 801.121 324.961 797.82 326.934C794.519 328.907 790.569 329.488 786.84 328.548C775.871 325.782 769.221 314.649 771.987 303.68L777.473 281.919L777.478 281.9Z" fill="#54233A"/>
<circle cx="792.147" cy="318.69" r="13.6318" fill="#F0A284"/>
<path d="M798.9 318.533C798.75 320.301 797.787 321.898 796.293 322.855C797.791 321.267 798.247 318.96 797.466 316.921C796.684 314.882 794.804 313.471 792.628 313.29C791.384 313.176 790.138 313.483 789.09 314.163C790.752 312.417 793.332 311.907 795.533 312.889C797.733 313.87 799.078 316.131 798.89 318.533H798.9Z" fill="#D85E66"/>
<path d="M710.779 269.521C712.378 258.614 722.524 251.017 733.431 252.616L794.019 261.498C804.926 263.097 812.464 273.286 810.865 284.193V284.193C809.266 295.1 799.12 302.697 788.213 301.098L727.625 292.216C716.718 290.617 709.18 280.428 710.779 269.521V269.521Z" fill="#54233A"/>
<path d="M704.9 261.866C706.503 250.931 716.667 243.366 727.603 244.969L765.477 250.521C776.412 252.124 783.977 262.289 782.374 273.224V273.224C780.771 284.159 770.607 291.724 759.671 290.121L721.797 284.569C710.862 282.966 703.297 272.802 704.9 261.866V261.866Z" fill="#54233A"/>
<path d="M710.141 262.673C708.551 273.518 715.976 283.626 726.801 285.351L721.744 284.606C714.67 283.568 708.687 278.834 706.049 272.189C703.411 265.543 704.519 257.995 708.955 252.388C713.391 246.781 720.481 243.966 727.556 245.004L732.759 245.768C731.812 245.633 730.855 245.564 729.898 245.563C719.983 245.584 711.578 252.863 710.141 262.673V262.673Z" fill="#662F49"/>
<path d="M714.749 260.234C715.845 254.063 721.736 249.949 727.907 251.045L745.68 254.201C751.851 255.297 755.966 261.188 754.87 267.359V267.359C753.774 273.53 747.883 277.644 741.712 276.549L723.938 273.392C717.767 272.296 713.653 266.405 714.749 260.234V260.234Z" fill="#662F49"/>
<circle cx="729.643" cy="307.028" r="3.8808" fill="#54233A"/>
<circle cx="758.309" cy="309.018" r="3.8808" fill="#54233A"/>
<path d="M867.843 900.702L839.286 898.488C831.894 887.07 817.871 881.876 804.825 885.724C791.779 889.572 782.82 901.546 782.809 915.148H874.87V908.288C874.866 904.313 871.806 901.009 867.843 900.702V900.702Z" fill="#4160B2"/>
<path d="M816.687 884.63C801.038 886.261 789.15 899.452 789.149 915.187H782.809C782.797 906.486 786.481 898.19 792.942 892.362C799.403 886.535 808.034 883.724 816.687 884.63V884.63Z" fill="#4E75C2"/>
<path d="M880.612 919.685C880.622 922.069 878.852 924.087 876.486 924.389C876.279 924.42 876.069 924.437 875.859 924.438H784.278C784.023 924.437 783.767 924.42 783.514 924.389C779.85 923.998 777.07 920.909 777.065 917.225C777.065 913.537 779.846 910.442 783.514 910.051C783.895 910.022 784.279 910.022 784.66 910.051L788.179 910.238L798.224 910.777L802.898 911.031L812.933 911.57L817.618 911.825L827.653 912.364L832.328 912.609L842.373 913.148L847.047 913.403L857.082 913.942L861.757 914.197L871.802 914.736L876.114 914.961H876.486C878.845 915.275 880.609 917.285 880.612 919.665V919.685Z" fill="#254987"/>
<path d="M788.178 910.218V924.438H783.514V910.052C783.895 910.022 784.279 910.022 784.66 910.052L788.178 910.218Z" fill="#1F447A"/>
<path d="M802.898 911.012V924.438H798.224V910.757L802.898 911.012Z" fill="#1F447A"/>
<path d="M817.618 911.806V924.438H812.934V911.551L817.618 911.806Z" fill="#1F447A"/>
<path d="M832.328 912.59V924.438H827.653V912.335L832.328 912.59Z" fill="#1F447A"/>
<path d="M847.047 913.384V924.438H842.372V913.129L847.047 913.384Z" fill="#1F447A"/>
<path d="M861.757 914.178V924.438H857.082V913.923L861.757 914.178Z" fill="#1F447A"/>
<path d="M876.486 914.981V924.438H871.802V914.717L876.114 914.942L876.486 914.981Z" fill="#1F447A"/>
<ellipse cx="722.156" cy="536.035" rx="26.6952" ry="35.6622" fill="#4160B2"/>
<circle cx="448.286" cy="882.298" r="42.14" fill="#4160B2"/>
<path d="M448.285 915.785C447.039 915.931 445.786 916.003 444.532 916C432.05 915.987 420.598 909.077 414.768 898.042C408.937 887.006 409.683 873.651 416.706 863.334C423.73 853.016 435.88 847.424 448.285 848.802C431.235 850.717 418.346 865.136 418.346 882.293C418.346 899.45 431.235 913.869 448.285 915.785V915.785Z" fill="#96B8F1"/>
<path d="M449.295 844.735C450.54 844.577 451.793 844.499 453.048 844.5C471.668 844.5 486.751 861.424 486.751 882.298C486.751 903.172 471.659 920.087 453.048 920.087C451.793 920.088 450.54 920.009 449.295 919.852C466.141 917.764 479.244 901.741 479.244 882.298C479.244 862.855 466.141 846.822 449.295 844.735H449.295Z" fill="#254987"/>
<circle cx="448.285" cy="882.298" r="21.6482" fill="#254987"/>
<circle cx="448.285" cy="882.298" r="10.8976" fill="#96B8F1"/>
<circle cx="229.255" cy="882.298" r="42.14" fill="#4160B2"/>
<path d="M229.256 915.785C228.01 915.93 226.757 916.002 225.502 916C213.021 915.987 201.569 909.077 195.738 898.042C189.908 887.006 190.654 873.651 197.677 863.334C204.7 853.016 216.851 847.424 229.256 848.802C212.206 850.717 199.316 865.136 199.316 882.293C199.316 899.45 212.206 913.869 229.256 915.785V915.785Z" fill="#96B8F1"/>
<path d="M230.265 844.735C231.51 844.577 232.763 844.498 234.018 844.5C252.638 844.5 267.71 861.424 267.71 882.298C267.71 903.172 252.628 920.087 234.018 920.087C232.763 920.088 231.51 920.01 230.265 919.852C247.111 917.764 260.213 901.741 260.213 882.298C260.213 862.855 247.16 846.822 230.265 844.735H230.265Z" fill="#254987"/>
<circle cx="229.256" cy="882.298" r="21.6482" fill="#254987"/>
<circle cx="229.255" cy="882.298" r="10.8976" fill="#96B8F1"/>
<circle cx="518.091" cy="882.298" r="42.14" fill="#96B8F1"/>
<path d="M518.091 915.785C516.845 915.93 515.592 916.002 514.337 916C501.856 915.987 490.404 909.077 484.573 898.042C478.743 887.006 479.489 873.651 486.512 863.334C493.535 853.016 505.686 847.424 518.091 848.802C501.041 850.717 488.151 865.136 488.151 882.293C488.151 899.45 501.041 913.869 518.091 915.785V915.785Z" fill="white"/>
<path d="M519.101 844.735C520.345 844.577 521.599 844.498 522.854 844.5C541.474 844.5 556.546 861.424 556.546 882.298C556.546 903.172 541.464 920.087 522.854 920.087C521.599 920.088 520.345 920.01 519.101 919.852C535.947 917.764 549.049 901.741 549.049 882.298C549.049 862.855 535.947 846.822 519.101 844.735V844.735Z" fill="#4160B2"/>
<circle cx="518.091" cy="882.298" r="21.6482" fill="#4160B2"/>
<circle cx="518.091" cy="882.298" r="10.8976" fill="white"/>
<circle cx="299.051" cy="882.298" r="42.14" fill="#96B8F1"/>
<path d="M299.1 915.785C297.854 915.931 296.601 916.003 295.346 916C282.865 915.987 271.413 909.077 265.582 898.042C259.752 887.006 260.497 873.651 267.521 863.334C274.544 853.016 286.694 847.424 299.1 848.802C282.05 850.717 269.16 865.136 269.16 882.293C269.16 899.45 282.05 913.869 299.1 915.785V915.785Z" fill="white"/>
<path d="M300.08 844.735C301.325 844.577 302.579 844.499 303.833 844.5C322.453 844.5 337.536 861.424 337.536 882.298C337.536 903.172 322.444 920.087 303.833 920.087C302.579 920.088 301.325 920.009 300.08 919.852C316.926 917.764 330.029 901.741 330.029 882.298C330.029 862.855 316.907 846.822 300.08 844.735H300.08Z" fill="#4160B2"/>
<circle cx="299.051" cy="882.298" r="21.6482" fill="#4160B2"/>
<circle cx="299.051" cy="882.298" r="10.8976" fill="white"/>
<circle cx="611.103" cy="474.902" r="22.834" fill="#254987"/>
<path d="M555.624 873.292H137.723C134.749 873.305 131.892 872.135 129.781 870.039C127.671 867.943 126.48 865.094 126.473 862.12C126.574 856.136 131.454 851.339 137.439 851.34H533.692V473.207C533.697 468.717 537.336 465.078 541.826 465.073H608.78C611.754 465.06 614.611 466.23 616.722 468.326C618.832 470.422 620.022 473.271 620.03 476.245C619.929 482.225 615.054 487.02 609.074 487.025H555.624V873.292Z" fill="#4160B2"/>
<path d="M562.22 873.292H159.381C153.206 873.292 148.196 868.295 148.18 862.12C148.287 856.138 153.164 851.344 159.146 851.34H540.366C544.358 851.34 548.187 849.754 551.01 846.931C553.833 844.108 555.419 840.279 555.419 836.287V473.207C555.424 468.713 559.069 465.073 563.562 465.073H630.526C633.5 465.06 636.357 466.23 638.468 468.326C640.578 470.422 641.768 473.271 641.776 476.245C641.669 482.226 636.792 487.02 630.81 487.025H577.283V858.239C577.277 866.554 570.535 873.292 562.22 873.292Z" fill="#96B8F1"/>
<path d="M555.253 522.119V851.163H384.615V509.467H542.601C549.588 509.467 555.253 515.131 555.253 522.119Z" fill="#F5812D"/>
<path d="M524.5 509.467V851.163H353.823V522.119C353.823 515.131 359.488 509.467 366.475 509.467H524.5Z" fill="#FFB829"/>
<path d="M524.5 509.467V851.163H353.823V783.877C423.435 783.871 479.865 727.441 479.871 657.829V509.467L524.5 509.467Z" fill="#FF8F34"/>
<rect x="424.011" y="531.252" width="21.5306" height="164.65" rx="10.7653" fill="#FFE88A"/>
<path d="M224.669 632.182H401.598C405.452 632.182 408.576 635.306 408.576 639.16V851.585H224.669L224.669 632.182Z" fill="#F7AC28"/>
<path d="M368.278 632.182V851.585H184.381V639.16C184.381 635.306 187.505 632.182 191.358 632.182H368.278Z" fill="#FFE88A"/>
<path d="M368.278 632.182V851.585H184.381V801.33C264.892 801.33 330.16 736.066 330.166 655.555V632.182L368.278 632.182Z" fill="#FFC24A"/>
<rect x="202.521" y="660.357" width="18.473" height="93.1686" rx="9.2365" fill="white"/>
<circle cx="631.056" cy="474.902" r="22.834" fill="#4160B2"/>
<path d="M841.196 874.164C839.944 875.137 838.609 875.999 837.208 876.741L768.039 596.569C763.46 577.949 763.285 558.517 767.53 539.817L770.558 526.558L774.948 527.538L771.92 540.788C767.826 558.802 767.994 577.524 772.41 595.462L841.196 874.164Z" fill="white"/>
<path d="M848.126 866.569C841.822 876.534 830.155 881.742 818.528 879.781C806.902 877.82 797.588 869.073 794.902 857.592L748.842 660.612L799.292 843.49C801.7 853.725 808.641 862.305 818.147 866.797C827.654 871.29 838.689 871.206 848.126 866.569V866.569Z" fill="#4160B2"/>
<path d="M763.352 412.641C766.251 397.907 780.545 388.312 795.279 391.211V391.211C810.014 394.11 819.608 408.404 816.709 423.138L800.715 504.439C797.816 519.173 783.521 528.768 768.787 525.869V525.869C754.053 522.97 744.458 508.676 747.357 493.941L763.352 412.641Z" fill="#F0A284"/>
<path d="M814.757 406.724C807.33 400.811 797.357 399.198 788.446 402.47C779.534 405.741 772.974 413.423 771.137 422.737L755.133 504.077C754.033 509.625 754.698 515.379 757.035 520.531C749.115 514.213 745.368 504.014 747.313 494.071L763.316 412.731C765.6 401.131 775.118 392.337 786.862 390.977C798.605 389.617 809.882 396.002 814.757 406.773V406.724Z" fill="#FCB798"/>
<path d="M666.727 515.455C649.861 510.888 640.267 492.16 645.275 473.638C649.097 459.516 660.318 449.589 672.911 447.688C676.907 447.086 680.985 447.319 684.887 448.374L777.918 473.54C794.774 478.107 804.378 496.825 799.36 515.357C794.343 533.879 776.605 545.198 759.739 540.621L666.727 515.455Z" fill="#F0A284"/>
<path d="M672.931 447.688C671.465 447.907 670.017 448.235 668.6 448.668L684.838 448.334C680.957 447.296 676.902 447.076 672.931 447.688V447.688Z" fill="#D85E66"/>
<path d="M623.774 465.818C625.809 457.195 630.404 449.389 636.955 443.425C641.091 439.666 646.857 438.274 652.252 439.73L704.82 453.94C714.779 471.089 712.066 492.777 698.189 506.944C684.313 521.112 662.687 524.275 645.334 514.674C627.982 505.073 619.172 485.071 623.803 465.788L623.774 465.818Z" fill="#F0A284"/>
<path d="M684.906 448.364C683.784 448.06 682.645 447.821 681.496 447.648L652.252 439.73C650.919 439.372 649.546 439.181 648.166 439.162C644.026 439.123 640.023 440.645 636.955 443.425L636.876 443.513C636.161 444.169 635.465 444.846 634.789 445.551C634.583 445.767 634.397 445.992 634.201 446.208C633.711 446.737 633.221 447.266 632.77 447.825C632.535 448.109 632.309 448.393 632.084 448.687C631.682 449.187 631.29 449.667 630.908 450.226C630.663 450.559 630.438 450.902 630.202 451.206C629.859 451.706 629.536 452.186 629.222 452.735C628.987 453.107 628.762 453.479 628.536 453.862C628.311 454.244 627.968 454.891 627.694 455.41C627.419 455.929 627.262 456.214 627.057 456.635C626.851 457.056 626.567 457.703 626.331 458.242C626.096 458.781 625.949 459.085 625.783 459.516C625.479 460.261 625.204 461.035 624.95 461.809C624.509 463.103 624.107 464.426 623.783 465.778C620.786 478.469 623.559 491.836 631.358 502.287C639.156 512.738 651.18 519.203 664.199 519.943L662.68 519.6C640.119 513.03 626.634 489.965 631.976 467.082C631.976 467.023 631.976 466.954 631.976 466.896C634.478 457.054 644.049 450.724 654.085 452.274C657.182 452.735 659.553 453.107 659.553 453.107L674.449 455.606C675.609 455.657 676.765 455.782 677.909 455.978L708.054 461.035L769.882 471.413L684.906 448.364Z" fill="#FCB798"/>
<path d="M702.235 507.305C697.669 506.154 694.901 501.519 696.052 496.954V496.954C697.203 492.388 701.838 489.619 706.404 490.77L748.396 501.357C752.962 502.508 755.73 507.143 754.579 511.709V511.709C753.428 516.275 748.793 519.043 744.227 517.892L702.235 507.305Z" fill="#FCB798"/>
<path d="M735.043 321.356C734.966 323.586 735.781 325.755 737.307 327.383C737.493 327.579 737.679 327.765 737.885 327.951C739.349 329.243 741.216 329.984 743.167 330.048H743.51C747.879 330.186 751.628 326.96 752.144 322.62C752.144 322.385 752.144 322.159 752.193 321.924C752.211 321.491 752.056 321.068 751.762 320.748C751.468 320.431 751.057 320.248 750.625 320.239L736.729 319.768C736.295 319.755 735.873 319.915 735.557 320.213C735.241 320.51 735.056 320.922 735.043 321.356V321.356Z" fill="#962F4A"/>
<path d="M743.383 328.755C743.364 329.191 743.39 329.628 743.461 330.058H743.51C747.882 330.205 751.637 326.975 752.144 322.63C751.546 322.429 750.922 322.317 750.292 322.297C748.519 322.236 746.795 322.882 745.499 324.094C744.203 325.305 743.442 326.982 743.383 328.755V328.755Z" fill="#E1617F"/>
<path d="M737.042 319.788C737.042 321.444 739.541 322.845 742.667 322.953C745.793 323.061 748.381 321.826 748.547 320.18L737.042 319.788Z" fill="white"/>
<path d="M640.816 697.196H704.213V711.817H640.816V697.196Z" fill="#7F93C9"/>
<path d="M640.816 909.963H704.213V924.585H640.816V909.963Z" fill="#7F93C9"/>
<path d="M650.381 707.75H694.647V913.217H650.381V707.75Z" fill="#7F93C9"/>
<path d="M166.673 697.196H230.069V711.817H166.673V697.196Z" fill="#7F93C9"/>
<path d="M220.504 707.76V798.733H190.614C189.213 798.733 187.831 798.733 186.439 798.675C183.009 798.57 179.609 798.338 176.237 797.979V707.76H220.504Z" fill="#7F93C9"/>
</svg>
