<svg width="980" height="980" viewBox="0 0 980 980" fill="none" xmlns="http://www.w3.org/2000/svg">
<path d="M963.418 648.76V658.962C963.407 709.953 933.553 756.218 887.096 777.238C882.317 779.408 877.408 781.277 872.396 782.834C859.848 786.744 846.78 788.726 833.637 788.714H781.06C766.277 788.719 754.296 800.705 754.296 815.487V915.369H306.652V815.497C306.664 804.476 299.908 794.578 289.639 790.576C288.884 790.282 288.12 790.017 287.336 789.782C286.369 789.505 285.388 789.282 284.396 789.116C282.905 788.851 281.393 788.72 279.878 788.724H191.335C189.934 788.724 188.552 788.724 187.16 788.665C156.841 787.754 127.72 776.62 104.527 757.07C101.567 754.58 98.7219 751.967 95.991 749.23C57.377 710.679 45.8087 652.654 66.6868 602.243C87.5649 551.832 136.772 518.978 191.335 519.018H295.264C307.922 519.23 319.711 512.598 326.102 501.669C332.493 490.741 332.493 477.215 326.102 466.287C319.711 455.358 307.922 448.726 295.264 448.938H119.962C86.8189 448.943 56.9379 428.979 44.2567 398.358C31.5754 367.737 38.5921 332.492 62.034 309.063C62.3182 308.778 62.6024 308.494 62.8964 308.22C78.1601 293.338 98.6443 285.026 119.962 285.062C136.804 285.085 153.052 278.839 165.542 267.54C166.59 266.56 167.6 265.58 168.589 264.6C179.9 253.036 186.691 237.799 187.729 221.656C187.827 220.186 187.876 218.716 187.876 217.207V147.98C187.871 140.882 190.685 134.072 195.701 129.049C200.716 124.027 207.522 121.202 214.62 121.197H838.498C874.677 121.194 906.576 144.917 916.986 179.565C919.264 187.215 920.426 195.153 920.436 203.134C920.436 205.976 920.289 208.779 920.014 211.543C919.666 214.929 919.11 218.29 918.348 221.607C909.735 258.76 876.636 285.063 838.498 285.062H771.858C759.227 285.06 747.113 290.076 738.18 299.006C729.248 307.936 724.23 320.05 724.23 332.681C724.235 358.981 745.557 380.299 771.858 380.299C772.73 380.299 773.592 380.299 774.455 380.358C807.538 381.745 833.637 408.985 833.608 442.098V484.238C833.587 503.243 846.035 520.013 864.233 525.496C872.014 527.809 879.635 530.631 887.047 533.943C907.627 543.175 929.785 557.934 944.867 581.395C950.426 590.024 954.756 599.384 957.734 609.207C961.584 622.036 963.5 635.367 963.418 648.76V648.76Z" fill="#F3F4FE"/>
<rect x="155.673" y="932.627" width="72.5788" height="17.2578" rx="8.6289" transform="rotate(-180 155.673 932.627)" fill="#D2D6FA"/>
<rect x="956.441" y="932.627" width="793.741" height="17.2578" rx="8.6289" transform="rotate(-180 956.441 932.627)" fill="#D2D6FA"/>
<path d="M521.781 255.192V915.369H306.652V815.497C306.664 804.476 299.908 794.578 289.639 790.576C288.884 790.282 288.12 790.017 287.336 789.782C286.369 789.505 285.388 789.282 284.396 789.116C282.905 788.851 281.393 788.72 279.878 788.724H270.411V519.018H295.264C307.922 519.23 319.711 512.598 326.102 501.669C332.493 490.741 332.493 477.215 326.102 466.287C319.711 455.358 307.922 448.726 295.264 448.938H270.411V255.192C270.417 248.479 275.86 243.04 282.573 243.04H509.6C512.827 243.035 515.924 244.313 518.209 246.592C520.494 248.871 521.779 251.965 521.781 255.192V255.192Z" fill="#D2D6FA"/>
<path fill-rule="evenodd" clip-rule="evenodd" d="M284.396 448.977V269.637C284.423 266.847 286.692 264.6 289.482 264.6H502.74C505.525 264.605 507.785 266.853 507.807 269.637V915.369H306.652V913.899H504.876V272.577C504.879 271.229 504.345 269.935 503.393 268.981C502.441 268.027 501.148 267.491 499.8 267.491H292.422C289.613 267.491 287.336 269.768 287.336 272.577V448.977H284.396ZM284.396 789.116V519.018H287.336V789.782C286.369 789.505 285.388 789.282 284.396 789.116Z" fill="#B7BFED"/>
<path d="M328.731 308.22H464.255V319.294H328.731L328.731 308.22Z" fill="#B7BFED"/>
<path d="M328.731 343.294H464.255V354.368H328.731L328.731 343.294Z" fill="#B7BFED"/>
<path d="M328.731 378.378H464.255V389.452H328.731L328.731 378.378Z" fill="#B7BFED"/>
<path d="M322.185 564.676V634.717H311.111V564.676H322.185Z" fill="#B7BFED"/>
<path d="M245.069 519.018V788.724H191.335C189.934 788.724 188.552 788.724 187.16 788.665C156.841 787.754 127.72 776.62 104.527 757.07C101.567 754.58 98.7219 751.967 95.991 749.23C57.377 710.679 45.8087 652.654 66.6868 602.243C87.565 551.832 136.772 518.978 191.335 519.018H245.069Z" fill="#D2D6FA"/>
<path d="M245.069 255.192V448.938H119.962C86.8189 448.943 56.9379 428.979 44.2567 398.358C31.5754 367.737 38.5921 332.492 62.034 309.063C62.3182 308.778 62.6024 308.494 62.8964 308.22C78.1601 293.338 98.6443 285.026 119.962 285.062C136.804 285.085 153.052 278.839 165.542 267.54C166.59 266.56 167.6 265.58 168.589 264.6C174.651 258.386 179.465 251.067 182.77 243.04H232.917C239.626 243.045 245.063 248.483 245.069 255.192V255.192Z" fill="#D2D6FA"/>
<path fill-rule="evenodd" clip-rule="evenodd" d="M165.512 267.54C166.6 266.56 167.58 265.58 168.56 264.6H225.978C227.326 264.6 228.619 265.136 229.571 266.09C230.524 267.044 231.057 268.338 231.055 269.686V449.026H228.115V272.626C228.117 271.278 227.584 269.984 226.631 269.03C225.679 268.076 224.386 267.54 223.038 267.54H165.512ZM228.144 788.724V519.018H231.084V788.724H228.144Z" fill="#B7BFED"/>
<path d="M187.533 308.22V319.294H53.3512C55.9598 315.651 58.8638 312.229 62.034 309.063C62.3182 308.778 62.6024 308.494 62.8964 308.22H187.533Z" fill="#B7BFED"/>
<path d="M52.0086 343.294H187.533V354.368H52.0086L52.0086 343.294Z" fill="#B7BFED"/>
<path d="M52.0086 378.378H187.533V389.452H52.0086L52.0086 378.378Z" fill="#B7BFED"/>
<path d="M920.014 211.543C919.666 214.929 919.11 218.29 918.348 221.607H187.729C187.827 220.137 187.876 218.667 187.876 217.158V211.543L920.014 211.543Z" fill="#B7BFED"/>
<path d="M919.681 192.08H187.876V163.484H910.214C913.036 168.588 915.307 173.979 916.986 179.565C918.217 183.658 919.118 187.843 919.681 192.08V192.08Z" fill="#B7BFED"/>
<path d="M487.001 447.929H500.241V526.642H487.001V447.929Z" fill="#604970"/>
<circle cx="493.626" cy="523.585" r="12.936" fill="#836B96"/>
<path d="M372.905 829.189L402.583 795.347L443.807 831.5L414.129 865.341L372.905 829.189Z" fill="#F29495"/>
<path d="M385.125 815.259L402.578 795.357L443.802 831.51L426.349 851.411L385.125 815.259Z" fill="#E5888C"/>
<path d="M378.28 825.209L404.309 844.682C419.172 840.468 435.036 846.539 443.287 859.6C451.538 872.661 450.209 889.595 440.02 901.208L387.6 855.236L361.434 832.314L366.589 826.434C369.565 823.031 374.662 822.496 378.28 825.209V825.209Z" fill="#604970"/>
<path d="M433.954 849.787C446.091 862.884 446.362 883.037 434.581 896.455L440.02 901.208C452.711 886.731 451.268 864.709 436.796 852.012C435.889 851.22 434.94 850.477 433.954 849.787H433.954Z" fill="#836B96"/>
<path d="M353.163 831.853C351.372 833.883 351.372 836.928 353.163 838.958C353.313 839.137 353.477 839.304 353.653 839.458L431.817 907.999C432.033 908.195 432.262 908.375 432.503 908.538C435.925 910.939 440.606 910.376 443.36 907.232C446.114 904.088 446.055 899.373 443.225 896.298C442.919 895.981 442.592 895.686 442.245 895.416L439.099 892.947L430.122 885.891L425.947 882.608L416.98 875.561L412.796 872.269L403.829 865.213L399.654 861.939L390.677 854.883L386.522 851.62L377.565 844.574L373.38 841.261L364.403 834.205L360.552 831.177C360.444 831.089 360.326 831.011 360.209 830.932C357.963 829.424 354.946 829.818 353.163 831.853V831.853Z" fill="#3C1C39"/>
<path d="M439.128 892.947L428.485 905.079L432.474 908.578L443.254 896.298C442.949 895.981 442.621 895.687 442.274 895.416L439.128 892.947Z" fill="#604970"/>
<path d="M425.977 882.608L415.932 894.064L419.92 897.562L430.151 885.891L425.977 882.608Z" fill="#604970"/>
<path d="M412.825 872.269L403.368 883.049L407.366 886.557L417.01 875.561L412.825 872.269Z" fill="#604970"/>
<path d="M399.683 861.939L390.814 872.043L394.803 875.532L403.858 865.213L399.683 861.939Z" fill="#604970"/>
<path d="M386.522 851.591L378.26 861.028L382.249 864.527L390.706 854.883L386.522 851.591Z" fill="#604970"/>
<path d="M373.38 841.261L365.697 850.013L369.695 853.511L377.555 844.544L373.38 841.261Z" fill="#604970"/>
<path d="M360.209 830.932L353.143 838.998L357.132 842.496L364.403 834.206L360.552 831.177C360.444 831.089 360.326 831.04 360.209 830.932Z" fill="#604970"/>
<path d="M607.773 602.098C622.508 615.02 623.977 637.441 611.055 652.175L442.582 844.282C441.187 845.873 438.766 846.032 437.175 844.636L389.57 802.888C387.979 801.493 387.82 799.072 389.216 797.481L557.689 605.374C563.895 598.297 572.659 593.976 582.052 593.361C591.445 592.747 600.698 595.89 607.773 602.098V602.098Z" fill="#3C1C39"/>
<path d="M585.247 411.952L655.307 423.35L620.611 636.626C617.464 655.97 599.232 669.1 579.888 665.954C570.597 664.445 562.285 659.306 556.783 651.668C551.281 644.031 549.039 634.52 550.551 625.229L585.247 411.952L585.247 411.952Z" fill="#3C1C39"/>
<path d="M594.782 413.56L564.901 597.173L563.02 608.737C562.241 613.463 560.153 617.877 556.993 621.477L549.829 629.65L394.303 807.03L389.579 802.885C387.994 801.489 387.836 799.074 389.227 797.485L552.887 610.854L585.227 411.914L594.782 413.56Z" fill="#EFCBD1"/>
<path d="M461.002 364.276H506.562V445.224H461.002C447.303 445.224 436.198 434.119 436.198 420.42V389.06C436.209 375.369 447.311 364.276 461.002 364.276V364.276Z" fill="#836B96"/>
<path d="M468.058 445.234H461.002C454.422 445.234 448.111 442.619 443.459 437.965C438.808 433.311 436.195 427 436.198 420.42V389.06C436.198 375.36 447.301 364.252 461.002 364.246H468.058C454.357 364.252 443.254 375.36 443.254 389.06V420.42C443.251 427 445.864 433.311 450.515 437.965C455.167 442.619 461.478 445.234 468.058 445.234V445.234Z" fill="#C8B3DD"/>
<path d="M507.705 255.54L521.573 258.638L503.929 337.639L459.464 327.709C453.044 326.275 447.456 322.349 443.93 316.795C440.404 311.242 439.229 304.515 440.663 298.095C447.427 267.832 477.441 248.781 507.705 255.54V255.54Z" fill="#836B96"/>
<path d="M449.585 299.704C449.184 301.485 448.983 303.306 448.987 305.133C449.018 316.724 457.07 326.749 468.381 329.28L504.024 337.228L503.945 337.581L459.483 327.643C448.161 325.109 440.106 315.069 440.089 303.467C440.09 301.641 440.291 299.82 440.686 298.038C443.931 283.502 452.818 270.852 465.391 262.869C477.964 254.887 493.194 252.228 507.728 255.476L510.453 256.084C482.014 252.994 455.799 271.78 449.585 299.704V299.704Z" fill="#C8B3DD"/>
<path d="M552.661 227.546H574.946C589.614 227.546 601.504 239.437 601.504 254.104V439.226C601.504 453.894 589.614 465.784 574.946 465.784H477.77C463.102 465.784 451.212 453.894 451.212 439.226V328.996C451.212 272.967 496.632 227.546 552.661 227.546V227.546Z" fill="#604970"/>
<path d="M563.676 227.546H576.485C583.123 227.546 589.489 230.183 594.183 234.877C598.877 239.571 601.514 245.937 601.514 252.575V440.735C601.514 454.559 590.308 465.765 576.485 465.765H493.107C479.283 465.765 468.077 454.559 468.077 440.735V323.135C468.077 297.782 478.15 273.467 496.078 255.54C514.007 237.613 538.323 227.544 563.676 227.546V227.546Z" fill="#503B60"/>
<path d="M372.341 819.829L362.659 830.873L408.836 871.367L424.722 853.247L383.288 816.908C380.671 814.615 375.771 815.919 372.341 819.829Z" fill="#604970"/>
<path d="M533.991 430.92L603.677 417.425L644.758 629.554C646.547 638.794 644.592 648.366 639.324 656.165C634.056 663.964 625.905 669.35 616.666 671.14C597.425 674.866 578.807 662.289 575.08 643.048L534 430.919L533.991 430.92Z" fill="#915E8C"/>
<path d="M796.452 330.342C796.037 319.728 804.304 310.788 814.918 310.372L835.267 309.576C845.881 309.161 854.821 317.429 855.236 328.043V328.043C855.652 338.656 847.384 347.597 836.77 348.012L816.421 348.808C805.808 349.223 796.867 340.956 796.452 330.342V330.342Z" fill="#F29495"/>
<path d="M773.964 300.4C766.763 296.06 764.444 286.703 768.785 279.502L783.436 255.196C787.777 247.995 797.133 245.676 804.334 250.016V250.016C811.535 254.357 813.854 263.713 809.514 270.914L794.863 295.221C790.522 302.422 781.166 304.741 773.964 300.4V300.4Z" fill="#F29495"/>
<path d="M787.171 301.381C786.59 286.53 798.158 274.02 813.009 273.439L834.279 272.607C849.13 272.026 861.64 283.595 862.221 298.446V298.446C862.802 313.297 851.233 325.807 836.382 326.388L815.113 327.22C800.262 327.801 787.752 316.232 787.171 301.381V301.381Z" fill="#F29495"/>
<path d="M613.938 294.671C602.011 281.438 603.069 261.042 616.302 249.115V249.115C629.534 237.187 649.931 238.246 661.858 251.478L713.482 308.752C725.41 321.985 724.352 342.382 711.119 354.309V354.309C697.886 366.236 677.49 365.178 665.562 351.945L613.938 294.671Z" fill="#F29495"/>
<path d="M708.545 370.252C686.86 374.912 665.503 361.111 660.842 339.427V339.427C656.181 317.742 669.982 296.385 691.667 291.724L788.648 270.88C810.333 266.219 831.69 280.02 836.35 301.705V301.705C841.011 323.39 827.21 344.747 805.526 349.407L708.545 370.252Z" fill="#F29495"/>
<path d="M855.266 328.741C855.263 339.065 847.108 347.544 836.793 347.949L816.438 348.753C814.427 348.826 812.416 348.585 810.48 348.037C808.878 348.607 807.241 349.072 805.58 349.429L708.56 370.254C692.269 373.761 675.504 366.848 666.42 352.878C666.096 352.565 665.792 352.241 665.498 351.898L613.882 294.627C606.477 286.431 603.788 275.013 606.757 264.375C608.092 269.253 610.552 273.751 613.941 277.507L660.001 328.614L665.567 334.768C665.871 335.101 666.184 335.444 666.547 335.748C675.64 349.707 692.403 356.607 708.687 353.094L713.283 352.114L797.014 334.18L805.638 332.328C807.301 331.974 808.938 331.509 810.538 330.936C812.472 331.498 814.485 331.74 816.497 331.652L831.442 331.064L836.851 330.858C843.851 330.595 850.152 326.543 853.296 320.284C854.483 322.699 855.15 325.336 855.256 328.026C855.266 328.231 855.266 328.496 855.266 328.741V328.741Z" fill="#E58389"/>
<circle cx="641.998" cy="272.979" r="41.5912" fill="#FFB41F"/>
<path d="M573.545 181.241H615.695V230.408H573.545V181.241Z" fill="#F5B5A9"/>
<path d="M594.625 495.557C562.28 495.557 536.06 469.336 536.06 436.992V416.01H653.18V437.002C653.174 469.338 626.962 495.551 594.625 495.557Z" fill="#915E8C"/>
<path d="M624.733 854.099L678.564 843.674L687.122 887.864L633.291 898.289L624.733 854.099Z" fill="#F29495"/>
<path d="M625.299 891.516L628.65 908.813L688.94 897.131L684.138 872.298L631.385 882.509C627.219 883.319 624.496 887.349 625.299 891.516V891.516Z" fill="#604970"/>
<path d="M624.738 854.098L678.569 843.673L683.602 869.66L629.771 880.085L624.738 854.098Z" fill="#E5888C"/>
<path d="M633.472 891.575L664.832 882.941C670.611 868.614 685.13 859.8 700.506 861.283C715.883 862.766 728.45 874.193 731.384 889.36L662.901 902.58L628.758 909.195L627.278 901.6C626.387 897.15 629.093 892.769 633.472 891.575V891.575Z" fill="#604970"/>
<path d="M686.98 862.625C704.754 861.081 720.826 873.206 724.22 890.722L731.296 889.36C729.541 880.281 724.249 872.271 716.586 867.095C708.923 861.919 699.517 860.001 690.439 861.763C689.271 861.984 688.116 862.272 686.98 862.625H686.98Z" fill="#836B96"/>
<path d="M623.329 915.477C623.842 918.136 626.251 920 628.954 919.828C629.188 919.826 629.421 919.8 629.65 919.75L731.707 899.983C731.992 899.927 732.273 899.855 732.55 899.767C736.54 898.535 738.962 894.496 738.17 890.396C737.378 886.296 733.625 883.45 729.463 883.793C729.027 883.832 728.594 883.904 728.169 884.009L724.249 884.989L713.175 887.762L708.021 889.056L696.996 891.8L691.88 893.103L680.806 895.867L675.661 897.161L664.587 899.924L659.422 901.218L648.358 903.981L643.203 905.275L632.1 908.039L627.347 909.224L626.945 909.352C624.383 910.207 622.847 912.823 623.349 915.477H623.329Z" fill="#3C1C39"/>
<path d="M724.289 884.94L727.356 900.787L732.56 899.807L729.463 883.784C729.027 883.822 728.594 883.894 728.169 883.999L724.289 884.94Z" fill="#604970"/>
<path d="M708.06 889.046L710.951 904.001L716.164 902.992L713.215 887.753L708.06 889.046Z" fill="#604970"/>
<path d="M691.831 893.103L694.555 907.176L699.769 906.167L696.996 891.81L691.831 893.103Z" fill="#604970"/>
<path d="M675.612 897.161L678.16 910.351L683.374 909.342L680.757 895.867L675.612 897.161Z" fill="#604970"/>
<path d="M659.373 901.218L661.765 913.526L666.978 912.517L664.538 899.924L659.373 901.218Z" fill="#604970"/>
<path d="M643.154 905.275L645.369 916.702L650.583 915.692L648.309 903.981L643.154 905.275Z" fill="#604970"/>
<path d="M626.926 909.352L628.964 919.887L634.178 918.907L632.08 908.127L627.327 909.313L626.926 909.352Z" fill="#604970"/>
<path d="M602.207 596.443C621.448 592.717 640.066 605.294 643.793 624.534L687.932 852.462C688.334 854.54 686.976 856.55 684.899 856.952L622.736 868.99C620.658 869.393 618.648 868.035 618.245 865.957L574.108 638.039C572.318 628.8 574.273 619.227 579.541 611.429C584.809 603.63 592.96 598.243 602.2 596.454L602.207 596.443Z" fill="#915E8C"/>
<path d="M653.18 416.02H536.06V312.532H653.18V416.02Z" fill="#FFD41D"/>
<path d="M532.471 423.068L541.765 421.268L628.261 867.915L622.719 868.988C620.641 869.391 618.631 868.033 618.228 865.955L532.461 423.07L532.471 423.068Z" fill="#F4DBDE"/>
<path d="M504.092 290.942C504.094 306.436 509.829 321.38 520.194 332.896C530.18 343.764 543.9 350.487 559.08 350.487H622.878C653.366 350.487 679.12 323.243 678.875 289.953C678.874 274.459 673.139 259.515 662.774 247.999C652.817 237.131 639.068 230.408 623.888 230.408H560.09C529.602 230.408 503.847 257.652 504.092 290.942Z" fill="#FFD41D"/>
<path d="M573.545 181.241V195.941C581.687 206.37 593.062 213.799 605.885 217.06C609.099 217.886 612.377 218.433 615.685 218.697V181.241H573.545Z" fill="#F29495"/>
<path d="M599.593 351.016H619.909C651.816 350.962 678.107 325.958 679.761 294.093C681.414 262.228 657.853 234.637 626.122 231.28C624.417 231.104 622.702 231.006 620.957 230.976H599.593C606.894 230.969 614.135 232.298 620.957 234.896C622.721 235.572 624.436 236.307 626.122 237.14C651.17 249.471 664.414 277.439 658.082 304.63C651.75 331.821 627.512 351.06 599.593 351.056V351.016Z" fill="#F9E27D"/>
<path d="M563.118 227.713V246.96H626.122V227.713C626.123 221.922 621.494 217.193 615.705 217.07H573.565C567.763 217.177 563.117 221.911 563.118 227.713V227.713Z" fill="#FFD41D"/>
<path d="M610.54 217.07C616.33 217.193 620.959 221.922 620.957 227.713V234.857C622.721 235.533 624.436 236.268 626.122 237.101V227.713C626.123 221.922 621.494 217.193 615.705 217.07L610.54 217.07Z" fill="#F9E27D"/>
<path d="M615.871 208.74C582.927 210.658 554.66 185.519 552.72 152.576L551.191 126.489C550.807 120.176 552.283 113.89 555.435 108.408V108.349C560.903 98.8574 570.783 92.7571 581.718 92.12L608.433 90.5618L614.901 90.1796C622.827 89.7056 630.617 92.4029 636.552 97.677C642.488 102.951 646.083 110.369 646.545 118.296L646.947 125.156L647.084 127.459L647.457 133.711L647.711 137.964L649.671 170.775C650.82 190.592 635.688 207.588 615.871 208.74V208.74Z" fill="#F5B5A9"/>
<path d="M647.711 137.915C646.808 137.877 645.909 137.786 645.016 137.641L575.26 126.42C565.631 124.878 557.834 117.773 555.405 108.329C560.884 98.8369 570.776 92.7433 581.718 92.12L608.433 90.5618L614.901 90.1796C622.827 89.7056 630.617 92.4029 636.552 97.677C642.488 102.951 646.083 110.369 646.545 118.296L646.947 125.156L647.084 127.459L647.457 133.711L647.711 137.915Z" fill="#F29495"/>
<circle cx="600.397" cy="153.595" r="4.1356" fill="#3C1C39"/>
<circle cx="629.64" cy="153.595" r="4.1356" fill="#3C1C39"/>
<path d="M626.563 170.52C626.321 173.768 624.802 176.787 622.339 178.919C622.035 179.173 621.722 179.418 621.359 179.644C619.039 181.296 616.213 182.084 613.372 181.868H612.872C610.279 181.687 607.812 180.677 605.836 178.987C603.112 176.681 601.528 173.304 601.495 169.736C601.495 169.393 601.495 169.05 601.495 168.756C601.599 167.448 602.734 166.466 604.043 166.551L624.289 168.05C625.595 168.114 626.607 169.214 626.563 170.52V170.52Z" fill="#962F4A"/>
<path d="M613.294 180.006C613.247 180.639 613.139 181.266 612.97 181.878H612.912C606.538 181.414 601.588 176.136 601.534 169.746C602.434 169.547 603.358 169.481 604.278 169.55C609.645 169.967 613.671 174.636 613.294 180.006V180.006Z" fill="#E1617F"/>
<path d="M623.907 167.982C623.633 170.373 619.791 172.029 615.234 171.686C610.677 171.343 607.12 169.158 607.198 166.786L623.907 167.982Z" fill="white"/>
<circle cx="541.842" cy="272.979" r="41.5912" fill="#FFB41F"/>
<rect x="541.842" y="77.665" width="119.697" height="49.0784" rx="24.5392" fill="#50274C"/>
<rect x="548.173" y="65.5522" width="100.244" height="49.0784" rx="24.5392" fill="#50274C"/>
<path d="M661.5 102.204C661.468 115.722 650.518 126.672 637 126.704H623.162C634.952 126.72 645.081 118.336 647.269 106.751C649.457 95.1659 643.083 83.6654 632.1 79.3801C631.816 78.8117 631.512 78.2335 631.179 77.6847C626.788 70.177 618.747 65.5595 610.05 65.5523H623.878C633.278 65.5461 641.853 70.9187 645.947 79.3801C655.335 83.0626 661.507 92.1206 661.5 102.204V102.204Z" fill="#684568"/>
<path d="M545.605 120.54H566.185V143.472C566.185 154.026 557.629 162.582 547.075 162.582H545.595V120.54H545.605Z" fill="#50274C"/>
<circle cx="557.179" cy="109.917" r="26.5972" fill="#50274C"/>
<path d="M545.605 128.184C547.828 130.542 550.461 132.474 553.377 133.888V161.484C551.357 162.188 549.233 162.545 547.095 162.543H545.605V133.878C533.784 128.156 527.906 114.664 531.765 102.111C535.624 89.5575 548.066 81.6975 561.06 83.6038C551.248 85.0496 543.056 91.8344 539.807 101.205C536.559 110.576 538.794 120.975 545.605 128.184V128.184Z" fill="#3F1B3D"/>
<circle cx="557.042" cy="157.506" r="15.1998" fill="#F5B5A9"/>
<path d="M552.455 155.82C552.105 158.439 553.361 161.012 555.64 162.347C556.186 162.644 556.842 162.651 557.394 162.366C557.946 162.082 558.32 161.542 558.394 160.926L559.521 152.459C559.576 151.82 559.315 151.196 558.823 150.785C558.331 150.375 557.67 150.232 557.052 150.401C554.593 151.155 552.798 153.271 552.455 155.82V155.82Z" fill="#F29495"/>
<rect x="557.179" y="94.3838" width="68.1492" height="20.2468" rx="9.9" fill="#684568"/>
<path d="M541.842 228.115C541.842 228.115 624.838 232.348 568.449 353.123L583.433 361.081C583.433 361.081 650.945 245.441 561.648 228.115L541.842 228.115Z" fill="#604970"/>
<path d="M602.093 401.526C607.362 392.303 619.11 389.098 628.333 394.367L646.015 404.469C655.238 409.738 658.443 421.486 653.174 430.709V430.709C647.905 439.932 636.157 443.137 626.934 437.868L609.252 427.765C600.029 422.496 596.824 410.748 602.093 401.526V401.526Z" fill="#F5B5A9"/>
<path d="M586.247 385.182C585.628 376.796 591.924 369.497 600.309 368.878L628.613 366.79C636.998 366.171 644.298 372.467 644.916 380.853V380.853C645.535 389.238 639.239 396.537 630.854 397.156L602.55 399.245C594.165 399.863 586.865 393.567 586.247 385.182V385.182Z" fill="#F5B5A9"/>
<path d="M597.257 401.742C606.377 390.006 623.283 387.886 635.019 397.005L651.827 410.066C663.562 419.185 665.683 436.092 656.564 447.828V447.828C647.444 459.563 630.538 461.684 618.802 452.565L601.994 439.504C590.259 430.384 588.138 413.478 597.257 401.742V401.742Z" fill="#F5B5A9"/>
<path d="M504.886 268.637C509.566 251.448 527.294 241.307 544.484 245.987V245.987C561.673 250.667 571.814 268.395 567.134 285.584L550.398 347.057C545.718 364.246 527.989 374.387 510.8 369.707V369.707C493.611 365.027 483.47 347.299 488.15 330.109L504.886 268.637Z" fill="#F5B5A9"/>
<path d="M585.711 429.867C592.229 421.479 604.311 419.964 612.699 426.481L628.779 438.977C637.166 445.494 638.682 457.577 632.164 465.964V465.964C625.647 474.351 613.564 475.867 605.177 469.35L589.097 456.854C580.709 450.337 579.194 438.254 585.711 429.867V429.867Z" fill="#F5B5A9"/>
<path d="M504.887 268.644C509.567 251.454 527.296 241.314 544.485 245.993V245.993C561.674 250.673 571.815 268.402 567.135 285.591L547.788 356.651C543.109 373.841 525.38 383.981 508.191 379.302V379.302C491.002 374.622 480.861 356.893 485.541 339.704L504.887 268.644Z" fill="#F5B5A9"/>
<path d="M544.478 245.987C562.276 250.833 572.776 269.188 567.93 286.986L555.025 334.388L490.583 316.843L503.489 269.441C505.816 260.895 511.442 253.622 519.131 249.224C526.82 244.826 535.941 243.663 544.488 245.99L544.478 245.987Z" fill="#FFD41D"/>
<path d="M634.628 433.738C624.882 452.079 602.763 459.968 583.61 451.937C583.247 451.77 582.875 451.623 582.512 451.447C582.149 451.27 581.904 451.172 581.61 451.016C581.316 450.859 580.748 450.594 580.327 450.379L492.724 403.858C488.082 401.403 483.969 398.056 480.621 394.009C480.298 393.617 479.975 393.215 479.641 392.813C479.024 392.01 478.436 391.177 477.887 390.324C477.603 389.913 477.338 389.481 477.084 389.04C476.554 388.178 476.104 387.296 475.623 386.385C474.725 384.588 473.962 382.728 473.34 380.818C473.017 379.838 472.752 378.858 472.507 377.878C472.262 376.898 472.066 375.918 471.899 374.938C471.821 374.438 471.752 373.958 471.684 373.439C471.556 372.459 471.468 371.479 471.409 370.43C471.027 363.165 472.636 355.934 476.064 349.517C476.456 348.782 476.868 348.067 477.289 347.371C488.348 329.246 511.627 322.897 530.356 332.896L617.968 379.407C627.383 384.402 634.428 392.932 637.552 403.122C640.677 413.311 639.625 424.324 634.628 433.738V433.738Z" fill="#F5B5A9"/>
<ellipse cx="602.565" cy="425.109" rx="14.2835" ry="19.458" transform="rotate(-72.4744 602.565 425.109)" fill="#F8CDC5"/>
</svg>
