<svg width="980" height="980" viewBox="0 0 980 980" fill="none" xmlns="http://www.w3.org/2000/svg">
<path d="M952.697 615.509V625.71C952.706 635.27 951.658 644.801 949.571 654.13C948.59 658.55 947.373 662.914 945.925 667.204C943.52 674.311 940.503 681.197 936.909 687.784C936.419 688.675 935.929 689.557 935.42 690.43C930.755 698.516 925.228 706.073 918.936 712.97C916.251 715.91 913.419 718.771 910.469 721.466C910.018 721.888 909.557 722.299 909.097 722.711L908.96 722.828L907.382 724.22C906.647 724.847 905.912 725.465 905.167 726.072C898.448 731.592 891.189 736.418 883.499 740.478C881.167 741.713 878.785 742.879 876.375 743.967C871.596 746.137 866.686 748.006 861.675 749.563C860.489 749.935 859.293 750.288 858.098 750.621C846.647 753.835 834.809 755.461 822.916 755.453H770.28C763.179 755.45 756.369 758.27 751.349 763.292C746.329 768.314 743.511 775.126 743.516 782.226V882.108H295.96V782.236C295.961 779.202 295.447 776.19 294.441 773.328C294.274 772.848 294.088 772.348 293.892 771.907C291.088 765.223 285.696 759.959 278.947 757.315C275.827 756.082 272.502 755.453 269.147 755.462H180.614C179.212 755.462 177.831 755.462 176.439 755.404C157.412 754.824 138.726 750.207 121.618 741.86C120.638 741.399 119.746 740.939 118.815 740.449C110.951 736.389 103.506 731.564 96.5887 726.043C95.8243 725.435 95.0696 724.818 94.315 724.191L93.8055 723.769C93.4331 723.456 93.0607 723.142 92.6981 722.789L91.1399 721.496C89.1211 719.722 87.161 717.87 85.2598 715.968C84.2864 714.995 83.326 714.015 82.3787 713.028C75.8914 706.134 70.1434 698.579 65.2286 690.488C58.3842 679.175 53.2459 666.914 49.9799 654.101C49.4964 652.219 49.0554 650.318 48.6569 648.397C46.7428 639.26 45.7805 629.95 45.7854 620.614C45.7854 616.459 45.9717 612.333 46.3441 608.276C46.7336 603.887 47.3453 599.52 48.1767 595.193C48.3237 594.39 48.4903 593.596 48.6569 592.802C48.8823 591.675 49.1371 590.558 49.4017 589.441C50.1007 586.501 50.8945 583.593 51.7831 580.719C52.2861 579.111 52.8153 577.514 53.3707 575.926C56.4322 567.182 60.3964 558.781 65.1992 550.858C65.503 550.358 65.8068 549.878 66.1204 549.368C66.434 548.859 66.6398 548.535 66.9044 548.114C73.3712 538.012 81.1445 528.808 90.0227 520.743C92.3028 518.665 94.658 516.672 97.0884 514.765C97.4608 514.451 97.8333 514.167 98.2057 513.873L98.8132 513.412C101.518 511.335 104.308 509.375 107.182 507.532C117.587 500.748 128.887 495.451 140.757 491.793C142.139 491.362 143.54 490.951 144.942 490.568L145.206 490.5C148.979 489.471 152.821 488.599 156.721 487.913C159.681 487.377 162.673 486.942 165.698 486.609C170.648 486.066 175.624 485.794 180.604 485.796H284.543C291.817 485.796 298.91 483.532 304.839 479.318C305.681 478.72 306.505 478.083 307.289 477.417C308.073 476.75 308.68 476.182 309.327 475.535C315.686 469.188 319.357 460.635 319.578 451.653C319.578 451.359 319.578 451.055 319.578 450.751C319.578 450.614 319.578 450.477 319.578 450.349C319.423 436.437 311.067 423.928 298.273 418.46C296.119 417.549 293.88 416.853 291.589 416.382C291.158 416.294 290.717 416.206 290.276 416.137C288.381 415.822 286.464 415.665 284.543 415.667H109.24H107.182C104.384 415.599 101.59 415.387 98.8132 415.03L98.2057 414.961L97.5001 414.863L97.0884 414.805C79.7417 412.225 63.689 404.121 51.3127 391.696C50.4013 390.785 49.5095 389.854 48.6471 388.903C45.2992 385.233 42.2944 381.263 39.6703 377.045C38.7817 375.614 37.9324 374.154 37.1223 372.665C34.8542 368.479 32.9619 364.101 31.4677 359.582C25.0576 340.269 26.0673 319.263 34.2999 300.654C35.8623 297.131 37.6699 293.722 39.7095 290.452C42.3336 286.234 45.3384 282.265 48.6863 278.594C49.5487 277.614 50.4405 276.713 51.3519 275.801C64.0052 263.109 80.4838 254.934 98.2449 252.536L98.8427 252.468C101.62 252.111 104.413 251.898 107.212 251.831C107.865 251.831 108.551 251.831 109.27 251.831C121.828 251.847 134.143 248.365 144.834 241.776L144.981 241.688C148.056 239.781 150.972 237.632 153.703 235.259C154.752 234.357 155.771 233.426 156.761 232.456C160.12 229.185 163.129 225.572 165.737 221.676C166.763 220.141 167.743 218.556 168.677 216.923C171.012 212.728 172.895 208.296 174.293 203.703C175.062 201.168 175.677 198.589 176.135 195.98C176.77 192.47 177.127 188.914 177.203 185.347C177.203 184.887 177.203 184.426 177.203 183.956V114.768C177.201 107.668 180.019 100.858 185.039 95.8366C190.058 90.8153 196.867 87.9942 203.967 87.9942H827.776C854.968 87.9722 880.392 101.467 895.612 123.999C895.916 124.431 896.2 124.862 896.484 125.293C898.925 129.031 901.052 132.965 902.844 137.053C904.176 140.076 905.318 143.179 906.265 146.343C909.807 158.185 910.635 170.673 908.685 182.878C908 187.307 906.941 191.671 905.52 195.922C898.945 215.476 885.247 231.837 867.153 241.746C865.095 242.883 862.985 243.925 860.822 244.873C857.899 246.165 854.902 247.281 851.845 248.214C844.059 250.6 835.959 251.809 827.816 251.801H761.176C755.461 251.785 749.791 252.8 744.437 254.8L743.722 255.074C741.881 255.797 740.087 256.635 738.351 257.583C737.117 258.259 735.911 258.994 734.745 259.778C721.5 268.607 713.546 283.472 713.548 299.39V300.615C713.65 305.057 714.383 309.462 715.723 313.698C718.983 324.081 725.695 333.037 734.745 339.08C737.558 340.968 740.568 342.545 743.722 343.784C749.28 345.976 755.202 347.096 761.176 347.087C762.048 347.087 762.91 347.087 763.773 347.145C774.207 347.558 784.362 350.635 793.271 356.083C794.329 356.72 795.358 357.386 796.367 358.092C797.073 358.582 797.759 359.072 798.435 359.601C799.742 360.594 801.009 361.636 802.238 362.727C805.595 365.704 808.612 369.043 811.234 372.684C818.852 383.201 822.945 395.86 822.925 408.846V450.986C822.906 468.125 833.057 483.642 848.768 490.49C849.748 490.921 850.728 491.323 851.796 491.676C852.374 491.882 852.962 492.068 853.55 492.244C855.883 492.94 858.294 493.704 860.773 494.567C865.761 496.262 871.004 498.291 876.365 500.692C888.563 506.07 899.984 513.061 910.322 521.478C913.449 524.05 916.445 526.778 919.299 529.651C921.409 531.768 923.451 533.989 925.424 536.315C928.622 540.059 931.568 544.01 934.244 548.143L935.047 549.398C940.224 557.679 944.28 566.609 947.111 575.956C947.594 577.524 948.045 579.121 948.463 580.748C949.198 583.57 949.855 586.481 950.423 589.47C950.776 591.352 951.08 593.272 951.403 595.223C951.991 599.417 952.383 603.778 952.609 608.306C952.668 610.651 952.697 613.052 952.697 615.509V615.509Z" fill="#F3F4FE"/>
<path d="M745.623 771.907C744.255 775.178 743.552 778.69 743.555 782.236V784.98H295.96V782.236C295.961 779.202 295.447 776.19 294.441 773.328C294.274 772.848 294.088 772.348 293.892 771.907L745.623 771.907Z" fill="#EDEEFE"/>
<path d="M949.62 654.101C948.639 658.521 947.422 662.885 945.974 667.174H54.0372C52.4627 662.888 51.1086 658.525 49.98 654.101H949.62Z" fill="#EDEEFE"/>
<path d="M935.028 549.368H66.1206C66.3754 548.947 66.64 548.535 66.9046 548.114C69.5191 544.019 72.3555 540.07 75.4012 536.285H925.434C928.632 540.029 931.578 543.981 934.254 548.114L935.028 549.368Z" fill="#EDEEFE"/>
<path d="M822.935 418.46V431.543H313.884C310.08 425.742 304.649 421.191 298.272 418.46H822.935Z" fill="#EDEEFE"/>
<path d="M715.743 313.737H29.7427C30.8858 309.254 32.4103 304.877 34.2997 300.654H713.567C713.67 305.096 714.402 309.501 715.743 313.737Z" fill="#EDEEFE"/>
<path d="M867.114 241.746C865.056 242.883 862.946 243.925 860.783 244.873C857.86 246.165 854.863 247.281 851.806 248.214C844.02 250.6 835.921 251.809 827.777 251.801H761.137C755.435 251.789 749.779 252.805 744.438 254.8H87.1025C90.7458 253.778 94.456 253.012 98.2059 252.507L98.8037 252.438C101.581 252.081 104.374 251.869 107.173 251.801C107.826 251.801 108.512 251.801 109.231 251.801C121.789 251.817 134.104 248.335 144.795 241.746L867.114 241.746Z" fill="#EDEEFE"/>
<path d="M902.844 137.014H177.154V123.941H895.612C895.916 124.372 896.2 124.803 896.484 125.234C898.925 128.979 901.053 132.919 902.844 137.014Z" fill="#EDEEFE"/>
<path d="M486.943 147.461V520.743H90.0426C92.3227 518.665 94.678 516.672 97.1084 514.765C97.4808 514.451 97.8531 514.167 98.2255 513.873L98.8332 513.412C101.538 511.335 104.328 509.375 107.202 507.532C117.607 500.748 128.907 495.451 140.777 491.793C140.777 491.539 140.777 491.284 140.777 491.029L140.836 491.784C142.218 491.352 143.619 490.941 145.021 490.559C148.882 489.5 152.802 488.615 156.781 487.903C159.74 487.367 162.732 486.933 165.757 486.599C170.707 486.056 175.683 485.784 180.663 485.786H284.543C303.549 485.792 319.094 470.643 319.578 451.643C319.578 451.349 319.578 451.045 319.578 450.741C319.578 450.604 319.578 450.467 319.578 450.339C319.385 433.858 307.734 419.739 291.589 416.422C291.158 416.333 290.717 416.245 290.276 416.177C288.382 415.861 286.464 415.704 284.543 415.706H109.241H107.183C104.384 415.639 101.59 415.426 98.8136 415.069L98.2059 415.001L97.5004 414.903L97.0888 414.844C90.7029 413.89 84.4526 412.183 78.4688 409.758V257.74C84.8083 255.17 91.4461 253.409 98.2255 252.497L98.8234 252.428C101.6 252.072 104.394 251.859 107.193 251.791C107.846 251.791 108.532 251.791 109.251 251.791C125.576 251.805 141.354 245.912 153.674 235.2C154.723 234.298 155.742 233.367 156.732 232.397C160.091 229.126 163.1 225.513 165.708 221.617C166.734 220.082 167.714 218.498 168.648 216.864C174.031 207.195 176.959 196.353 177.174 185.289C177.174 184.828 177.174 184.367 177.174 183.897V131.467H470.479C474.783 131.404 478.936 133.054 482.023 136.053C485.111 139.053 486.881 143.156 486.943 147.461Z" fill="#C7CCF9"/>
<path d="M466.578 152.978V520.743H98.8135V513.412C101.518 511.335 104.308 509.375 107.183 507.532C117.587 500.748 128.888 495.451 140.757 491.793C140.757 491.539 140.757 491.284 140.757 491.029L140.816 491.784C142.198 491.352 143.599 490.941 145.001 490.559C148.862 489.5 152.782 488.615 156.761 487.903C159.72 487.367 162.713 486.933 165.738 486.599C170.688 486.056 175.664 485.784 180.643 485.786H284.543C303.549 485.792 319.094 470.643 319.578 451.643C319.578 451.349 319.578 451.045 319.578 450.741C319.578 450.604 319.578 450.467 319.578 450.339C319.385 433.858 307.734 419.739 291.589 416.422C291.158 416.333 290.717 416.245 290.276 416.177C288.381 415.861 286.464 415.704 284.543 415.706H109.241H107.183C104.384 415.639 101.59 415.426 98.8135 415.069V252.468C101.59 252.111 104.384 251.898 107.183 251.831C107.836 251.831 108.522 251.831 109.241 251.831C125.574 251.835 141.357 245.928 153.674 235.2C154.722 234.298 155.742 233.367 156.731 232.397C160.091 229.126 163.099 225.513 165.708 221.617C166.734 220.082 167.714 218.498 168.648 216.864C174.031 207.195 176.959 196.353 177.174 185.289C177.174 184.828 177.174 184.367 177.174 183.897V152.978H466.578Z" fill="#F0F1FC"/>
<path d="M466.578 203.644V520.743H304.878V479.279C306.479 478.148 307.98 476.882 309.366 475.496C315.726 469.148 319.397 460.596 319.617 451.613C319.617 451.319 319.617 451.016 319.617 450.712C319.617 450.575 319.617 450.437 319.617 450.31C319.513 439.111 314.047 428.641 304.917 422.155V387.423C304.917 376.32 313.59 367.314 324.292 367.314C334.993 367.314 343.657 358.317 343.657 347.214V226.88C343.651 223.423 344.393 220.007 345.832 216.864C349.402 208.884 357.298 203.718 366.04 203.644L466.578 203.644Z" fill="#E5E7FD"/>
<path d="M211.445 415.677H109.24H107.182C104.384 415.609 101.59 415.397 98.8132 415.04L98.2056 414.971L97.5 414.873C97.7415 412.783 98.1047 410.708 98.5878 408.66C98.6564 408.346 98.7348 408.023 98.8132 407.68C99.8939 403.371 101.476 399.204 103.527 395.263C108.388 385.925 115.721 378.101 124.724 372.645C128.678 370.242 132.91 368.33 137.327 366.951L137.543 366.892L139.366 366.363C140.052 366.177 140.747 366.001 141.443 365.844C143.09 365.462 144.775 365.148 146.48 364.923L147.225 364.815L148.205 364.707L148.891 364.638C149.734 364.56 150.587 364.491 151.449 364.452C151.939 364.452 152.429 364.403 152.909 364.393H154.399C165.824 364.38 176.99 367.794 186.455 374.193C187.591 374.968 188.709 375.771 189.787 376.634C190.159 376.918 190.512 377.212 190.865 377.496C193.694 379.836 196.296 382.438 198.636 385.267L199.498 386.345C200.361 387.423 201.164 388.541 201.939 389.677C207.191 397.433 210.456 406.362 211.445 415.677V415.677Z" fill="#BAC3F7"/>
<path d="M530.033 535.795C530.033 544.116 522.546 550.858 513.304 550.858H65.1992C65.7578 549.937 66.3262 549.025 66.9044 548.114C73.3642 538.007 81.1383 528.802 90.0226 520.743H513.304C522.546 520.743 530.033 527.485 530.033 535.795V535.795Z" fill="#C7CCF9"/>
<path d="M333.445 520.743V455.837C333.45 454.564 334.484 453.534 335.758 453.534H388.433C389.706 453.529 390.736 452.495 390.736 451.221V408.101C390.736 406.824 391.771 405.789 393.048 405.789H403.828C404.441 405.789 405.028 405.545 405.46 405.111C405.893 404.677 406.134 404.088 406.131 403.476V389.001C406.131 387.724 407.167 386.688 408.444 386.688H423.654C424.927 386.688 425.961 385.659 425.967 384.385V355.965C425.967 355.353 426.211 354.766 426.645 354.333C427.079 353.901 427.667 353.66 428.279 353.662H438.344C439.621 353.662 440.657 352.627 440.657 351.35V342.02C440.657 341.409 440.899 340.823 441.331 340.392C441.763 339.96 442.349 339.717 442.96 339.717H453.034C454.308 339.717 455.342 340.747 455.347 342.02V351.359C455.347 352.633 456.377 353.667 457.65 353.672H464.236C465.509 353.672 466.543 354.702 466.548 355.975V520.743H333.445Z" fill="#DBDFFC"/>
<path d="M181.153 415.677H109.241H107.183C104.384 415.609 101.59 415.397 98.8135 415.04V350.36C103.983 351.618 109.066 353.205 114.033 355.113L116.493 356.093C118.041 356.746 119.576 357.399 121.099 358.053C121.804 358.366 122.49 358.7 123.186 359.033C125.146 359.974 127.106 360.973 129.066 362.032C129.605 362.316 130.154 362.62 130.683 362.923C131.447 363.345 132.202 363.786 132.947 364.227C133.692 364.668 134.407 365.099 135.132 365.55L135.387 365.716C136.053 366.128 136.72 366.549 137.347 366.981C142.188 370.119 146.805 373.59 151.165 377.369C163.555 388.069 173.741 401.081 181.153 415.677V415.677Z" fill="#BAC3F7"/>
<path d="M211.445 415.677H208.573C200.535 392.653 178.815 377.231 154.428 377.231C153.331 377.231 152.243 377.231 151.165 377.329C146.474 377.587 141.833 378.423 137.347 379.819C133.29 377.18 129.082 374.781 124.744 372.635C116.483 368.526 107.789 365.351 98.8232 363.168V350.291C103.993 351.549 109.076 353.137 114.043 355.044L116.502 356.024C118.051 356.678 119.586 357.331 121.108 357.984C121.814 358.298 122.5 358.631 123.196 358.964C125.156 359.905 127.116 360.905 129.076 361.963C129.615 362.247 130.164 362.551 130.693 362.855C131.457 363.276 132.212 363.717 132.957 364.158C133.701 364.599 134.417 365.03 135.142 365.481L135.397 365.648C136.063 366.059 136.73 366.481 137.357 366.912L137.572 366.853L139.395 366.324C140.081 366.138 140.777 365.961 141.473 365.805C143.119 365.422 144.805 365.109 146.51 364.883L147.255 364.776L148.235 364.668L148.921 364.599C149.764 364.521 150.616 364.452 151.479 364.413C151.969 364.413 152.459 364.364 152.939 364.354H154.428C165.853 364.341 177.02 367.754 186.484 374.154C187.621 374.938 188.738 375.752 189.816 376.594C190.189 376.879 190.541 377.173 190.894 377.457C193.724 379.796 196.326 382.399 198.666 385.228L199.528 386.306C200.371 387.384 201.184 388.501 201.968 389.638C207.217 397.408 210.471 406.351 211.445 415.677V415.677Z" fill="#A8B7F4"/>
<path d="M255.27 487.54V488.883C255.27 488.883 255.27 489.941 255.212 490.47C255.212 490.833 255.212 491.205 255.143 491.568V492.078C255.148 492.162 255.148 492.248 255.143 492.332V492.911V493.175V493.469V493.812C255.143 493.812 255.143 494.126 255.094 494.283C255.045 494.439 255.094 494.479 255.094 494.577C255.094 494.939 255.006 495.302 254.947 495.655C254.888 496.007 254.869 496.243 254.82 496.537L254.761 496.87C254.702 497.232 254.643 497.585 254.575 497.938C254.477 498.506 254.359 499.065 254.232 499.624C254.236 499.695 254.236 499.767 254.232 499.839C254.232 500.045 254.143 500.241 254.094 500.447C254.045 500.653 254.045 500.653 254.016 500.76C253.987 500.868 253.918 501.201 253.859 501.417L253.712 501.995C253.712 502.093 253.663 502.191 253.634 502.289C253.497 502.799 253.359 503.269 253.203 503.808L252.997 504.514C252.928 504.739 252.86 504.955 252.781 505.18C252.566 505.847 252.34 506.513 252.095 507.14C252.027 507.307 251.968 507.483 251.899 507.65C251.874 507.727 251.845 507.802 251.811 507.875L251.595 508.444C251.535 508.614 251.467 508.78 251.39 508.943L251.272 509.247L251.184 509.443C251.153 509.544 251.114 509.643 251.066 509.737C250.9 510.149 250.723 510.551 250.537 510.952L250.4 511.246C250.096 511.903 249.782 512.56 249.42 513.206C249.283 513.491 249.136 513.765 248.989 514.039L248.499 514.961L248.224 515.46L247.323 516.999L247.146 517.293L246.499 518.273C246.421 518.4 246.343 518.528 246.254 518.655C246.166 518.783 246.107 518.89 246.029 518.998L245.784 519.361C245.519 519.763 245.235 520.164 244.961 520.566C243.981 521.977 242.883 523.349 241.756 524.663L240.982 525.545C229.361 538.567 212.443 545.587 195.017 544.618C177.591 543.649 161.554 534.796 151.449 520.566C151.038 519.978 150.626 519.38 150.234 518.783C149.437 517.58 148.692 516.346 148 515.078C146.941 513.177 145.999 511.213 145.177 509.198C144.469 507.515 143.853 505.794 143.335 504.043C143.002 502.985 142.717 501.917 142.463 500.839C141.932 498.657 141.536 496.445 141.277 494.214C141.169 493.352 141.081 492.47 141.022 491.588C141.022 491.333 141.022 491.078 141.022 490.823L141.081 491.578C142.463 491.147 143.864 490.735 145.265 490.353C149.127 489.294 153.047 488.409 157.025 487.697C159.985 487.161 162.977 486.727 166.002 486.394C170.952 485.85 175.928 485.578 180.908 485.58H255.535C255.261 486.345 255.27 486.942 255.27 487.54V487.54Z" fill="#C7CCF9"/>
<path d="M98.8037 311.62H466.578V329.986H98.8037V311.62Z" fill="#ECEDFC"/>
<path d="M98.8037 280.035H466.578V298.4H98.8037V280.035Z" fill="#ECEDFC"/>
<path d="M466.578 248.45V266.815H98.8037V252.468C101.581 252.111 104.374 251.898 107.173 251.831C107.826 251.831 108.512 251.831 109.231 251.831C116.402 251.828 123.527 250.687 130.34 248.45L466.578 248.45Z" fill="#ECEDFC"/>
<path d="M466.578 216.864V235.2H153.674C154.722 234.298 155.742 233.367 156.731 232.397C160.091 229.126 163.099 225.513 165.708 221.617C166.734 220.082 167.714 218.498 168.648 216.864H466.578Z" fill="#ECEDFC"/>
<path d="M466.578 185.289V203.644H174.234C176.045 197.688 177.034 191.512 177.174 185.289L466.578 185.289Z" fill="#ECEDFC"/>
<path d="M177.155 153.703H466.578V172.068H177.155L177.155 153.703Z" fill="#ECEDFC"/>
<path d="M291.589 149.225V416.392C291.158 416.304 290.717 416.216 290.276 416.147C288.381 415.832 286.464 415.674 284.543 415.677H268.01V149.225L291.589 149.225Z" fill="#C7CCF9"/>
<path d="M284.543 485.757C286.91 485.758 289.271 485.519 291.589 485.041V520.743H268.01V485.757H284.543Z" fill="#C7CCF9"/>
<path d="M166.012 415.677H109.24H107.182C104.384 415.609 101.59 415.397 98.8132 415.04L98.2056 414.971L97.5 414.873L97.0884 414.814V395.097H98.8132C100.391 395.097 101.959 395.165 103.527 395.254C105.657 395.365 107.774 395.521 109.877 395.724H109.936C114.157 396.155 118.315 396.789 122.412 397.625L123.94 397.949C125.966 398.399 127.981 398.893 129.987 399.428L131.486 399.84C132.466 400.105 133.348 400.389 134.27 400.663L134.446 400.722C136.347 401.32 138.219 401.947 140.081 402.623L140.287 402.702C141.179 403.025 142.061 403.368 142.943 403.682C143.491 403.897 144.04 404.113 144.579 404.348C145.442 404.691 146.294 405.044 147.137 405.426C147.285 405.478 147.429 405.54 147.568 405.612C148.45 405.994 149.313 406.396 150.175 406.798L151.557 407.445C152.086 407.7 152.625 407.954 153.144 408.229L154.281 408.807C154.84 409.081 155.398 409.366 155.947 409.679C156.496 409.993 157.29 410.395 157.956 410.767C158.162 410.865 158.358 410.983 158.554 411.1C158.917 411.296 159.269 411.502 159.622 411.708C161.024 412.502 162.396 413.325 163.758 414.187L164.806 414.854C165.208 415.148 165.62 415.402 166.012 415.677V415.677Z" fill="#C7CCF9"/>
<path d="M222.715 520.743H97.0884V514.765C97.4608 514.451 97.8332 514.167 98.2056 513.873L98.8132 513.412C101.518 511.335 104.308 509.375 107.182 507.532C117.587 500.748 128.887 495.451 140.757 491.793C140.757 491.539 140.757 491.284 140.757 491.029L140.816 491.784C142.198 491.352 143.599 490.941 145.001 490.559C148.862 489.5 152.782 488.615 156.761 487.903C159.72 487.367 162.712 486.933 165.737 486.599C170.687 486.056 175.663 485.784 180.643 485.786H217.815C221.08 497.151 222.729 508.918 222.715 520.743V520.743Z" fill="#C7CCF9"/>
<path d="M255.27 487.54V488.883C255.27 488.883 255.27 489.941 255.211 490.47C255.211 490.833 255.211 491.205 255.143 491.568V492.078C255.148 492.162 255.148 492.248 255.143 492.332V492.911V493.165V493.459V493.802C255.143 493.802 255.143 494.116 255.094 494.273C255.045 494.43 255.094 494.469 255.094 494.567C255.094 494.929 255.006 495.292 254.947 495.645C254.888 495.998 254.868 496.233 254.819 496.527L254.761 496.86C254.702 497.223 254.643 497.575 254.574 497.928C254.476 498.497 254.359 499.055 254.231 499.614C254.236 499.686 254.236 499.758 254.231 499.829C254.231 500.035 254.143 500.231 254.094 500.437L253.859 501.417L253.712 501.995C253.712 502.093 253.663 502.191 253.634 502.289C253.496 502.799 253.359 503.269 253.202 503.808L252.997 504.514V504.514C252.938 504.72 252.869 504.935 252.801 505.141C252.732 505.347 252.732 505.347 252.693 505.445C252.569 505.843 252.432 506.245 252.281 506.65C252.251 506.764 252.212 506.876 252.164 506.983C252.164 506.983 252.164 507.081 252.115 507.14C252.066 507.199 251.987 507.483 251.919 507.65C251.894 507.727 251.864 507.802 251.83 507.875C251.693 508.238 251.556 508.591 251.409 508.943L251.291 509.247L251.203 509.443C250.958 510.051 250.694 510.649 250.419 511.246C250.145 511.844 249.802 512.56 249.439 513.206C249.302 513.491 249.155 513.765 249.008 514.039C248.861 514.314 248.685 514.657 248.518 514.961L248.244 515.46C247.95 515.98 247.656 516.44 247.342 516.999L247.166 517.293C246.96 517.646 246.744 517.979 246.519 518.273C246.44 518.4 246.362 518.528 246.274 518.655C246.186 518.783 246.127 518.881 246.048 518.998L245.803 519.361C245.536 519.759 245.261 520.161 244.98 520.566H151.184C150.773 519.978 150.361 519.38 149.969 518.783C149.172 517.58 148.427 516.346 147.735 515.078C146.684 513.173 145.742 511.21 144.912 509.198C144.217 507.522 143.609 505.798 143.07 504.043C142.756 502.985 142.462 501.917 142.198 500.839C141.677 498.655 141.281 496.443 141.012 494.214C140.914 493.342 140.826 492.46 140.767 491.578C142.149 491.147 143.55 490.735 144.952 490.353C148.813 489.294 152.733 488.409 156.712 487.697C159.671 487.161 162.664 486.727 165.688 486.394C170.638 485.85 175.615 485.578 180.594 485.58H255.221C255.26 486.345 255.27 486.942 255.27 487.54V487.54Z" fill="#BAC3F7"/>
<path d="M166.012 415.677H109.24H107.182C104.384 415.609 101.59 415.397 98.8132 415.04L98.2056 414.971L97.5 414.873L97.0884 414.814V395.097H98.8132C100.391 395.097 101.959 395.165 103.527 395.254C105.657 395.365 107.774 395.521 109.877 395.724H109.936C114.157 396.155 118.315 396.789 122.412 397.625L123.94 397.949C125.966 398.399 127.981 398.893 129.987 399.428L131.486 399.84C132.466 400.105 133.348 400.389 134.27 400.663L134.446 400.722C136.347 401.32 138.219 401.947 140.081 402.623L140.287 402.702C141.179 403.025 142.061 403.368 142.943 403.682C143.491 403.897 144.04 404.113 144.579 404.348C145.442 404.691 146.294 405.044 147.137 405.426C147.285 405.478 147.429 405.54 147.568 405.612C148.45 405.994 149.313 406.396 150.175 406.798L151.557 407.445C152.086 407.7 152.625 407.954 153.144 408.229L154.281 408.807C154.84 409.081 155.398 409.366 155.947 409.679C156.496 409.993 157.29 410.395 157.956 410.767C158.162 410.865 158.358 410.983 158.554 411.1C158.917 411.296 159.269 411.502 159.622 411.708C161.024 412.502 162.396 413.325 163.758 414.187L164.806 414.854C165.208 415.148 165.62 415.402 166.012 415.677V415.677Z" fill="#BAC3F7"/>
<path d="M222.715 520.743H97.0884V514.765C97.4608 514.451 97.8332 514.167 98.2056 513.873L98.8132 513.412C101.518 511.335 104.308 509.375 107.182 507.532C117.587 500.748 128.887 495.451 140.757 491.793C140.757 491.539 140.757 491.284 140.757 491.029L140.816 491.784C142.198 491.352 143.599 490.941 145.001 490.559C148.862 489.5 152.782 488.615 156.761 487.903C159.72 487.367 162.712 486.933 165.737 486.599C170.687 486.056 175.663 485.784 180.643 485.786H217.815C221.08 497.151 222.729 508.918 222.715 520.743V520.743Z" fill="#BAC3F7"/>
<path d="M164.806 414.893C165.208 415.148 165.61 415.402 166.012 415.677H131.045C120.659 411.922 109.82 409.562 98.8132 408.66H98.5878L97.0884 408.542V395.116H98.8132C100.391 395.116 101.969 395.185 103.537 395.273C105.66 395.384 107.774 395.544 109.877 395.753H109.936C114.125 396.171 118.289 396.806 122.412 397.655L123.94 397.978C125.979 398.422 127.994 398.916 129.987 399.458L131.486 399.869C132.466 400.134 133.348 400.418 134.27 400.693L134.446 400.751C136.347 401.339 138.229 401.967 140.081 402.653L140.287 402.731C141.179 403.054 142.061 403.397 142.943 403.711C143.491 403.927 144.04 404.142 144.579 404.377C145.442 404.72 146.294 405.073 147.137 405.455C147.285 405.507 147.429 405.57 147.568 405.642C148.45 406.024 149.313 406.426 150.175 406.827L151.557 407.474C152.086 407.729 152.625 407.984 153.144 408.258L154.281 408.836C154.84 409.111 155.398 409.395 155.947 409.709C156.496 410.022 157.29 410.424 157.956 410.796C158.162 410.894 158.358 411.012 158.554 411.13C158.917 411.326 159.269 411.531 159.622 411.737C161.024 412.531 162.396 413.354 163.758 414.217L164.806 414.893Z" fill="#C7CCF9"/>
<path d="M255.27 487.54V488.883C255.27 488.883 255.27 489.941 255.212 490.47C255.212 490.833 255.212 491.205 255.143 491.568V492.078C255.148 492.162 255.148 492.248 255.143 492.332V492.911V493.136V493.43V493.773C255.143 493.773 255.143 494.087 255.094 494.243C255.045 494.4 255.094 494.439 255.094 494.537C255.094 494.9 255.006 495.263 254.947 495.615C254.888 495.968 254.829 496.429 254.761 496.831C254.692 497.232 254.643 497.546 254.575 497.899C254.477 498.467 254.359 499.026 254.232 499.584C254.236 499.656 254.236 499.728 254.232 499.8C254.163 500.104 254.094 500.417 254.016 500.721C253.938 501.025 253.918 501.162 253.859 501.378L253.712 501.956C253.712 502.054 253.663 502.152 253.634 502.25C253.497 502.76 253.359 503.23 253.203 503.769C253.134 504.024 253.056 504.269 252.977 504.514C252.899 504.759 252.85 504.935 252.781 505.141C252.713 505.347 252.713 505.347 252.673 505.445C252.549 505.843 252.412 506.245 252.262 506.65C252.231 506.764 252.192 506.876 252.144 506.983C252.066 507.209 251.987 507.424 251.899 507.65C251.874 507.727 251.845 507.802 251.811 507.875L251.595 508.444L251.272 509.247L251.066 509.737C250.9 510.149 250.723 510.551 250.537 510.952L250.4 511.246C250.096 511.903 249.782 512.56 249.42 513.206C249.283 513.491 249.136 513.765 248.989 514.039L248.499 514.961L248.224 515.46L247.323 516.999L247.146 517.293L246.499 518.273C246.421 518.4 246.343 518.528 246.254 518.655C246.166 518.783 246.107 518.881 246.029 518.998L245.784 519.361C245.519 519.763 245.235 520.164 244.961 520.566C243.981 521.977 242.883 523.349 241.756 524.663L240.982 525.545C241.766 523.928 242.481 522.262 243.109 520.566C247.288 509.361 247.87 497.132 244.775 485.58H255.506C255.261 486.345 255.27 486.942 255.27 487.54V487.54Z" fill="#C7CCF9"/>
<path d="M436.57 365.315H445.341V371.165H436.57V365.315Z" fill="#E5E7FD"/>
<path d="M436.57 386.963H445.341V392.813H436.57V386.963Z" fill="#E5E7FD"/>
<path d="M415.226 397.782H423.997V403.633H415.226V397.782Z" fill="#E5E7FD"/>
<path d="M415.226 440.481H423.997V446.331H415.226V440.481Z" fill="#E5E7FD"/>
<path d="M376.938 461.825H385.708V467.676H376.938V461.825Z" fill="#E5E7FD"/>
<path d="M376.938 483.179H385.708V489.03H376.938V483.179Z" fill="#E5E7FD"/>
<path d="M350.007 470.606H358.778V476.456H350.007V470.606Z" fill="#E5E7FD"/>
<path d="M350.007 495.165H358.778V501.015H350.007V495.165Z" fill="#E5E7FD"/>
<path d="M376.938 504.524H385.708V510.374H376.938V504.524Z" fill="#E5E7FD"/>
<path d="M415.226 483.179H423.997V489.03H415.226V483.179Z" fill="#E5E7FD"/>
<path d="M415.226 504.524H423.997V510.374H415.226V504.524Z" fill="#E5E7FD"/>
<path d="M436.57 430.24H445.341V436.09H436.57V430.24Z" fill="#E5E7FD"/>
<path d="M436.57 451.888H445.341V457.738H436.57V451.888Z" fill="#E5E7FD"/>
<path d="M436.57 495.165H445.341V501.015H436.57V495.165Z" fill="#E5E7FD"/>
<rect x="144.942" y="899.366" width="72.5788" height="17.2578" rx="8.6289" transform="rotate(-180 144.942 899.366)" fill="#D2D6FA"/>
<rect x="945.71" y="899.366" width="793.741" height="17.2578" rx="8.6289" transform="rotate(-180 945.71 899.366)" fill="#D2D6FA"/>
<rect x="511.041" y="319.774" width="184.583" height="11.417" rx="5.7085" fill="#BCBFF6"/>
<path d="M570.857 274.636C573.373 280.741 570.464 287.73 564.359 290.246L558.334 292.73C555.818 286.625 558.727 279.636 564.832 277.12L570.857 274.636Z" fill="#D2D6FA"/>
<path d="M555.435 262.97C561.54 265.487 564.449 272.475 561.933 278.58L559.449 284.606C553.345 282.089 550.435 275.101 552.952 268.996L555.435 262.97Z" fill="#BCBFF6"/>
<path d="M558.337 292.722L552.312 290.239C546.207 287.722 543.298 280.734 545.814 274.629L551.839 277.112C557.944 279.628 560.853 286.617 558.337 292.722Z" fill="#D2D6FA"/>
<path d="M579.18 298.371C578.931 310.016 569.419 319.326 557.772 319.326C546.124 319.326 536.613 310.016 536.364 298.371C536.37 296.593 536.59 294.823 537.02 293.098H578.523C578.953 294.823 579.174 296.593 579.18 298.371Z" fill="#D2D6FA"/>
<rect x="533.767" y="287.503" width="49.0686" height="5.6056" rx="2.8028" fill="#BCBFF6"/>
<path d="M579.062 295.901H536.54C536.645 294.956 536.816 294.02 537.05 293.098H578.553C578.787 294.02 578.957 294.956 579.062 295.901Z" fill="#B5BBF4"/>
<path d="M673.307 284.454C674.252 286.747 674.247 289.321 673.294 291.61C672.341 293.899 670.518 295.716 668.226 296.661L663.505 298.607C661.537 293.833 663.812 288.368 668.586 286.4L673.307 284.454Z" fill="#D2D6FA"/>
<path d="M661.274 275.343C666.048 277.311 668.323 282.776 666.355 287.549L664.398 292.297C662.106 291.352 660.282 289.535 659.33 287.246C658.377 284.957 658.372 282.383 659.317 280.091L661.263 275.37L661.274 275.343Z" fill="#BCBFF6"/>
<path d="M663.515 298.603L658.795 296.658C654.021 294.69 651.746 289.225 653.714 284.451L658.434 286.397C660.727 287.342 662.55 289.159 663.503 291.448C664.456 293.737 664.46 296.311 663.515 298.603Z" fill="#D2D6FA"/>
<path d="M679.875 303.026C679.875 312.276 672.376 319.774 663.127 319.774C653.877 319.774 646.378 312.276 646.378 303.026C646.377 302.371 646.416 301.716 646.496 301.066C646.58 300.329 646.714 299.599 646.898 298.88H679.355C679.539 299.599 679.673 300.329 679.757 301.066C679.837 301.716 679.876 302.371 679.875 303.026V303.026Z" fill="#D2D6FA"/>
<rect x="644.321" y="294.529" width="38.3866" height="4.3806" rx="2.1903" fill="#BCBFF6"/>
<path d="M679.757 301.095H646.496C646.58 300.358 646.714 299.628 646.898 298.91H679.355C679.539 299.628 679.674 300.358 679.757 301.095V301.095Z" fill="#B5BBF4"/>
<path d="M601.348 241.08H611.52C614.665 241.08 617.214 243.629 617.214 246.774V319.774H595.654V246.725C595.681 243.599 598.222 241.08 601.348 241.08Z" fill="#D2D6FA"/>
<circle cx="606.424" cy="280.407" r="6.9482" fill="#B5BBF4"/>
<path d="M606.424 285.415C606.162 285.463 605.896 285.486 605.63 285.484C603.032 285.225 601.054 283.038 601.057 280.427C601.059 277.817 603.041 275.634 605.64 275.38C605.906 275.378 606.172 275.401 606.434 275.449C603.962 275.829 602.137 277.955 602.137 280.456C602.137 282.957 603.962 285.084 606.434 285.464L606.424 285.415Z" fill="#D2D6FA"/>
<path d="M621.438 261.062H629.013C631.357 261.062 633.257 262.962 633.257 265.306V319.774H617.194V265.306C617.194 262.962 619.094 261.062 621.438 261.062Z" fill="#BCBFF6"/>
<circle cx="625.22" cy="290.413" r="5.1842" fill="#D2D6FA"/>
<path d="M625.24 294.157C625.044 294.172 624.848 294.172 624.652 294.157C622.563 294.157 620.869 292.463 620.869 290.374C620.869 288.285 622.563 286.591 624.652 286.591C624.848 286.576 625.044 286.576 625.24 286.591C623.395 286.875 622.033 288.463 622.033 290.33C622.033 292.197 623.395 293.784 625.24 294.069V294.157Z" fill="#F0F1FC"/>
<path d="M214.052 467.891H789.723C800.42 467.889 810.68 472.136 818.245 479.699C825.81 487.262 830.06 497.521 830.06 508.218V698.642H173.715V508.218C173.715 497.521 177.965 487.262 185.53 479.699C193.095 472.136 203.355 467.889 214.052 467.891V467.891Z" fill="#A17C74"/>
<path d="M173.715 687.852H830.05V698.642H173.715V687.852Z" fill="#7B5649"/>
<rect x="118.658" y="698.642" width="766.448" height="119.05" rx="16.88" fill="#A17C74"/>
<path d="M118.658 780.57H885.106V793.369H118.658L118.658 780.57Z" fill="#936E62"/>
<path d="M209.475 882.078H190.257L218.021 817.702H248.362L209.475 882.078Z" fill="#7B5649"/>
<path d="M794.29 882.078H813.508L785.754 817.702H755.414L794.29 882.078Z" fill="#7B5649"/>
<circle cx="763.381" cy="533.963" r="6.615" fill="#7B5649"/>
<path d="M784.111 510.66C784.819 509.952 785.967 509.952 786.675 510.66V510.66C787.383 511.368 787.383 512.516 786.675 513.224L774.624 525.275C773.916 525.983 772.768 525.983 772.06 525.275V525.275C771.352 524.567 771.352 523.419 772.06 522.711L784.111 510.66Z" fill="#7B5649"/>
<path d="M750.034 544.745C750.742 544.037 751.89 544.037 752.598 544.745V544.745C753.306 545.453 753.306 546.601 752.598 547.309L740.548 559.36C739.84 560.068 738.692 560.068 737.984 559.359V559.359C737.276 558.651 737.276 557.504 737.984 556.796L750.034 544.745Z" fill="#7B5649"/>
<path d="M786.677 556.794C787.385 557.502 787.385 558.65 786.677 559.358V559.358C785.969 560.066 784.821 560.066 784.113 559.358L772.062 547.307C771.354 546.599 771.354 545.451 772.062 544.743V544.743C772.77 544.035 773.918 544.035 774.626 544.743L786.677 556.794Z" fill="#7B5649"/>
<path d="M752.595 522.719C753.303 523.427 753.303 524.575 752.595 525.283V525.283C751.887 525.991 750.739 525.991 750.031 525.283L737.98 513.233C737.272 512.525 737.272 511.377 737.98 510.669V510.669C738.688 509.961 739.836 509.961 740.544 510.669L752.595 522.719Z" fill="#7B5649"/>
<circle cx="763.381" cy="639.332" r="6.615" fill="#7B5649"/>
<path d="M784.106 616.045C784.814 615.337 785.962 615.337 786.67 616.045V616.045C787.378 616.753 787.378 617.901 786.67 618.609L774.619 630.66C773.911 631.368 772.763 631.368 772.055 630.66V630.66C771.347 629.952 771.347 628.804 772.055 628.096L784.106 616.045Z" fill="#7B5649"/>
<path d="M750.029 650.12C750.737 649.412 751.885 649.412 752.593 650.12V650.12C753.301 650.828 753.301 651.976 752.593 652.684L740.542 664.734C739.834 665.442 738.686 665.442 737.978 664.734V664.734C737.27 664.026 737.27 662.878 737.978 662.17L750.029 650.12Z" fill="#7B5649"/>
<path d="M786.672 662.168C787.38 662.876 787.38 664.024 786.672 664.732V664.732C785.964 665.44 784.816 665.44 784.108 664.732L772.057 652.682C771.349 651.974 771.349 650.826 772.057 650.118V650.118C772.766 649.41 773.913 649.41 774.621 650.118L786.672 662.168Z" fill="#7B5649"/>
<path d="M752.59 628.084C753.298 628.792 753.298 629.94 752.59 630.648V630.648C751.882 631.356 750.734 631.356 750.026 630.648L737.975 618.597C737.267 617.889 737.267 616.741 737.975 616.033V616.033C738.683 615.325 739.831 615.325 740.539 616.033L752.59 628.084Z" fill="#7B5649"/>
<circle cx="633.158" cy="533.963" r="6.615" fill="#7B5649"/>
<path d="M653.888 510.66C654.596 509.952 655.744 509.952 656.452 510.66V510.66C657.16 511.368 657.16 512.516 656.452 513.224L644.402 525.275C643.694 525.983 642.546 525.983 641.838 525.275V525.275C641.13 524.567 641.13 523.419 641.838 522.711L653.888 510.66Z" fill="#7B5649"/>
<path d="M619.812 544.745C620.52 544.036 621.668 544.036 622.376 544.745V544.745C623.084 545.453 623.084 546.6 622.376 547.308L610.325 559.359C609.617 560.067 608.469 560.067 607.761 559.359V559.359C607.053 558.651 607.053 557.503 607.761 556.795L619.812 544.745Z" fill="#7B5649"/>
<path d="M656.455 556.794C657.163 557.502 657.163 558.65 656.455 559.358V559.358C655.747 560.066 654.599 560.066 653.891 559.358L641.841 547.307C641.133 546.599 641.133 545.451 641.841 544.743V544.743C642.549 544.035 643.697 544.035 644.405 544.743L656.455 556.794Z" fill="#7B5649"/>
<path d="M622.373 522.719C623.081 523.427 623.081 524.575 622.373 525.283V525.283C621.665 525.991 620.517 525.991 619.809 525.283L607.758 513.232C607.05 512.524 607.05 511.376 607.758 510.668V510.668C608.466 509.96 609.614 509.96 610.322 510.668L622.373 522.719Z" fill="#7B5649"/>
<circle cx="633.158" cy="639.332" r="6.615" fill="#7B5649"/>
<path d="M653.883 616.045C654.591 615.337 655.739 615.337 656.447 616.045V616.045C657.155 616.753 657.155 617.901 656.447 618.609L644.396 630.659C643.688 631.367 642.54 631.367 641.832 630.659V630.659C641.124 629.951 641.124 628.803 641.832 628.095L653.883 616.045Z" fill="#7B5649"/>
<path d="M619.806 650.119C620.514 649.411 621.662 649.411 622.37 650.119V650.119C623.078 650.827 623.078 651.975 622.37 652.683L610.32 664.734C609.612 665.442 608.464 665.442 607.756 664.734V664.734C607.048 664.026 607.048 662.878 607.756 662.17L619.806 650.119Z" fill="#7B5649"/>
<path d="M656.45 662.168C657.158 662.876 657.158 664.024 656.45 664.732V664.732C655.742 665.44 654.594 665.44 653.886 664.732L641.835 652.681C641.127 651.973 641.127 650.825 641.835 650.117V650.117C642.543 649.409 643.691 649.409 644.399 650.117L656.45 662.168Z" fill="#7B5649"/>
<path d="M622.378 628.083C623.086 628.792 623.086 629.939 622.378 630.647V630.647C621.67 631.355 620.522 631.355 619.814 630.647L607.763 618.597C607.055 617.889 607.055 616.741 607.763 616.033V616.033C608.471 615.325 609.619 615.325 610.327 616.033L622.378 628.083Z" fill="#7B5649"/>
<circle cx="502.936" cy="533.963" r="6.615" fill="#7B5649"/>
<path d="M523.666 510.66C524.374 509.952 525.522 509.952 526.23 510.66V510.66C526.938 511.368 526.938 512.516 526.23 513.224L514.179 525.274C513.471 525.982 512.323 525.982 511.615 525.274V525.274C510.907 524.566 510.907 523.418 511.615 522.71L523.666 510.66Z" fill="#7B5649"/>
<path d="M489.589 544.744C490.297 544.036 491.445 544.036 492.153 544.744V544.744C492.861 545.452 492.861 546.6 492.153 547.308L480.102 559.359C479.394 560.067 478.246 560.067 477.538 559.359V559.359C476.83 558.651 476.83 557.503 477.538 556.795L489.589 544.744Z" fill="#7B5649"/>
<path d="M526.233 556.793C526.941 557.501 526.941 558.649 526.233 559.357V559.357C525.525 560.065 524.377 560.065 523.669 559.357L511.619 547.307C510.911 546.599 510.911 545.451 511.619 544.743V544.743C512.327 544.035 513.474 544.035 514.182 544.743L526.233 556.793Z" fill="#7B5649"/>
<path d="M492.161 522.719C492.869 523.427 492.869 524.575 492.161 525.283V525.283C491.453 525.991 490.305 525.991 489.597 525.283L477.546 513.232C476.838 512.524 476.838 511.376 477.546 510.668V510.668C478.254 509.96 479.402 509.96 480.11 510.668L492.161 522.719Z" fill="#7B5649"/>
<circle cx="502.936" cy="639.332" r="6.615" fill="#7B5649"/>
<path d="M523.66 616.044C524.368 615.336 525.516 615.336 526.224 616.044V616.044C526.932 616.752 526.932 617.9 526.224 618.608L514.174 630.659C513.466 631.367 512.318 631.367 511.61 630.659V630.659C510.902 629.951 510.902 628.803 511.61 628.095L523.66 616.044Z" fill="#7B5649"/>
<path d="M489.584 650.119C490.292 649.411 491.44 649.411 492.148 650.119V650.119C492.856 650.827 492.856 651.975 492.148 652.683L480.097 664.734C479.389 665.442 478.241 665.442 477.533 664.734V664.734C476.825 664.026 476.825 662.878 477.533 662.17L489.584 650.119Z" fill="#7B5649"/>
<path d="M526.228 662.168C526.936 662.876 526.936 664.024 526.228 664.732V664.732C525.52 665.44 524.372 665.44 523.664 664.732L511.614 652.681C510.906 651.973 510.906 650.825 511.614 650.117V650.117C512.322 649.409 513.47 649.409 514.178 650.117L526.228 662.168Z" fill="#7B5649"/>
<path d="M492.156 628.083C492.864 628.791 492.864 629.939 492.156 630.647V630.647C491.447 631.355 490.3 631.355 489.592 630.647L477.541 618.597C476.833 617.888 476.833 616.741 477.541 616.033V616.033C478.249 615.325 479.397 615.325 480.105 616.033L492.156 628.083Z" fill="#7B5649"/>
<circle cx="372.714" cy="533.963" r="6.615" fill="#7B5649"/>
<path d="M393.443 510.659C394.151 509.951 395.299 509.951 396.007 510.659V510.659C396.715 511.367 396.715 512.515 396.007 513.223L383.956 525.274C383.248 525.982 382.1 525.982 381.392 525.274V525.274C380.684 524.566 380.684 523.418 381.392 522.71L393.443 510.659Z" fill="#7B5649"/>
<path d="M359.366 544.744C360.074 544.036 361.222 544.036 361.93 544.744V544.744C362.638 545.452 362.638 546.6 361.93 547.308L349.879 559.358C349.171 560.066 348.023 560.066 347.315 559.358V559.358C346.607 558.65 346.607 557.503 347.315 556.794L359.366 544.744Z" fill="#7B5649"/>
<path d="M396.011 556.793C396.719 557.501 396.719 558.649 396.011 559.357V559.357C395.303 560.065 394.155 560.065 393.447 559.357L381.396 547.306C380.688 546.598 380.688 545.45 381.396 544.742V544.742C382.104 544.034 383.252 544.034 383.96 544.742L396.011 556.793Z" fill="#7B5649"/>
<path d="M361.939 522.709C362.647 523.417 362.647 524.565 361.939 525.273V525.273C361.231 525.981 360.083 525.981 359.375 525.273L347.324 513.222C346.616 512.514 346.616 511.366 347.324 510.658V510.658C348.032 509.95 349.18 509.95 349.888 510.658L361.939 522.709Z" fill="#7B5649"/>
<circle cx="372.714" cy="639.332" r="6.615" fill="#7B5649"/>
<path d="M393.438 616.044C394.146 615.336 395.294 615.336 396.002 616.044V616.044C396.71 616.752 396.71 617.9 396.002 618.608L383.951 630.659C383.243 631.367 382.095 631.367 381.387 630.659V630.659C380.679 629.951 380.679 628.803 381.387 628.095L393.438 616.044Z" fill="#7B5649"/>
<path d="M359.361 650.119C360.069 649.411 361.217 649.411 361.925 650.119V650.119C362.633 650.827 362.633 651.974 361.925 652.683L349.874 664.733C349.166 665.441 348.018 665.441 347.31 664.733V664.733C346.602 664.025 346.602 662.877 347.31 662.169L359.361 650.119Z" fill="#7B5649"/>
<path d="M396.016 662.167C396.724 662.875 396.724 664.023 396.016 664.731V664.731C395.308 665.439 394.16 665.439 393.452 664.731L381.401 652.681C380.693 651.973 380.693 650.825 381.401 650.117V650.117C382.109 649.409 383.257 649.409 383.965 650.117L396.016 662.167Z" fill="#7B5649"/>
<path d="M361.933 628.083C362.641 628.791 362.641 629.939 361.933 630.647V630.647C361.225 631.355 360.077 631.355 359.369 630.647L347.319 618.596C346.611 617.888 346.611 616.74 347.319 616.032V616.032C348.027 615.324 349.175 615.324 349.883 616.032L361.933 628.083Z" fill="#7B5649"/>
<circle cx="242.491" cy="533.963" r="6.615" fill="#7B5649"/>
<path d="M263.22 510.659C263.928 509.951 265.076 509.951 265.784 510.659V510.659C266.492 511.367 266.492 512.515 265.784 513.223L253.733 525.274C253.025 525.982 251.877 525.982 251.169 525.274V525.274C250.461 524.566 250.461 523.418 251.169 522.71L263.22 510.659Z" fill="#7B5649"/>
<path d="M229.143 544.744C229.851 544.036 230.999 544.036 231.707 544.744V544.744C232.415 545.452 232.415 546.599 231.707 547.308L219.657 559.358C218.949 560.066 217.801 560.066 217.093 559.358V559.358C216.385 558.65 216.385 557.502 217.093 556.794L229.143 544.744Z" fill="#7B5649"/>
<path d="M265.789 556.793C266.497 557.501 266.497 558.649 265.789 559.357V559.357C265.081 560.065 263.933 560.065 263.225 559.357L251.174 547.306C250.466 546.598 250.466 545.45 251.174 544.742V544.742C251.882 544.034 253.03 544.034 253.738 544.742L265.789 556.793Z" fill="#7B5649"/>
<path d="M231.717 522.718C232.425 523.426 232.425 524.574 231.717 525.282V525.282C231.009 525.99 229.861 525.99 229.153 525.282L217.102 513.231C216.394 512.523 216.394 511.375 217.102 510.667V510.667C217.81 509.959 218.958 509.959 219.666 510.667L231.717 522.718Z" fill="#7B5649"/>
<circle cx="242.491" cy="639.332" r="6.615" fill="#7B5649"/>
<path d="M263.215 616.044C263.923 615.336 265.071 615.336 265.779 616.044V616.044C266.487 616.752 266.487 617.9 265.779 618.608L253.728 630.658C253.02 631.366 251.872 631.366 251.164 630.658V630.658C250.456 629.95 250.456 628.802 251.164 628.094L263.215 616.044Z" fill="#7B5649"/>
<path d="M229.148 650.118C229.856 649.41 231.004 649.41 231.712 650.118V650.118C232.42 650.826 232.42 651.974 231.712 652.682L219.662 664.733C218.953 665.441 217.806 665.441 217.098 664.733V664.733C216.39 664.025 216.39 662.877 217.098 662.169L229.148 650.118Z" fill="#7B5649"/>
<path d="M265.794 662.167C266.502 662.875 266.502 664.023 265.794 664.731V664.731C265.086 665.439 263.938 665.439 263.23 664.731L251.179 652.68C250.471 651.972 250.471 650.824 251.179 650.116V650.116C251.887 649.408 253.035 649.408 253.743 650.116L265.794 662.167Z" fill="#7B5649"/>
<path d="M231.712 628.083C232.42 628.791 232.42 629.938 231.712 630.646V630.646C231.004 631.355 229.856 631.355 229.148 630.646L217.097 618.596C216.389 617.888 216.389 616.74 217.097 616.032V616.032C217.805 615.324 218.953 615.324 219.661 616.032L231.712 628.083Z" fill="#7B5649"/>
<circle cx="768.516" cy="406.827" r="82.5748" fill="#673315"/>
<path d="M511.736 449.862C516.01 446.891 521.883 447.948 524.854 452.222V452.222C527.825 456.496 526.769 462.369 522.495 465.34L495.646 484.003C491.372 486.973 485.499 485.917 482.528 481.643V481.643C479.557 477.369 480.614 471.496 484.888 468.525L511.736 449.862Z" fill="#EF927F"/>
<path d="M484.747 449.026C489.959 449.026 494.185 453.251 494.185 458.464V458.464C494.185 463.676 489.959 467.901 484.747 467.901H452.005C446.793 467.901 442.568 463.676 442.568 458.464V458.464C442.568 453.251 446.793 449.026 452.005 449.026H484.747Z" fill="#EF927F"/>
<path d="M495.968 425.438C488.049 432.754 485.41 444.17 489.315 454.22C493.221 464.27 502.875 470.909 513.657 470.959L708.971 471.625L755.776 471.841C770.083 471.639 781.594 460.019 781.66 445.712C781.727 431.404 770.325 419.677 756.021 419.342L513.893 418.46C507.248 418.422 500.838 420.917 495.968 425.438V425.438Z" fill="#F5A491"/>
<path d="M487.54 444.587C487.504 451.548 490.236 458.238 495.134 463.185C500.033 468.131 506.696 470.927 513.657 470.959H514.784L533.532 471.037L534.923 458.13L539.167 418.568L513.893 418.46C499.404 418.406 487.611 430.098 487.54 444.587V444.587Z" fill="#F5A491"/>
<ellipse cx="498.477" cy="444.122" rx="29.6744" ry="35.2212" transform="rotate(-84.48 498.477 444.122)" fill="#F5A491"/>
<path d="M534.923 458.14L533.532 471.047L755.776 471.831H757.325H757.54C757.981 471.831 758.422 471.762 758.853 471.723L759.147 471.674C759.539 471.674 759.951 471.576 760.353 471.507L760.637 471.458L761.882 471.204H762.078C763.517 470.854 764.927 470.388 766.292 469.812L766.458 469.724C766.84 469.567 767.213 469.391 767.585 469.195L767.83 469.077C768.193 468.901 768.546 468.705 768.889 468.499C768.96 468.469 769.029 468.433 769.094 468.391C769.496 468.156 769.869 467.921 770.251 467.676C777.631 462.854 782.094 454.647 782.128 445.831C782.128 445.724 782.128 445.616 782.128 445.498C781.962 437.658 771.241 435.835 768.134 443.048C763.993 452.752 754.439 459.027 743.889 458.973L534.923 458.14Z" fill="#EF927F"/>
<path d="M463.452 440.775C463.005 445.563 463.901 450.382 466.039 454.691C466.063 454.754 466.096 454.813 466.137 454.867C466.713 456.018 467.368 457.128 468.097 458.189L468.361 458.571C468.675 458.993 468.989 459.434 469.341 459.855C469.407 459.963 469.482 460.065 469.567 460.159C469.959 460.669 470.38 461.139 470.821 461.649C470.905 461.729 470.983 461.814 471.056 461.903C471.439 462.315 471.821 462.707 472.223 463.099L472.575 463.442C473.545 464.368 474.566 465.238 475.633 466.049L476.035 466.343C476.486 466.676 476.956 467.009 477.436 467.323C477.534 467.391 477.652 467.46 477.75 467.538C478.325 467.911 478.923 468.273 479.543 468.626L479.837 468.783C480.357 469.087 480.896 469.361 481.435 469.636L481.866 469.851C483.159 470.469 484.492 471.027 485.874 471.527L486.295 471.664C486.913 471.88 487.54 472.066 488.167 472.252C488.257 472.284 488.349 472.31 488.442 472.331C489.167 472.546 489.921 472.742 490.686 472.899H490.892C491.587 473.056 492.293 473.183 492.999 473.301L493.351 473.35C494.135 473.477 494.919 473.585 495.723 473.654C500.612 474.145 505.549 473.746 510.296 472.478C510.341 472.469 510.388 472.469 510.433 472.478H510.56C512.015 472.072 513.445 471.581 514.843 471.008L533.59 471.086L534.982 458.179H530.17L502.936 458.062C500.288 460.202 497.01 461.411 493.606 461.502C481.65 462.09 466.999 451.829 469.626 435.042C470.277 430.05 472.23 425.318 475.29 421.322C468.655 425.967 464.216 432.807 463.452 440.775V440.775Z" fill="#EF927F"/>
<path d="M413.727 632.717L366.099 672.986L407.386 677.435L451.937 645.947L413.727 632.717Z" fill="#F5A491"/>
<path d="M324.762 687.441C324.008 681.668 327.996 676.063 334.356 673.956L396.243 654.954C403.348 652.602 404.76 657.384 405.602 663.842L407.386 677.435C408.993 689.665 396.88 700.386 382.749 699.25L337.669 698.015C330.926 697.691 325.527 693.272 324.762 687.441V687.441Z" fill="#F5A491"/>
<path d="M562.479 493.736L774.655 616.236L745.779 666.25C738.96 678.062 723.856 682.109 712.044 675.29L521.255 565.138C501.581 553.735 494.854 528.557 506.219 508.861C517.59 489.165 542.764 482.397 562.479 493.736L562.479 493.736Z" fill="#FCB922"/>
<path d="M511.276 500.878L394.999 643.537C393.86 644.928 393.906 646.942 395.107 648.28L416.285 671.986C417.601 673.456 419.845 673.621 421.361 672.358L564.098 553.063C572.628 545.937 577.534 535.377 577.479 524.263C577.424 513.148 572.413 502.637 563.814 495.596C556.15 489.319 546.305 486.349 536.449 487.34C526.593 488.331 517.537 493.202 511.276 500.878V500.878Z" fill="#FCB922"/>
<path d="M809.235 482.101C808.857 485.375 808.244 488.617 807.402 491.803L771.044 630.071C766.971 645.568 756.907 658.812 743.067 666.888C729.228 674.964 712.746 677.21 697.25 673.133L648.564 660.324L706.933 438.403C709.784 427.543 716.835 418.262 726.533 412.602C736.23 406.943 747.78 405.37 758.638 408.229C791.536 416.831 813.102 448.317 809.235 482.101V482.101Z" fill="#FF4539"/>
<path d="M666.865 467.492C670.067 453.647 683.886 445.018 697.731 448.22L776.292 466.386C790.137 469.588 798.765 483.406 795.564 497.251V497.251C792.362 511.096 778.543 519.724 764.698 516.523L686.137 498.357C672.292 495.155 663.664 481.336 666.865 467.492V467.492Z" fill="#FF4539"/>
<path d="M549.231 616.185H774.631V659.187C774.631 680.977 756.967 698.642 735.176 698.642H549.231C527.336 698.615 509.6 680.857 509.6 658.962V655.865C509.6 633.969 527.336 616.212 549.231 616.185V616.185Z" fill="#FFC839"/>
<circle cx="714.939" cy="371.91" r="43.4042" fill="#673315"/>
<path d="M679.885 386.042C684.547 400.705 696.63 411.799 711.637 415.197C695.43 413.948 681.279 403.748 674.97 388.767C668.661 373.786 671.251 356.536 681.682 344.069C692.113 331.602 708.635 326.008 724.494 329.574C710.112 328.506 696.138 334.647 687.197 345.964C678.257 357.281 675.517 372.297 679.885 386.042V386.042Z" fill="#AD8E88"/>
<path d="M771.675 373.428C765.403 353.741 776.279 332.697 795.966 326.426L803.744 323.948C823.431 317.676 844.475 328.552 850.746 348.239V348.239C857.018 367.926 846.142 388.969 826.455 395.241L818.677 397.719C798.99 403.99 777.947 393.115 771.675 373.428V373.428Z" fill="#673315"/>
<path d="M716.027 386.884L725.004 415.069C726.682 420.699 731.269 424.984 737 426.274C742.731 427.564 748.712 425.658 752.641 421.29C756.569 416.922 757.831 410.773 755.943 405.21L746.966 377.026C745.288 371.396 740.701 367.111 734.969 365.821C729.238 364.531 723.257 366.437 719.329 370.805C715.401 375.173 714.138 381.322 716.027 386.884V386.884Z" fill="#F5A491"/>
<path d="M716.027 386.884L722.936 408.572C733.829 407.454 744.357 404.022 753.816 398.507L746.956 377.026C745.278 371.396 740.691 367.111 734.96 365.821C729.229 364.531 723.248 366.437 719.319 370.805C715.391 375.173 714.129 381.322 716.017 386.884H716.027Z" fill="#EF927F"/>
<path d="M673.73 331.093L676.484 339.256L678.366 344.852L689.499 377.966C695.457 395.672 714.635 405.2 732.344 399.252C746.484 394.499 758.156 384.323 764.792 370.963C771.429 357.604 772.486 342.155 767.732 328.016L759.892 304.702C754.497 288.679 737.139 280.06 721.113 285.445L697.26 293.471L691.468 295.431C676.727 300.385 668.787 316.347 673.73 331.093V331.093Z" fill="#F5A491"/>
<path d="M735.235 398.184C734.255 398.566 733.275 398.929 732.295 399.252C714.586 405.2 695.408 395.672 689.45 377.966L678.317 344.852L676.435 339.256L673.681 331.103C668.731 316.349 676.67 300.374 691.419 295.411L694.467 294.431C680.653 300.02 673.579 315.399 678.327 329.525L681.071 337.688L682.952 343.284L694.134 376.32C699.848 393.372 717.902 402.975 735.235 398.184V398.184Z" fill="#FFC4AF"/>
<path d="M673.73 331.093L676.484 339.256L678.366 344.852C691.633 347.216 704.685 339.724 709.336 327.076C713.987 314.428 708.898 300.266 697.26 293.471L691.468 295.431C676.727 300.385 668.787 316.347 673.73 331.093V331.093Z" fill="#EF927F"/>
<ellipse cx="698.149" cy="358.666" rx="3.2144" ry="2.891" transform="rotate(-17.67 698.149 358.666)" fill="#230D30"/>
<ellipse cx="721.35" cy="351.278" rx="3.2144" ry="2.891" transform="rotate(-17.67 721.35 351.278)" fill="#230D30"/>
<circle cx="777.238" cy="324.733" r="29.4882" fill="#673315"/>
<path d="M850.444 347.332C850.552 347.626 850.65 347.929 850.748 348.243C854.668 360.506 851.994 373.925 843.672 383.748C849.63 374.39 851.123 362.869 847.749 352.3C847.651 351.996 847.553 351.693 847.445 351.389C841.556 334.42 824.438 324.032 806.667 326.644C805.687 326.791 804.707 326.987 803.727 327.212C803.675 326.161 803.561 325.114 803.384 324.076C803.166 322.645 802.838 321.233 802.404 319.852C800.031 312.399 794.793 306.193 787.844 302.602C780.895 299.011 772.803 298.328 765.35 300.703C760.245 302.313 755.682 305.297 752.16 309.327C758.909 298.328 772.024 292.993 784.535 296.157C797.045 299.321 806.047 310.25 806.755 323.135C825.358 318.88 844.182 329.305 850.444 347.332V347.332Z" fill="#441A07"/>
<circle cx="768.516" cy="338.1" r="14.308" fill="#F5A491"/>
<path d="M772.642 336.944C773.402 339.312 772.664 341.906 770.77 343.519C770.312 343.882 769.705 343.995 769.147 343.823C768.589 343.65 768.151 343.214 767.977 342.657L765.537 334.993C765.358 334.407 765.49 333.77 765.886 333.303C766.282 332.835 766.889 332.601 767.497 332.681C769.897 332.975 771.906 334.64 772.642 336.944V336.944Z" fill="#EF927F"/>
<circle cx="746.358" cy="293.941" r="31.0758" fill="#673315"/>
<path d="M777.209 297.675C775.575 281.972 762.427 269.99 746.64 269.817C730.854 269.644 717.446 281.336 715.469 296.999C714.231 285.108 719.925 273.561 730.112 267.304C740.299 261.046 753.172 261.187 763.219 267.666C773.267 274.145 778.706 285.814 777.209 297.675V297.675Z" fill="#441A07"/>
<circle cx="696.28" cy="293.353" r="31.0758" fill="#673315"/>
<circle cx="672.065" cy="325.86" r="31.0758" fill="#673315"/>
<path d="M717.154 270.333C708.306 266.901 698.374 267.7 690.187 272.501C682 277.303 676.456 285.582 675.132 294.98C674.821 297.151 674.745 299.349 674.907 301.536C674.025 301.732 673.133 301.967 672.251 302.252C670.515 302.805 668.83 303.507 667.214 304.349C658.243 309.076 652.141 317.88 650.863 327.939C649.585 337.997 653.292 348.047 660.795 354.868C648.524 350.09 640.597 338.099 641.009 324.938C641.421 311.777 650.082 300.304 662.627 296.303C663.509 296.019 664.401 295.784 665.293 295.588C664.395 282.929 671.288 270.997 682.701 265.45C694.115 259.903 707.755 261.855 717.154 270.382V270.333Z" fill="#AD8E88"/>
<circle cx="702.082" cy="295.823" r="16.611" fill="#AD8E88"/>
<path d="M706.384 370.303C707.344 372.697 709.216 374.611 711.588 375.624C711.882 375.752 712.176 375.859 712.47 375.957C714.624 376.636 716.947 376.55 719.045 375.712L719.408 375.556C721.335 374.786 722.958 373.41 724.034 371.636C725.537 369.241 725.92 366.31 725.082 363.609C725.004 363.35 724.912 363.095 724.808 362.845C724.418 361.882 723.324 361.414 722.358 361.796L707.432 367.804C706.954 367.986 706.571 368.357 706.373 368.829C706.175 369.301 706.179 369.834 706.384 370.303V370.303Z" fill="#962F4A"/>
<path d="M718.673 374.242C718.856 374.711 719.089 375.158 719.369 375.575H719.418C724.112 373.685 726.575 368.513 725.082 363.678C724.355 363.746 723.642 363.921 722.966 364.197C721.064 364.96 719.543 366.447 718.738 368.331C717.933 370.215 717.91 372.341 718.673 374.242V374.242Z" fill="#E1617F"/>
<path d="M707.766 367.716C708.55 369.46 711.842 369.783 715.204 368.431C718.565 367.079 720.731 364.56 720.104 362.767L707.766 367.716Z" fill="white"/>
<path d="M745.915 442.576C755.221 428.96 773.802 425.466 787.417 434.771V434.771C801.033 444.077 804.527 462.658 795.222 476.273L732.112 568.615C722.807 582.231 704.226 585.725 690.61 576.42V576.42C676.995 567.114 673.501 548.533 682.806 534.918L745.915 442.576Z" fill="#F5A491"/>
<path d="M657.697 468.116C659.611 472.457 657.643 477.527 653.302 479.441V479.441C648.961 481.354 643.891 479.387 641.977 475.046L631.177 450.547C629.264 446.206 631.231 441.136 635.572 439.223V439.223C639.913 437.309 644.983 439.277 646.897 443.617L657.697 468.116Z" fill="#F5A491"/>
<path d="M602.247 401.611C602.346 397.929 605.411 395.024 609.094 395.123L639.235 395.933C642.918 396.032 645.823 399.098 645.724 402.78L643.914 470.089C643.815 473.772 640.75 476.677 637.067 476.578L606.926 475.767C603.243 475.668 600.338 472.603 600.437 468.921L602.247 401.611Z" fill="#AD8E88"/>
<path d="M599.014 403.807C599.113 400.125 602.179 397.22 605.861 397.319L636.002 398.129C639.685 398.228 642.59 401.293 642.491 404.976L640.681 472.285C640.582 475.968 637.517 478.872 633.834 478.773L603.693 477.963C600.01 477.864 597.106 474.799 597.205 471.116L599.014 403.807Z" fill="#441A07"/>
<path d="M597.163 471.302C597.07 474.91 599.915 477.913 603.523 478.015L633.903 478.828C634.343 478.841 634.784 478.805 635.216 478.72L608.756 478.015C607.022 477.968 605.378 477.235 604.185 475.976C602.992 474.717 602.349 473.035 602.396 471.302L604.278 403.76C604.358 400.655 606.618 398.039 609.677 397.508L605.699 397.4C603.965 397.352 602.283 397.996 601.024 399.189C599.765 400.382 599.032 402.026 598.986 403.76L597.163 471.302Z" fill="#673315"/>
<circle cx="625.103" cy="412.335" r="4.7628" fill="#AD8E88"/>
<circle cx="613.627" cy="412.021" r="2.4794" fill="#AD8E88"/>
<path d="M726.878 530.906C738.9 542.271 739.433 561.229 728.068 573.251V573.251C716.704 585.272 697.746 585.805 685.724 574.441L609.117 502.022C597.095 490.658 596.563 471.7 607.927 459.678V459.678C619.291 447.657 638.249 447.124 650.271 458.488L726.878 530.906Z" fill="#F5A491"/>
<ellipse cx="621.859" cy="471.702" rx="30.9617" ry="38.2555" transform="rotate(-58.0552 621.859 471.702)" fill="#F5A491"/>
<path d="M613.12 471.955C617.072 474.58 618.148 479.911 615.523 483.863V483.863C612.899 487.815 607.567 488.891 603.616 486.266L581.313 471.454C577.361 468.829 576.285 463.498 578.91 459.546V459.546C581.534 455.594 586.865 454.518 590.817 457.143L613.12 471.955Z" fill="#F5A491"/>
<path d="M578.916 459.561C579.796 458.231 581.032 457.175 582.483 456.513C582.336 456.7 582.189 456.896 582.061 457.092C580.799 458.987 580.341 461.307 580.79 463.541C581.238 465.774 582.556 467.737 584.453 468.999L584.845 469.263L588.765 471.88C589.237 473.896 589.893 475.864 590.725 477.76C593.442 483.855 597.554 489.226 602.73 493.44C604.325 494.764 606.007 495.979 607.767 497.076C609.168 497.948 610.609 498.751 612.059 499.467C612.113 499.53 612.172 499.589 612.236 499.643L618.214 505.288L688.852 572.065C699.089 581.713 714.66 582.936 726.278 575.005C714.681 585.42 697.033 585.194 685.706 574.486L609.1 502.064L608.923 501.887C607.483 501.172 606.042 500.368 604.631 499.496C594.556 493.185 587.902 483.816 585.619 474.31L581.287 471.439C577.367 468.804 576.308 463.499 578.916 459.561V459.561Z" fill="#FFC4AF"/>
<path d="M616.295 455.334C620.247 457.959 621.323 463.29 618.698 467.242V467.242C616.073 471.193 610.742 472.269 606.79 469.645L584.488 454.832C580.536 452.208 579.46 446.876 582.084 442.925V442.925C584.709 438.973 590.04 437.897 593.992 440.522L616.295 455.334Z" fill="#F5A491"/>
<path d="M629.178 444.86C633.13 447.485 634.206 452.816 631.581 456.768V456.768C628.957 460.72 623.625 461.796 619.674 459.171L595.926 443.399C591.974 440.774 590.898 435.443 593.523 431.491V431.491C596.147 427.54 601.478 426.464 605.43 429.088L629.178 444.86Z" fill="#F5A491"/>
<path d="M584.492 454.847C580.82 452.327 579.681 447.42 581.868 443.541C584.055 439.661 588.843 438.095 592.9 439.932C593.267 440.104 593.621 440.304 593.958 440.53L596.487 442.205C595.651 441.818 594.757 441.573 593.841 441.48C589.904 441.042 586.178 443.355 584.824 447.078C583.47 450.8 584.839 454.966 588.137 457.16" fill="#FFC4AF"/>
<path d="M605.434 429.093L607.963 430.769C604.679 429.26 600.803 429.965 598.262 432.535C595.721 435.104 595.059 438.988 596.604 442.254H596.516C595.681 441.867 594.786 441.622 593.87 441.529C593.486 441.052 593.157 440.532 592.89 439.981C591.249 436.497 592.126 432.346 595.036 429.824C597.946 427.301 602.179 427.023 605.395 429.142L605.434 429.093Z" fill="#FFC4AF"/>
<path d="M690.839 527.699C695.15 531.774 695.341 538.572 691.266 542.883V542.883C687.191 547.193 680.393 547.384 676.082 543.309L645.167 514.085C640.857 510.01 640.666 503.212 644.741 498.901V498.901C648.816 494.59 655.614 494.399 659.924 498.474L690.839 527.699Z" fill="#FFC4AF"/>
</svg>
