<svg width="980" height="980" viewBox="0 0 980 980" fill="none" xmlns="http://www.w3.org/2000/svg">
<path d="M27.3024 647.966V658.168C27.2998 692.583 40.9706 725.589 65.3065 749.923C89.6424 774.257 122.649 787.925 157.064 787.92H209.72C224.502 787.926 236.483 799.911 236.483 814.694V914.565H684.04V814.694C684.035 803.675 690.789 793.782 701.052 789.772C704.172 788.539 707.498 787.911 710.852 787.92H799.386C800.777 787.92 802.169 787.901 803.56 787.861C833.88 786.951 863.001 775.816 886.194 756.266C889.154 753.777 891.999 751.164 894.73 748.426C933.304 709.862 944.846 651.858 923.975 601.464C903.104 551.07 853.93 518.213 799.386 518.214H695.457C682.798 518.426 671.01 511.794 664.619 500.866C658.228 489.937 658.228 476.412 664.619 465.483C671.01 454.555 682.798 447.923 695.457 448.134H870.759C916.012 448.134 952.697 411.45 952.697 366.197C952.697 320.944 916.012 284.259 870.759 284.259C833.255 284.259 802.85 253.859 802.845 216.355V147.167C802.848 140.067 800.029 133.257 795.01 128.236C789.99 123.214 783.181 120.393 776.081 120.393H152.223C122.738 120.071 95.3531 135.616 80.5165 161.099C65.68 186.581 65.68 218.071 80.5165 243.553C95.3531 269.036 122.738 284.581 152.223 284.259H218.863C245.163 284.259 266.486 305.577 266.491 331.877C266.486 358.177 245.163 379.495 218.863 379.495C217.991 379.495 217.128 379.495 216.266 379.554C183.182 380.942 157.084 408.181 157.113 441.294V483.434C157.116 502.452 144.638 519.217 126.42 524.673C101.371 532.17 66.7572 547.977 45.7558 580.533C40.2008 589.175 35.8766 598.549 32.908 608.384C29.0816 621.226 27.1923 634.567 27.3024 647.966V647.966Z" fill="#F3F4FE"/>
<rect x="61.0635" y="91.2578" width="838.792" height="479.896" rx="17.7" fill="#D2D6FA"/>
<rect x="449.223" y="174.097" width="398.537" height="351.389" rx="28.4" fill="#F3F4FE"/>
<path d="M550.887 309.082L621.878 294.225C622.899 299.112 623.415 304.09 623.417 309.082C623.417 348.87 590.675 381.602 550.897 381.602C511.119 381.602 478.377 348.86 478.377 309.082C478.377 269.304 511.119 236.562 550.897 236.562L550.887 309.082Z" fill="#BCBFF6"/>
<path d="M550.888 309.082L536.061 238.14C540.95 237.119 545.932 236.603 550.927 236.602C590.715 236.602 623.447 269.343 623.447 309.122C623.447 348.9 590.705 381.642 550.927 381.642C511.149 381.642 478.407 348.9 478.407 309.122L550.888 309.082Z" fill="#D2D6FA"/>
<rect x="643.654" y="269.402" width="41.0522" height="23.275" rx="11.6375" fill="#D2D6FA"/>
<rect x="694.683" y="269.402" width="128.302" height="23.275" rx="11.6375" fill="#D2D6FA"/>
<rect x="696.438" y="301.87" width="74.431" height="23.275" rx="11.6375" fill="#D2D6FA"/>
<rect x="694.683" y="332.74" width="128.302" height="23.275" rx="11.6375" fill="#D2D6FA"/>
<rect x="478.357" y="420.459" width="344.627" height="23.275" rx="11.6375" fill="#D2D6FA"/>
<rect x="478.357" y="453.515" width="344.627" height="37.0048" rx="18.5024" fill="#D2D6FA"/>
<rect x="643.654" y="332.74" width="41.0522" height="23.275" rx="11.6375" fill="#D2D6FA"/>
<rect x="121.687" y="168.286" width="242.824" height="92.6786" rx="11.38" fill="#BCBFF6"/>
<rect x="131.369" y="180.869" width="83.6332" height="67.522" rx="5.7" fill="#F3F4FE"/>
<rect x="146.206" y="217.903" width="8.0262" height="26.6266" rx="4.0131" fill="#D2D6FA"/>
<rect x="159.809" y="207.672" width="8.0262" height="36.8578" rx="4.0131" fill="#D2D6FA"/>
<rect x="173.538" y="196.274" width="8.0262" height="48.2552" rx="4.0131" fill="#D2D6FA"/>
<rect x="191.1" y="187.602" width="8.0262" height="56.9282" rx="4.0131" fill="#D2D6FA"/>
<rect x="229.163" y="192.433" width="123.176" height="9.065" rx="4.5325" fill="#F3F4FE"/>
<rect x="229.163" y="211.808" width="82.7904" height="9.065" rx="3.79" fill="#F3F4FE"/>
<path d="M78.3997 91.2578H882.509C892.089 91.2578 899.855 99.0239 899.855 108.604V132.3H61.0635V108.604C61.0635 99.0277 68.8236 91.2632 78.3997 91.2578V91.2578Z" fill="#BCBFF6"/>
<circle cx="172.088" cy="111.779" r="9.898" fill="white"/>
<circle cx="135.123" cy="111.779" r="9.898" fill="white"/>
<circle cx="209.044" cy="111.779" r="9.898" fill="white"/>
<rect x="121.687" y="348.165" width="102.39" height="177.645" rx="27.69" fill="#BCBFF6"/>
<rect x="241.883" y="424.085" width="102.39" height="101.714" rx="20.95" fill="#BCBFF6"/>
<rect x="362.551" y="462.021" width="68.1982" height="63.7882" rx="13.54" fill="#BCBFF6"/>
<rect x="135.005" y="931.823" width="72.5788" height="17.2578" rx="8.6289" transform="rotate(-180 135.005 931.823)" fill="#D2D6FA"/>
<rect x="935.772" y="931.823" width="793.741" height="17.2578" rx="8.6289" transform="rotate(-180 935.772 931.823)" fill="#D2D6FA"/>
<path d="M248.992 250.464C250.592 255.268 247.994 260.46 243.19 262.059V262.059C238.387 263.659 233.195 261.062 231.595 256.258L222.578 229.183C220.978 224.379 223.576 219.187 228.379 217.588V217.588C233.183 215.988 238.375 218.585 239.974 223.389L248.992 250.464Z" fill="#F9A0B4"/>
<circle cx="233.406" cy="257.74" r="18.0614" fill="#F9A0B4"/>
<path d="M529.366 914.546H451.888C451.888 893.151 469.232 875.807 490.627 875.807C512.022 875.807 529.366 893.151 529.366 914.546Z" fill="#33557A"/>
<path d="M418.293 914.546H340.814C340.814 893.151 358.159 875.807 379.554 875.807C400.949 875.807 418.293 893.151 418.293 914.546Z" fill="#33557A"/>
<path d="M407.141 547.565V914.536H351.957V574.476C351.957 559.599 359.875 547.526 369.597 547.526L407.141 547.565Z" fill="#FFB2BF"/>
<path d="M351.957 827.698H407.141V914.546H351.957V827.698Z" fill="#D5E6BC"/>
<path d="M351.957 827.698H365.755V914.546H351.957V827.698Z" fill="#C3D3A7"/>
<path d="M379.554 827.698H393.352V914.546H379.554V827.698Z" fill="#C3D3A7"/>
<path d="M351.957 815.654H407.141V827.688H351.957V815.654Z" fill="#F9A0B4"/>
<path d="M520.635 900.522H464.52L449.428 820.407L416.5 645.389L407.121 595.468L404.652 582.306C403.103 574.084 404.181 566.274 407.121 560.688C409.415 556.346 412.835 553.347 417.029 552.563L453.897 545.625L472.654 645.389L503.642 810.225L520.635 900.522Z" fill="#FFB2BF"/>
<path d="M520.635 900.522H464.5L449.428 820.407L503.661 810.225L520.635 900.522Z" fill="#D5E6BC"/>
<path d="M449.422 820.419L462.979 817.85L479.148 903.18L465.591 905.749L449.422 820.419Z" fill="#C3D3A7"/>
<path d="M476.529 815.286L490.086 812.717L506.256 898.046L492.699 900.615L476.529 815.286Z" fill="#C3D3A7"/>
<path d="M501.789 800.68L447.674 811.205L449.428 820.407L503.661 810.225L501.789 800.68Z" fill="#F9A0B4"/>
<path d="M472.673 645.389H416.5L407.121 595.468V645.389H351.957V574.515C351.957 559.639 359.875 547.565 369.597 547.565H407.121V560.688C409.414 556.346 412.835 553.347 417.029 552.563L453.897 545.625L472.673 645.389Z" fill="#F9A0B4"/>
<path d="M340.236 899.042L417.539 890.487C420.947 890.108 424.356 891.199 426.912 893.487C429.467 895.774 430.927 899.043 430.925 902.472C430.925 909.135 425.524 914.536 418.862 914.536H341.089C336.797 914.536 333.317 911.057 333.317 906.765C333.318 902.804 336.299 899.477 340.236 899.042V899.042Z" fill="#55A4AB"/>
<path d="M430.915 902.482C430.918 905.68 429.649 908.747 427.388 911.008C425.127 913.27 422.059 914.539 418.861 914.536H399.604C405.139 914.548 409.971 910.789 411.32 905.421C412.67 900.053 410.19 894.456 405.308 891.849L417.538 890.487C420.947 890.111 424.355 891.204 426.909 893.494C429.462 895.783 430.919 899.052 430.915 902.482V902.482Z" fill="#33557A"/>
<path d="M451.309 899.042L528.612 890.487C532.021 890.108 535.43 891.199 537.985 893.487C540.54 895.774 542 899.043 541.999 902.472C541.999 909.135 536.597 914.536 529.935 914.536H452.162C447.87 914.536 444.391 911.057 444.391 906.765C444.392 902.804 447.372 899.477 451.309 899.042V899.042Z" fill="#55A4AB"/>
<path d="M541.999 902.482C541.993 909.141 536.594 914.536 529.935 914.536H510.688C516.221 914.543 521.048 910.783 522.395 905.416C523.742 900.05 521.262 894.455 516.381 891.849L528.612 890.487C532.022 890.111 535.43 891.204 537.985 893.493C540.54 895.783 542 899.052 541.999 902.482V902.482Z" fill="#33557A"/>
<path d="M371.988 435.443C362.069 444.274 347.031 444.005 337.434 434.826C336.934 434.355 336.454 433.846 335.983 433.336L321.087 416.598L212.092 294.098C202.728 283.579 203.665 267.461 214.184 258.098C224.703 248.734 240.821 249.671 250.184 260.19L333.543 353.878L355.211 378.28L374.076 399.487C383.422 409.995 382.487 426.087 371.988 435.443V435.443Z" fill="#FFB2BF"/>
<path d="M374.076 399.448L355.211 378.28L333.543 353.927C333.543 354.172 333.484 354.397 333.455 354.632C333.455 354.632 338.756 373.84 321.087 416.637L335.983 433.375C336.444 433.895 336.963 434.355 337.433 434.865C347.299 444.449 362.99 444.472 372.885 434.919C382.78 425.365 383.307 409.683 374.076 399.487V399.448Z" fill="#F9A0B4"/>
<path d="M497.703 496.517C491.781 499.791 484.8 500.575 478.299 498.696C471.798 496.817 466.312 492.43 463.05 486.501L450.898 464.52L443.616 451.319L421.998 412.119C415.27 399.948 419.544 384.631 431.602 377.702L432.003 377.476C437.922 374.207 444.898 373.425 451.393 375.302C457.889 377.179 463.373 381.56 466.637 387.482L469.802 393.205L507.699 461.893C510.965 467.81 511.747 474.782 509.872 481.276C507.998 487.769 503.62 493.251 497.703 496.517V496.517Z" fill="#FFB2BF"/>
<path d="M570.622 448.517C584.702 448.45 596.17 459.811 596.236 473.891V473.891C596.303 487.971 584.942 499.439 570.862 499.505L485.868 499.906C471.787 499.972 460.319 488.612 460.253 474.532V474.532C460.187 460.452 471.547 448.984 485.627 448.917L570.622 448.517Z" fill="#FFB2BF"/>
<ellipse cx="580.97" cy="468.038" rx="34.2118" ry="26.9794" transform="rotate(-50.27 580.97 468.038)" fill="#FFB2BF"/>
<path opacity="0.38" d="M602.817 441.667C591.959 432.641 574.231 435.787 562.128 448.585L500.525 448.879L466.637 387.463C461.352 377.839 450.496 372.683 439.697 374.667C428.899 376.652 420.586 385.33 419.067 396.204C423.192 387.588 431.79 382.003 441.339 381.737C450.888 381.47 459.784 386.567 464.383 394.94L494.194 448.938L498.271 456.347H504.612L556.434 456.102H559.874C562.657 453.133 565.859 450.587 569.38 448.546C580.091 442.441 592.341 442.235 600.603 449.105C607.649 454.985 610.177 464.599 608.247 474.585C613.362 462.217 611.628 448.997 602.817 441.667V441.667Z" fill="#F9E0E5"/>
<path d="M547.955 440.279C550.066 440.269 551.785 441.972 551.795 444.083L552.078 504.127C552.088 506.237 550.385 507.957 548.274 507.967V507.967C546.164 507.977 544.444 506.273 544.434 504.163L544.151 444.119C544.141 442.008 545.845 440.289 547.955 440.279V440.279Z" fill="#55A4AB"/>
<path d="M538.503 444.769C540.614 444.759 542.333 446.462 542.343 448.573L542.587 500.346C542.597 502.457 540.894 504.176 538.783 504.186V504.186C536.672 504.196 534.953 502.493 534.943 500.382L534.699 448.609C534.689 446.498 536.392 444.779 538.503 444.769V444.769Z" fill="#55A4AB"/>
<path d="M364.021 444.548V503.269C364.021 525.238 381.831 543.048 403.8 543.048C425.769 543.048 443.578 525.238 443.578 503.269V444.548L364.021 444.548Z" fill="#FDA541"/>
<path d="M388.785 327.575V388.335C388.791 396.094 395.079 402.383 402.838 402.388H404.74C412.503 402.388 418.797 396.098 418.803 388.335V327.575C418.805 323.843 417.325 320.264 414.687 317.624C412.049 314.985 408.471 313.502 404.74 313.502H402.829C395.066 313.513 388.78 319.812 388.785 327.575H388.785Z" fill="#FFB2BF"/>
<path d="M462.844 434.434V436.62C462.839 452.649 449.846 465.642 433.816 465.647H371.518C355.49 465.642 342.5 452.647 342.5 436.62V434.434C342.507 418.479 348.853 403.179 360.14 391.902C362.085 389.962 364.157 388.155 366.343 386.493C384.547 372.685 409.002 370.38 429.464 380.544C449.927 390.708 462.867 411.586 462.864 434.434H462.844Z" fill="#FDA541"/>
<path d="M452.975 401.418C445.035 389.384 433.065 380.576 419.214 376.575C423.683 378.619 427.888 381.195 431.739 384.248C446.162 395.642 454.572 413.015 454.563 431.396V433.572C454.55 445.837 446.842 456.775 435.296 460.914V500.231C435.287 512.454 429.664 523.995 420.043 531.534C410.423 539.073 397.872 541.775 386.002 538.863C398.337 545.032 412.987 544.373 424.718 537.121C436.45 529.87 443.589 517.061 443.587 503.269V463.961C455.133 459.825 462.838 448.884 462.844 436.619V434.434C462.866 422.698 459.434 411.216 452.975 401.418V401.418Z" fill="#FFBA76"/>
<path d="M440.02 387.296C429.875 393.529 418.286 397.023 406.387 397.439C405.524 397.488 404.662 397.498 403.79 397.498C402.359 397.498 400.928 397.449 399.527 397.361C387.705 396.659 376.264 392.915 366.314 386.492C388.19 369.916 418.511 370.247 440.02 387.296V387.296Z" fill="#FFB2BF"/>
<circle cx="445.968" cy="298.625" r="14.8764" fill="#F9A0B4"/>
<circle cx="366.324" cy="298.625" r="14.8764" fill="#F9A0B4"/>
<path d="M473.977 625.769H340.697C336.355 625.772 332.227 623.887 329.386 620.604C326.545 617.321 325.272 612.964 325.899 608.668C331.857 568.704 334.464 498.595 407.131 498.595C478.945 498.595 484.139 570.39 488.804 609.031C489.317 613.274 487.988 617.535 485.154 620.734C482.32 623.934 478.251 625.767 473.977 625.769V625.769Z" fill="#55A4AB"/>
<path d="M473.987 625.759H448.762C453.037 625.762 457.109 623.933 459.946 620.735C462.782 617.536 464.113 613.275 463.599 609.031C459.209 572.771 454.377 507.277 394.392 499.388C398.617 498.853 402.872 498.591 407.132 498.604C478.956 498.604 484.14 570.399 488.805 609.031C489.318 613.272 487.99 617.529 485.158 620.727C482.325 623.925 478.259 625.757 473.987 625.759V625.759Z" fill="#6FBFC1"/>
<rect x="357.073" y="235.22" width="95.7656" height="222.813" rx="47.8828" fill="#652138"/>
<rect x="349.047" y="309.082" width="111.798" height="148.95" rx="52.79" fill="#652138"/>
<path d="M452.839 333.2V283.103C452.844 270.4 447.801 258.216 438.821 249.232C429.841 240.248 417.659 235.2 404.956 235.2C403.191 235.199 401.428 235.297 399.674 235.494C423.923 238.19 442.269 258.685 442.274 283.083V333.2C447.518 341.474 450.295 351.07 450.281 360.866V406.347C450.262 433.641 429.04 456.223 401.8 457.935C401.095 457.935 400.389 457.817 399.693 457.739C398.998 457.817 398.292 457.886 397.577 457.935C396.528 458.003 395.479 458.033 394.411 458.033H409.111C422.834 458.035 435.995 452.586 445.699 442.883C455.403 433.181 460.855 420.021 460.855 406.298V360.817C460.861 351.036 458.08 341.457 452.839 333.2V333.2Z" fill="#7A314D"/>
<rect x="402.143" y="351.545" width="33.3494" height="64.0234" rx="16.6747" fill="#7A314D"/>
<circle cx="407.141" cy="253.967" r="25.9406" fill="#FDA541"/>
<circle cx="407.141" cy="239.884" r="32.879" fill="#7A314D"/>
<path d="M440.02 239.875C440.014 258.036 425.293 272.758 407.131 272.763C405.804 272.768 404.478 272.683 403.162 272.509C419.678 270.522 432.106 256.51 432.106 239.875C432.106 223.24 419.678 209.227 403.162 207.241C404.479 207.075 405.804 206.993 407.131 206.996C425.291 206.996 440.014 221.715 440.02 239.875V239.875Z" fill="#8E4463"/>
<ellipse cx="224.074" cy="263.309" rx="28.8316" ry="34.2118" transform="rotate(-36.25 224.074 263.309)" fill="#FFB2BF"/>
<path d="M247.273 253.113C250.39 257.104 249.681 262.865 245.691 265.982V265.982C241.7 269.099 235.939 268.39 232.822 264.4L193.052 213.478C189.936 209.488 190.644 203.726 194.635 200.61V200.61C198.625 197.493 204.387 198.202 207.503 202.192L247.273 253.113Z" fill="#FFB2BF"/>
<ellipse opacity="0.38" cx="580.966" cy="474.037" rx="14.749" ry="10.1136" transform="rotate(-50.27 580.966 474.037)" fill="#F9E0E5"/>
<path d="M740.303 763.374C748.701 783.749 739.001 807.076 718.632 815.489L698.499 823.787C690.096 803.401 699.811 780.063 720.197 771.66L740.303 763.374H740.303Z" fill="#969ECC"/>
<path d="M688.943 724.451C709.33 732.854 719.044 756.192 710.642 776.578L702.344 796.711C681.957 788.308 672.243 764.97 680.645 744.584L688.943 724.451Z" fill="#7986BF"/>
<path d="M698.551 823.784L678.419 815.486C658.032 807.084 648.318 783.746 656.72 763.359L676.88 771.668C697.25 780.082 706.95 803.409 698.551 823.784Z" fill="#969ECC"/>
<path d="M768.32 842.663C767.861 881.812 735.995 913.307 696.844 913.307C657.692 913.307 625.826 881.812 625.367 842.663C625.363 839.908 625.524 837.156 625.847 834.421C626.204 831.27 626.774 828.146 627.553 825.072H766.134C766.918 828.145 767.488 831.269 767.84 834.421C768.168 837.156 768.329 839.908 768.32 842.663V842.663Z" fill="#969ECC"/>
<rect x="616.587" y="806.364" width="163.836" height="18.7082" rx="9.3541" fill="#7986BF"/>
<path d="M767.84 834.421H625.848C626.204 831.27 626.774 828.146 627.553 825.072H766.135C766.918 828.145 767.488 831.269 767.84 834.421V834.421Z" fill="#7986BF"/>
</svg>
