<svg width="595" height="566" viewBox="0 0 595 566" fill="none" xmlns="http://www.w3.org/2000/svg">
<path d="M508.403 149.163C557.883 223.381 572.963 318.461 548.074 389.436C523.445 459.977 459.04 505.6 382.972 523.297C307.23 540.935 220.085 530.212 174.582 472.816C128.819 415.856 124.372 312.281 151.028 220.745C177.29 128.889 234.721 49.4494 305.113 35.8692C375.504 22.2891 458.99 75.3236 508.403 149.163Z" fill="#0939AB" fill-opacity="0.1"/>
<path d="M504.05 218.888C539.89 300.57 538.231 396.824 501.395 462.4C464.891 527.592 393.542 561.339 315.557 565.557C237.903 569.775 153.943 544.082 119.099 479.657C83.9221 415.615 97.5281 312.842 139.674 227.325C181.487 141.425 251.84 73.1651 323.521 72.0146C395.202 70.8642 468.21 137.59 504.05 218.888Z" fill="#0939AB"/>
<path d="M0.00170486 385.99V390.04C0.000729962 403.701 5.12691 416.803 14.2522 426.463C23.3775 436.123 35.7543 441.548 48.6589 441.546H68.4033C73.9465 441.548 78.439 446.306 78.439 452.174V491.819H246.261V452.174C246.259 447.8 248.792 443.873 252.64 442.282C253.81 441.792 255.057 441.543 256.315 441.546H289.512C290.034 441.546 290.556 441.539 291.078 441.523C302.447 441.162 313.367 436.742 322.063 428.981C323.173 427.993 324.24 426.955 325.264 425.869C339.728 410.56 344.056 387.535 336.23 367.531C328.404 347.527 309.965 334.484 289.512 334.484H250.542C245.795 334.568 241.375 331.936 238.978 327.598C236.582 323.259 236.582 317.89 238.978 313.552C241.375 309.214 245.795 306.581 250.542 306.665H316.275C333.244 306.665 347 292.103 347 274.139C347 256.176 333.244 241.614 316.275 241.614C302.212 241.614 290.812 229.546 290.81 214.658V187.194C290.811 184.375 289.754 181.672 287.871 179.679C285.989 177.685 283.436 176.566 280.774 176.566H46.8436C35.7874 176.438 25.5189 182.608 19.9556 192.724C14.3923 202.84 14.3923 215.339 19.9556 225.455C25.5189 235.571 35.7874 241.742 46.8436 241.614H71.8318C81.6938 241.614 89.689 250.076 89.6911 260.516C89.689 270.956 81.6938 279.418 71.8318 279.418C71.5048 279.418 71.1814 279.418 70.858 279.442C58.4525 279.993 48.6664 290.806 48.6773 303.95V320.678C48.6783 328.227 43.9993 334.882 37.168 337.048C27.7754 340.024 14.7962 346.299 6.92124 359.222C4.83826 362.653 3.21682 366.374 2.10366 370.278C0.668875 375.376 -0.0395715 380.671 0.00170486 385.99V385.99Z" fill="#F3F4FE"/>
<rect x="12.6611" y="165" width="314.525" height="190.499" rx="17.7" fill="#D2D6FA"/>
<rect x="158.21" y="197.884" width="149.441" height="139.487" rx="28.4" fill="#F3F4FE"/>
<path d="M196.332 251.467L222.952 245.57C223.335 247.51 223.528 249.486 223.529 251.467C223.529 267.262 211.251 280.255 196.336 280.255C181.42 280.255 169.143 267.258 169.143 251.467C169.143 235.677 181.42 222.68 196.336 222.68L196.332 251.467Z" fill="#BCBFF6"/>
<path d="M196.332 251.467L190.772 223.306C192.606 222.901 194.474 222.696 196.347 222.695C211.266 222.695 223.54 235.693 223.54 251.483C223.54 267.273 211.262 280.27 196.347 280.27C181.431 280.27 169.154 267.273 169.154 251.483L196.332 251.467Z" fill="#D2D6FA"/>
<rect x="231.117" y="235.716" width="15.3935" height="9.23922" rx="4.61961" fill="#D2D6FA"/>
<rect x="250.251" y="235.716" width="48.1097" height="9.23922" rx="4.61961" fill="#D2D6FA"/>
<rect x="250.909" y="248.604" width="27.9096" height="9.23922" rx="4.61961" fill="#D2D6FA"/>
<rect x="250.251" y="260.858" width="48.1097" height="9.23922" rx="4.61961" fill="#D2D6FA"/>
<rect x="169.135" y="295.68" width="129.226" height="9.23922" rx="4.61961" fill="#D2D6FA"/>
<rect x="169.135" y="308.801" width="129.226" height="14.6894" rx="7.34469" fill="#D2D6FA"/>
<rect x="231.117" y="260.858" width="15.3935" height="9.23922" rx="4.61961" fill="#D2D6FA"/>
<rect x="35.3931" y="195.577" width="91.0527" height="36.7896" rx="11.38" fill="#BCBFF6"/>
<rect x="39.0237" y="200.572" width="31.3602" height="26.8035" rx="5.7" fill="#F3F4FE"/>
<rect x="44.5874" y="215.273" width="3.00961" height="10.5697" rx="1.50481" fill="#D2D6FA"/>
<rect x="49.6877" y="211.212" width="3.00961" height="14.631" rx="1.50481" fill="#D2D6FA"/>
<rect x="54.8362" y="206.687" width="3.00961" height="19.1553" rx="1.50481" fill="#D2D6FA"/>
<rect x="61.4214" y="203.244" width="3.00961" height="22.5982" rx="1.50481" fill="#D2D6FA"/>
<rect x="75.6941" y="205.162" width="46.1878" height="3.59843" rx="1.79922" fill="#F3F4FE"/>
<rect x="75.6941" y="212.853" width="31.0442" height="3.59843" rx="1.79922" fill="#F3F4FE"/>
<path d="M19.1617 165H320.681C324.274 165 327.186 168.083 327.186 171.886V181.292H12.6611V171.886C12.6611 168.084 15.571 165.002 19.1617 165V165Z" fill="#BCBFF6"/>
<ellipse cx="54.2923" cy="173.146" rx="3.71149" ry="3.9291" fill="white"/>
<ellipse cx="40.4312" cy="173.146" rx="3.71149" ry="3.9291" fill="white"/>
<ellipse cx="68.1497" cy="173.146" rx="3.71149" ry="3.9291" fill="white"/>
<rect x="35.3931" y="266.981" width="38.3937" height="70.5176" rx="19.1968" fill="#BCBFF6"/>
<rect x="80.4639" y="297.119" width="38.3937" height="40.3764" rx="19.1968" fill="#BCBFF6"/>
<rect x="125.711" y="312.178" width="25.5725" height="25.3213" rx="12.6606" fill="#BCBFF6"/>
<rect x="40.3872" y="498.67" width="27.2151" height="6.85064" rx="3.42532" transform="rotate(-180 40.3872 498.67)" fill="#D2D6FA"/>
<rect x="340.654" y="498.67" width="297.632" height="6.85064" rx="3.42532" transform="rotate(-180 340.654 498.67)" fill="#D2D6FA"/>
<path d="M83.1775 228.352C83.7507 230.174 82.7551 232.166 80.9537 232.801V232.801C79.1524 233.436 77.2275 232.474 76.6543 230.652L73.1762 219.597C72.6031 217.775 73.5987 215.783 75.4 215.148V215.148C77.2013 214.513 79.1262 215.475 79.6994 217.297L83.1775 228.352Z" fill="#F9A0B4"/>
<ellipse cx="77.2852" cy="231.087" rx="6.77254" ry="7.16963" fill="#F9A0B4"/>
<path d="M188.262 491.812H159.21C159.21 483.319 165.713 476.434 173.736 476.434C181.759 476.434 188.262 483.319 188.262 491.812Z" fill="#33557A"/>
<path d="M146.613 491.812H117.56C117.56 483.319 124.064 476.434 132.087 476.434C140.109 476.434 146.613 483.319 146.613 491.812Z" fill="#33557A"/>
<path d="M142.431 346.135V491.808H121.739V356.818C121.739 350.912 124.708 346.12 128.353 346.12L142.431 346.135Z" fill="#FFB2BF"/>
<path d="M121.739 457.337H142.431V491.812H121.739V457.337Z" fill="#D5E6BC"/>
<path d="M121.739 457.337H126.913V491.812H121.739V457.337Z" fill="#C3D3A7"/>
<path d="M132.087 457.337H137.261V491.812H132.087V457.337Z" fill="#C3D3A7"/>
<path d="M121.739 452.556H142.431V457.333H121.739V452.556Z" fill="#F9A0B4"/>
<path d="M184.988 486.245H163.946L158.287 454.442L145.94 384.967L142.424 365.151L141.497 359.926C140.917 356.662 141.321 353.562 142.424 351.344C143.283 349.621 144.566 348.431 146.139 348.119L159.963 345.365L166.997 384.967L178.616 450.4L184.988 486.245Z" fill="#FFB2BF"/>
<path d="M184.988 486.245H163.939L158.288 454.442L178.624 450.4L184.988 486.245Z" fill="#D5E6BC"/>
<path d="M158.285 454.447L163.369 453.428L169.432 487.3L164.348 488.319L158.285 454.447Z" fill="#C3D3A7"/>
<path d="M168.45 452.41L173.533 451.39L179.596 485.262L174.513 486.282L168.45 452.41Z" fill="#C3D3A7"/>
<path d="M177.922 446.611L157.63 450.789L158.287 454.442L178.623 450.4L177.922 446.611Z" fill="#F9A0B4"/>
<path d="M167.004 384.967H145.94L142.424 365.151V384.967H121.739V356.833C121.739 350.928 124.708 346.135 128.353 346.135H142.424V351.344C143.284 349.621 144.566 348.431 146.139 348.119L159.963 345.365L167.004 384.967Z" fill="#F9A0B4"/>
<path d="M117.343 485.657L146.33 482.261C147.608 482.111 148.886 482.544 149.844 483.452C150.803 484.36 151.35 485.657 151.349 487.019C151.349 489.664 149.324 491.808 146.826 491.808H117.663C116.054 491.808 114.749 490.426 114.749 488.723C114.749 487.15 115.867 485.83 117.343 485.657V485.657Z" fill="#55A4AB"/>
<path d="M151.346 487.023C151.347 488.292 150.871 489.51 150.023 490.407C149.175 491.305 148.025 491.809 146.826 491.808H139.605C141.68 491.812 143.492 490.32 143.998 488.189C144.504 486.059 143.574 483.837 141.744 482.802L146.33 482.261C147.608 482.112 148.886 482.546 149.843 483.455C150.801 484.364 151.347 485.661 151.346 487.023V487.023Z" fill="#33557A"/>
<path d="M158.993 485.657L187.979 482.261C189.258 482.111 190.536 482.544 191.494 483.452C192.452 484.36 193 485.657 192.999 487.019C192.999 489.664 190.974 491.808 188.475 491.808H159.313C157.703 491.808 156.399 490.426 156.399 488.723C156.399 487.15 157.517 485.83 158.993 485.657V485.657Z" fill="#55A4AB"/>
<path d="M192.999 487.023C192.997 489.666 190.972 491.808 188.475 491.808H181.258C183.333 491.811 185.143 490.318 185.648 488.188C186.153 486.057 185.223 483.836 183.393 482.802L187.979 482.261C189.258 482.112 190.536 482.546 191.494 483.455C192.452 484.363 193 485.661 192.999 487.023V487.023Z" fill="#33557A"/>
<path d="M129.25 301.628C125.53 305.133 119.891 305.026 116.292 301.382C116.105 301.196 115.925 300.993 115.749 300.791L110.163 294.147L69.2925 245.519C65.7815 241.344 66.1327 234.946 70.0771 231.229C74.0214 227.512 80.0652 227.884 83.5762 232.059L114.834 269.249L122.958 278.936L130.032 287.354C133.537 291.526 133.186 297.914 129.25 301.628V301.628Z" fill="#FFB2BF"/>
<path d="M130.032 287.339L122.959 278.936L114.834 269.269C114.834 269.366 114.812 269.456 114.801 269.549C114.801 269.549 116.789 277.174 110.163 294.162L115.749 300.807C115.921 301.013 116.116 301.196 116.293 301.398C119.992 305.202 125.876 305.212 129.586 301.419C133.296 297.627 133.494 291.402 130.032 287.354V287.339Z" fill="#F9A0B4"/>
<path d="M176.389 325.871C174.169 327.171 171.551 327.482 169.113 326.736C166.676 325.991 164.618 324.249 163.395 321.896L158.839 313.17L156.108 307.93L148.002 292.369C145.479 287.537 147.082 281.457 151.603 278.707L151.754 278.617C153.973 277.32 156.589 277.009 159.024 277.754C161.46 278.499 163.516 280.238 164.74 282.589L165.927 284.861L180.137 312.127C181.362 314.476 181.655 317.244 180.952 319.821C180.25 322.399 178.608 324.575 176.389 325.871V325.871Z" fill="#FFB2BF"/>
<path d="M203.172 306.82C208.761 306.792 213.312 311.301 213.337 316.89V316.89C213.362 322.479 208.851 327.033 203.262 327.061L172.512 327.214C166.923 327.242 162.372 322.733 162.347 317.144V317.144C162.322 311.555 166.833 307.001 172.422 306.973L203.172 306.82Z" fill="#FFB2BF"/>
<ellipse cx="13.2785" cy="10.363" rx="13.2785" ry="10.363" transform="matrix(0.617508 -0.786564 0.750777 0.660556 191.632 318.165)" fill="#FFB2BF"/>
<path opacity="0.38" d="M215.804 304.098C211.733 300.515 205.085 301.764 200.547 306.844L177.448 306.961L164.74 282.581C162.759 278.761 158.688 276.714 154.639 277.502C150.59 278.29 147.472 281.735 146.903 286.051C148.45 282.631 151.674 280.414 155.254 280.308C158.835 280.202 162.171 282.226 163.895 285.549L175.074 306.984L176.602 309.925H178.98L198.412 309.828H199.702C200.745 308.649 201.946 307.639 203.266 306.829C207.283 304.405 211.876 304.323 214.974 307.051C217.616 309.385 218.564 313.201 217.84 317.165C219.758 312.256 219.108 307.008 215.804 304.098V304.098Z" fill="#F9E0E5"/>
<path d="M195.233 303.547C196.024 303.543 196.669 304.182 196.672 304.973L196.779 328.976C196.783 329.768 196.144 330.412 195.352 330.416V330.416C194.561 330.42 193.916 329.782 193.913 328.99L193.806 304.987C193.802 304.196 194.441 303.551 195.233 303.547V303.547Z" fill="#55A4AB"/>
<path d="M191.688 305.329C192.48 305.326 193.124 305.964 193.128 306.755L193.22 327.475C193.223 328.267 192.585 328.912 191.793 328.915V328.915C191.002 328.919 190.357 328.281 190.354 327.489L190.261 306.77C190.258 305.978 190.897 305.333 191.688 305.329V305.329Z" fill="#55A4AB"/>
<path d="M126.262 305.242V328.552C126.262 337.272 132.94 344.342 141.178 344.342C149.415 344.342 156.093 337.272 156.093 328.552V305.242H126.262Z" fill="#FDA541"/>
<path d="M135.548 258.808V282.927C135.55 286.007 137.908 288.504 140.818 288.506H141.531C144.441 288.506 146.802 286.009 146.804 282.927V258.808C146.805 257.327 146.25 255.906 145.261 254.858C144.272 253.811 142.93 253.222 141.531 253.222H140.814C137.903 253.226 135.546 255.727 135.548 258.808H135.548Z" fill="#FFB2BF"/>
<path d="M163.318 301.227V302.094C163.316 308.457 158.444 313.615 152.434 313.617H129.073C123.063 313.615 118.192 308.457 118.192 302.094V301.227C118.195 294.893 120.574 288.82 124.807 284.343C125.536 283.573 126.313 282.856 127.133 282.196C133.959 276.715 143.129 275.8 150.802 279.835C158.475 283.869 163.327 292.157 163.326 301.227H163.318Z" fill="#FDA541"/>
<path d="M159.618 288.121C156.64 283.344 152.152 279.847 146.958 278.259C148.634 279.07 150.211 280.093 151.654 281.305C157.063 285.828 160.216 292.724 160.213 300.021V300.885C160.208 305.753 157.318 310.096 152.988 311.738V327.346C152.985 332.198 150.876 336.779 147.269 339.772C143.662 342.764 138.956 343.837 134.504 342.681C139.13 345.13 144.623 344.868 149.022 341.99C153.421 339.111 156.098 334.026 156.097 328.552V312.948C160.427 311.306 163.316 306.963 163.318 302.094V301.227C163.326 296.568 162.04 292.01 159.618 288.121V288.121Z" fill="#FFBA76"/>
<path d="M154.76 282.515C150.955 284.989 146.61 286.376 142.148 286.541C141.824 286.561 141.501 286.565 141.174 286.565C140.638 286.565 140.101 286.545 139.576 286.51C135.143 286.232 130.853 284.746 127.122 282.196C135.325 275.616 146.694 275.747 154.76 282.515V282.515Z" fill="#FFB2BF"/>
<ellipse cx="156.99" cy="247.317" rx="5.57825" ry="5.90532" fill="#F9A0B4"/>
<ellipse cx="127.126" cy="247.317" rx="5.57825" ry="5.90532" fill="#F9A0B4"/>
<path d="M167.493 377.179H117.516C115.888 377.18 114.34 376.432 113.275 375.129C112.21 373.825 111.732 372.096 111.967 370.391C114.202 354.526 115.179 326.696 142.427 326.696C169.356 326.696 171.303 355.196 173.053 370.535C173.245 372.219 172.747 373.91 171.684 375.18C170.621 376.45 169.095 377.178 167.493 377.179V377.179Z" fill="#55A4AB"/>
<path d="M167.496 377.175H158.038C159.641 377.176 161.167 376.45 162.231 375.18C163.295 373.911 163.794 372.219 163.601 370.535C161.955 356.141 160.143 330.143 137.65 327.011C139.235 326.799 140.83 326.695 142.427 326.7C169.359 326.7 171.303 355.199 173.053 370.535C173.245 372.218 172.747 373.908 171.685 375.178C170.623 376.447 169.098 377.174 167.496 377.175V377.175Z" fill="#6FBFC1"/>
<rect x="123.657" y="222.147" width="35.9096" height="88.4475" rx="17.9548" fill="#652138"/>
<rect x="120.647" y="251.467" width="41.9214" height="59.1271" rx="20.9607" fill="#652138"/>
<path d="M159.566 261.041V241.154C159.568 236.112 157.677 231.275 154.31 227.709C150.943 224.143 146.375 222.139 141.611 222.139C140.95 222.139 140.288 222.178 139.631 222.256C148.724 223.326 155.603 231.462 155.605 241.147V261.041C157.571 264.325 158.613 268.135 158.607 272.023V290.078C158.6 300.912 150.642 309.876 140.428 310.556C140.164 310.556 139.899 310.509 139.638 310.478C139.377 310.509 139.113 310.536 138.844 310.556C138.451 310.583 138.058 310.594 137.657 310.594H143.17C148.315 310.596 153.25 308.432 156.889 304.581C160.528 300.729 162.572 295.505 162.572 290.058V272.004C162.574 268.121 161.532 264.319 159.566 261.041V261.041Z" fill="#7A314D"/>
<rect x="140.557" y="268.324" width="12.5051" height="25.4147" rx="6.25257" fill="#7A314D"/>
<ellipse cx="142.431" cy="229.589" rx="9.72704" ry="10.2974" fill="#FDA541"/>
<ellipse cx="142.431" cy="223.999" rx="12.3288" ry="13.0516" fill="#7A314D"/>
<path d="M154.76 223.995C154.758 231.204 149.237 237.048 142.427 237.05C141.93 237.052 141.432 237.018 140.939 236.949C147.132 236.161 151.792 230.598 151.792 223.995C151.792 217.391 147.132 211.829 140.939 211.04C141.433 210.975 141.93 210.942 142.427 210.943C149.237 210.943 154.758 216.786 154.76 223.995V223.995Z" fill="#8E4463"/>
<ellipse cx="11.0369" cy="13.3225" rx="11.0369" ry="13.3225" transform="matrix(0.789948 -0.613174 0.569384 0.822072 57.4814 229.113)" fill="#FFB2BF"/>
<path d="M82.5136 229.289C83.6662 230.852 83.3876 233.121 81.8913 234.358V234.358C80.3949 235.596 78.2475 235.332 77.0949 233.77L62.1243 213.477C60.9717 211.915 61.2503 209.645 62.7466 208.408V208.408C64.2429 207.171 66.3903 207.435 67.543 208.997L82.5136 229.289Z" fill="#FFB2BF"/>
<ellipse opacity="0.38" cx="5.72449" cy="3.88471" rx="5.72449" ry="3.88471" transform="matrix(0.617508 -0.786564 0.750777 0.660556 201.159 318.885)" fill="#F9E0E5"/>
<path d="M267.358 431.802C270.507 439.891 266.87 449.15 259.232 452.49L251.683 455.784C248.532 447.692 252.175 438.427 259.819 435.092L267.358 431.802H267.358Z" fill="#969ECC"/>
<path d="M248.099 416.352C255.744 419.687 259.386 428.952 256.236 437.044L253.124 445.036C245.48 441.7 241.837 432.436 244.988 424.344L248.099 416.352Z" fill="#7986BF"/>
<path d="M251.702 455.783L244.153 452.489C236.509 449.154 232.866 439.889 236.017 431.797L243.576 435.095C251.214 438.435 254.851 447.695 251.702 455.783Z" fill="#969ECC"/>
<path d="M277.863 463.277C277.692 478.817 265.743 491.32 251.062 491.32C236.381 491.32 224.432 478.817 224.26 463.277C224.259 462.184 224.319 461.091 224.44 460.005C224.574 458.754 224.787 457.514 225.08 456.294H277.044C277.338 457.514 277.552 458.754 277.683 460.005C277.807 461.091 277.867 462.184 277.863 463.277V463.277Z" fill="#969ECC"/>
<rect x="220.968" y="448.868" width="61.4343" height="7.42639" rx="3.71319" fill="#7986BF"/>
<path d="M277.683 460.005H224.44C224.574 458.754 224.787 457.514 225.08 456.294H277.044C277.338 457.514 277.552 458.754 277.683 460.005V460.005Z" fill="#7986BF"/>
</svg>
