<svg width="589" height="562" viewBox="0 0 589 562" fill="none" xmlns="http://www.w3.org/2000/svg">
<path d="M491.96 158.715C527.8 240.397 526.141 336.651 489.305 402.226C452.801 467.418 381.452 501.165 303.466 505.383C225.812 509.602 141.853 483.908 107.008 419.483C71.8318 355.442 85.4378 252.668 127.583 167.152C169.397 81.2514 239.75 12.9915 311.431 11.841C383.111 10.6906 456.119 77.4165 491.96 158.715Z" fill="#0939AB"/>
<path d="M424.403 149.163C473.883 223.38 488.963 318.46 464.074 389.436C439.445 459.977 375.04 505.6 298.972 523.296C223.23 540.935 136.085 530.211 90.5822 472.816C44.8193 415.855 40.3722 312.281 67.0276 220.745C93.2897 128.889 150.721 49.4492 221.113 35.869C291.504 22.2888 374.99 75.3234 424.403 149.163Z" fill="#0939AB" fill-opacity="0.1"/>
<path d="M589 312.669V317.853C588.997 333.871 577.872 347.286 563.253 348.899C562.357 348.994 561.454 349.047 560.536 349.055H560.379C555.987 349.053 551.774 350.953 548.668 354.337C545.561 357.721 543.815 362.311 543.813 367.099V394.14C543.814 404.357 537.999 413.502 529.222 417.086C528.336 417.451 527.428 417.752 526.505 417.986C524.812 418.422 523.079 418.641 521.34 418.639H272.995C255.876 418.639 242 406.455 242 382.2C242.001 380.809 242.078 379.42 242.231 378.039C244.163 361.118 257.354 348.414 272.995 348.41H281.199C285.59 348.413 289.802 346.513 292.908 343.129C296.013 339.744 297.756 335.153 297.755 330.366V323.686C297.754 306.277 307.553 290.652 322.433 284.334C323.323 283.952 324.228 283.61 325.15 283.307C328.262 282.267 331.482 281.663 334.734 281.509C335.315 281.479 335.9 281.467 336.485 281.467C345.533 281.324 352.799 273.287 352.799 263.422C352.799 253.556 345.533 245.519 336.485 245.376H294.06C293.073 245.376 292.093 245.33 291.126 245.246C290.16 245.162 289.302 245.04 288.406 244.864C271.564 241.839 259.207 225.966 259.207 207.358C259.207 188.75 271.564 172.878 288.406 169.852C289.302 169.688 290.205 169.57 291.126 169.489C292.047 169.409 293.07 169.352 294.06 169.352H347.171C351.562 169.352 355.772 167.45 358.876 164.066C361.981 160.681 363.724 156.09 363.723 151.304C363.727 140.657 371.157 131.76 380.881 130.76C381.465 130.699 382.057 130.668 382.659 130.668H387.593C388.554 130.669 389.514 130.579 390.461 130.397C391.384 130.226 392.293 129.971 393.178 129.634C393.954 129.331 394.708 128.963 395.433 128.535C398.715 126.603 401.305 123.524 402.786 119.793C403.578 117.799 404.03 115.665 404.12 113.495C404.12 113.212 404.138 112.922 404.138 112.636V110.044C404.141 100.079 411.552 92.0021 420.693 92H516.571C521.457 91.9909 526.096 94.3437 529.236 98.4243L529.261 98.4511C531.756 101.7 533.12 105.806 533.112 110.044V112.636V113.495C533.018 115.665 532.563 117.799 531.771 119.793C530.288 123.523 527.699 126.602 524.418 128.535C522.007 129.951 519.31 130.689 516.571 130.684H509.263C503.556 130.692 498.253 133.897 495.222 139.169C494.43 140.54 493.814 142.022 493.391 143.574C492.929 145.246 492.693 146.982 492.691 148.728V151.32C492.684 153.832 493.161 156.319 494.091 158.618C494.407 159.4 494.774 160.155 495.191 160.878C498.21 166.164 503.52 169.375 509.232 169.367H554.139C556.285 169.364 558.426 169.576 560.536 170.001C561.454 170.184 562.359 170.408 563.253 170.673C578.45 175.164 589 190.199 589 207.364C589 224.528 578.45 239.564 563.253 244.055C562.362 244.322 561.456 244.547 560.536 244.731C558.426 245.156 556.285 245.37 554.139 245.368H532.429C531.353 245.368 530.278 245.483 529.222 245.712C528.295 245.905 527.385 246.188 526.505 246.559C524.85 247.254 523.307 248.234 521.935 249.46C518.097 252.883 515.873 258.006 515.878 263.412V263.794C516.021 271.126 520.22 277.635 526.501 280.261C528.398 281.056 530.412 281.464 532.443 281.464H560.536C561.454 281.464 562.359 281.516 563.253 281.62C564.991 281.808 566.71 282.169 568.387 282.7C568.632 282.777 568.87 282.861 569.111 282.945C580.962 287.088 589.001 299.102 589 312.669V312.669Z" fill="#F3F4FE"/>
<path d="M291.126 169.505V245.246C290.205 245.162 289.302 245.04 288.406 244.864V169.867C289.302 169.703 290.205 169.585 291.126 169.505Z" fill="#EDEEFE"/>
<path d="M291.126 344.799V415.99H288.406V346.605C289.363 346.099 290.274 345.494 291.126 344.799V344.799Z" fill="#EDEEFE"/>
<path d="M322.423 169.367H325.143V245.376H322.423V169.367Z" fill="#EDEEFE"/>
<path d="M325.14 283.308V415.99H322.423V284.334C323.312 283.948 324.218 283.605 325.14 283.308Z" fill="#EDEEFE"/>
<path d="M359.157 163.768V415.99H356.44V166.272C357.426 165.546 358.337 164.706 359.157 163.768Z" fill="#EDEEFE"/>
<path d="M393.174 129.634V415.99H390.447V130.413C391.374 130.237 392.287 129.977 393.174 129.634Z" fill="#EDEEFE"/>
<path d="M424.471 92.0001H427.191V415.99H424.471V92.0001Z" fill="#EDEEFE"/>
<path d="M458.484 92.0001H461.208V415.99H458.484V92.0001Z" fill="#EDEEFE"/>
<path d="M492.708 148.728V151.32C492.707 152.107 492.753 152.894 492.848 153.675C493.154 156.234 493.964 158.691 495.222 160.878V415.99H492.501V92.0001H495.222V139.169C493.575 142.034 492.703 145.347 492.708 148.728V148.728Z" fill="#EDEEFE"/>
<path d="M529.236 98.4244V124.256C528.433 125.302 527.521 126.244 526.519 127.061V95.6188C527.52 96.4372 528.432 97.3786 529.236 98.4244V98.4244Z" fill="#EDEEFE"/>
<path d="M529.236 169.367V245.712C528.309 245.905 527.399 246.188 526.519 246.559V169.367L529.236 169.367Z" fill="#EDEEFE"/>
<path d="M526.519 280.277C527.401 280.644 528.31 280.928 529.236 281.128V414.437C528.35 414.804 527.442 415.105 526.519 415.337V280.277Z" fill="#EDEEFE"/>
<path d="M563.253 170.681V244.055C562.361 244.322 561.456 244.548 560.536 244.731V170.001C561.453 170.189 562.359 170.416 563.253 170.681Z" fill="#EDEEFE"/>
<path d="M560.536 281.464C561.453 281.464 562.359 281.516 563.253 281.62V348.899C562.357 348.994 561.453 349.048 560.536 349.055V281.464Z" fill="#EDEEFE"/>
<path d="M400.293 205.467V211.86L395.891 214.811V205.467H400.293Z" fill="#D2D6FA"/>
<path d="M350.505 205.467V214.811L346.1 211.86V205.467H350.505Z" fill="#D2D6FA"/>
<path d="M337.294 205.467H406.575L408.676 199.882H335.196L337.294 205.467Z" fill="#D2D6FA"/>
<path d="M346.1 205.467H350.505V208.253H346.1V205.467Z" fill="#BEC4ED"/>
<path d="M395.891 205.467H400.293V208.253H395.891V205.467Z" fill="#BEC4ED"/>
<path d="M348.67 163.019H350.879C352.494 163.019 353.803 164.446 353.803 166.207V199.882H345.75V166.207C345.75 164.448 347.057 163.021 348.67 163.019V163.019Z" fill="#ADB6E0"/>
<ellipse cx="349.773" cy="179.991" rx="2.17794" ry="2.37431" fill="#D2D6FA"/>
<path d="M358.264 170.608H361.111C362.55 170.608 363.716 171.879 363.716 173.448V199.882H355.663V173.436C355.668 171.874 356.831 170.61 358.264 170.608Z" fill="#ADB6E0"/>
<ellipse cx="359.689" cy="185.93" rx="2.17794" ry="2.37431" fill="#D2D6FA"/>
<path d="M367.424 180.735H369.287C370.229 180.735 370.992 181.567 370.992 182.594V199.886H365.719V182.598C365.719 181.571 366.482 180.739 367.424 180.739V180.735Z" fill="#ADB6E0"/>
<ellipse cx="368.356" cy="190.755" rx="1.42512" ry="1.55361" fill="#D2D6FA"/>
<path d="M390.345 160.916H401.245C401.534 160.916 401.811 161.041 402.015 161.264C402.22 161.486 402.334 161.788 402.334 162.103V199.806H390.345V160.916Z" fill="#93A0CE"/>
<path d="M389.564 160.916H400.461V199.81H388.472V162.103C388.472 161.788 388.587 161.485 388.792 161.262C388.997 161.04 389.275 160.915 389.564 160.916V160.916Z" fill="#ADB6E0"/>
<ellipse cx="394.302" cy="167.329" rx="2.88175" ry="3.14157" fill="#93A0CE"/>
<ellipse cx="394.302" cy="167.329" rx="1.30606" ry="1.42382" fill="#D2D6FA"/>
<ellipse cx="394.302" cy="179.307" rx="2.88175" ry="3.14157" fill="#93A0CE"/>
<ellipse cx="394.302" cy="179.307" rx="1.30606" ry="1.42382" fill="#D2D6FA"/>
<ellipse cx="394.302" cy="193.889" rx="4.68152" ry="5.10362" fill="#93A0CE"/>
<ellipse cx="394.302" cy="193.889" rx="2.12542" ry="2.31705" fill="#D2D6FA"/>
<rect x="557.546" y="418.345" width="28.2432" height="7.32142" rx="3.66071" fill="#D2D6FA"/>
<rect x="245.939" y="418.345" width="308.872" height="7.32142" rx="3.66071" fill="#D2D6FA"/>
<path d="M508.892 289.174H544.958C546.95 289.174 548.564 290.935 548.564 293.106V417.83H508.892V289.19V289.174Z" fill="#6675AD"/>
<path d="M506.312 289.174H542.377V417.815H502.705V293.106C502.705 290.935 504.32 289.174 506.312 289.174Z" fill="#7986BF"/>
<ellipse cx="521.995" cy="310.391" rx="9.53112" ry="10.3905" fill="#6675AD"/>
<ellipse cx="521.995" cy="310.391" rx="4.32437" ry="4.71426" fill="#F3F4FE"/>
<ellipse cx="521.995" cy="350.017" rx="9.53112" ry="10.3905" fill="#6675AD"/>
<ellipse cx="521.995" cy="350.017" rx="4.32437" ry="4.71426" fill="#F3F4FE"/>
<ellipse cx="521.995" cy="398.251" rx="15.4872" ry="16.8835" fill="#6675AD"/>
<ellipse cx="521.995" cy="398.251" rx="7.02754" ry="7.66115" fill="#F3F4FE"/>
<path d="M370.439 241.2L378.356 272.501L378.892 274.631L378.044 274.906L353.39 282.834C352.518 283.111 351.627 283.309 350.725 283.426C350.571 283.445 350.417 283.464 350.267 283.475C350.116 283.487 349.917 283.506 349.741 283.517H349.237C349.083 283.517 348.929 283.517 348.768 283.517C348.379 283.517 347.987 283.498 347.606 283.464C347.451 283.464 347.294 283.433 347.147 283.414C346.916 283.387 346.688 283.353 346.464 283.315L346.023 283.231C345.746 283.177 345.47 283.12 345.2 283.044C341.597 282.102 338.406 279.824 336.173 276.6C336.051 276.417 335.932 276.219 335.823 276.047C335.11 274.907 334.522 273.68 334.072 272.39C333.922 271.951 333.782 271.504 333.659 271.043C333.536 270.581 333.456 270.229 333.379 269.821C331.646 260.965 336.462 252.148 344.43 249.59L370.439 241.2Z" fill="#E07373"/>
<path d="M354.903 273.738C354.48 274.751 353.943 275.703 353.303 276.57C351.595 278.909 349.223 280.563 346.559 281.273C346.398 281.322 346.233 281.361 346.065 281.395C345.715 281.471 345.396 281.525 345.06 281.57C344.976 281.57 344.888 281.593 344.797 281.601C344.706 281.609 344.563 281.628 344.447 281.635C344.111 281.665 343.773 281.675 343.435 281.666C343.309 281.666 343.183 281.666 343.061 281.666C342.756 281.666 342.451 281.632 342.143 281.593L341.716 281.529C341.309 281.464 340.906 281.376 340.508 281.265C340.344 281.219 340.175 281.17 340.014 281.112C339.853 281.055 339.682 281.002 339.521 280.941C339.36 280.88 339.199 280.815 339.034 280.746C338.869 280.677 338.712 280.605 338.554 280.525C338.397 280.444 338.232 280.368 338.075 280.28C337.273 279.849 336.517 279.324 335.82 278.715L331.688 275.116L306.2 252.896C305.794 252.539 305.406 252.157 305.041 251.75C304.884 251.571 304.73 251.388 304.583 251.208C304.436 251.029 304.232 250.769 304.085 250.54C303.97 250.376 303.861 250.212 303.735 250.04C303.609 249.845 303.492 249.642 303.385 249.433C303.298 249.292 303.224 249.151 303.147 249.002C303.129 248.98 303.117 248.954 303.112 248.926C303.039 248.802 302.973 248.675 302.912 248.544C302.793 248.3 302.685 248.055 302.583 247.803C302.548 247.712 302.51 247.624 302.478 247.529C302.447 247.433 302.384 247.28 302.345 247.147C302.345 247.147 302.345 247.147 302.345 247.116C302.286 246.952 302.233 246.784 302.184 246.616C302.041 246.164 301.924 245.702 301.834 245.234C301.801 245.109 301.776 244.981 301.757 244.853C301.701 244.543 301.662 244.238 301.624 243.929L301.582 243.482C301.577 243.418 301.577 243.352 301.582 243.288C301.582 243.135 301.561 242.978 301.557 242.826C301.554 242.673 301.557 242.467 301.557 242.288C301.554 242.271 301.554 242.254 301.557 242.238C301.557 242.066 301.557 241.887 301.557 241.719C301.557 241.551 301.578 241.337 301.589 241.161C301.614 240.79 301.658 240.421 301.718 240.054C301.718 239.932 301.76 239.799 301.785 239.673C302.638 235.036 305.644 231.217 309.719 229.595C313.794 227.972 318.35 228.779 321.743 231.725L351.363 257.53C355.805 261.413 357.263 268.088 354.903 273.738V273.738Z" fill="#EDBA70"/>
<path d="M354.903 273.738C354.48 274.751 353.943 275.702 353.303 276.57C351.595 278.909 349.223 280.563 346.559 281.273C346.398 281.322 346.233 281.361 346.065 281.395C345.736 281.471 345.4 281.528 345.06 281.57C344.976 281.57 344.888 281.593 344.797 281.601C344.706 281.609 344.563 281.628 344.447 281.635C344.111 281.665 343.773 281.675 343.435 281.666C343.309 281.666 343.183 281.666 343.061 281.666C342.756 281.666 342.451 281.632 342.143 281.593L341.716 281.528C341.309 281.464 340.906 281.376 340.508 281.265C340.344 281.219 340.175 281.17 340.014 281.112C339.853 281.055 339.682 281.002 339.521 280.941C339.36 280.88 339.199 280.815 339.034 280.746C338.869 280.677 338.712 280.605 338.554 280.525C338.397 280.444 338.232 280.368 338.075 280.28C337.973 280.231 337.878 280.177 337.78 280.124L337.672 280.066C337.455 279.963 337.245 279.86 337.035 279.746C336.825 279.631 336.663 279.544 336.478 279.433L336.338 279.345L335.792 279.005C335.697 278.933 335.599 278.872 335.508 278.807C335.315 278.673 335.126 278.54 334.941 278.398L334.678 278.192C334.5 278.047 334.328 277.906 334.139 277.749C333.88 277.532 333.631 277.295 333.379 277.051C333.06 276.738 332.752 276.41 332.448 276.062C332.143 275.715 331.929 275.436 331.688 275.116L306.2 252.896C305.794 252.539 305.406 252.157 305.041 251.75C304.884 251.571 304.73 251.388 304.583 251.208C304.436 251.029 304.232 250.769 304.085 250.54C303.97 250.376 303.861 250.212 303.735 250.04C303.609 249.845 303.492 249.642 303.385 249.433C303.298 249.292 303.224 249.151 303.147 249.002C303.129 248.98 303.117 248.954 303.112 248.926C303.039 248.802 302.973 248.675 302.912 248.544C302.793 248.3 302.685 248.055 302.583 247.803C302.548 247.712 302.51 247.624 302.478 247.529C302.447 247.433 302.384 247.28 302.345 247.147C302.345 247.147 302.345 247.147 302.345 247.116C302.286 246.952 302.233 246.784 302.184 246.616C302.041 246.164 301.924 245.702 301.834 245.234C301.801 245.109 301.776 244.981 301.757 244.853C301.701 244.543 301.655 244.238 301.624 243.929L301.582 243.482C301.577 243.418 301.577 243.352 301.582 243.288C301.582 243.135 301.561 242.978 301.557 242.826C301.554 242.673 301.557 242.467 301.557 242.287C301.554 242.271 301.554 242.254 301.557 242.238C301.557 242.066 301.557 241.887 301.557 241.719C301.557 241.551 301.557 241.432 301.578 241.291C301.575 241.248 301.575 241.205 301.578 241.161C301.604 240.79 301.647 240.421 301.708 240.054C301.708 239.925 301.746 239.795 301.771 239.673C301.933 243.56 303.624 247.182 306.41 249.613L328.757 269.081L331.908 271.821L336.037 275.417C336.653 275.954 337.314 276.427 338.012 276.829C339.61 277.573 341.31 278.023 343.043 278.162C344.324 278.266 345.611 278.202 346.877 277.971C349.87 277.43 352.657 275.96 354.903 273.738V273.738Z" fill="#38CEA1"/>
<path d="M371.539 272.005C362.053 263.29 361.104 251.392 365.502 242.749L388.136 235.573C391.731 234.437 395.605 235.637 398.115 238.665C400.152 241.129 401.65 244.064 402.495 247.25C406.774 263.282 393.5 280.372 374.981 274.054C373.72 273.626 372.55 272.929 371.539 272.005V272.005Z" fill="#E07373"/>
<path d="M351.531 307.707L308.189 326.411L282.908 243.165C281.266 237.756 283.608 231.783 288.16 229.824L292.765 227.839C309.621 220.564 328.235 230.954 334.335 251.048L351.531 307.707Z" fill="#F8C97B"/>
<path d="M310.962 226.454C306.221 231.798 297.944 231.397 291.438 228.42L291.98 220.075L292.873 206.333H309.814L310.577 219.693L310.962 226.454Z" fill="#F5A491"/>
<path d="M310.584 219.701C305.521 223.766 296.074 220.239 292.211 216.628L292.88 206.345H309.821L310.584 219.701Z" fill="#EF927F"/>
<path d="M467.711 415.891L431.96 416.746C430.393 416.781 428.878 416.126 427.759 414.929C426.869 413.972 426.285 412.729 426.092 411.383L425.119 404.512L424.334 398.961L423.301 391.781L422.755 387.964L422.674 387.399L422.443 385.769L441.281 382.521L441.404 383.341L441.52 384.147L442.16 388.563L443.081 394.923L443.813 399.961C443.849 400.212 443.908 400.457 443.988 400.694C444.463 402.095 445.632 403.074 446.996 403.214C447.131 403.233 447.266 403.241 447.402 403.237L455.382 403.046C461.023 402.914 465.995 407.059 467.357 413.028C467.517 413.725 467.621 414.437 467.665 415.154C467.693 415.391 467.704 415.639 467.711 415.891V415.891Z" fill="#F5A491"/>
<path d="M421.96 418.192L467.966 418.215C468.612 418.217 469.231 417.934 469.684 417.431C470.136 416.928 470.383 416.247 470.368 415.543C470.355 414.839 470.081 414.17 469.609 413.689C469.137 413.207 468.507 412.954 467.861 412.986L421.901 415.211C421.155 415.246 420.573 415.925 420.591 416.738C420.61 417.547 421.217 418.193 421.96 418.192V418.192Z" fill="#65617B"/>
<path d="M468.135 415.123L441.022 415.772C440.916 410.493 443.402 405.552 447.543 402.812C451.684 400.071 456.851 399.948 461.099 402.487C465.346 405.027 468.028 409.844 468.135 415.123V415.123Z" fill="#65617B"/>
<path d="M443.988 400.675L425.105 404.493L424.32 398.942L423.301 391.781L422.755 387.964L441.52 384.147L442.161 388.563L443.081 394.923L443.813 399.962C443.85 400.205 443.909 400.444 443.988 400.675V400.675Z" fill="#EF927F"/>
<path d="M500.061 340.123L470.82 362.557C469.534 363.543 467.937 363.922 466.391 363.606C465.165 363.348 464.046 362.67 463.198 361.671L458.88 356.564L455.379 352.433L450.876 347.089L448.453 344.226L448.103 343.806L447.08 342.593L461.062 328.469L461.58 329.076L462.091 329.675L464.892 332.954L468.88 337.661L472.067 341.394C472.226 341.578 472.401 341.745 472.589 341.894C473.699 342.768 475.17 342.872 476.374 342.161C476.495 342.093 476.612 342.017 476.724 341.932L483.251 336.924C487.87 333.392 494.118 333.822 498.293 337.958C498.784 338.44 499.235 338.967 499.641 339.535C499.795 339.718 499.932 339.92 500.061 340.123V340.123Z" fill="#F5A491"/>
<path d="M463.278 369.825L501.476 341.89C502.013 341.498 502.383 340.886 502.501 340.192C502.619 339.499 502.475 338.783 502.103 338.207C501.73 337.632 501.161 337.244 500.523 337.131C499.886 337.019 499.234 337.19 498.713 337.607L461.692 367.382C461.093 367.864 460.957 368.778 461.384 369.443C461.812 370.115 462.657 370.285 463.278 369.825Z" fill="#65617B"/>
<path d="M500.023 339.23L477.848 356.243C475.06 351.925 474.597 346.313 476.634 341.522C478.67 336.731 482.897 333.488 487.721 333.015C492.546 332.542 497.235 334.911 500.023 339.23Z" fill="#65617B"/>
<path d="M472.588 341.905L458.873 356.564L455.372 352.433L450.869 347.089L448.446 344.226L462.073 329.656L464.875 332.935L468.88 337.661L472.067 341.394C472.226 341.582 472.4 341.753 472.588 341.905V341.905Z" fill="#EF927F"/>
<path d="M420.959 278.108L471.009 335.286L453.299 354.487L401.102 299.653C398.388 296.805 396.841 292.885 396.811 288.779C396.78 284.673 398.267 280.726 400.937 277.83C403.606 274.93 407.234 273.326 411.002 273.378C414.769 273.431 418.358 275.136 420.959 278.108V278.108Z" fill="#65617B"/>
<path d="M438.694 316.872L445.494 395.545L420.672 398.652L410.867 320.357C410.356 316.288 411.369 312.166 413.679 308.922C415.989 305.677 419.401 303.584 423.144 303.115C426.887 302.644 430.647 303.838 433.574 306.427C436.5 309.016 438.346 312.781 438.694 316.872V316.872Z" fill="#56526A"/>
<path d="M318.876 303.023H424.457C428.251 303.022 431.891 304.665 434.575 307.589C437.258 310.513 438.767 314.48 438.768 318.617C438.768 322.753 437.26 326.72 434.577 329.645C431.894 332.57 428.255 334.214 424.46 334.214H318.876V303.023H318.876Z" fill="#56526A"/>
<path d="M433.68 397.125L428.077 331.962C427.326 323.287 420.511 316.749 412.524 317.04L314.191 320.716L314.166 319.903L412.506 316.2C420.886 315.897 428.037 322.751 428.834 331.851L434.436 397.015L433.68 397.125Z" fill="#EDEEFE"/>
<path d="M307.365 319.326L404.786 274.965C412.077 271.645 420.456 275.397 423.502 283.346C426.547 291.294 423.105 300.429 415.814 303.749L318.394 348.11L307.365 319.326H307.365Z" fill="#65617B"/>
<path d="M426.754 303.107C426.403 303.065 426.036 303.042 425.672 303.031L421.715 298.393C415.908 291.596 406.79 289.551 398.994 293.297L313.207 334.588L312.909 333.843L398.696 292.553C406.782 288.667 416.238 290.79 422.258 297.843L426.754 303.107Z" fill="#F3F4FE"/>
<path d="M462.921 345.494L462.375 346.047L438.641 318.235L438.599 316.99L462.921 345.494Z" fill="#F3F4FE"/>
<path d="M450.066 355.839C449.022 354.74 448.989 352.93 449.994 351.794L468.787 330.556C469.792 329.421 471.453 329.391 472.497 330.49V330.49C473.542 331.588 473.574 333.399 472.57 334.534L453.776 355.772C452.772 356.908 451.111 356.937 450.066 355.839V355.839Z" fill="#65617B"/>
<ellipse cx="5.02309" cy="10.9721" rx="5.02309" ry="10.9721" transform="matrix(0.993171 -0.116665 0.098361 0.995151 307.835 172.152)" fill="#7C5B5D"/>
<path d="M278.465 185.606L280.149 196.538C281.168 203.165 284.561 209.08 289.58 212.98C294.6 216.88 300.835 218.446 306.914 217.334C314.53 215.939 319.667 208.078 318.389 199.775L316.001 184.251L315.598 181.628L315.448 180.662L315.01 177.799C313.944 170.885 307.939 166.221 301.596 167.382L299.113 167.836L288.85 169.711C285.541 170.315 282.587 172.329 280.64 175.307C278.692 178.286 277.91 181.987 278.465 185.594V185.606Z" fill="#F5A491"/>
<path d="M281.655 185.789C284.89 192.637 296.231 193.294 306.988 187.255C310.093 185.539 312.944 183.326 315.448 180.689L315.01 177.826C313.944 170.911 307.939 166.248 301.596 167.409L299.113 167.863L288.85 169.738C287.524 169.973 286.242 170.438 285.051 171.116C281.175 176.135 279.69 181.624 281.655 185.789Z" fill="#EF927F"/>
<ellipse cx="298.336" cy="191.786" rx="1.60719" ry="1.7521" fill="#5E4041"/>
<ellipse cx="309.646" cy="191.385" rx="1.60719" ry="1.7521" fill="#5E4041"/>
<path d="M306.568 198.203C306.601 199.244 306.254 200.258 305.601 201.02C305.522 201.111 305.438 201.199 305.349 201.283C304.723 201.888 303.923 202.235 303.087 202.264H302.94C301.068 202.331 299.46 200.823 299.243 198.794C299.229 198.687 299.221 198.578 299.218 198.47C299.206 198.049 299.508 197.698 299.894 197.683L305.846 197.466C306.232 197.453 306.554 197.782 306.568 198.203V198.203Z" fill="#962F4A"/>
<path d="M302.996 201.661C303.002 201.864 302.991 202.067 302.961 202.268H302.94C301.068 202.335 299.46 200.827 299.243 198.798C299.498 198.704 299.765 198.653 300.034 198.645C300.794 198.617 301.533 198.918 302.089 199.484C302.644 200.049 302.971 200.833 302.996 201.661V201.661Z" fill="#E1617F"/>
<path d="M305.71 197.485C305.71 198.248 304.635 198.913 303.297 198.962C301.96 199.012 300.846 198.435 300.797 197.664L305.71 197.485Z" fill="white"/>
<path d="M279.483 203.601L278.637 203.7L276.555 182.633L286.302 181.488L287.426 192.851C287.955 198.21 284.399 203.023 279.483 203.601V203.601Z" fill="#7C5B5D"/>
<ellipse cx="282.029" cy="198.42" rx="5.91406" ry="6.44728" fill="#F5A491"/>
<path d="M280.184 197.897C280.157 199.017 280.749 200.045 281.686 200.504C281.91 200.604 282.164 200.577 282.366 200.432C282.568 200.287 282.691 200.042 282.695 199.779L282.779 196.16C282.787 195.88 282.662 195.615 282.448 195.46C282.235 195.304 281.962 195.28 281.728 195.397C280.809 195.829 280.205 196.806 280.184 197.897Z" fill="#EF927F"/>
<ellipse cx="280.842" cy="176.521" rx="10.6691" ry="11.6311" fill="#7C5B5D"/>
<path d="M270.236 177.769C270.568 181.146 272.239 184.195 274.809 186.113C270.783 181.936 270.374 175.089 273.87 170.378C277.365 165.667 283.593 164.673 288.182 168.092C284.935 164.739 280.115 163.949 276.107 166.114C272.1 168.278 269.756 172.937 270.236 177.784V177.769Z" fill="#5E4041"/>
<ellipse cx="291.294" cy="168.581" rx="14.3142" ry="15.6048" fill="#7C5B5D"/>
<ellipse cx="309.275" cy="170.352" rx="14.3142" ry="15.6048" fill="#7C5B5D"/>
<ellipse cx="291.294" cy="168.581" rx="14.3142" ry="15.6048" fill="#7C5B5D"/>
<ellipse cx="309.275" cy="170.352" rx="14.3142" ry="15.6048" fill="#7C5B5D"/>
<path d="M277.022 167.356C278.442 162.636 281.84 158.937 286.171 157.395C290.502 155.853 295.247 156.653 298.948 159.549C299.541 160.005 300.096 160.516 300.608 161.076C301.364 160.511 302.172 160.031 303.017 159.645C302.507 158.845 301.928 158.099 301.287 157.419C297.311 153.195 291.453 151.858 286.255 153.988C281.058 156.119 277.46 161.333 277.022 167.367V167.356Z" fill="#5E4041"/>
<path d="M298.949 159.549C299.541 160.005 300.097 160.516 300.608 161.076C301.365 160.511 302.172 160.031 303.017 159.645C304.307 159.045 305.671 158.659 307.065 158.5C311.296 158.009 315.508 159.593 318.561 162.824C321.614 166.055 323.192 170.598 322.868 175.223C324.777 168.892 322.786 161.938 317.913 157.914C313.04 153.891 306.361 153.686 301.288 157.404C300.438 158.023 299.653 158.742 298.949 159.549V159.549Z" fill="#5E4041"/>
<ellipse cx="289.288" cy="170.883" rx="6.16967" ry="6.72593" fill="#5E4041"/>
<path d="M341.594 259.526C339.283 257.953 338.535 254.711 339.924 252.285L349.57 235.437C350.959 233.011 353.959 232.319 356.27 233.892V233.892C358.582 235.464 359.329 238.706 357.94 241.133L348.295 257.98C346.906 260.406 343.906 261.098 341.594 259.526V259.526Z" fill="#F0A284"/>
<ellipse cx="389.536" cy="230.92" rx="2.38453" ry="2.59952" fill="#2329AD"/>
<ellipse cx="390.216" cy="230.859" rx="2.38453" ry="2.59952" fill="#161762"/>
<path d="M357.683 277.646L388.346 274.89C390.693 274.679 392.562 272.66 392.779 270.104L397.502 214.178C397.633 212.622 397.126 211.083 396.118 209.973C395.109 208.863 393.702 208.297 392.274 208.425L361.612 211.166C359.264 211.376 357.395 213.396 357.182 215.953L352.455 271.879C352.321 273.436 352.826 274.979 353.835 276.092C354.844 277.205 356.252 277.774 357.683 277.646V277.646Z" fill="#7A59A4"/>
<path d="M361.279 277.311L391.945 274.57C394.293 274.358 396.162 272.34 396.378 269.783L401.102 213.857C401.234 212.302 400.728 210.762 399.72 209.652C398.712 208.541 397.306 207.973 395.878 208.101L365.211 210.845C362.865 211.056 360.996 213.073 360.778 215.628L356.055 271.558C355.923 273.113 356.429 274.652 357.436 275.762C358.444 276.872 359.851 277.439 361.279 277.311V277.311Z" fill="#593870"/>
<path d="M373.405 243.051C373.606 245.738 375.342 247.993 377.734 248.676C380.126 249.359 382.653 248.32 384.036 246.086C383.546 246.288 383.034 246.417 382.513 246.467C379.305 246.753 376.491 244.151 376.227 240.654C376.116 239.215 376.465 237.779 377.215 236.588C374.752 237.558 373.191 240.206 373.405 243.051V243.051Z" fill="#7A59A4"/>
<path d="M387.476 245.948C386.487 243.69 387.457 240.937 389.643 239.798L396.846 236.046C399.032 234.907 401.607 235.815 402.596 238.072V238.072C403.586 240.33 402.616 243.084 400.429 244.223L393.227 247.974C391.04 249.113 388.466 248.206 387.476 245.948V245.948Z" fill="#ED9281"/>
<path d="M391.415 253.748C390.422 251.485 391.393 248.724 393.585 247.581L400.804 243.815C402.995 242.672 405.577 243.58 406.57 245.843V245.843C407.563 248.106 406.592 250.867 404.401 252.01L397.181 255.776C394.99 256.919 392.409 256.011 391.415 253.748V253.748Z" fill="#ED9281"/>
<path d="M391.513 259.753C391.444 257.244 393.421 255.144 395.93 255.062L403.646 254.81C406.155 254.728 408.244 256.695 408.313 259.204V259.204C408.382 261.713 406.405 263.813 403.896 263.895L396.18 264.147C393.671 264.229 391.582 262.262 391.513 259.753V259.753Z" fill="#ED9281"/>
<path d="M320.43 279.465C323.698 285.687 321.515 293.748 315.554 297.47V297.47C309.592 301.192 302.11 299.165 298.841 292.944L279.47 256.069C276.201 249.847 278.384 241.786 284.346 238.064V238.064C290.307 234.342 297.79 236.369 301.058 242.59L320.43 279.465Z" fill="#EDBA70"/>
<path d="M278.146 248.491C280.498 244.509 284.585 242.153 288.928 242.275C293.271 242.398 297.24 244.981 299.4 249.09L318.245 284.972C319.536 287.418 320.09 290.245 319.828 293.053C322.349 288.8 322.484 283.37 320.178 278.975L301.333 243.093C298.645 237.976 293.232 235.339 287.942 236.57C282.653 237.802 278.699 242.619 278.164 248.487L278.146 248.491Z" fill="#E0AB65"/>
<path d="M357.049 280.219C363.478 275.039 364.462 264.599 359.245 256.9C355.267 251.029 348.835 248.445 343.138 249.842C341.334 250.283 339.635 251.13 338.148 252.327L302.678 280.883C296.256 286.044 295.272 296.5 300.489 304.199C305.707 311.902 315.15 313.948 321.579 308.78L357.049 280.219Z" fill="#F0A284"/>
<path d="M319.901 301.528C318.096 302.929 315.619 302.513 314.37 300.6V300.6C313.121 298.687 313.572 296 315.377 294.599L331.339 282.215C333.145 280.814 335.621 281.229 336.87 283.143V283.143C338.119 285.056 337.668 287.743 335.863 289.144L319.901 301.528Z" fill="#FCB798"/>
<path d="M343.526 285.151C331.971 280.28 327.511 269.382 329.086 259.633L348.345 244.815C351.402 242.463 355.424 242.223 358.698 244.196C361.361 245.801 363.654 248.045 365.404 250.758C374.245 264.412 366.804 285.269 347.396 285.876C346.074 285.917 344.759 285.671 343.526 285.151Z" fill="#F0A284"/>
<path d="M343.514 256.461C341.769 254.179 342.079 250.763 344.205 248.832L355.961 238.155C358.087 236.223 361.225 236.508 362.969 238.79V238.79C364.713 241.072 364.403 244.488 362.277 246.419L350.521 257.096C348.395 259.028 345.258 258.743 343.514 256.461V256.461Z" fill="#F0A284"/>
<path d="M351.242 270.832C349.979 268.2 351.01 264.894 353.545 263.447L366.798 255.884C369.334 254.437 372.414 255.398 373.677 258.029V258.029C374.941 260.661 373.91 263.967 371.374 265.414L358.121 272.977C355.586 274.424 352.506 273.464 351.242 270.832V270.832Z" fill="#F0A284"/>
<path d="M300.493 304.203C304.926 310.749 312.398 313.208 318.497 310.627C319.595 310.161 320.631 309.538 321.579 308.776L350.351 285.605C361.065 284.044 367.508 275.906 368.839 266.863L371.587 265.298C373.814 264.026 374.81 261.135 373.902 258.579C373.838 258.394 373.763 258.213 373.678 258.037C373.608 257.892 373.534 257.759 373.461 257.617C373.376 259.51 372.378 261.212 370.838 262.091L369.087 263.084L368.079 263.656C367.878 265.1 367.538 266.517 367.063 267.882C365.386 272.827 362.125 276.944 357.882 279.475C355.314 281.013 352.502 282.006 349.594 282.403L345.456 285.724L320.805 305.573C319.858 306.335 318.823 306.957 317.727 307.424C311.631 310.005 304.152 307.547 299.719 301C298.712 299.529 297.912 297.903 297.345 296.175C297.797 299.085 298.876 301.836 300.493 304.203V304.203Z" fill="#FCB798"/>
<path d="M344.737 265.115C343.273 262.61 344.017 259.237 346.4 257.581L366.354 243.718C368.737 242.062 371.856 242.751 373.321 245.256V245.256C374.785 247.761 374.04 251.133 371.657 252.789L351.703 266.653C349.321 268.308 346.202 267.62 344.737 265.115V265.115Z" fill="#F0A284"/>
<path d="M417.343 397.567C417.147 395.999 418.256 394.54 419.819 394.309L446.173 390.404C447.736 390.172 449.161 391.255 449.357 392.823V392.823C449.552 394.391 448.444 395.85 446.881 396.081L420.526 399.986C418.964 400.218 417.538 399.135 417.343 397.567V397.567Z" fill="#56526A"/>
<path d="M410.756 341.978C410.756 349.074 405.479 354.827 398.97 354.827H308.63C304.352 354.827 300.597 351.722 299.443 347.231L264.907 212.91C264.12 209.85 265.727 206.665 268.521 205.753L271.154 204.894C277.059 202.969 283.279 206.624 285.051 213.059L302.744 277.444C305.602 287.846 314.381 294.972 324.342 294.973H364.119C369.542 294.972 374.743 297.32 378.578 301.5C382.413 305.68 384.568 311.35 384.568 317.262V329.133H398.966C402.092 329.132 405.09 330.485 407.301 332.894C409.512 335.303 410.755 338.57 410.756 341.978V341.978Z" fill="#6675AD"/>
<path d="M410.756 341.474C410.969 347.446 407.379 352.791 402.093 354.372C402.387 353.115 402.505 351.817 402.443 350.521C402.114 343.654 396.749 338.34 390.447 338.34H380.292C379.231 338.341 378.213 337.882 377.463 337.065C376.712 336.247 376.29 335.138 376.29 333.981V326.48C376.29 314.17 367.137 304.19 355.845 304.188H316.05C306.09 304.188 297.309 297.064 294.449 286.663L276.756 222.297C275.246 216.759 270.372 213.143 265.093 213.643L264.904 212.91C264.118 209.852 265.724 206.671 268.514 205.757L271.15 204.894C277.057 202.965 283.28 206.62 285.051 213.059L302.744 277.444C305.602 287.846 314.382 294.971 324.342 294.973H364.119C375.412 294.973 384.568 304.953 384.568 317.265V329.133H398.752C405.129 329.133 410.51 334.542 410.756 341.474V341.474Z" fill="#5B6DA5"/>
<path d="M322.125 354.831L319.86 363.854L306.179 418.349H301.873L312.328 363.854L314.058 354.831H322.125Z" fill="#6675AD"/>
<path d="M407.482 418.349H403.178L389.494 363.854L387.229 354.831H395.3L397.029 363.854L407.482 418.349Z" fill="#6675AD"/>
<path d="M314.058 354.831H322.125L319.86 363.854H312.328L314.058 354.831Z" fill="#5B6DA5"/>
<path d="M397.029 363.854H389.494L387.229 354.831H395.3L397.029 363.854Z" fill="#5B6DA5"/>
<rect x="436.404" y="124.984" width="73.6928" height="153.25" rx="26.19" fill="#ADB6E0"/>
<rect x="441.1" y="130.47" width="64.3088" height="142.279" rx="14.05" fill="#F3F4FE"/>
<path d="M505.408 135.833V267.39C505.408 268.811 504.889 270.174 503.965 271.177C503.041 272.179 501.789 272.74 500.485 272.734H446.019C444.716 272.74 443.463 272.179 442.539 271.177C441.616 270.174 441.096 268.811 441.096 267.39V135.833C441.096 134.412 441.616 133.049 442.539 132.046C443.463 131.043 444.716 130.483 446.019 130.489H500.485C501.789 130.483 503.041 131.043 503.965 132.046C504.889 133.049 505.408 134.412 505.408 135.833V135.833Z" fill="#F3F4FE"/>
<path d="M505.408 167.577V267.39C505.408 268.811 504.889 270.174 503.965 271.176C503.041 272.179 501.789 272.74 500.485 272.734H480.526V157.534L505.408 167.577Z" fill="#EBECFD"/>
<path d="M468.303 272.749V184.793L480.527 176.799V272.749H468.303Z" fill="#D9DCFB"/>
<path d="M454.391 166.566V272.76H446.019C444.716 272.767 443.463 272.206 442.539 271.203C441.616 270.2 441.096 268.838 441.096 267.416V171.883L454.391 166.566Z" fill="#EBECFD"/>
<path d="M463.04 169.833V272.749H454.391V166.554L463.04 169.833Z" fill="#D9DCFB"/>
<path d="M485.187 172.398H491.272V175.994H485.187V172.398Z" fill="#F1F2FD"/>
<path d="M442.332 180.536H452.714V170.012L442.332 174.345V180.536Z" fill="#F1F2FD"/>
<path d="M496.455 172.398H502.54V175.994H496.455V172.398Z" fill="#F1F2FD"/>
<path d="M485.187 181.861H491.272V185.457H485.187V181.861Z" fill="#F1F2FD"/>
<path d="M496.455 181.861H502.54V185.457H496.455V181.861Z" fill="#F1F2FD"/>
<path d="M485.187 191.324H491.272V194.92H485.187V191.324Z" fill="#F1F2FD"/>
<path d="M496.455 191.324H502.54V194.92H496.455V191.324Z" fill="#F1F2FD"/>
<path d="M485.187 200.783H491.272V204.379H485.187V200.783Z" fill="#F1F2FD"/>
<path d="M496.455 200.783H502.54V204.379H496.455V200.783Z" fill="#F1F2FD"/>
<path d="M485.187 210.246H491.272V213.842H485.187V210.246Z" fill="#F1F2FD"/>
<path d="M496.455 210.246H502.54V213.842H496.455V210.246Z" fill="#F1F2FD"/>
<path d="M485.187 219.705H491.272V223.301H485.187V219.705Z" fill="#F1F2FD"/>
<path d="M496.455 219.705H502.54V223.301H496.455V219.705Z" fill="#F1F2FD"/>
<path d="M485.187 229.168H491.272V232.764H485.187V229.168Z" fill="#F1F2FD"/>
<path d="M496.455 229.168H502.54V232.764H496.455V229.168Z" fill="#F1F2FD"/>
<path d="M485.187 238.627H491.272V242.223H485.187V238.627Z" fill="#F1F2FD"/>
<path d="M496.455 238.627H502.54V242.223H496.455V238.627Z" fill="#F1F2FD"/>
<path d="M485.187 248.09H491.272V251.686H485.187V248.09Z" fill="#F1F2FD"/>
<path d="M496.455 248.09H502.54V251.686H496.455V248.09Z" fill="#F1F2FD"/>
<path d="M485.187 257.553H491.272V261.149H485.187V257.553Z" fill="#F1F2FD"/>
<path d="M496.455 257.553H502.54V261.149H496.455V257.553Z" fill="#F1F2FD"/>
<path d="M485.187 267.012H491.272V270.607H485.187V267.012Z" fill="#F1F2FD"/>
<path d="M496.455 267.012H502.54V270.607H496.455V267.012Z" fill="#F1F2FD"/>
<path d="M442.332 183.659H452.714V188.835H442.332V183.659Z" fill="#F1F2FD"/>
<path d="M442.332 192.515H446.145V197.691H442.332V192.515Z" fill="#F1F2FD"/>
<path d="M448.901 192.515H452.714V197.691H448.901V192.515Z" fill="#F1F2FD"/>
<path d="M442.332 202.741H452.714V207.917H442.332V202.741Z" fill="#F1F2FD"/>
<path d="M442.332 211.597H446.145V216.773H442.332V211.597Z" fill="#F1F2FD"/>
<path d="M448.901 211.597H452.714V216.773H448.901V211.597Z" fill="#F1F2FD"/>
<path d="M442.332 221.823H452.714V227H442.332V221.823Z" fill="#F1F2FD"/>
<path d="M442.332 230.679H446.145V235.856H442.332V230.679Z" fill="#F1F2FD"/>
<path d="M448.901 230.679H452.714V235.856H448.901V230.679Z" fill="#F1F2FD"/>
<path d="M442.332 240.757H452.714V245.933H442.332V240.757Z" fill="#F1F2FD"/>
<path d="M442.332 249.609H446.145V254.785H442.332V249.609Z" fill="#F1F2FD"/>
<path d="M448.901 249.609H452.714V254.785H448.901V249.609Z" fill="#F1F2FD"/>
<path d="M442.332 259.686H452.714V264.863H442.332V259.686Z" fill="#F1F2FD"/>
<path d="M427.986 139.669H517.31L520.825 134.173H424.471L427.986 139.669Z" fill="#ADB6E0"/>
<path d="M427.986 149.045H517.31L520.825 143.552H424.471L427.986 149.045Z" fill="#ADB6E0"/>
<path d="M427.986 158.423H517.31L520.825 152.93H424.471L427.986 158.423Z" fill="#ADB6E0"/>
<path d="M427.986 167.802H517.31L520.825 162.306H424.471L427.986 167.802Z" fill="#ADB6E0"/>
<path d="M444.384 167.802H446.184V191.939H444.384V167.802Z" fill="#ADB6E0"/>
<rect x="443.2" y="188.732" width="4.1668" height="8.70707" rx="2.0834" fill="#ADB6E0"/>
</svg>
