<svg width="397" height="400" viewBox="0 0 397 400" fill="none" xmlns="http://www.w3.org/2000/svg">
<path d="M382.191 250.203V254.284C382.197 262.961 380.038 271.501 375.911 279.117C375.717 279.474 375.522 279.827 375.32 280.176C372.669 284.803 369.329 288.993 365.415 292.598C365.236 292.767 365.053 292.931 364.87 293.096L364.815 293.143L364.201 293.688C361.292 296.207 358.112 298.388 354.719 300.191C353.793 300.685 352.848 301.152 351.891 301.587C349.994 302.455 348.045 303.202 346.055 303.825C345.584 303.974 345.109 304.115 344.635 304.248C340.089 305.534 335.389 306.184 330.668 306.181H309.771C303.902 306.183 299.146 310.977 299.146 316.89V356.843H121.466V316.894C121.471 312.486 118.789 308.527 114.712 306.926C113.474 306.432 112.153 306.181 110.821 306.185H75.6738C75.1174 306.185 74.5688 306.185 74.0164 306.161C66.4627 305.929 59.0442 304.083 52.2524 300.744C51.8633 300.56 51.5093 300.375 51.1397 300.179C47.671 298.377 44.4092 296.196 41.4132 293.676L41.2108 293.508C41.063 293.382 40.9152 293.257 40.7712 293.116L40.1526 292.598C39.3511 291.889 38.573 291.148 37.8182 290.387C34.7706 287.317 32.1006 283.888 29.8659 280.176C26.7393 274.987 24.5119 269.3 23.2791 263.359C21.7591 256.025 21.7591 248.454 23.2791 241.121C23.3685 240.67 23.4697 240.223 23.5748 239.776C23.8523 238.6 24.1674 237.437 24.5202 236.287C24.7199 235.644 24.93 235.005 25.1504 234.37C26.5103 230.465 28.316 226.731 30.5311 223.245C33.8623 217.995 38.0659 213.362 42.9577 209.549C44.1042 208.653 45.2921 207.803 46.5215 207.001C51.1405 203.969 56.1989 201.679 61.5159 200.212C63.0488 199.788 64.605 199.434 66.1846 199.149C67.3596 198.935 68.5475 198.761 69.7484 198.628C71.7135 198.41 73.689 198.302 75.666 198.302H116.934C124.479 198.305 130.65 192.245 130.842 184.645C130.842 184.528 130.842 184.406 130.842 184.285C130.842 184.23 130.842 184.175 130.842 184.124C130.767 177.329 125.863 171.569 119.21 170.459C118.457 170.333 117.696 170.27 116.934 170.271H47.3385H46.5215C38.179 170.074 30.234 166.639 24.3451 160.682C23.9833 160.318 23.6292 159.945 23.2868 159.565C11.9833 147.065 11.9833 127.949 23.2868 115.449C23.6292 115.057 23.9833 114.697 24.3451 114.332C30.234 108.375 38.179 104.94 46.5215 104.744C46.7809 104.744 47.0532 104.744 47.3385 104.744C52.3474 104.751 57.2583 103.345 61.5159 100.687C63.2011 99.631 64.7667 98.3927 66.1846 96.994C71.3703 91.8867 74.2933 84.8886 74.2926 77.5821V49.9069C74.2916 47.067 75.4106 44.343 77.4033 42.3345C79.396 40.3259 82.0992 39.1975 84.9178 39.1975H332.597C347.984 39.196 361.267 50.0563 364.433 65.2271C367.6 80.3978 359.784 95.7291 345.701 101.972C344.541 102.489 343.35 102.936 342.137 103.309C339.046 104.263 335.83 104.747 332.597 104.744H306.141C302.975 104.742 299.859 105.541 297.08 107.068C296.59 107.339 296.111 107.633 295.648 107.946C290.39 111.478 287.232 117.424 287.233 123.791C287.235 130.16 290.399 136.106 295.664 139.632C296.781 140.387 297.976 141.018 299.228 141.513C301.434 142.39 303.785 142.838 306.157 142.834C306.503 142.834 306.845 142.834 307.188 142.858C311.33 143.023 315.362 144.254 318.899 146.433C319.319 146.688 319.727 146.954 320.128 147.237C320.943 147.806 321.723 148.425 322.462 149.091C327.694 153.773 330.683 160.488 330.675 167.538V184.394C330.669 191.725 335.268 198.256 342.137 200.67C342.367 200.752 342.6 200.827 342.834 200.898C343.759 201.176 344.717 201.482 345.701 201.827C347.681 202.505 349.763 203.316 351.891 204.277C356.733 206.428 361.268 209.224 365.372 212.591C366.613 213.62 367.803 214.711 368.936 215.86C371.162 218.109 373.147 220.589 374.857 223.257C377.064 226.709 378.783 230.453 379.965 234.382C380.157 235.009 380.336 235.648 380.502 236.299C380.794 237.428 381.055 238.592 381.28 239.788C381.899 243.224 382.203 246.711 382.191 250.203Z" fill="#F3F4FE"/>
<path d="M344.643 304.272C340.097 305.558 335.397 306.208 330.675 306.204H309.771C303.902 306.207 299.146 311.001 299.146 316.914V356.843H121.466C121.466 356.843 143.643 253.312 181.77 252.093C219.898 250.874 229.255 292.598 229.255 292.598C229.255 292.598 235.932 218.557 289.034 213.296C316.444 210.584 334.037 257.863 344.643 304.272Z" fill="#EBECFD"/>
<rect x="61.512" y="363.746" width="28.8138" height="6.90312" rx="3.45156" transform="rotate(-180 61.512 363.746)" fill="#D2D6FA"/>
<rect x="379.417" y="363.746" width="315.115" height="6.90312" rx="3.45156" transform="rotate(-180 379.417 363.746)" fill="#D2D6FA"/>
<path d="M382.191 250.203V254.284C382.197 262.961 380.038 271.501 375.911 279.117C375.717 279.474 375.522 279.827 375.32 280.176C372.67 284.803 369.329 288.993 365.415 292.598C365.236 292.767 365.053 292.931 364.87 293.096L364.815 293.143L364.201 293.688C361.292 296.207 358.112 298.388 354.719 300.191C353.793 300.685 352.848 301.152 351.891 301.587C349.994 302.455 348.045 303.202 346.055 303.825C341.074 305.389 335.885 306.182 330.668 306.177H309.771C303.902 306.179 299.146 310.973 299.146 316.886V356.843H269.62V39.1741H332.597C347.984 39.1726 361.267 50.0329 364.433 65.2036C367.6 80.3744 359.784 95.7057 345.701 101.949C344.541 102.466 343.351 102.912 342.137 103.286C339.046 104.24 335.83 104.724 332.597 104.72H306.141C302.975 104.718 299.86 105.518 297.08 107.045C296.59 107.315 296.111 107.609 295.648 107.923C290.39 111.455 287.232 117.401 287.233 123.768C287.227 130.145 290.393 136.102 295.664 139.632C296.781 140.387 297.976 141.018 299.228 141.514C301.434 142.39 303.785 142.838 306.157 142.835C306.503 142.835 306.845 142.835 307.188 142.858C311.33 143.023 315.362 144.254 318.899 146.433C319.319 146.688 319.727 146.954 320.128 147.237C320.943 147.806 321.723 148.425 322.462 149.091C327.694 153.773 330.683 160.488 330.675 167.538V184.394C330.669 191.725 335.268 198.256 342.137 200.67C342.367 200.753 342.6 200.827 342.834 200.898C343.76 201.176 344.717 201.482 345.701 201.827C347.681 202.505 349.763 203.316 351.891 204.277C356.734 206.428 361.268 209.224 365.372 212.591C366.613 213.62 367.803 214.711 368.936 215.86C371.162 218.109 373.147 220.589 374.857 223.257C377.064 226.709 378.783 230.453 379.965 234.382C380.157 235.009 380.336 235.648 380.502 236.299C380.794 237.428 381.055 238.592 381.28 239.788C381.899 243.224 382.203 246.711 382.191 250.203Z" fill="#D2D6FA"/>
<path d="M382.191 250.203V254.284C382.197 262.961 380.038 271.501 375.911 279.117C375.717 279.474 375.522 279.827 375.32 280.176H281.051V54.0935H359.874C365.073 62.1552 366.497 72.1102 363.768 81.3227C361.04 90.5352 354.434 98.0761 345.701 101.949C344.541 102.466 343.35 102.912 342.137 103.286C339.046 104.24 335.83 104.723 332.597 104.72H306.141C302.975 104.718 299.859 105.517 297.08 107.045C296.59 107.315 296.111 107.609 295.648 107.923C290.39 111.455 287.232 117.401 287.233 123.768C287.227 130.145 290.392 136.101 295.664 139.632C296.781 140.387 297.976 141.018 299.228 141.513C301.434 142.39 303.785 142.838 306.157 142.834C306.503 142.834 306.845 142.834 307.188 142.858C311.33 143.023 315.362 144.254 318.899 146.433C319.319 146.688 319.727 146.954 320.128 147.237C320.943 147.806 321.723 148.425 322.462 149.091C327.693 153.773 330.683 160.488 330.675 167.538V184.394C330.669 191.725 335.268 198.256 342.137 200.67C342.367 200.752 342.6 200.827 342.834 200.898C343.759 201.176 344.717 201.482 345.701 201.827C347.681 202.505 349.763 203.316 351.891 204.277C356.733 206.428 361.268 209.224 365.372 212.591C366.613 213.62 367.803 214.711 368.936 215.86C371.162 218.109 373.147 220.589 374.857 223.257C377.064 226.709 378.783 230.453 379.965 234.382C380.157 235.009 380.336 235.648 380.502 236.299C380.794 237.428 381.055 238.592 381.28 239.788C381.899 243.224 382.203 246.711 382.191 250.203Z" fill="#F1F2FD"/>
<path d="M380.502 236.287C380.794 237.416 381.055 238.581 381.28 239.776H281.051V236.287H380.502Z" fill="#D2D6FA"/>
<path d="M299.228 54.0935V106.041C298.497 106.33 297.785 106.666 297.096 107.045C296.605 107.315 296.127 107.609 295.664 107.923V54.0935L299.228 54.0935Z" fill="#D2D6FA"/>
<path d="M295.664 139.632C296.781 140.387 297.976 141.018 299.228 141.513V280.176H295.664V139.632Z" fill="#D2D6FA"/>
<path d="M318.902 54.0935H322.462V104.72H318.902V54.0935Z" fill="#D2D6FA"/>
<path d="M320.132 147.221C320.947 147.79 321.727 148.409 322.466 149.075V280.176H318.906V146.417C319.323 146.688 319.731 146.939 320.132 147.221Z" fill="#D2D6FA"/>
<path d="M345.701 54.0935V101.949C344.541 102.466 343.35 102.912 342.137 103.286V54.0935L345.701 54.0935Z" fill="#D2D6FA"/>
<path d="M342.841 200.886C343.767 201.164 344.724 201.47 345.709 201.815V280.176H342.145V200.658C342.367 200.741 342.6 200.815 342.841 200.886Z" fill="#D2D6FA"/>
<path d="M368.935 215.848V280.176H365.372V212.579C366.613 213.608 367.803 214.699 368.935 215.848Z" fill="#D2D6FA"/>
<path d="M142.269 39.1741V356.843H121.466V316.894C121.471 312.486 118.789 308.527 114.712 306.926C113.474 306.433 112.153 306.181 110.821 306.185H75.6738C75.1174 306.185 74.5688 306.185 74.0164 306.161C66.4627 305.929 59.0442 304.083 52.2524 300.744C51.8633 300.56 51.5093 300.375 51.1397 300.179C47.671 298.377 44.4092 296.196 41.4132 293.676L41.2108 293.508C41.063 293.382 40.9152 293.257 40.7712 293.116L40.1526 292.598C39.3511 291.889 38.573 291.148 37.8182 290.387C34.7706 287.317 32.1006 283.889 29.8659 280.176C26.7393 274.987 24.5119 269.3 23.2791 263.359C21.7591 256.025 21.7591 248.454 23.2791 241.121C23.3685 240.67 23.4697 240.223 23.5748 239.776C23.8523 238.6 24.1674 237.437 24.5202 236.287C24.7199 235.644 24.93 235.006 25.1504 234.37C26.5103 230.465 28.316 226.731 30.5311 223.246C33.8623 217.995 38.0659 213.362 42.9577 209.549C44.1042 208.653 45.2921 207.803 46.5215 207.001C51.1405 203.969 56.1989 201.679 61.5159 200.212C63.0488 199.788 64.605 199.434 66.1846 199.149C67.3596 198.935 68.5475 198.761 69.7484 198.628C71.7135 198.41 73.689 198.302 75.666 198.303H116.934C124.479 198.305 130.65 192.245 130.842 184.645V184.124C130.767 177.329 125.863 171.569 119.21 170.459C118.457 170.333 117.696 170.27 116.934 170.271H47.3385H46.5215C38.179 170.074 30.234 166.639 24.3451 160.682C23.9833 160.318 23.6292 159.945 23.2868 159.565C11.9833 147.065 11.9833 127.95 23.2868 115.449C23.6292 115.057 23.9833 114.697 24.3451 114.332C30.234 108.375 38.179 104.94 46.5215 104.744C46.7809 104.744 47.0532 104.744 47.3385 104.744C52.3474 104.751 57.2583 103.345 61.5159 100.687C63.2011 99.631 64.7667 98.3928 66.1846 96.9941C71.3703 91.8868 74.2933 84.8886 74.2926 77.5822V49.907C74.2916 47.0671 75.4106 44.3431 77.4033 42.3346C79.396 40.326 82.0992 39.1976 84.9178 39.1976L142.269 39.1741Z" fill="#D2D6FA"/>
<path d="M130.842 54.0935V184.124C130.767 177.329 125.863 171.569 119.21 170.459C118.457 170.332 117.696 170.27 116.934 170.271H47.3385H46.5215C38.179 170.074 30.234 166.639 24.3451 160.682C23.9833 160.318 23.6292 159.945 23.2868 159.565C11.9833 147.065 11.9833 127.949 23.2868 115.449C23.6292 115.057 23.9833 114.697 24.3451 114.332C30.234 108.375 38.179 104.94 46.5215 104.744C46.7809 104.744 47.0532 104.744 47.3385 104.744C52.3474 104.751 57.2583 103.345 61.5159 100.687C63.2011 99.6309 64.7666 98.3927 66.1846 96.994C71.3703 91.8867 74.2933 84.8886 74.2926 77.5821V54.0935L130.842 54.0935Z" fill="#F1F2FD"/>
<path d="M130.842 184.645V280.176H29.8697C26.7431 274.987 24.5157 269.3 23.2829 263.359C21.763 256.025 21.763 248.454 23.2829 241.121C23.3724 240.67 23.4736 240.223 23.5786 239.776C23.8561 238.6 24.1713 237.437 24.524 236.287C24.7237 235.644 24.9338 235.006 25.1543 234.37C26.5129 230.465 28.3173 226.732 30.5311 223.246C33.8623 217.995 38.0659 213.362 42.9577 209.549C44.1041 208.653 45.292 207.803 46.5215 207.001C51.1404 203.969 56.1989 201.679 61.5159 200.212C63.0487 199.788 64.605 199.434 66.1846 199.149C67.3595 198.935 68.5475 198.761 69.7484 198.628C71.7135 198.41 73.689 198.302 75.666 198.303H116.934C124.479 198.305 130.65 192.245 130.842 184.645V184.645Z" fill="#F1F2FD"/>
<path d="M130.842 236.287V239.776H23.5786C23.8561 238.6 24.1713 237.437 24.524 236.287H130.842Z" fill="#D2D6FA"/>
<path d="M112.662 54.0935H116.225V170.271H112.662V54.0935Z" fill="#D2D6FA"/>
<path d="M112.662 198.302H116.225V280.176H112.662V198.302Z" fill="#D2D6FA"/>
<path d="M89.427 54.0935H92.9908V170.271H89.427V54.0935Z" fill="#D2D6FA"/>
<path d="M89.427 198.302H92.9908V280.176H89.427V198.302Z" fill="#D2D6FA"/>
<path d="M69.7562 92.6467V170.263H66.1924V96.9587C67.5261 95.6503 68.7205 94.2052 69.7562 92.6467Z" fill="#D2D6FA"/>
<path d="M66.1924 199.149C67.3673 198.935 68.5553 198.761 69.7562 198.628V280.164H66.1924V199.149Z" fill="#D2D6FA"/>
<path d="M46.5214 104.744V170.259C45.3293 170.231 44.1395 170.136 42.9576 169.977V105.014C44.1398 104.858 45.3295 104.768 46.5214 104.744V104.744Z" fill="#D2D6FA"/>
<path d="M42.9576 209.549C44.1041 208.653 45.292 207.803 46.5214 207.001V280.176H42.9576V209.549Z" fill="#D2D6FA"/>
<path d="M23.2829 115.438V159.553C21.9538 158.085 20.7609 156.497 19.7191 154.81V120.181C20.7609 118.493 21.9538 116.906 23.2829 115.438V115.438Z" fill="#D2D6FA"/>
<path d="M23.2829 241.121V263.359C21.763 256.025 21.763 248.454 23.2829 241.121Z" fill="#D2D6FA"/>
<path d="M254.241 140.024H239.845C239.845 136.019 243.068 132.772 247.043 132.772C251.018 132.772 254.241 136.019 254.241 140.024Z" fill="#EBECFD"/>
<path d="M246.152 140.024H225.501C225.501 134.278 230.124 129.62 235.826 129.62C241.529 129.62 246.152 134.278 246.152 140.024Z" fill="#EBECFD"/>
<path d="M237.068 140.024H211.856C211.856 133.01 217.5 127.323 224.462 127.323C231.424 127.323 237.068 133.01 237.068 140.024Z" fill="#EBECFD"/>
<path d="M145.444 118.24H262.792V120.965H145.444V118.24Z" fill="#D2D6FA"/>
<path d="M145.444 118.24H262.792V120.965H145.444V118.24Z" fill="#D2D6FA"/>
<path d="M249.665 39.1741V120.381H246.961V39.1741H249.665Z" fill="#D2D6FA"/>
<path d="M205.468 39.1702V120.377H202.764V39.1702H205.468Z" fill="#D2D6FA"/>
<path d="M161.267 39.1741V120.381H158.563V39.1741H161.267Z" fill="#D2D6FA"/>
<path d="M145.444 106.574H262.792V109.299H145.444V106.574Z" fill="#D2D6FA"/>
<path d="M145.444 112.502H262.792V115.226H145.444V112.502Z" fill="#D2D6FA"/>
<path d="M145.444 94.9048H262.792V97.6292H145.444V94.9048Z" fill="#D2D6FA"/>
<path d="M145.444 83.2388H262.792V85.9632H145.444V83.2388Z" fill="#D2D6FA"/>
<path d="M145.444 71.5688H262.792V74.2932H145.444V71.5688Z" fill="#D2D6FA"/>
<path d="M145.444 59.9031H262.792V62.6275H145.444V59.9031Z" fill="#D2D6FA"/>
<path d="M145.444 48.2332H262.792V50.9576H145.444V48.2332Z" fill="#D2D6FA"/>
<path d="M145.444 100.742H262.792V103.466H145.444V100.742Z" fill="#D2D6FA"/>
<path d="M145.444 89.0718H262.792V91.7962H145.444V89.0718Z" fill="#D2D6FA"/>
<path d="M145.444 77.4058H262.792V80.1302H145.444V77.4058Z" fill="#D2D6FA"/>
<path d="M145.444 65.7361H262.792V68.4605H145.444V65.7361Z" fill="#D2D6FA"/>
<path d="M145.444 54.0701H262.792V56.7945H145.444V54.0701Z" fill="#D2D6FA"/>
<path d="M145.444 42.4001H262.792V45.1245H145.444V42.4001Z" fill="#D2D6FA"/>
<path d="M155.703 341.277C155.694 346.496 156.084 351.708 156.871 356.867H333.231C334.018 351.708 334.408 346.496 334.399 341.277C334.399 304.974 315.673 273.374 288.042 257.036C275.015 249.286 260.164 245.198 245.035 245.198C216.315 245.198 190.719 259.792 174.378 282.461C162.671 298.709 155.703 319.121 155.703 341.277Z" fill="#7986BF"/>
<path d="M115.152 356.87H229.321C229.321 323.311 206.631 294.542 174.39 282.465C171.359 281.323 168.271 280.342 165.138 279.525C138.196 298.313 119.641 325.71 115.152 356.87Z" fill="#7986BF"/>
<path d="M186.377 356.87H333.239C333.961 352.15 334.351 347.385 334.406 342.609C334.406 342.167 334.406 341.724 334.406 341.277C334.406 317.365 326.279 295.487 312.837 278.674C307.361 271.811 300.942 265.769 293.773 260.732C291.908 259.426 289.997 258.194 288.038 257.036C234.313 269.051 193.364 308.415 186.377 356.87H186.377Z" fill="#D2D6FA"/>
<path d="M234.087 356.87H333.617C334.103 352.225 334.372 347.462 334.414 342.61C334.414 342.167 334.414 341.724 334.414 341.277C334.414 317.365 326.287 295.487 312.845 278.674C261.038 295.452 237.297 324.029 234.087 356.87H234.087Z" fill="#7986BF"/>
<path d="M305.03 218.961L311.498 219.961C312.782 220.16 313.936 220.866 314.703 221.923C315.47 222.98 315.788 224.301 315.587 225.595L309.119 224.594C307.834 224.396 306.681 223.69 305.914 222.633C305.146 221.576 304.828 220.254 305.03 218.961Z" fill="#153E63"/>
<path d="M315.568 225.535C315.249 223.404 313.59 221.73 311.475 221.407L305.005 220.407C304.931 219.922 304.931 219.427 305.005 218.941L311.475 219.941C314.134 220.354 315.963 222.853 315.568 225.535Z" fill="#0C314C"/>
<ellipse cx="235.507" cy="162.192" rx="19.667" ry="19.8156" fill="#153E63"/>
<path d="M218.404 163.046C218.225 170.07 221.755 176.662 227.68 180.369C220.915 177.414 216.358 170.895 215.875 163.482C215.392 156.069 219.065 149.006 225.388 145.186C231.712 141.366 239.625 141.43 245.888 145.351C239.888 142.74 232.993 143.3 227.486 146.847C221.979 150.393 218.579 156.463 218.412 163.046H218.404Z" fill="#396E96"/>
<path d="M246.102 174.989C246.337 165.558 254.173 158.106 263.604 158.345L267.043 158.432C276.474 158.671 283.928 166.51 283.693 175.941C283.457 185.372 275.622 192.823 266.191 192.584L262.752 192.497C253.321 192.258 245.867 184.42 246.102 174.989Z" fill="#153E63"/>
<path d="M259.581 171.321C259.816 161.89 267.652 154.439 277.082 154.678L280.522 154.765C289.952 155.004 297.407 162.842 297.171 172.273C296.936 181.704 289.1 189.156 279.669 188.917L276.23 188.83C266.8 188.591 259.345 180.752 259.581 171.321Z" fill="#153E63"/>
<path d="M233.753 168.808L233.414 182.313C233.312 186.406 236.522 189.807 240.585 189.91C244.647 190.013 248.023 186.778 248.125 182.685L248.463 169.181C248.529 166.533 247.188 164.051 244.946 162.67C242.703 161.288 239.899 161.217 237.59 162.484C235.282 163.75 233.819 166.161 233.753 168.808Z" fill="#F5A491"/>
<path d="M233.753 168.808L233.492 179.196C238.321 180.343 243.338 180.438 248.206 179.475L248.463 169.181C248.529 166.533 247.188 164.051 244.946 162.67C242.703 161.288 239.899 161.217 237.59 162.484C235.282 163.75 233.819 166.161 233.753 168.808Z" fill="#EF927F"/>
<path d="M223.921 138.421L223.886 142.341L223.863 145.034L223.715 160.988C223.639 169.511 230.429 176.486 238.888 176.574C245.65 176.644 252.163 174.004 256.993 169.235C261.823 164.466 264.573 157.958 264.64 151.145L264.741 139.914C264.813 132.193 258.659 125.875 250.996 125.802L239.589 125.7L236.822 125.673C233.433 125.636 230.168 126.96 227.748 129.351C225.328 131.742 223.951 135.005 223.921 138.421Z" fill="#F5A491"/>
<path d="M240.301 176.554C239.838 176.582 239.371 176.59 238.904 176.586C230.443 176.498 223.653 169.521 223.731 160.996L223.874 145.049L223.898 142.352L223.929 138.432C223.961 135.02 225.337 131.761 227.754 129.371C230.171 126.981 233.432 125.656 236.818 125.689H238.274C231.529 126.035 226.219 131.613 226.158 138.417L226.123 142.337L226.096 145.034L225.952 160.98C225.869 169.188 232.171 176.028 240.301 176.554Z" fill="#FFC4AF"/>
<path d="M223.921 138.421L223.886 142.341L223.863 145.034C229.191 148.03 235.885 146.748 239.751 141.99C243.616 137.232 243.541 130.367 239.573 125.696L236.807 125.669C233.419 125.636 230.158 126.962 227.741 129.354C225.324 131.746 223.95 135.007 223.921 138.421Z" fill="#EF927F"/>
<ellipse cx="1.71303" cy="1.45509" rx="1.71303" ry="1.45509" transform="matrix(0.0249417 -0.999689 0.999679 0.0253199 228.592 156.406)" fill="#230D30"/>
<ellipse cx="1.71303" cy="1.45509" rx="1.71303" ry="1.45509" transform="matrix(0.0249417 -0.999689 0.999679 0.0253199 240.193 156.699)" fill="#230D30"/>
<ellipse cx="269.177" cy="151.149" rx="13.3642" ry="13.4652" fill="#153E63"/>
<path d="M297.17 171.839V172.278C297.028 178.154 293.893 183.542 288.875 186.539C292.813 183.392 295.161 178.646 295.283 173.583C295.283 173.434 295.283 173.289 295.283 173.144C295.28 164.945 289.493 157.905 281.498 156.374C281.051 156.288 280.596 156.221 280.137 156.174C280.269 155.712 280.375 155.242 280.456 154.767C280.569 154.12 280.634 153.464 280.65 152.807C280.775 147.955 278.297 143.41 274.165 140.915C270.033 138.419 264.888 138.359 260.699 140.757C265.218 137.016 271.627 136.671 276.516 139.906C281.404 143.141 283.636 149.204 282.023 154.869C290.632 155.8 297.161 163.116 297.17 171.839Z" fill="#0C314C"/>
<ellipse cx="283.447" cy="185.7" rx="12.0725" ry="12.1638" fill="#153E63"/>
<ellipse cx="289.793" cy="198.028" rx="9.71483" ry="9.78824" fill="#153E63"/>
<ellipse cx="293.652" cy="206.523" rx="7.88236" ry="7.94192" fill="#153E63"/>
<ellipse cx="301.348" cy="214.155" rx="6.85524" ry="6.90704" fill="#153E63"/>
<path d="M305.958 219.259C306.444 218.332 306.71 217.304 306.736 216.256C306.818 212.833 304.404 209.863 301.056 209.271C300.724 209.215 300.389 209.184 300.052 209.177H300.045C300.066 209.002 300.078 208.827 300.08 208.651C300.143 206.63 299.427 204.663 298.08 203.163C297.947 203.008 297.805 202.86 297.656 202.72C297.897 201.901 298.028 201.054 298.045 200.2C298.045 200.11 298.045 200.012 298.045 199.921C298.03 196.71 296.451 193.71 293.82 191.897C293.672 191.795 293.524 191.697 293.368 191.603C293.641 190.817 293.829 190.003 293.929 189.177C293.983 188.764 294.015 188.35 294.026 187.934C294.151 182.901 291.184 178.312 286.564 176.394C281.945 174.476 276.63 175.626 273.199 179.287C276.408 173.951 283.106 171.93 288.698 174.611C294.289 177.292 296.957 183.804 294.87 189.678C298.609 191.992 300.348 196.541 299.115 200.784C300.714 202.33 301.594 204.482 301.539 206.715C301.539 206.891 301.539 207.071 301.507 207.24C304.306 207.311 306.781 209.09 307.758 211.734C308.734 214.378 308.015 217.354 305.943 219.251L305.958 219.259Z" fill="#0C314C"/>
<ellipse cx="263.461" cy="155.614" rx="6.48174" ry="6.53072" fill="#F5A491"/>
<path d="M265.418 155.731C265.389 156.866 264.688 157.872 263.64 158.287C263.392 158.377 263.115 158.337 262.901 158.18C262.688 158.023 262.565 157.769 262.574 157.503L262.664 153.834C262.674 153.558 262.823 153.305 263.058 153.163C263.293 153.021 263.584 153.008 263.831 153.128C264.82 153.608 265.44 154.625 265.418 155.731Z" fill="#EF927F"/>
<path d="M307.394 216.998C308.032 216.523 308.931 216.659 309.401 217.301C309.871 217.943 309.734 218.848 309.095 219.323L305.121 222.276C304.482 222.751 303.584 222.615 303.114 221.973C302.644 221.331 302.78 220.426 303.419 219.951L307.394 216.998Z" fill="#E1160C"/>
<ellipse cx="260.528" cy="133.246" rx="14.0801" ry="14.1865" fill="#153E63"/>
<path d="M273.2 139.471C273.432 138.507 273.563 137.52 273.589 136.527C273.754 129.859 269.285 123.975 262.854 122.392C256.422 120.809 249.765 123.955 246.86 129.95C248.106 124.647 252.255 120.532 257.537 119.361C262.819 118.191 268.3 120.172 271.639 124.459C274.977 128.746 275.584 134.58 273.2 139.471Z" fill="#0C314C"/>
<ellipse cx="239.172" cy="125.508" rx="14.0801" ry="14.1865" fill="#153E63"/>
<ellipse cx="223.979" cy="135.912" rx="14.0801" ry="14.1865" fill="#153E63"/>
<path d="M251.525 118.703C248.251 115.9 243.887 114.755 239.672 115.595C235.457 116.435 231.854 119.167 229.886 123.015C229.429 123.905 229.07 124.842 228.816 125.81C228.427 125.763 227.995 125.732 227.571 125.72C226.746 125.699 225.92 125.75 225.104 125.873C220.562 126.571 216.643 129.457 214.604 133.606C212.564 137.754 212.66 142.643 214.86 146.707C210.314 142.813 208.698 136.454 210.827 130.837C212.956 125.221 218.368 121.567 224.334 121.717C224.75 121.725 225.166 121.755 225.579 121.808C227.067 116.209 231.787 112.086 237.499 111.396C243.211 110.705 248.765 113.586 251.525 118.672V118.703Z" fill="#396E96"/>
<ellipse cx="241.293" cy="127.441" rx="7.52442" ry="7.58128" fill="#396E96"/>
<path d="M221.071 187.339C226.553 183.315 234.228 184.519 238.213 190.03C242.199 195.54 240.985 203.271 235.503 207.295L203.841 230.541C198.359 234.566 190.685 233.361 186.699 227.851C182.714 222.34 183.927 214.61 189.409 210.585L221.071 187.339Z" fill="#F5A491"/>
<path d="M179.693 173.078C184.738 175.437 186.939 181.451 184.608 186.509C182.278 191.568 176.299 193.756 171.254 191.396L163.388 187.718C158.343 185.358 156.142 179.345 158.473 174.286C160.803 169.228 166.782 167.04 171.827 169.399L179.693 173.078Z" fill="#EF948C"/>
<path d="M167.146 187.972C164.678 182.95 166.735 176.853 171.742 174.354C176.75 171.855 182.81 173.901 185.279 178.923L204.63 218.285C207.098 223.307 205.041 229.404 200.034 231.903C195.026 234.402 188.966 232.356 186.497 227.334L167.146 187.972Z" fill="#F5A491"/>
<path d="M179.693 173.078C184.738 175.437 186.939 181.451 184.608 186.509C182.278 191.568 176.299 193.756 171.254 191.396L163.388 187.718C158.343 185.358 156.142 179.345 158.473 174.286C160.803 169.228 166.782 167.04 171.827 169.399L179.693 173.078Z" fill="#F5A491"/>
<path d="M239.273 202.815C238.404 204.587 237.12 206.119 235.531 207.279L203.826 230.576C201.735 232.111 199.212 232.935 196.625 232.928C192.767 233.345 189.013 231.502 186.96 228.185V228.161C183.117 222.548 168.107 189.906 168.107 189.906L163.368 187.683C160.523 186.354 158.461 183.759 157.794 180.671C157.128 177.584 157.935 174.36 159.975 171.96C159.968 171.973 159.962 171.986 159.956 171.999C158.836 174.427 158.719 177.204 159.632 179.719C160.545 182.233 162.412 184.279 164.823 185.406L166.496 186.19L169.566 187.625L171.453 191.466C171.453 191.466 188.221 225.598 188.384 225.872C190.705 228.885 194.279 230.645 198.064 230.639C199.796 230.638 201.508 230.267 203.087 229.549C203.854 229.198 204.584 228.77 205.266 228.271L236.978 204.99C237.834 204.369 238.606 203.637 239.273 202.815Z" fill="#EF927F"/>
<path d="M177.966 172.267C179.791 173.12 180.587 175.296 179.744 177.126C178.901 178.957 176.738 179.748 174.912 178.894L156.534 170.299C154.709 169.445 153.913 167.27 154.756 165.439C155.599 163.609 157.762 162.818 159.587 163.671L177.966 172.267Z" fill="#F5A491"/>
<path d="M182.398 174.359C183.46 176.062 182.947 178.312 181.251 179.386C179.555 180.459 177.32 179.949 176.258 178.246L170.241 168.596C169.179 166.894 169.693 164.643 171.388 163.569C173.084 162.496 175.32 163.006 176.381 164.709L182.398 174.359Z" fill="#F5A491"/>
<ellipse cx="177.086" cy="178.671" rx="7.14314" ry="7.19712" fill="#F5A491"/>
<path d="M139.898 265.363C140.522 256.45 148.254 249.738 157.167 250.372L205.125 253.785C214.038 254.419 220.757 262.159 220.132 271.073C219.507 279.987 211.775 286.699 202.862 286.064L154.905 282.652C145.992 282.017 139.273 274.277 139.898 265.363Z" fill="#EF927F"/>
<path d="M82.3384 344.37C79.8447 340.709 80.2086 335.794 83.2138 332.547L107.95 305.84C109.542 304.119 111.823 303.22 114.151 303.395C116.479 303.57 118.602 304.802 119.922 306.742L125.796 315.366C128.297 319.037 128.983 323.664 127.655 327.911C126.327 332.158 123.134 335.553 118.996 337.118L93.7067 347.76C89.5983 349.483 84.8543 348.068 82.3384 344.37Z" fill="#EF927F"/>
<path d="M120.739 325.24L164.59 278.2C170.55 271.806 170.814 261.183 164.726 254.782C158.575 248.298 148.887 249.227 143.499 256.483L104.056 309.556C101.134 313.476 102.499 319.921 106.962 324.06C111.382 328.16 117.474 328.741 120.739 325.24Z" fill="#EF927F"/>
<path d="M153.041 290.788C153.592 281.869 161.268 275.093 170.186 275.652L213.568 278.371C222.486 278.93 229.27 286.613 228.719 295.532C228.168 304.45 220.492 311.227 211.574 310.668L168.192 307.949C159.274 307.39 152.491 299.707 153.041 290.788Z" fill="#F5A491"/>
<path d="M124.761 337.114L176.646 303.821C183.649 299.384 185.501 289.69 180.409 282.398C175.32 275.103 165.624 273.578 159.127 278.721L110.495 316.667C106.382 319.913 106.246 326.859 110.035 332.273C113.817 337.702 120.338 339.917 124.761 337.114Z" fill="#F5A491"/>
<path d="M81.459 352.394C79.3309 348.517 80.1534 343.672 83.4393 340.728L112.452 315.146C114.198 313.585 116.553 312.907 118.854 313.302C121.155 313.698 123.153 315.124 124.287 317.18L129.325 326.302C131.472 330.194 131.722 334.865 130.003 338.967C128.284 343.069 124.787 346.146 120.521 347.309L92.4694 356.839C88.2176 358.17 83.6219 356.315 81.459 352.394Z" fill="#F5A491"/>
<path d="M228.757 294.523C228.757 294.852 228.757 295.197 228.726 295.534C228.17 304.452 220.548 311.229 211.697 310.677L170.036 308.062L131.13 333.017C131.274 339.674 126.893 345.572 120.513 347.309L92.4734 356.839C89.2184 357.855 85.6723 357.019 83.2037 354.652C80.7351 352.285 79.7299 348.758 80.5759 345.432C81.2216 347.94 82.8594 350.073 85.1075 351.332C87.3557 352.591 90.0178 352.867 92.4734 352.096L120.521 342.566C125.267 341.269 127.847 337.756 129.208 333.491C129.597 332.257 128.637 329.524 128.637 329.524L164.06 307.157L170.036 303.323L176.759 303.743L211.697 305.938C220.03 306.455 227.369 300.458 228.586 292.135C228.701 292.926 228.758 293.724 228.757 294.523Z" fill="#EF927F"/>
<path d="M250.329 209.826C244.178 206.832 241.591 199.405 244.549 193.237C247.506 187.069 254.89 184.497 261.04 187.491L296.422 204.717C302.572 207.711 305.16 215.138 302.202 221.306C299.244 227.474 291.861 230.046 285.711 227.052L250.329 209.826Z" fill="#F5A491"/>
<path d="M301.99 210.094C303.514 212.995 303.832 216.388 302.873 219.525C303.469 217.067 303.193 214.475 302.095 212.199C301.982 211.96 301.862 211.729 301.737 211.505C300.576 209.464 298.787 207.86 296.64 206.934C295.632 205.881 294.447 205.015 293.139 204.379L257.637 187.095C256.867 186.718 256.06 186.423 255.229 186.217C257.216 186.152 259.189 186.577 260.975 187.456L296.461 204.704C298.83 205.857 300.768 207.747 301.99 210.094Z" fill="#FFC4AF"/>
<path d="M147.201 294.656C149.107 293.297 151.742 293.749 153.087 295.665C154.431 297.58 153.976 300.234 152.07 301.592L139.218 310.752C137.312 312.11 134.677 311.658 133.332 309.743C131.988 307.827 132.442 305.173 134.348 303.815L147.201 294.656Z" fill="#FFC4AF"/>
<path d="M258.119 270.683L220.027 268.349L223.57 209.638L261.663 211.972L258.119 270.683Z" fill="white"/>
<path d="M261.648 211.983L223.559 209.651L222.665 224.508L260.987 222.967L261.648 211.983Z" fill="#EFD6D8"/>
<path d="M264.981 207.212L214.453 204.117L214.484 203.608C215.277 190.476 226.485 180.477 239.519 181.276L242.843 181.48C255.877 182.278 265.8 193.571 265.008 206.704L264.977 207.212L264.981 207.212Z" fill="#F5A491"/>
<path d="M268.099 207.319C267.67 214.441 261.548 219.86 254.427 219.424L222.674 217.478C215.553 217.042 210.129 210.915 210.559 203.794C210.989 196.672 217.11 191.253 224.231 191.689L255.984 193.635C263.105 194.071 268.529 200.198 268.099 207.319Z" fill="white"/>
<path d="M268.087 207.33C267.676 214.142 262.076 219.455 255.303 219.459C255.038 219.459 254.774 219.459 254.525 219.459L251.264 219.255C256.22 216.712 259.237 211.479 258.974 205.881C258.711 200.284 255.218 195.362 250.047 193.301L256.081 193.669C263.132 194.119 268.498 200.224 268.087 207.33Z" fill="#EFD6D8"/>
<path d="M190.267 248.404L237.008 251.334C249.095 252.092 258.284 262.578 257.532 274.757L257.01 283.207C255.969 300.062 241.565 312.874 224.837 311.826L180.877 309.07C180.712 309.06 180.586 308.917 180.597 308.75L183.977 254.004C184.181 250.706 186.999 248.2 190.271 248.405L190.267 248.404Z" fill="#58A0EB"/>
<path d="M221.776 239.139L259.586 241.509L257.359 277.578L219.549 275.208L221.776 239.139Z" fill="#58A0EB"/>
<path d="M260.026 241.505L257.964 274.758L257.789 277.569L257.435 283.206C256.392 300.062 241.919 312.857 225.104 311.822L180.879 309.078C180.713 309.067 180.587 308.924 180.595 308.756L180.852 304.593L217.424 306.867C234.235 307.918 248.712 295.107 249.759 278.251L249.833 277.075L250.109 272.606L250.28 269.792L251.058 257.299L252.074 241.011L260.026 241.505Z" fill="#2D639E"/>
<path d="M244.84 230.112C246.559 229.047 248.806 229.582 249.86 231.308C250.914 233.034 250.375 235.297 248.656 236.363L239.018 242.337C237.299 243.402 235.051 242.867 233.997 241.141C232.943 239.415 233.482 237.152 235.201 236.087L244.84 230.112Z" fill="#E1617F"/>
<ellipse cx="249.086" cy="235.519" rx="7.17427" ry="7.22848" fill="#E1617F"/>
<path d="M243.553 232.742C245.931 227.707 251.93 225.577 256.951 227.984C261.972 230.392 264.115 236.426 261.736 241.461L257.91 249.561C255.532 254.597 249.533 256.727 244.512 254.319C239.491 251.911 237.348 245.878 239.727 240.842L243.553 232.742Z" fill="#EF948C"/>
<path d="M242.702 234.539C243.562 232.718 245.731 231.948 247.547 232.819C249.363 233.689 250.138 235.872 249.278 237.693L240.501 256.275C239.641 258.096 237.471 258.867 235.655 257.996C233.839 257.125 233.064 254.943 233.924 253.122L242.702 234.539Z" fill="#EF948C"/>
<path d="M244.84 230.112C246.559 229.047 248.806 229.582 249.86 231.308C250.914 233.034 250.375 235.297 248.656 236.363L239.018 242.337C237.299 243.402 235.051 242.867 233.997 241.141C232.943 239.415 233.482 237.152 235.201 236.087L244.84 230.112Z" fill="#F5A491"/>
<ellipse cx="249.086" cy="235.519" rx="7.17427" ry="7.22848" fill="#F5A491"/>
<path d="M301.745 211.505C301.869 211.729 301.99 211.96 302.103 212.199C303.201 214.475 303.476 217.067 302.881 219.526C302.842 219.706 302.795 219.878 302.741 220.051C302.686 220.223 302.651 220.337 302.605 220.478C302.367 221.167 302.065 221.831 301.702 222.462C301.628 222.583 301.558 222.705 301.484 222.822C301.467 222.852 301.448 222.881 301.426 222.908C301.34 223.046 301.251 223.175 301.154 223.3C301.056 223.426 300.982 223.544 300.889 223.661C300.889 223.689 300.85 223.712 300.831 223.74C300.737 223.857 300.644 223.967 300.547 224.081L300.523 224.112C300.414 224.23 300.305 224.355 300.193 224.473C300.08 224.59 299.959 224.712 299.839 224.825C299.839 224.825 299.839 224.845 299.819 224.849C299.698 224.963 299.578 225.072 299.453 225.178C299.329 225.284 299.193 225.406 299.064 225.511C298.936 225.617 298.792 225.719 298.652 225.821C298.159 226.175 297.639 226.487 297.096 226.754L258.968 245.327C256.38 246.596 253.396 246.772 250.678 245.815C247.961 244.858 245.735 242.848 244.495 240.231C243.245 237.622 243.075 234.619 244.024 231.884C244.973 229.148 246.961 226.905 249.552 225.649L287.68 207.072C290.513 205.686 293.805 205.615 296.695 206.876C298.833 207.825 300.606 209.45 301.745 211.505Z" fill="#F5A491"/>
<path d="M243.553 232.742C245.931 227.707 251.93 225.577 256.951 227.985C261.972 230.392 264.115 236.426 261.736 241.461L257.91 249.562C255.532 254.597 249.533 256.727 244.512 254.319C239.491 251.911 237.348 245.878 239.727 240.843L243.553 232.742Z" fill="#F5A491"/>
<path d="M301.745 211.505C301.869 211.729 301.99 211.96 302.103 212.199C303.201 214.475 303.476 217.066 302.881 219.525C302.842 219.706 302.795 219.878 302.741 220.051C302.686 220.223 302.651 220.337 302.605 220.478C302.367 221.167 302.065 221.831 301.702 222.462C301.628 222.583 301.558 222.705 301.484 222.822C301.467 222.852 301.448 222.881 301.426 222.908C301.34 223.046 301.251 223.175 301.153 223.3C301.056 223.426 300.982 223.543 300.889 223.661C300.889 223.688 300.85 223.712 300.831 223.739C300.737 223.857 300.644 223.967 300.547 224.08L300.523 224.112C300.414 224.229 300.305 224.355 300.193 224.472C300.08 224.59 299.959 224.712 299.838 224.825C299.838 224.825 299.838 224.845 299.819 224.849C299.698 224.962 299.578 225.072 299.453 225.178C299.329 225.284 299.193 225.405 299.064 225.511C298.936 225.617 298.792 225.719 298.652 225.821C298.161 226.178 297.64 226.491 297.096 226.758L260.228 244.715L257.972 249.486C255.867 253.936 250.893 256.219 246.179 254.896C249.829 254.661 253.066 252.455 254.641 249.129L255.984 246.283L256.894 244.363L261.442 242.148L290.022 228.228L293.765 226.405C296.683 224.986 298.815 222.323 299.574 219.149C300.892 214.845 299.781 210.159 296.675 206.919C298.814 207.853 300.594 209.463 301.745 211.505Z" fill="#FFC4AF"/>
<path d="M242.702 234.539C243.562 232.718 245.731 231.948 247.547 232.819C249.363 233.689 250.138 235.872 249.278 237.693L240.501 256.275C239.641 258.096 237.471 258.867 235.655 257.996C233.839 257.125 233.064 254.943 233.924 253.122L242.702 234.539Z" fill="#F5A491"/>
<path d="M250.038 238.236C250.789 236.645 252.684 235.973 254.27 236.733C255.856 237.494 256.533 239.4 255.782 240.99L253.226 246.401C252.474 247.992 250.58 248.665 248.993 247.904C247.407 247.143 246.731 245.238 247.482 243.647L250.038 238.236Z" fill="#FFC4AF"/>
<path d="M269.993 244.576C270.342 245.286 270.052 246.148 269.344 246.501C268.637 246.854 267.78 246.566 267.431 245.856L255.937 222.496C255.588 221.786 255.878 220.924 256.586 220.571C257.293 220.218 258.15 220.506 258.499 221.216L269.993 244.576Z" fill="#6F7D96"/>
<path d="M274.447 241.212C274.796 241.922 274.505 242.783 273.798 243.137C273.09 243.49 272.234 243.201 271.885 242.492L261.291 220.961C260.942 220.252 261.232 219.39 261.94 219.037C262.647 218.683 263.504 218.972 263.853 219.682L274.447 241.212Z" fill="#4E4A65"/>
<path d="M210.339 250.325H204.892V249.278C204.892 248.285 205.692 247.479 206.678 247.479H208.573C209.559 247.479 210.359 248.285 210.359 249.278V250.325H210.339Z" fill="#A7BBD8"/>
<path d="M215.774 250.325H210.327V249.278C210.327 248.801 210.516 248.343 210.85 248.006C211.185 247.669 211.64 247.479 212.113 247.479H213.996C214.982 247.479 215.782 248.285 215.782 249.278V250.325H215.774Z" fill="#A7BBD8"/>
<path d="M221.206 250.325H215.759V249.278C215.759 248.801 215.947 248.343 216.282 248.006C216.617 247.669 217.071 247.479 217.545 247.479H219.416C220.402 247.479 221.202 248.285 221.202 249.278V250.325H221.206Z" fill="#A7BBD8"/>
<rect x="226.944" y="253.245" width="62.0239" height="4.46096" rx="2.23048" transform="rotate(-180 226.944 253.245)" fill="#6F7D96"/>
<path d="M205.231 253.245H153.486C151.317 253.244 149.426 251.758 148.895 249.639L138.81 209.263C138.456 207.837 138.773 206.327 139.67 205.168C140.566 204.008 141.943 203.33 143.401 203.328H189.077C191.247 203.327 193.14 204.814 193.668 206.935L205.231 253.245Z" fill="#8797B1"/>
<path d="M138.803 209.263L148.887 249.639C149.418 251.758 151.309 253.244 153.478 253.245H206.032L204.916 248.784H163.228C161.057 248.784 159.164 247.299 158.633 245.178L148.552 204.802C148.431 204.321 148.385 203.824 148.416 203.328H143.397C141.938 203.329 140.56 204.007 139.663 205.166C138.765 206.325 138.448 207.837 138.803 209.263Z" fill="#6F7D96"/>
<path d="M174.141 227.636C174.141 229.758 172.712 231.61 170.67 232.132C168.629 232.654 166.496 231.712 165.492 229.847C167.292 230.64 169.394 230.196 170.725 228.74C172.057 227.284 172.326 225.138 171.394 223.395C173.064 224.134 174.142 225.798 174.141 227.636Z" fill="#A7BBD8"/>
<path d="M218.035 296.259C217.354 296.291 216.669 296.291 215.977 296.259L195.247 295.475C194.451 295.445 193.731 294.988 193.36 294.278C192.988 293.567 193.02 292.711 193.445 292.031C193.87 291.352 194.622 290.952 195.419 290.983L216.144 291.767C225.792 292.109 234.35 285.571 236.628 276.118L239.464 264.194C239.773 263.011 240.964 262.293 242.145 262.579C243.326 262.865 244.064 264.049 243.806 265.244L240.966 277.169C238.371 287.953 229.035 295.725 218.035 296.259Z" fill="#6AB0EF"/>
<path d="M232.702 160.373C232.67 161.297 233.004 162.195 233.632 162.87C233.71 162.952 233.788 163.03 233.869 163.105C234.471 163.642 235.241 163.95 236.044 163.975H236.184C236.917 164.004 237.638 163.793 238.242 163.375C239.074 162.807 239.619 161.903 239.736 160.898C239.736 160.8 239.736 160.706 239.736 160.608C239.744 160.429 239.68 160.254 239.558 160.123C239.437 159.992 239.268 159.915 239.091 159.91L233.375 159.718C233.011 159.714 232.711 160.006 232.702 160.373Z" fill="#962F4A"/>
<path d="M236.13 163.442C236.126 163.622 236.137 163.801 236.165 163.979H236.184C237.984 164.04 239.529 162.7 239.736 160.898C238.913 160.629 238.013 160.765 237.304 161.265C236.596 161.765 236.161 162.571 236.13 163.442Z" fill="#E1617F"/>
<path d="M233.515 159.726C233.515 160.408 234.546 160.992 235.85 161.035C237.153 161.078 238.184 160.569 238.25 159.883L233.515 159.726Z" fill="white"/>
</svg>
