<svg width="420" height="431" viewBox="0 0 420 431" fill="none" xmlns="http://www.w3.org/2000/svg">
<path d="M403.563 210.478C403.567 216.786 402.321 223.028 399.9 228.826C399.472 229.854 399.008 230.859 398.509 231.842C393.048 242.672 383.67 250.875 372.384 254.693C370.375 255.374 368.32 255.905 366.235 256.281L366.013 256.323C365.256 256.458 364.491 256.574 363.72 256.67C361.894 256.899 360.057 257.013 358.217 257.012H321.239C316.806 257.012 313.213 260.699 313.213 265.248C313.213 269.797 316.806 273.485 321.239 273.485H332.282C335.33 273.479 338.356 273.994 341.239 275.009C342.087 275.305 342.91 275.643 343.708 276.019C346.094 277.133 348.312 278.592 350.294 280.352C350.815 280.811 351.319 281.291 351.804 281.793C351.903 281.894 352.002 281.995 352.093 282.097C352.385 282.401 352.669 282.714 352.916 283.03C353.451 283.639 353.949 284.272 354.426 284.927C356.197 287.359 357.571 290.069 358.497 292.952C358.6 293.26 358.691 293.569 358.781 293.881C359.513 296.464 359.883 299.141 359.88 301.83C359.88 302.498 359.859 303.161 359.81 303.816C359.81 304.128 359.765 304.441 359.732 304.749C359.413 308.021 358.533 311.21 357.135 314.168C357.052 314.341 356.97 314.514 356.884 314.683C356.727 315 356.567 315.309 356.398 315.617C354.22 319.625 351.131 323.033 347.392 325.551C346.911 325.877 346.421 326.189 345.919 326.481C344.798 327.138 343.633 327.712 342.432 328.2C339.191 329.522 335.733 330.198 332.245 330.193C326.526 330.185 321.017 332.411 316.839 336.419C316.646 336.601 316.456 336.791 316.271 336.981L315.921 337.348C315.6 337.695 315.287 338.05 314.991 338.413C314.843 338.594 314.695 338.776 314.551 338.962C314.406 339.148 314.312 339.27 314.201 339.431L314.061 339.621L313.933 339.798L313.719 340.111C313.6 340.28 313.489 340.453 313.373 340.626C313.258 340.799 313.089 341.078 312.962 341.31C312.834 341.543 312.752 341.665 312.649 341.847C312.402 342.269 312.167 342.742 311.949 343.203C311.867 343.371 311.785 343.545 311.71 343.718C311.587 343.988 311.472 344.263 311.361 344.537C311.282 344.732 311.208 344.93 311.134 345.129C311.134 345.154 311.134 345.184 311.105 345.213C311.023 345.433 310.945 345.635 310.871 345.88C310.739 346.273 310.62 346.674 310.509 347.076C310.509 347.143 310.467 347.215 310.451 347.283C310.369 347.591 310.295 347.904 310.225 348.216C309.852 349.909 309.664 351.638 309.665 353.373V367.097H95.5217V341.813C95.5217 341.64 95.5217 341.471 95.5217 341.298C95.5217 341.124 95.5217 340.985 95.4929 340.833C95.4929 340.812 95.4929 340.795 95.4929 340.774C95.4929 340.643 95.4682 340.516 95.4517 340.389C95.4517 340.339 95.4517 340.292 95.4517 340.246C95.4364 340.093 95.4131 339.94 95.3817 339.79C95.3513 339.576 95.3101 339.365 95.2583 339.156C95.2583 339.051 95.213 338.949 95.1842 338.844C95.1554 338.738 95.1019 338.535 95.0566 338.383C95.0113 338.231 94.9496 338.033 94.8878 337.864C94.8261 337.695 94.7602 337.513 94.6903 337.34C94.5585 337.023 94.4186 336.711 94.2787 336.411C94.1271 336.111 93.9609 335.819 93.7806 335.536C93.3466 334.866 92.8443 334.244 92.2824 333.682C92.012 333.394 91.7262 333.122 91.4263 332.867C89.3945 331.131 86.8339 330.182 84.1903 330.185C79.3959 330.195 74.6827 328.915 70.5211 326.472C70.019 326.181 69.525 325.872 69.0435 325.543C67.5067 324.509 66.0741 323.32 64.7669 321.995L64.6476 321.877C62.8354 320.015 61.284 317.904 60.0377 315.604C59.8689 315.296 59.7084 314.988 59.552 314.671C59.2968 314.16 59.058 313.636 58.8358 313.108C57.7044 310.448 56.9837 307.624 56.6996 304.736C56.6708 304.424 56.642 304.115 56.6255 303.803C56.5761 303.148 56.5555 302.485 56.5555 301.818C56.5529 299.128 56.9229 296.451 57.6545 293.869C57.7409 293.556 57.8356 293.248 57.9344 292.939C58.4743 291.266 59.1632 289.647 59.9924 288.103C60.9782 286.274 62.1599 284.564 63.5157 283.005C63.7832 282.688 64.0631 282.376 64.3389 282.071C64.4541 281.941 64.5776 281.814 64.7011 281.687C65.1703 281.21 65.6519 280.754 66.154 280.31C71.0257 276.006 77.2111 273.585 83.6388 273.468H112.673C114.813 273.469 116.865 272.591 118.37 271.03C119.876 269.47 120.71 267.355 120.687 265.159C120.642 260.615 116.896 257.016 112.455 257.016H51.534C26.6238 257.026 6.36866 236.416 6.16744 210.854C6.11599 204.55 7.34537 198.304 9.77718 192.514C17.0859 175.221 33.6801 164.011 52.0485 163.957H101.852C103.827 163.957 105.72 163.148 107.111 161.709C108.502 160.271 109.276 158.322 109.261 156.295C109.232 152.071 105.762 148.735 101.655 148.735H84.1903C74.4161 148.733 65.3699 143.433 60.3999 134.796C59.8471 133.842 59.3509 132.855 58.914 131.839C54.5887 121.794 56.301 110.09 63.3099 101.791C63.5116 101.55 63.7215 101.31 63.9355 101.077C69.1583 95.2868 76.5014 91.9991 84.1903 92.0089H170.803C172.815 92.0057 174.805 91.5937 176.66 90.7967C177.913 90.258 179.088 89.5476 180.155 88.6848C181.242 87.808 182.204 86.7785 183.011 85.6268C184.846 83.0375 185.845 79.9241 185.868 76.723C185.882 70.4641 189.513 64.8103 195.112 62.3283C196.936 61.5389 198.896 61.1324 200.875 61.1329H305.804C307.242 61.1269 308.673 61.336 310.052 61.7538C310.582 61.9102 311.103 62.0992 311.612 62.3198C314.919 63.7423 317.624 66.3268 319.243 69.6101C320.3 71.77 320.852 74.1537 320.852 76.5709V79.629C320.849 81.6157 321.315 83.5736 322.21 85.3353C322.621 86.1478 323.119 86.9101 323.696 87.6077C323.914 87.878 324.145 88.1357 324.388 88.3849C325.964 90.0066 327.95 91.1459 330.121 91.6752C330.797 91.8427 331.486 91.9473 332.179 91.9878C332.426 92.0047 332.677 92.0131 332.933 92.0131C336.793 92.013 340.61 92.8402 344.14 94.4418C345.35 94.9917 346.518 95.6327 347.635 96.3594C351.03 98.549 353.921 101.47 356.106 104.921C357.377 106.92 358.393 109.078 359.131 111.341L359.156 111.409C359.723 113.15 360.121 114.944 360.345 116.765C361.361 124.85 358.935 132.993 353.687 139.114C348.439 145.234 340.877 148.74 332.933 148.735H311.134C307.299 148.685 304.061 151.647 303.671 155.563C303.28 159.478 305.866 163.052 309.632 163.801C310.126 163.904 310.63 163.957 311.134 163.957H358.217C366.244 163.954 374.128 166.14 381.061 170.293C389.57 175.4 396.236 183.199 400.06 192.523C400.213 192.903 400.365 193.283 400.509 193.667V193.705C402.527 199.055 403.562 204.742 403.563 210.478V210.478Z" fill="#F3F4FE"/>
<path d="M41.6556 192.501C41.6556 192.501 99.5965 171.725 143.609 176.341C152.726 177.235 161.778 178.729 170.709 180.814C189.037 185.251 208.324 182.337 224.628 172.667C238.495 164.434 255.955 157.402 272.3 160.379C306.841 166.664 332.994 193.393 332.994 193.393C332.994 193.393 376.752 175.404 396.381 185.329C398.591 186.449 400.085 192.51 400.085 192.51C374.228 208.814 191.622 248.133 164.074 248.534C133.023 248.991 51.7069 233.658 47.7843 229.105C43.8618 224.552 41.6556 192.501 41.6556 192.501H41.6556Z" fill="#DEE1FC"/>
<path d="M403.563 210.478C403.567 216.786 402.321 223.028 399.9 228.826C399.472 229.854 399.008 230.859 398.509 231.842C393.048 242.672 383.67 250.875 372.384 254.693C370.375 255.374 368.32 255.905 366.235 256.281L366.013 256.323C365.256 256.458 364.491 256.574 363.72 256.669C361.894 256.899 360.057 257.013 358.217 257.012H321.239C316.806 257.012 313.213 260.699 313.213 265.248C313.213 269.797 316.806 273.484 321.239 273.484H332.282C335.33 273.479 338.356 273.994 341.239 275.009C342.087 275.305 342.91 275.643 343.708 276.019C346.094 277.133 348.312 278.592 350.294 280.352C350.815 280.811 351.319 281.291 351.804 281.793C351.903 281.894 352.002 281.995 352.093 282.097C352.385 282.401 352.669 282.713 352.916 283.03C353.451 283.638 353.949 284.272 354.426 284.927C356.197 287.359 357.571 290.069 358.497 292.952C358.6 293.26 358.691 293.569 358.781 293.881C359.513 296.464 359.883 299.141 359.88 301.83C359.88 302.498 359.859 303.161 359.81 303.816C359.81 304.128 359.765 304.441 359.732 304.749C359.413 308.021 358.533 311.21 357.135 314.168C357.052 314.341 356.97 314.514 356.884 314.683C356.727 315 356.567 315.308 356.398 315.617C354.22 319.625 351.131 323.033 347.392 325.551C346.911 325.876 346.421 326.189 345.919 326.48C344.798 327.138 343.633 327.712 342.432 328.2C339.191 329.522 335.733 330.198 332.245 330.193C326.526 330.185 321.017 332.411 316.839 336.419C316.646 336.601 316.456 336.791 316.271 336.981L315.921 337.348C315.6 337.695 315.287 338.049 314.991 338.413C314.839 338.594 314.69 338.776 314.551 338.962C314.411 339.148 314.312 339.27 314.201 339.431L314.061 339.621L313.933 339.798L313.719 340.111C313.6 340.28 313.489 340.453 313.373 340.626C313.258 340.799 313.089 341.078 312.962 341.31C312.834 341.542 312.752 341.665 312.649 341.847C312.402 342.269 312.167 342.742 311.949 343.202C311.867 343.371 311.789 343.545 311.71 343.718C311.587 343.988 311.472 344.263 311.361 344.537C311.282 344.731 311.208 344.93 311.134 345.128C311.134 345.154 311.134 345.183 311.105 345.213C311.023 345.433 310.945 345.635 310.871 345.88C310.739 346.273 310.62 346.674 310.509 347.076C310.509 347.143 310.467 347.215 310.451 347.283C310.369 347.591 310.295 347.904 310.225 348.216C309.852 349.908 309.664 351.638 309.665 353.373V361.745H95.5217V341.813C95.5217 341.64 95.5217 341.471 95.5217 341.298C95.5217 341.124 95.5217 340.985 95.4929 340.833C95.4929 340.812 95.4929 340.795 95.4929 340.774C95.4929 340.643 95.4682 340.516 95.4517 340.389C95.4517 340.339 95.4517 340.292 95.4517 340.246C95.4364 340.093 95.4131 339.94 95.3817 339.79C95.3488 339.578 95.3077 339.367 95.2583 339.156C95.2583 339.05 95.213 338.949 95.1842 338.843C95.1554 338.738 95.1019 338.535 95.0566 338.383C95.0113 338.231 94.9496 338.033 94.8878 337.864C94.8261 337.695 94.7602 337.513 94.6903 337.34C94.5585 337.023 94.4186 336.71 94.2787 336.411C94.1271 336.111 93.9609 335.819 93.7806 335.536C93.3466 334.866 92.8443 334.244 92.2824 333.682C92.012 333.394 91.7262 333.122 91.4263 332.867C89.3945 331.131 86.8339 330.182 84.1903 330.185C79.3959 330.195 74.6827 328.915 70.5211 326.472C70.019 326.181 69.525 325.872 69.0435 325.543C67.5067 324.509 66.0741 323.32 64.7669 321.995L64.6476 321.876C62.8354 320.015 61.284 317.904 60.0377 315.604C59.8689 315.296 59.7084 314.987 59.552 314.671C59.2968 314.16 59.058 313.636 58.8358 313.108C57.7044 310.448 56.9837 307.624 56.6996 304.736C56.6708 304.424 56.642 304.115 56.6255 303.803C56.5761 303.148 56.5555 302.485 56.5555 301.818C56.5529 299.128 56.9229 296.451 57.6545 293.868C57.7409 293.556 57.8356 293.248 57.9344 292.939C58.4743 291.266 59.1632 289.647 59.9924 288.103C60.9782 286.274 62.1599 284.564 63.5157 283.005C63.7832 282.688 64.0631 282.376 64.3389 282.071C64.4541 281.94 64.5776 281.814 64.7011 281.687C65.1703 281.21 65.6519 280.754 66.154 280.31C71.0257 276.006 77.2111 273.585 83.6388 273.468H112.673C114.813 273.469 116.865 272.591 118.37 271.03C119.876 269.469 120.71 267.355 120.687 265.159C120.642 260.614 116.896 257.016 112.455 257.016H51.534C26.6238 257.026 6.36866 236.416 6.16744 210.854C6.11599 204.55 7.34537 198.304 9.77718 192.514H400.06C400.213 192.894 400.365 193.274 400.509 193.659V193.697C402.528 199.049 403.563 204.739 403.563 210.478V210.478Z" fill="#EDEEFE"/>
<rect x="44.8126" y="361.576" width="333.371" height="7.43811" rx="3.71906" fill="#D2D6FA"/>
<rect x="12.0739" y="202.461" width="383.624" height="11.0495" rx="5.52473" fill="#BCBFF6"/>
<path d="M358.818 293.873C359.55 296.455 359.92 299.132 359.917 301.822C359.917 302.489 359.896 303.152 359.847 303.807C359.847 304.119 359.802 304.432 359.769 304.74C359.45 308.012 358.57 311.201 357.172 314.159C357.089 314.333 357.007 314.506 356.921 314.675C356.764 314.992 356.604 315.3 356.435 315.608C354.257 319.616 351.168 323.025 347.429 325.543C346.948 325.868 346.458 326.18 345.956 326.472C344.835 327.129 343.67 327.704 342.469 328.191C340.239 321.419 341.448 313.952 345.692 308.284C346.866 306.709 347.609 304.841 347.845 302.873C348.759 295.38 349.627 287.887 350.314 280.373V280.331C350.836 280.79 351.339 281.27 351.825 281.771C351.924 281.873 352.023 281.974 352.113 282.075C352.405 282.38 352.689 282.692 352.936 283.009C353.471 283.617 353.969 284.251 354.447 284.905C356.217 287.337 357.592 290.048 358.518 292.931C358.637 293.252 358.728 293.56 358.818 293.873V293.873Z" fill="#BCBFF6"/>
<path d="M372.384 254.693C370.375 255.374 368.32 255.905 366.235 256.281L366.013 256.323C365.255 256.458 364.491 256.574 363.72 256.669C361.894 256.899 360.057 257.013 358.217 257.011H352.414L354.883 229.979L355.188 226.6H369.845L370.149 229.979L372.384 254.693Z" fill="#BCBFF6"/>
<path d="M346.363 217.819H378.657C380.164 217.819 381.386 216.565 381.386 215.019V211.699H343.634V215.006C343.631 215.751 343.917 216.466 344.429 216.994C344.941 217.522 345.637 217.819 346.363 217.819V217.819Z" fill="#BCBFF6"/>
<path d="M349.878 217.819H375.138V224.433C375.139 225.004 374.919 225.552 374.526 225.956C374.133 226.36 373.599 226.587 373.043 226.587H351.977C350.818 226.587 349.878 225.623 349.878 224.433L349.878 217.819Z" fill="#BCBFF6"/>
<path d="M349.878 217.819H375.138V221.206H349.878V217.819Z" fill="#ABB1EF"/>
<path d="M372.384 254.693C370.375 255.374 368.32 255.905 366.235 256.281C365.634 249.687 365.095 243.723 364.679 239.145C364.208 233.953 359.965 229.981 354.883 229.975L355.188 226.596H369.845L370.149 229.975L372.384 254.693Z" fill="#ABB1EF"/>
<path d="M288.402 321.332C288.408 325.755 287.075 330.071 284.586 333.682C282.875 336.162 280.673 338.243 278.124 339.79H256.922C251.77 336.673 248.168 331.439 247.028 325.414C245.889 319.39 247.321 313.153 250.962 308.284C252.138 306.71 252.882 304.842 253.119 302.874C254.033 295.381 254.897 287.888 255.589 280.373L260.158 229.975L260.462 226.596H275.119L275.424 229.975C275.424 229.975 279.857 278.895 282.009 302.688C282.205 304.784 282.964 306.783 284.203 308.462C286.931 312.168 288.405 316.687 288.402 321.332Z" fill="#BCBFF6"/>
<path d="M251.65 217.819H283.944C285.451 217.819 286.673 216.565 286.673 215.019V211.699H248.921V215.006C248.918 215.751 249.204 216.466 249.716 216.994C250.228 217.522 250.924 217.819 251.65 217.819V217.819Z" fill="#BCBFF6"/>
<path d="M255.169 217.819H280.429V224.434C280.429 225.005 280.208 225.553 279.814 225.957C279.42 226.361 278.886 226.588 278.33 226.588H257.268C256.109 226.588 255.169 225.623 255.169 224.434V217.819Z" fill="#BCBFF6"/>
<path d="M255.169 217.819H280.429V221.206H255.169V217.819Z" fill="#ABB1EF"/>
<path d="M291.661 336.778V339.79H243.94V336.778C243.94 335.957 244.258 335.17 244.824 334.589C245.39 334.008 246.157 333.682 246.958 333.682H288.64C290.307 333.682 291.659 335.068 291.661 336.778V336.778Z" fill="#BCBFF6"/>
<path d="M243.982 336.301C244.146 336.563 244.315 336.825 244.492 337.078H243.941V336.787C243.94 336.624 243.953 336.461 243.982 336.301V336.301Z" fill="#ABB1EF"/>
<path d="M291.661 336.778V339.79H276.366C277.181 338.947 277.927 338.037 278.597 337.07C283.877 329.385 283.658 319.067 278.058 311.625C276.919 310.101 276.225 308.276 276.058 306.363V306.312C275.926 304.825 275.782 303.237 275.646 301.564C273.987 283.503 271.328 254.004 269.966 239.153C269.496 233.959 265.25 229.985 260.166 229.984L260.47 226.604H275.127L275.432 229.984C275.432 229.984 279.865 278.904 282.018 302.696C282.213 304.792 282.972 306.792 284.211 308.47C289.653 315.904 289.803 326.091 284.582 333.69H288.64C290.305 333.688 291.657 335.07 291.661 336.778V336.778Z" fill="#ABB1EF"/>
<path d="M193.688 321.332C193.695 325.755 192.362 330.071 189.873 333.682C188.162 336.162 185.96 338.243 183.411 339.79H162.226C157.072 336.674 153.469 331.44 152.33 325.414C151.191 319.389 152.625 313.151 156.27 308.284C157.444 306.709 158.187 304.842 158.422 302.874C159.336 295.381 160.205 287.888 160.892 280.373L165.461 229.975L165.765 226.596H180.422L180.727 229.975C180.727 229.975 185.164 278.895 187.313 302.688C187.506 304.784 188.264 306.783 189.502 308.462C192.226 312.17 193.695 316.688 193.688 321.332V321.332Z" fill="#BCBFF6"/>
<path d="M156.941 217.819H189.235C190.742 217.819 191.964 216.565 191.964 215.019V211.699H154.212V215.006C154.208 215.751 154.495 216.466 155.007 216.994C155.519 217.522 156.215 217.819 156.941 217.819V217.819Z" fill="#BCBFF6"/>
<path d="M160.456 217.819H185.716V224.434C185.717 225.004 185.496 225.552 185.103 225.957C184.71 226.361 184.177 226.588 183.621 226.588H162.555C161.396 226.588 160.456 225.623 160.456 224.434L160.456 217.819Z" fill="#BCBFF6"/>
<path d="M160.456 217.819H185.716V221.206H160.456V217.819Z" fill="#ABB1EF"/>
<path d="M196.948 336.778V339.79H149.227V336.778C149.227 335.957 149.545 335.17 150.111 334.589C150.677 334.008 151.444 333.682 152.244 333.682H193.948C195.607 333.691 196.948 335.075 196.948 336.778V336.778Z" fill="#BCBFF6"/>
<path d="M149.268 336.301C149.433 336.563 149.602 336.825 149.779 337.078H149.227V336.787C149.226 336.624 149.24 336.461 149.268 336.301V336.301Z" fill="#ABB1EF"/>
<path d="M196.948 336.778V339.79H181.653C182.468 338.947 183.214 338.037 183.884 337.069C189.164 329.385 188.945 319.067 183.345 311.625C182.207 310.101 181.515 308.275 181.349 306.362V306.312C181.217 304.825 181.073 303.237 180.937 301.564C179.291 283.486 176.623 253.987 175.277 239.128C174.806 233.933 170.558 229.96 165.473 229.958L165.778 226.579H180.435L180.739 229.958C180.739 229.958 185.176 278.878 187.325 302.671C187.519 304.767 188.277 306.766 189.515 308.445C194.956 315.879 195.106 326.066 189.885 333.665H193.948C194.748 333.67 195.513 334 196.076 334.584C196.639 335.168 196.953 335.957 196.948 336.778V336.778Z" fill="#ABB1EF"/>
<path d="M68.2943 257.012L70.7434 229.979L71.0479 226.6H85.6968L86.0014 229.979C86.0014 229.979 87.088 241.996 88.471 257.012H68.2943Z" fill="#BCBFF6"/>
<path d="M98.9791 321.332C98.9894 326.568 97.1197 331.625 93.7271 335.536C93.3099 334.868 92.8257 334.247 92.2824 333.682H91.0805C91.1999 333.416 91.3151 333.141 91.4263 332.867C89.3945 331.131 86.8339 330.182 84.1903 330.185C79.3959 330.195 74.6827 328.915 70.5211 326.472C70.019 326.181 69.525 325.872 69.0435 325.543C67.5067 324.509 66.0741 323.32 64.7669 321.995L64.6476 321.877C62.8354 320.015 61.284 317.904 60.0377 315.604C59.8689 315.296 59.7084 314.987 59.552 314.671C59.2968 314.16 59.058 313.636 58.8358 313.108C59.5295 311.382 60.4445 309.758 61.5565 308.28C62.7317 306.706 63.4762 304.838 63.7132 302.869C64.627 295.376 65.4914 287.883 66.1828 280.369V280.31C71.047 276.012 77.221 273.592 83.6388 273.468H89.9363C90.9035 284.171 91.8667 294.81 92.5829 302.692C92.778 304.788 93.5376 306.787 94.7767 308.466C97.5051 312.171 98.9807 316.688 98.9791 321.332V321.332Z" fill="#BCBFF6"/>
<path d="M62.2356 217.819H94.5297C96.0369 217.819 97.2587 216.565 97.2587 215.019V211.699H59.4985V215.006C59.4952 215.752 59.7824 216.469 60.2963 216.997C60.8102 217.525 61.5083 217.821 62.2356 217.819V217.819Z" fill="#BCBFF6"/>
<path d="M65.7466 217.819H91.0064V224.434C91.0064 225.623 90.0666 226.588 88.9073 226.588H67.8457C66.6864 226.588 65.7466 225.623 65.7466 224.434V217.819Z" fill="#BCBFF6"/>
<path d="M65.7466 217.819H91.0064V221.206H65.7466V217.819Z" fill="#ABB1EF"/>
<path d="M102.239 336.778V339.79H95.3447C95.3118 339.579 95.2706 339.367 95.2212 339.156C95.2212 339.051 95.176 338.949 95.1471 338.844C95.1183 338.738 95.0648 338.535 95.0195 338.383C94.9743 338.231 94.9125 338.033 94.8508 337.864C94.7891 337.695 94.7232 337.513 94.6532 337.34C94.5215 337.023 94.3816 336.711 94.2416 336.411C94.09 336.111 93.9238 335.819 93.7436 335.536C93.3212 334.867 92.8314 334.246 92.2824 333.682H99.222C100.888 333.682 102.239 335.068 102.239 336.778V336.778Z" fill="#BCBFF6"/>
<path d="M88.4586 257.012H82.1653C81.5396 250.127 80.9758 243.892 80.5436 239.145C80.0739 233.95 75.8272 229.977 70.7434 229.975L71.048 226.596H85.6968L86.0014 229.975C86.0014 229.975 87.0962 241.992 88.4586 257.012V257.012Z" fill="#ABB1EF"/>
<path d="M102.239 336.778V339.789H95.3447C95.3118 339.578 95.2706 339.367 95.2212 339.156C95.2212 339.05 95.1759 338.949 95.1471 338.843C95.1183 338.738 95.0648 338.535 95.0195 338.383C94.9743 338.231 94.9125 338.032 94.8508 337.863C94.789 337.694 94.7232 337.513 94.6532 337.34C94.5215 337.023 94.3816 336.71 94.2416 336.41C94.09 336.111 93.9238 335.819 93.7436 335.536C93.3211 334.867 92.8314 334.246 92.2824 333.682H91.0805C91.1999 333.416 91.3151 333.141 91.4263 332.867C94.2591 325.783 93.1954 317.686 88.6356 311.625C87.4964 310.101 86.8026 308.276 86.6352 306.362V306.312C86.5035 304.825 86.3595 303.237 86.2236 301.564C85.5033 293.653 84.5772 283.554 83.6717 273.45H89.9692C90.9365 284.154 91.8996 294.793 92.6158 302.675C92.8109 304.771 93.5705 306.77 94.8096 308.449C100.251 315.883 100.401 326.07 95.1801 333.669H99.2384C100.903 333.678 102.246 335.07 102.239 336.778V336.778Z" fill="#ABB1EF"/>
<path d="M380.364 144.802C382.853 153.173 378.258 162.03 370.1 164.585L362.038 167.109C359.548 158.738 364.143 149.881 372.301 147.326L380.364 144.802Z" fill="#ABB1EF"/>
<path d="M381.044 149.44C381.04 155.127 378.067 160.375 373.253 163.193C376.694 159.073 377.838 153.431 376.286 148.245L368.227 150.779C367.134 151.119 366.082 151.586 365.091 152.168C366.994 149.887 369.493 148.212 372.294 147.341L380.353 144.806C380.805 146.307 381.038 147.869 381.044 149.44V149.44Z" fill="#BCBFF6"/>
<path d="M361.231 129.021C368.773 133.108 371.66 142.695 367.678 150.435L363.745 158.081C356.202 153.995 353.316 144.408 357.297 136.668L361.231 129.021L361.231 129.021Z" fill="#BCBFF6"/>
<path d="M369.487 143.032C369.489 145.478 368.933 147.891 367.865 150.078C367.643 144.637 366.408 136.515 361.362 133.778C358.798 135.489 357.073 139.451 355.706 144.388C355.649 144.502 355.591 144.612 355.542 144.726C355.423 141.919 356.035 139.13 357.316 136.646L361.251 129.001C366.321 131.747 369.492 137.149 369.487 143.032V143.032Z" fill="#ABB1EF"/>
<path d="M362.066 167.098L354.615 163.062C347.072 158.975 344.186 149.388 348.168 141.648L355.615 145.683C363.158 149.769 366.044 159.356 362.062 167.096L362.066 167.098Z" fill="#ABB1EF"/>
<path d="M363.44 155.995C361.99 153.534 359.912 151.526 357.431 150.187L349.981 146.154C348.219 149.563 347.737 153.517 348.627 157.266C345.82 152.508 345.651 146.587 348.182 141.668L355.636 145.706C359.558 147.825 362.402 151.574 363.44 155.995V155.995Z" fill="#BCBFF6"/>
<path d="M347.61 196.4H377.414C378.885 196.4 380.077 197.624 380.077 199.133V202.626H344.943V199.133C344.943 198.407 345.224 197.712 345.725 197.199C346.225 196.686 346.903 196.399 347.61 196.4V196.4Z" fill="#BCBFF6"/>
<path d="M357.875 183.07H367.145V189.3H357.875V183.07Z" fill="#ABB1EF"/>
<rect x="344.943" y="178.428" width="35.1301" height="6.66938" rx="3.33469" fill="#BCBFF6"/>
<path d="M385.959 165.326L382.004 171.442C380.799 173.305 378.766 174.426 376.587 174.428H375.994C372.405 174.428 369.495 177.414 369.495 181.097H356.501C356.501 179.328 355.816 177.631 354.596 176.38C353.376 175.129 351.722 174.427 349.998 174.428H348.433C346.254 174.428 344.22 173.307 343.017 171.442L339.057 165.326C338.378 164.275 338.316 162.927 338.897 161.816C339.478 160.705 340.607 160.012 341.836 160.012H383.181C384.409 160.012 385.538 160.705 386.119 161.816C386.7 162.927 386.639 164.275 385.959 165.326V165.326Z" fill="#BCBFF6"/>
<path d="M385.959 165.326L381.999 171.442C380.796 173.307 378.762 174.428 376.583 174.428H375.994C373.411 174.428 371.072 175.998 370.038 178.428H376.698C378.424 178.404 379.882 179.739 380.053 181.503C380.121 182.429 379.811 183.343 379.196 184.025C378.582 184.706 377.718 185.095 376.813 185.097H366.918C368.714 185.097 370.17 183.603 370.17 181.76C370.176 181.577 370.106 181.4 369.977 181.273C369.848 181.147 369.673 181.083 369.495 181.097H361.88C361.256 181.102 360.67 180.785 360.321 180.253C359.971 179.722 359.905 179.046 360.143 178.453V178.428C361.178 175.998 363.516 174.428 366.099 174.428H366.692C368.871 174.426 370.904 173.305 372.109 171.442L376.064 165.326C376.744 164.275 376.805 162.927 376.224 161.816C375.643 160.705 374.514 160.012 373.286 160.012H383.193C384.419 160.016 385.544 160.711 386.122 161.821C386.7 162.931 386.637 164.277 385.959 165.326V165.326Z" fill="#ABB1EF"/>
<path d="M346.05 178.428H348.191C347.505 178.427 346.838 178.65 346.285 179.066C346.219 178.848 346.141 178.635 346.05 178.428L346.05 178.428Z" fill="#BCBFF6"/>
<path d="M346.05 178.428H348.191C347.505 178.427 346.838 178.65 346.285 179.066C346.219 178.848 346.141 178.635 346.05 178.428L346.05 178.428Z" fill="#BCBFF6"/>
<path d="M359.613 187.327H365.404C370.279 187.339 374.226 191.397 374.228 196.4H350.767C350.767 191.387 354.727 187.323 359.613 187.323V187.327Z" fill="#BCBFF6"/>
<path d="M347.61 196.4H377.414C378.885 196.4 380.077 197.623 380.077 199.133V202.626H344.943V199.133C344.943 198.407 345.224 197.711 345.725 197.199C346.225 196.686 346.903 196.399 347.61 196.4V196.4Z" fill="#BCBFF6"/>
<path d="M359.613 187.327H365.404C370.279 187.339 374.226 191.397 374.228 196.4H350.767C350.767 191.387 354.727 187.323 359.613 187.323V187.327Z" fill="#BCBFF6"/>
<path d="M380.073 199.137V202.63H374.249V199.137C374.249 197.626 373.055 196.4 371.582 196.4H368.421C368.421 191.403 364.482 187.346 359.612 187.327H365.404C367.749 187.326 369.999 188.282 371.658 189.983C373.317 191.685 374.249 193.993 374.249 196.4H377.41C378.882 196.402 380.073 197.627 380.073 199.137V199.137Z" fill="#ABB1EF"/>
<path d="M96.2468 144.792C98.7362 153.164 94.1411 162.021 85.9834 164.576L77.9209 167.1C75.4315 158.729 80.0266 149.872 88.1843 147.317L96.2468 144.792V144.792Z" fill="#ABB1EF"/>
<path d="M96.9129 149.44C96.9083 155.127 93.9349 160.375 89.1213 163.193C92.5677 159.076 93.7187 153.434 92.1713 148.245L84.1121 150.779C83.019 151.119 81.9669 151.585 80.9757 152.168C82.8742 149.885 85.369 148.205 88.1664 147.328L96.2255 144.794C96.6775 146.299 96.9092 147.865 96.9129 149.44V149.44Z" fill="#BCBFF6"/>
<path d="M77.1053 128.998C80.7314 130.959 83.4493 134.318 84.6603 138.336C85.8713 142.354 85.476 146.702 83.5616 150.421L79.6282 158.067C72.0856 153.981 69.199 144.394 73.1808 136.654L77.1162 129.004L77.1053 128.998Z" fill="#BCBFF6"/>
<path d="M85.3552 143.032C85.357 145.478 84.8016 147.891 83.7335 150.078C83.503 144.637 82.2599 136.502 77.2302 133.778C74.6659 135.489 72.9372 139.472 71.5748 144.388C71.5172 144.502 71.4596 144.612 71.4102 144.726C71.2913 141.919 71.9036 139.13 73.1842 136.646L77.1191 129.001C82.1897 131.747 85.3607 137.149 85.3552 143.032V143.032Z" fill="#ABB1EF"/>
<path d="M77.9532 167.108L70.5023 163.072C66.8802 161.11 64.1661 157.751 62.957 153.736C61.7478 149.72 62.1428 145.376 64.0549 141.659L71.5022 145.693C79.0448 149.779 81.9314 159.366 77.9496 167.106L77.9532 167.108Z" fill="#ABB1EF"/>
<path d="M79.3087 155.995C77.8582 153.534 75.7804 151.526 73.2994 150.187L65.8494 146.154C64.087 149.563 63.6051 153.517 64.4953 157.266C61.6882 152.508 61.5195 146.587 64.0507 141.668L71.5048 145.706C75.4266 147.825 78.2699 151.574 79.3087 155.995V155.995Z" fill="#BCBFF6"/>
<path d="M63.4704 196.4H93.2744C94.7451 196.4 95.9374 197.624 95.9374 199.133V202.626H60.8115V199.133C60.8115 197.625 62.0012 196.402 63.4704 196.4V196.4Z" fill="#BCBFF6"/>
<path d="M73.7398 183.07H83.009V189.3H73.7398V183.07Z" fill="#ABB1EF"/>
<rect x="60.8115" y="178.428" width="35.1301" height="6.66938" rx="3.33469" fill="#BCBFF6"/>
<path d="M101.827 165.326L97.8678 171.442C96.6648 173.307 94.6306 174.428 92.4511 174.428H91.8708C88.2807 174.428 85.3698 177.413 85.3675 181.097H72.3651C72.3651 177.414 69.4553 174.428 65.8659 174.428H64.2936C62.1147 174.426 60.0814 173.305 58.8769 171.442L54.9215 165.326C54.2412 164.274 54.1803 162.923 54.7632 161.812C55.3461 160.7 56.478 160.009 57.708 160.012H99.0491C100.278 160.012 101.407 160.705 101.988 161.816C102.568 162.927 102.507 164.275 101.827 165.326V165.326Z" fill="#BCBFF6"/>
<path d="M101.827 165.325L97.8678 171.442C96.6649 173.306 94.6306 174.428 92.4512 174.428H91.8708C89.2872 174.428 86.949 175.998 85.915 178.428H92.5829C94.3109 178.401 95.7706 179.738 95.9415 181.503C96.0079 182.429 95.6955 183.342 95.0794 184.022C94.4633 184.702 93.5991 185.089 92.694 185.089H82.7868C84.5826 185.089 86.0384 183.595 86.0384 181.752C86.0449 181.569 85.9748 181.392 85.8458 181.265C85.7169 181.138 85.5414 181.074 85.3634 181.089H77.7282C77.1034 181.093 76.518 180.776 76.1682 180.245C75.8184 179.713 75.7504 179.038 75.9872 178.445V178.419C77.0212 175.99 79.3595 174.419 81.943 174.419H82.5357C84.7146 174.417 86.7479 173.296 87.9524 171.433L91.9078 165.317C92.5873 164.267 92.6489 162.918 92.068 161.807C91.4872 160.696 90.3581 160.003 89.1295 160.003H99.0368C100.27 159.996 101.407 160.689 101.991 161.804C102.576 162.918 102.513 164.273 101.827 165.325V165.325Z" fill="#ABB1EF"/>
<path d="M61.9187 178.428H64.059C63.3738 178.427 62.7062 178.65 62.1533 179.066C62.0873 178.848 62.009 178.635 61.9187 178.428V178.428Z" fill="#BCBFF6"/>
<path d="M61.9187 178.428H64.059C63.3738 178.427 62.7062 178.65 62.1533 179.066C62.0873 178.848 62.009 178.635 61.9187 178.428V178.428Z" fill="#BCBFF6"/>
<path d="M75.4809 187.327H81.2721C86.1572 187.327 90.1174 191.391 90.1174 196.404H66.6562C66.6562 191.399 70.6038 187.339 75.4809 187.327V187.327Z" fill="#BCBFF6"/>
<path d="M63.4704 196.4H93.2744C94.7451 196.4 95.9374 197.623 95.9374 199.133V202.626H60.8115V199.133C60.8115 197.625 62.0012 196.402 63.4704 196.4V196.4Z" fill="#BCBFF6"/>
<path d="M75.4809 187.327H81.2721C86.1572 187.327 90.1174 191.391 90.1174 196.404H66.6562C66.6562 191.399 70.6038 187.339 75.4809 187.327V187.327Z" fill="#BCBFF6"/>
<path d="M95.9415 199.137V202.63H90.1174V199.137C90.1174 197.626 88.9233 196.4 87.4502 196.4H84.2891C84.2892 191.403 80.3509 187.346 75.4809 187.327H81.2721C83.6176 187.326 85.8675 188.282 87.5264 189.983C89.1853 191.685 90.1174 193.993 90.1174 196.4H93.2785C94.7499 196.402 95.9415 197.627 95.9415 199.137V199.137Z" fill="#ABB1EF"/>
<path d="M313.97 339.79C312.415 341.988 311.253 344.452 310.537 347.067C310.537 347.135 310.496 347.207 310.48 347.274C310.397 347.582 310.323 347.895 310.253 348.208C309.88 349.9 309.693 351.63 309.694 353.365V361.736H95.5217V341.813C95.5233 341.134 95.4641 340.457 95.3447 339.79L313.97 339.79Z" fill="#ABB1EF"/>
<path d="M209.284 83.1473C209.3 109.11 189.99 130.785 164.79 133.092C139.591 135.398 116.847 117.572 112.385 92.0172H170.803C172.815 92.0113 174.806 91.5964 176.66 90.7966C177.913 90.2579 179.088 89.5474 180.155 88.6847C181.242 87.8078 182.204 86.7784 183.011 85.6266C184.846 83.0374 185.845 79.924 185.868 76.7229C185.882 70.464 189.513 64.8102 195.112 62.3281C196.936 61.5388 198.896 61.1323 200.875 61.1328H204.312C207.589 67.9838 209.29 75.5153 209.284 83.1473V83.1473Z" fill="#F8FAFF"/>
<path d="M154.87 283.609L144.062 357.251H162.995L173.804 283.609H154.87Z" fill="#F9A0B4"/>
<path d="M154.87 283.609L151.516 306.464H170.449L173.804 283.609H154.87Z" fill="#F490AA"/>
<path d="M154.138 350.083H168.428C172.768 350.083 176.286 353.693 176.286 358.146H154.138V350.083Z" fill="#F9A0B4"/>
<path d="M180.427 358.459C180.415 360.652 178.674 362.421 176.537 362.412L166.782 362.37L144.556 362.273C143.612 362.27 142.743 361.747 142.279 360.904C142.055 360.494 141.938 360.031 141.938 359.561C141.943 358.149 143.006 356.978 144.379 356.875L166.173 355.244L176.282 354.484C177.356 354.404 178.414 354.787 179.2 355.542C179.987 356.296 180.432 357.354 180.427 358.459V358.459Z" fill="#104799"/>
<rect x="165.58" y="348.326" width="3.46567" height="10.116" rx="1.73284" fill="#104799"/>
<path d="M151.964 358.873H143.938L146.251 342.214C147.894 342.213 149.467 342.897 150.609 344.109C151.75 345.321 152.363 346.958 152.306 348.642L151.964 358.873Z" fill="#104799"/>
<rect x="146.601" y="344.157" width="19.621" height="4.70954" rx="2.35477" fill="#104799"/>
<path d="M190.655 180.328L172.894 286.059L171.338 295.351H144.173C143.528 295.35 142.917 295.058 142.501 294.553C142.086 294.048 141.908 293.38 142.016 292.728L143.131 286.071L160.637 180.341H190.655V180.328Z" fill="#104799"/>
<path d="M198.947 150.642C200.751 150.89 202.022 152.555 201.786 154.361V154.361C201.55 156.167 199.897 157.429 198.093 157.181L191.245 156.238C189.441 155.99 188.17 154.325 188.406 152.519V152.519C188.642 150.713 190.296 149.451 192.1 149.699L198.947 150.642Z" fill="#F9A0B4"/>
<path d="M204.801 170.188C205.452 171.846 204.645 173.743 202.998 174.424V174.424C201.352 175.104 199.489 174.312 198.838 172.653L194.923 162.679C194.271 161.02 195.079 159.123 196.725 158.443V158.443C198.372 157.762 200.235 158.555 200.886 160.213L204.801 170.188Z" fill="#F9A0B4"/>
<path d="M159.456 153.41C156.1 152.793 153.335 150.356 152.234 147.046C151.132 143.735 151.867 140.072 154.154 137.478L160.546 130.251L161.11 129.618L175.142 113.74C178.668 110.076 184.382 109.914 188.1 113.374C191.818 116.833 192.218 122.685 189.008 126.644L187.152 128.756L176.162 141.191L175.306 142.154L168.025 150.394C165.864 152.845 162.627 153.984 159.456 153.41V153.41Z" fill="#F9A0B4"/>
<path d="M160.118 134.475C156.917 134.864 154.136 136.913 152.753 139.9C151.37 142.888 151.581 146.395 153.31 149.187L153.516 149.499C153.582 149.6 153.652 149.698 153.726 149.795C153.752 149.835 153.781 149.873 153.812 149.909C153.858 149.976 153.907 150.035 153.961 150.103C154.084 150.255 154.208 150.411 154.343 150.551C154.479 150.69 154.533 150.758 154.627 150.855C154.932 151.159 155.257 151.441 155.599 151.7C155.693 151.776 155.788 151.843 155.887 151.911C155.986 151.978 156.089 152.05 156.192 152.118C156.414 152.266 156.644 152.401 156.883 152.54L181.805 165.871L184.584 167.362C184.908 167.532 185.24 167.686 185.58 167.822C190.216 169.625 195.419 167.409 197.45 162.768C199.481 158.126 197.637 152.664 193.244 150.306L165.547 135.497C163.88 134.6 161.987 134.244 160.118 134.475V134.475Z" fill="#F9A0B4"/>
<ellipse cx="9.92772" cy="12.8885" rx="9.92772" ry="12.8885" transform="matrix(0.975164 -0.221484 0.210832 0.977522 178.769 152.215)" fill="#F9A0B4"/>
<path d="M184.831 95.5821L184.781 98.6993L184.67 105.428C184.62 108.421 186.944 110.889 189.86 110.94C192.777 110.991 195.182 108.607 195.232 105.614V104.908L195.38 95.768C195.412 93.8319 194.436 92.0252 192.818 91.0284C191.2 90.0316 189.187 89.9962 187.537 90.9355C185.887 91.8748 184.851 93.6461 184.818 95.5821H184.831Z" fill="#FFB2BF"/>
<path d="M177.097 70.9574L176.051 81.6056C175.166 90.6446 182.126 98.8261 191.597 99.882C198.907 100.693 205.386 95.7004 206.069 88.7269L206.95 79.7978V79.6373C206.975 79.3924 206.987 79.1474 206.995 78.9024C207.386 69.9817 200.447 62.0663 191.071 60.9006L190.832 60.871L190.272 60.8076C189.509 60.7227 188.741 60.7072 187.975 60.7612C182.316 61.1413 177.644 65.3482 177.097 70.9574V70.9574Z" fill="#FFB2BF"/>
<path d="M189.658 102.297C185.713 102.154 181.985 100.41 179.293 97.4471C176.602 94.4841 175.167 90.5452 175.306 86.497L175.693 75.1673C175.988 66.5415 183.041 59.7943 191.447 60.097C195.306 60.236 198.953 61.9423 201.585 64.8405C204.218 67.7388 205.621 71.5916 205.486 75.5514L205.075 87.5522C204.941 91.6072 203.24 95.4407 200.348 98.2069C197.455 100.973 193.609 102.444 189.658 102.297Z" fill="#FED4BE"/>
<path d="M209.329 97.7024C209.329 100.496 207.85 103.069 205.468 104.421C203.086 105.773 200.176 105.691 197.87 104.207C201.426 105.091 205.083 103.206 206.516 99.7519C207.949 96.2977 206.738 92.2865 203.653 90.2686C206.98 91.1212 209.318 94.1834 209.329 97.7024V97.7024Z" fill="#51AFF4"/>
<path d="M179.266 286.059L173.285 357.251H192.219L198.199 286.059H179.266Z" fill="#FFB2BF"/>
<path d="M179.266 286.054L177.554 306.464H196.483L198.199 286.054H179.266Z" fill="#F9A0B4"/>
<path d="M183.291 350.083H197.57C201.909 350.083 205.427 353.693 205.427 358.146H183.291V350.083Z" fill="#FFB2BF"/>
<path d="M209.588 358.459C209.584 359.512 209.172 360.52 208.444 361.261C207.715 362.003 206.729 362.417 205.703 362.412L195.931 362.366L173.705 362.269C172.295 362.255 171.146 361.104 171.098 359.659C171.049 358.213 172.119 356.984 173.524 356.871L195.318 355.24L205.431 354.48C206.508 354.396 207.57 354.779 208.36 355.534C209.149 356.29 209.595 357.351 209.588 358.459V358.459Z" fill="#1455AF"/>
<rect x="194.734" y="348.326" width="3.46567" height="10.116" rx="1.73284" fill="#1455AF"/>
<path d="M181.118 358.873H173.092L174.508 342.214H174.919C176.684 342.214 178.373 342.949 179.6 344.251C180.827 345.553 181.486 347.31 181.427 349.12L181.118 358.873Z" fill="#1455AF"/>
<rect x="175.751" y="344.157" width="19.621" height="4.70954" rx="2.35477" fill="#1455AF"/>
<path d="M212.223 294.38L168.494 295.33L176.027 206.951L176.154 204.417L177.928 169.866H207.695C208.403 181.414 214.544 269.97 215.927 290.173C216.006 291.241 215.655 292.297 214.955 293.092C214.254 293.887 213.267 294.353 212.223 294.38V294.38Z" fill="#104799"/>
<path d="M173.746 133.875V159.265C173.842 166.255 177.996 172.512 184.301 175.162C190.606 177.811 197.843 176.342 202.69 171.429C205.866 168.221 207.655 163.838 207.654 159.265V133.875L173.746 133.875Z" fill="#104799"/>
<path d="M213.783 129.609L213.75 130.496C213.503 137.051 208.399 142.213 202.39 142.036L178.961 141.351C172.927 141.182 168.26 135.725 168.482 129.178L168.515 128.287C168.684 123.281 170.28 118.435 173.104 114.349C173.907 113.187 174.806 112.099 175.792 111.096C176.166 110.716 176.549 110.349 176.949 109.994C177.787 109.247 178.677 108.564 179.612 107.95L179.776 107.848C179.871 107.781 179.978 107.717 180.077 107.658L180.118 107.628C180.451 107.426 180.781 107.236 181.122 107.037C182.013 106.553 182.934 106.129 183.88 105.77C188.9 103.835 194.444 103.897 199.422 105.943C199.801 106.091 200.167 106.256 200.533 106.433H200.554C201.555 106.919 202.518 107.484 203.435 108.123C203.526 108.199 203.633 108.258 203.719 108.33C204.094 108.587 204.443 108.862 204.789 109.141C207.115 111.032 209.071 113.36 210.552 116C212.849 120.136 213.969 124.852 213.783 129.609V129.609Z" fill="#104799"/>
<path d="M213.783 129.609L213.75 130.496C213.503 137.051 208.399 142.213 202.39 142.036L178.961 141.351C172.927 141.182 168.26 135.725 168.482 129.178L168.515 128.287C168.684 123.281 170.28 118.435 173.104 114.349C173.907 113.187 174.806 112.099 175.792 111.096C176.166 110.716 176.549 110.349 176.949 109.994C177.787 109.247 178.677 108.564 179.612 107.95L179.776 107.848C179.871 107.781 179.978 107.717 180.077 107.658L180.118 107.628C180.451 107.426 180.781 107.236 181.122 107.037C182.013 106.553 182.934 106.129 183.88 105.77C188.9 103.835 194.444 103.897 199.422 105.943C199.801 106.091 200.167 106.256 200.533 106.433H200.554C201.555 106.919 202.518 107.484 203.435 108.123C203.526 108.199 203.633 108.258 203.719 108.33C204.094 108.587 204.443 108.862 204.789 109.141C207.115 111.032 209.071 113.36 210.552 116C212.849 120.136 213.969 124.852 213.783 129.609V129.609Z" fill="#104799"/>
<path d="M207.695 157.039V172.054C207.733 190.374 193.97 205.61 176.166 206.96L176.294 204.425C175.429 204.254 174.577 204.017 173.746 203.716V157.039H207.695Z" fill="#104799"/>
<path d="M199.858 184.485C199.864 190.58 197.205 196.357 192.612 200.222C188.019 204.088 181.978 205.633 176.154 204.434C175.283 204.263 174.426 204.026 173.59 203.724C164.037 200.353 158.482 190.149 160.694 180.034C162.906 169.919 172.177 163.129 182.217 164.27C192.258 165.411 199.857 174.118 199.858 184.485V184.485Z" fill="#104799"/>
<path d="M173.063 165.448C169.276 168.406 166.657 172.667 165.687 177.448L165.444 178.897C165.442 178.909 165.442 178.922 165.444 178.935C165.383 179.391 165.341 179.855 165.317 180.32H165.21L162.851 194.601L148.186 283.174L145.65 295.33H144.165C143.52 295.329 142.909 295.037 142.494 294.532C142.079 294.026 141.903 293.358 142.012 292.707L143.127 286.05L160.357 182.005C160.359 181.988 160.359 181.971 160.357 181.955C161.276 174.458 166.169 168.102 173.063 165.448V165.448Z" fill="#1455AF"/>
<path d="M192.108 200.624L191.766 200.885L191.791 200.742C191.89 200.716 192.001 200.662 192.108 200.624V200.624Z" fill="#104799"/>
<path d="M165.206 180.329L165.44 178.943C165.378 179.399 165.337 179.864 165.313 180.329H165.206Z" fill="#104799"/>
<path d="M165.687 177.456L165.444 178.905C165.506 178.411 165.584 177.929 165.687 177.456Z" fill="#104799"/>
<path d="M234.91 117.734C236.083 116.374 238.112 116.251 239.441 117.459V117.459C240.77 118.667 240.896 120.748 239.723 122.108L234.361 128.321C233.187 129.681 231.159 129.804 229.83 128.596V128.596C228.501 127.388 228.374 125.306 229.548 123.947L234.91 117.734Z" fill="#FFB2BF"/>
<path d="M233.91 99.4258H248.094C248.494 99.4258 248.818 99.7586 248.818 100.169V105.111C248.818 109.543 245.317 113.136 240.998 113.136C236.678 113.136 233.177 109.543 233.177 105.111V100.169C233.177 99.7586 233.502 99.4258 233.902 99.4258L233.91 99.4258Z" fill="#C4C8F2"/>
<path d="M247.377 100.689V105.335C247.377 108.947 244.526 111.877 241.006 111.882C237.486 111.877 234.634 108.947 234.634 105.335V104.414C236.947 109.111 241.915 108.169 242.788 104.414C243.636 100.744 247.196 100.697 247.377 100.697V100.689Z" fill="#E03F41"/>
<path d="M240.796 111.869C241.364 111.869 241.825 112.342 241.825 112.925V130.04H239.767V112.925C239.767 112.342 240.228 111.869 240.796 111.869Z" fill="#C4C8F2"/>
<rect x="234.47" y="130.044" width="12.6526" height="1.79934" rx="0.899669" fill="#C4C8F2"/>
<path d="M246.718 118.003C248.475 117.531 250.263 118.578 250.712 120.341V120.341C251.161 122.104 250.101 123.915 248.344 124.386L240.243 126.559C238.486 127.03 236.698 125.984 236.249 124.221V124.221C235.8 122.458 236.86 120.647 238.617 120.176L246.718 118.003Z" fill="#FFB2BF"/>
<path d="M215.557 154.407C213.322 157.052 209.864 158.243 206.527 157.517C203.19 156.791 200.5 154.262 199.504 150.914L196.734 141.584L196.491 140.764L190.4 120.262C189.672 117.823 189.92 115.188 191.089 112.937C192.257 110.686 194.249 109.004 196.627 108.262C198.444 107.687 200.39 107.7 202.2 108.3C205.131 109.251 207.419 111.62 208.321 114.636L209.144 117.352L213.918 133.402L214.289 134.669L217.45 145.309C218.388 148.474 217.673 151.912 215.557 154.407V154.407Z" fill="#FFB2BF"/>
<path d="M200.06 144.118C198.742 147.14 199.032 150.645 200.826 153.396C202.621 156.147 205.668 157.758 208.893 157.659H209.259L209.613 157.626H209.753L209.992 157.592C210.185 157.562 210.379 157.528 210.564 157.486L210.975 157.389C211.389 157.277 211.795 157.136 212.19 156.967C212.301 156.92 212.408 156.874 212.515 156.819C212.622 156.764 212.733 156.713 212.844 156.658C213.079 156.536 213.313 156.405 213.54 156.257L237.458 141.123L240.125 139.434C240.433 139.237 240.731 139.024 241.018 138.796C244.934 135.645 245.766 129.903 242.913 125.719C240.06 121.536 234.518 120.371 230.292 123.066L203.703 139.886C202.102 140.89 200.833 142.364 200.06 144.118V144.118Z" fill="#FFB2BF"/>
<ellipse cx="12.5771" cy="10.6882" rx="12.5771" ry="10.6882" transform="matrix(0.995701 -0.0926295 0.0879988 0.996121 226.784 121.212)" fill="#FFB2BF"/>
<ellipse cx="4.95674" cy="4.00756" rx="4.95674" ry="4.00756" transform="matrix(0.995701 -0.0926295 0.0879988 0.996121 235.005 127.683)" fill="#FDC3CD"/>
<path d="M208.181 156.557L208.547 156.536C208.666 156.531 208.784 156.52 208.901 156.502C208.948 156.507 208.994 156.507 209.041 156.502L209.28 156.473C209.473 156.443 209.667 156.409 209.852 156.363C210.037 156.316 210.119 156.304 210.263 156.266C210.678 156.155 211.084 156.014 211.478 155.843C211.589 155.797 211.696 155.75 211.803 155.695C211.91 155.64 212.021 155.594 212.132 155.535C212.367 155.417 212.601 155.281 212.828 155.138L235.77 140.612L236.692 140.034C237.307 140.2 237.931 140.327 238.561 140.414C244.138 141.182 249.604 137.085 251.074 132.528C251.872 130.07 251.214 125.863 249.888 123.523C252.95 126.661 253.3 130.281 252.378 133.166C250.732 138.234 243.665 142.825 237.404 141.149L213.532 156.253C213.301 156.397 213.071 156.527 212.832 156.65C212.725 156.71 212.615 156.764 212.503 156.81C212.396 156.865 212.293 156.912 212.181 156.958C211.786 157.127 211.381 157.268 210.967 157.381C210.831 157.414 210.7 157.452 210.556 157.478C210.412 157.503 210.173 157.554 209.984 157.583L209.745 157.617H209.605C209.486 157.617 209.37 157.643 209.251 157.651H208.885C205.534 157.752 202.386 156.009 200.628 153.081C200.562 152.971 200.5 152.865 200.439 152.751C202.27 155.227 205.153 156.644 208.181 156.557V156.557Z" fill="#F9A0B4"/>
<ellipse cx="202.546" cy="71.2319" rx="7.73396" ry="7.93652" fill="#FED4BE"/>
<ellipse cx="197.767" cy="67.6628" rx="7.73396" ry="7.93652" fill="#FED4BE"/>
<path d="M210.276 71.2319C210.278 67.5679 207.835 64.3789 204.365 63.515C202.757 60.8261 199.75 59.3692 196.705 59.8033C193.66 60.2374 191.154 62.4802 190.321 65.5171C191.45 63.4821 193.397 62.0628 195.641 61.6392C197.885 61.2156 200.197 61.831 201.957 63.3207C202.622 63.8829 203.192 64.5536 203.645 65.3059C204.216 65.4476 204.769 65.6589 205.291 65.9353C207.896 67.2818 209.538 70.0211 209.535 73.0144C209.537 73.7415 209.438 74.4654 209.243 75.1643C209.92 73.9702 210.276 72.6134 210.276 71.2319V71.2319Z" fill="#FFE5D6"/>
<ellipse cx="15.2308" cy="16.7523" rx="15.2308" ry="16.7523" transform="matrix(0.64888 -0.760891 0.744017 0.668161 166.67 87.9043)" fill="#FED4BE"/>
<path d="M171.589 64.2542H184.259C194.943 64.2542 203.604 73.1421 203.604 84.106V111.983C203.604 118.738 200.989 125.216 196.334 129.993C191.68 134.769 185.367 137.453 178.784 137.453C176.876 137.453 175.046 136.675 173.697 135.29C172.347 133.905 171.589 132.028 171.589 130.069V64.2542L171.589 64.2542Z" fill="#FED4BE"/>
<ellipse cx="187.247" cy="70.1887" rx="9.07578" ry="9.31348" fill="#51AFF4"/>
<ellipse cx="178.883" cy="64.2542" rx="16.5134" ry="16.9459" fill="#24364F"/>
<ellipse cx="178.883" cy="64.2542" rx="16.5134" ry="16.9459" fill="#FED4BE"/>
<path d="M192.668 54.9365C186.46 49.3285 177.167 49.2991 170.926 54.8678C164.685 60.4364 163.422 69.8847 167.972 76.9721C163.149 72.6151 161.228 65.7827 163.047 59.459C164.866 53.1353 170.096 48.4692 176.451 47.4989C182.806 46.5286 189.133 49.4302 192.668 54.9365V54.9365Z" fill="#F7C4AD"/>
<rect x="381.135" y="361.576" width="30.4831" height="7.43811" rx="3.71906" fill="#D2D6FA"/>
</svg>
