<svg width="397" height="400" viewBox="0 0 397 400" fill="none" xmlns="http://www.w3.org/2000/svg">
<path d="M380.522 325.64C387.53 332.709 389.868 343.214 386.525 352.621C386.196 353.547 385.814 354.453 385.381 355.334C382.113 361.98 376.171 366.893 369.064 368.826C368.041 369.107 367.002 369.32 365.952 369.465C364.783 369.628 363.606 369.709 362.427 369.708H41.6388C35.6697 369.715 29.8874 367.612 25.2983 363.766C24.6836 363.256 24.0948 362.716 23.532 362.147C23.2169 361.829 22.9056 361.504 22.606 361.167C22.217 360.739 21.8551 360.3 21.505 359.846C20.4075 358.446 19.4594 356.934 18.6765 355.334C18.5715 355.122 18.4703 354.91 18.3731 354.695C18.0618 354.015 17.7817 353.324 17.5327 352.621C14.5371 344.262 16.0281 334.937 21.4778 327.949C21.8279 327.494 22.1975 327.055 22.5788 326.628C27.4316 321.179 34.3573 318.07 41.6233 318.078H75.028C75.4482 318.078 75.8645 318.062 76.2769 318.031C77.3354 317.955 78.3842 317.776 79.4088 317.498C80.3029 317.257 81.175 316.94 82.0155 316.549C83.8414 315.706 85.5039 314.541 86.9254 313.111C90.0906 309.942 91.8704 305.632 91.8704 301.136C91.8715 300.494 91.8351 299.853 91.7615 299.215C90.9771 292.305 86.0876 286.577 79.4244 284.762C78.3996 284.484 77.3509 284.306 76.2924 284.229C75.88 284.198 75.4637 284.182 75.0435 284.182H69.799C66.8784 284.184 63.9667 283.856 61.1191 283.202H61.0919L60.8934 283.155C60.6756 283.108 60.4616 283.053 60.2476 282.998L59.9286 282.916C59.6484 282.841 59.3683 282.767 59.0921 282.684C58.8158 282.602 58.6252 282.547 58.3957 282.473C56.6491 281.938 54.9432 281.276 53.2912 280.493C52.9255 280.321 52.5598 280.144 52.2018 279.956C51.6105 279.654 51.0346 279.341 50.4588 279.007C49.3824 278.388 48.3449 277.716 47.3464 276.993C46.506 276.393 45.6929 275.758 44.9031 275.095C44.0004 274.34 43.1341 273.543 42.3041 272.704C35.5053 265.886 31.4575 256.77 30.9436 247.118C30.928 246.828 30.9164 246.538 30.9086 246.248C30.9086 245.821 30.8852 245.39 30.8852 244.962C30.8852 244.774 30.8852 244.57 30.8852 244.402C30.9063 242.828 31.0206 241.257 31.2276 239.698C32.6691 228.918 38.4993 219.229 47.3191 212.955C48.2736 212.271 49.2579 211.632 50.2721 211.039C50.3304 211.003 50.3888 210.968 50.4511 210.937C52.1956 209.923 54.0169 209.05 55.8979 208.326C56.7149 208.008 57.5436 207.722 58.384 207.46C59.2244 207.197 60.1698 206.946 61.0802 206.738C63.9364 206.08 66.8573 205.748 69.7873 205.751H98.4455C102.003 205.748 105.472 204.635 108.374 202.564C109.159 202 109.895 201.372 110.576 200.686C113.552 197.693 115.33 193.7 115.572 189.471C115.591 189.138 115.603 188.8 115.603 188.459C115.601 183.212 113.236 178.249 109.172 174.967C108.911 174.755 108.647 174.575 108.374 174.363C107.397 173.659 106.347 173.063 105.242 172.587C104.974 172.466 104.702 172.356 104.425 172.254C102.513 171.535 100.487 171.168 98.4455 171.172H46.0975C41.2611 171.184 36.4614 170.327 31.924 168.64C30.3245 168.043 28.765 167.343 27.2553 166.543C26.5861 166.19 25.9286 165.82 25.2828 165.433C24.362 164.882 23.4646 164.294 22.5905 163.669C22.2014 163.403 21.8513 163.132 21.4894 162.854C20.4066 162.022 19.3676 161.134 18.3769 160.192C18.0268 159.867 17.6844 159.534 17.3459 159.193C11.8159 153.636 7.99429 146.589 6.33943 138.899C6.29274 138.692 6.24995 138.485 6.21104 138.276C6.07098 137.586 5.95037 136.892 5.84922 136.186C5.56124 134.2 5.41691 132.196 5.41736 130.189C5.41736 130.032 5.41736 129.875 5.41736 129.718C5.50851 120.378 8.77697 111.353 14.677 104.148C15.0427 103.701 15.4201 103.258 15.8053 102.827C16.2955 102.27 16.8051 101.729 17.3265 101.204C17.665 100.863 18.0073 100.53 18.3575 100.205L18.4587 100.11C18.7504 99.836 19.0422 99.5695 19.3418 99.3068C20.0369 98.6927 20.7528 98.1047 21.4894 97.5428C21.8513 97.2645 22.217 96.994 22.5905 96.7275C22.964 96.4609 23.2674 96.2531 23.6098 96.0219C24.1584 95.6534 24.7147 95.2967 25.2828 94.9595L25.559 94.7949C26.1154 94.4656 26.6834 94.1481 27.2553 93.8502C28.7643 93.0499 30.3239 92.3507 31.924 91.7569C36.4586 90.0567 41.2591 89.1897 46.0975 89.1971C46.5082 89.1967 46.9185 89.1745 47.3269 89.1305C48.398 89.0135 49.4464 88.7402 50.4394 88.3191C53.1464 87.1908 55.3156 85.0516 56.4932 82.3489C56.954 81.2889 57.2506 80.1638 57.3724 79.013C57.4129 78.6525 57.4337 78.29 57.4347 77.9271C57.4347 77.8762 57.4347 77.8252 57.4347 77.7743V69.6167C57.4327 67.7281 57.7027 65.8491 58.2361 64.0386C58.2867 63.87 58.3373 63.7015 58.3918 63.5368C60.7987 56.0919 67.3809 50.8111 75.1214 50.1147C75.5104 50.0795 75.8995 50.0559 76.2885 50.0442H76.8682H190.863C191.295 50.0442 191.719 50.0442 192.143 50.0873C193.198 50.1529 194.245 50.3076 195.275 50.5499C198.667 51.3465 201.783 53.0485 204.297 55.4773C204.402 55.5753 204.503 55.6772 204.604 55.7791C208.094 59.2877 210.124 64.0053 210.281 68.9699V69.6246C210.281 69.6246 210.281 70.0166 210.281 70.1812C210.307 71.1013 210.398 72.0182 210.553 72.9252C210.584 73.1173 210.623 73.3172 210.658 73.5015C210.732 73.866 210.818 74.2306 210.907 74.5873C211.206 75.7339 211.609 76.8505 212.109 77.9232C212.281 78.2917 212.463 78.6563 212.654 79.0091C212.744 79.1776 212.837 79.3423 212.934 79.5069C213.517 80.512 214.189 81.4619 214.942 82.345C215.496 82.9991 216.094 83.6147 216.731 84.1874C217.015 84.4461 217.307 84.6931 217.603 84.9361C218.688 85.8021 219.862 86.5486 221.104 87.1627C221.35 87.2881 221.599 87.4057 221.851 87.5194C224.331 88.6275 227.014 89.1978 229.726 89.1932H286.587C287.704 89.1932 288.805 89.252 289.894 89.3618C293.827 89.7651 297.652 90.896 301.177 92.6977C303.635 93.9567 305.924 95.5256 307.989 97.3664C308.176 97.535 308.359 97.6996 308.542 97.8721C308.725 98.0446 308.849 98.1583 308.997 98.3072C309.335 98.6326 309.662 98.9619 309.974 99.3029C310.098 99.4244 310.211 99.5499 310.324 99.6949C310.339 99.7048 310.353 99.7182 310.363 99.7341C310.483 99.8635 310.6 99.9928 310.709 100.126C310.818 100.259 310.989 100.44 311.121 100.6C311.316 100.824 311.51 101.051 311.689 101.283C311.829 101.451 311.966 101.624 312.078 101.8C312.191 101.976 312.339 102.137 312.467 102.31C312.596 102.482 312.732 102.662 312.856 102.843C312.914 102.916 312.968 102.99 313.02 103.066C313.273 103.427 313.518 103.791 313.755 104.164C313.911 104.411 314.066 104.658 314.218 104.909C314.483 105.348 314.736 105.794 314.996 106.245C315.346 106.899 315.676 107.565 315.984 108.244C316.262 108.848 316.521 109.462 316.763 110.087C317.181 111.176 317.538 112.289 317.833 113.419C317.996 114.026 318.14 114.642 318.264 115.261C318.489 116.363 318.654 117.477 318.759 118.597C318.863 119.659 318.915 120.725 318.914 121.792V148.569C318.912 154.235 321.146 159.67 325.123 163.676C329.1 167.681 334.494 169.93 340.118 169.926H372.46C375.652 169.927 378.791 170.736 381.592 172.278C382.953 173.026 384.22 173.937 385.366 174.99C385.58 175.186 385.79 175.382 385.992 175.594C386.467 176.073 386.918 176.577 387.342 177.103C393.017 184.177 393.017 194.283 387.342 201.356C386.918 201.882 386.467 202.386 385.992 202.865C383.016 205.874 379.135 207.804 374.954 208.353C374.128 208.464 373.294 208.519 372.46 208.518C371.316 208.518 370.178 208.682 369.08 209.004C367.978 209.331 366.929 209.818 365.967 210.451C365.667 210.643 365.38 210.843 365.099 211.066C362.173 213.36 360.462 216.887 360.466 220.623V259.325C360.476 265.08 358.494 270.658 354.863 275.099C354.352 275.73 353.809 276.335 353.237 276.91C352.111 278.046 350.877 279.067 349.553 279.96C349.284 280.148 349.012 280.325 348.736 280.497C348.347 280.74 347.957 280.971 347.541 281.191L346.973 281.493C346.925 281.521 346.876 281.546 346.825 281.567C346.635 281.665 346.436 281.759 346.25 281.849C346.229 281.865 346.205 281.875 346.179 281.881C345.965 281.983 345.751 282.081 345.538 282.171C345.324 282.261 345.078 282.367 344.849 282.457C344.132 282.747 343.401 283 342.658 283.214C341.829 283.457 340.988 283.656 340.137 283.809C339.102 283.993 338.056 284.111 337.005 284.162C336.616 284.182 336.192 284.194 335.784 284.194C327.225 284.19 320.026 290.659 319.054 299.227C318.981 299.864 318.944 300.506 318.945 301.148C318.944 305.645 320.717 309.959 323.874 313.138C327.031 316.318 331.312 318.104 335.776 318.102H362.434C363.614 318.1 364.792 318.183 365.959 318.349C367.009 318.492 368.049 318.704 369.072 318.984C369.418 319.078 369.76 319.18 370.103 319.285C374.033 320.528 377.607 322.708 380.522 325.64Z" fill="#F3F4FE"/>
<path d="M21.4777 97.543V162.834C20.3948 162.003 19.3559 161.114 18.3652 160.173V100.197L18.4664 100.103C18.7582 99.8283 19.05 99.5618 19.3496 99.2991C20.0447 98.6902 20.7541 98.1048 21.4777 97.543Z" fill="#EFF1FD"/>
<path d="M18.3653 333.1C19.1983 331.265 20.243 329.536 21.4778 327.949V359.846C20.3803 358.446 19.4322 356.934 18.6493 355.334C18.5442 355.122 18.4431 354.91 18.3458 354.695L18.3653 333.1Z" fill="#EFF1FD"/>
<path d="M50.4588 88.3191V171.176H47.3463V89.1305C48.4174 89.0136 49.4658 88.7402 50.4588 88.3191V88.3191Z" fill="#EFF1FD"/>
<path d="M50.2682 211.043C50.3266 211.007 50.3849 210.972 50.4472 210.941V278.988C49.3708 278.369 48.3333 277.697 47.3347 276.973V212.959C48.284 212.272 49.2619 211.633 50.2682 211.043Z" fill="#EFF1FD"/>
<path d="M47.3269 318.078H50.4588V369.708H47.3269V318.078Z" fill="#EFF1FD"/>
<path d="M79.4244 50.0364V171.164H76.2925V50.0364H76.8722H79.4244Z" fill="#EFF1FD"/>
<path d="M76.2925 205.754H79.4244V284.75C78.3997 284.472 77.3509 284.294 76.2925 284.217L76.2925 205.754Z" fill="#EFF1FD"/>
<path d="M76.2925 318.031C77.351 317.955 78.3998 317.776 79.4244 317.498V369.709H76.2925V318.031Z" fill="#EFF1FD"/>
<path d="M108.386 50.0364V174.367C107.409 173.663 106.359 173.067 105.254 172.591V50.0364L108.386 50.0364Z" fill="#EFF1FD"/>
<path d="M105.254 204.339C106.357 203.862 107.407 203.268 108.386 202.567V369.708H105.254V204.339Z" fill="#EFF1FD"/>
<path d="M134.22 50.0364H137.352V369.708H134.22V50.0364Z" fill="#EFF1FD"/>
<path d="M163.185 50.0364H166.317V369.708H163.185V50.0364Z" fill="#EFF1FD"/>
<path d="M195.279 50.5421V369.709H192.147V50.0796C193.202 50.1451 194.249 50.2999 195.279 50.5421Z" fill="#EFF1FD"/>
<path d="M224.244 88.4052V369.708H221.132V87.1665C221.377 87.2919 221.626 87.4095 221.879 87.5232C222.647 87.8692 223.437 88.1639 224.244 88.4052Z" fill="#EFF1FD"/>
<path d="M250.078 89.1973H253.21V369.709H250.078V89.1973Z" fill="#EFF1FD"/>
<path d="M279.039 89.1973H282.171V369.709H279.039V89.1973Z" fill="#EFF1FD"/>
<path d="M311.137 100.585V369.708H308.024V97.3704C308.211 97.5389 308.394 97.7036 308.577 97.876C308.76 98.0485 308.884 98.1622 309.032 98.3112C309.371 98.6365 309.697 98.9658 310.009 99.3068C310.133 99.4284 310.246 99.5538 310.359 99.6988C310.375 99.7087 310.388 99.7221 310.398 99.738C310.518 99.8674 310.635 99.9968 310.744 100.13C310.853 100.263 311.005 100.432 311.137 100.585Z" fill="#EFF1FD"/>
<path d="M340.118 169.926V283.786C339.082 283.97 338.036 284.087 336.986 284.139V169.675C338.022 169.836 339.069 169.92 340.118 169.926Z" fill="#EFF1FD"/>
<path d="M336.97 318.078H340.102V369.708H336.97V318.078Z" fill="#EFF1FD"/>
<path d="M369.064 169.926V208.98C367.962 209.308 366.914 209.795 365.951 210.427V169.926L369.064 169.926Z" fill="#EFF1FD"/>
<path d="M369.064 318.96V368.827C368.041 369.107 367.002 369.321 365.951 369.466V318.325C367.001 318.469 368.041 318.681 369.064 318.96Z" fill="#EFF1FD"/>
<rect x="63.3018" y="376.768" width="28.8138" height="6.90312" rx="3.45156" transform="rotate(-180 63.3018 376.768)" fill="#7986BF"/>
<rect x="381.203" y="376.768" width="315.115" height="6.90312" rx="3.45156" transform="rotate(-180 381.203 376.768)" fill="#7986BF"/>
<path d="M86.5519 71.961H104.488C104.967 71.9578 105.427 72.1479 105.766 72.4889C106.105 72.8298 106.295 73.2933 106.293 73.7759V117.068H86.5519V71.961Z" fill="#6675AD"/>
<path d="M85.2836 71.9609H103.219V117.068H83.4745V73.7759C83.4745 73.2966 83.6635 72.837 83.9998 72.4981C84.3362 72.1592 84.7924 71.9688 85.2681 71.9688L85.2836 71.9609Z" fill="#7986BF"/>
<ellipse cx="93.0687" cy="85.8886" rx="4.73875" ry="4.77456" fill="#6675AD"/>
<ellipse cx="93.0687" cy="85.8887" rx="2.1515" ry="2.16776" fill="#F3F4FE"/>
<ellipse cx="93.0686" cy="108.064" rx="7.70339" ry="7.7616" fill="#6675AD"/>
<ellipse cx="93.0687" cy="108.064" rx="3.49376" ry="3.52016" fill="#F3F4FE"/>
<path d="M125.217 71.9609H143.152C144.143 71.9609 144.946 72.77 144.946 73.7681V117.068H125.217V71.9609Z" fill="#6675AD"/>
<path d="M123.933 71.9609H141.869V117.068H122.139V73.7759C122.137 73.2953 122.325 72.8336 122.662 72.493C122.998 72.1524 123.456 71.9609 123.933 71.9609V71.9609Z" fill="#7986BF"/>
<ellipse cx="131.734" cy="85.8886" rx="4.73875" ry="4.77456" fill="#6675AD"/>
<ellipse cx="131.734" cy="85.8887" rx="2.1515" ry="2.16776" fill="#F3F4FE"/>
<ellipse cx="131.733" cy="108.064" rx="7.70339" ry="7.7616" fill="#6675AD"/>
<ellipse cx="131.734" cy="108.064" rx="3.49376" ry="3.52016" fill="#F3F4FE"/>
<path d="M55.7734 126.112H172.309L164.636 117.068H63.4496L55.7734 126.112Z" fill="#D2D6FA"/>
<path d="M150.482 126.108V138.244L142.304 144.042V126.108H150.482Z" fill="#D2D6FA"/>
<path d="M87.7658 126.108V144.042L79.5878 138.244V126.108H87.7658Z" fill="#D2D6FA"/>
<path d="M79.5878 126.108H87.7658V129.859H79.5878V126.108Z" fill="#969ECC"/>
<path d="M142.304 126.108H150.482V129.859H142.304V126.108Z" fill="#969ECC"/>
<path d="M256.844 124.281H301.239V174.512H256.844V124.281Z" fill="#D2D6FA"/>
<path d="M260.73 128.676H297.356V170.114H260.73V128.676Z" fill="#F3F4FE"/>
<path d="M271.589 142.211L281.413 160.475L263.913 161.647L271.589 142.211Z" fill="#D2D6FA"/>
<path d="M293.045 133.474L286.198 145.967L279.039 136.198L293.045 133.474Z" fill="#D2D6FA"/>
<path d="M291.972 151.929L290.536 160.553L284.428 156.374L291.972 151.929Z" fill="#D2D6FA"/>
<ellipse cx="208.725" cy="120.291" rx="10.3801" ry="10.4586" fill="#332D52"/>
<path d="M194.836 159.888C200.29 155.669 208.1 156.694 212.279 162.179C216.459 167.663 215.426 175.53 209.973 179.749L178.452 204.136C172.999 208.356 165.189 207.33 161.009 201.846C156.829 196.361 157.862 188.495 163.316 184.275L194.836 159.888Z" fill="#FAEEDE"/>
<ellipse cx="170.904" cy="193.304" rx="13.337" ry="13.4378" fill="#F2E6D7"/>
<path d="M139.94 158.14C137.309 153.11 139.24 146.874 144.254 144.212C149.267 141.549 155.465 143.469 158.096 148.499L178.706 187.902C181.337 192.932 179.406 199.168 174.392 201.83C169.378 204.493 163.181 202.573 160.55 197.543L139.94 158.14Z" fill="#EF948C"/>
<path d="M152.282 142.7C157.458 144.963 159.843 151.004 157.608 156.193C155.373 161.381 149.365 163.752 144.189 161.489L136.127 157.964C130.951 155.7 128.566 149.659 130.801 144.471C133.036 139.283 139.044 136.911 144.22 139.175L152.282 142.7Z" fill="#EF948C"/>
<path d="M150.512 141.925C152.384 142.744 153.247 144.929 152.438 146.806C151.63 148.683 149.457 149.54 147.585 148.722L128.736 140.48C126.864 139.661 126.001 137.476 126.809 135.599C127.618 133.723 129.791 132.865 131.663 133.684L150.512 141.925Z" fill="#EF948C"/>
<path d="M155.907 143.906C157.02 145.599 156.557 147.883 154.872 149.009C153.186 150.134 150.917 149.673 149.804 147.98L143.494 138.387C142.381 136.694 142.844 134.409 144.53 133.284C146.215 132.159 148.484 132.619 149.598 134.312L155.907 143.906Z" fill="#EA8681"/>
<ellipse cx="149.786" cy="148.444" rx="7.2443" ry="7.29904" fill="#EA8681"/>
<path d="M194.836 159.888C200.29 155.669 208.1 156.694 212.279 162.179C216.459 167.663 215.426 175.53 209.973 179.749L178.452 204.136C172.999 208.356 165.189 207.33 161.009 201.846C156.829 196.361 157.862 188.495 163.316 184.275L194.836 159.888Z" fill="#F2E6D7"/>
<ellipse cx="170.904" cy="193.304" rx="13.337" ry="13.4378" fill="#FAEEDE"/>
<path d="M139.94 158.14C137.309 153.11 139.24 146.874 144.254 144.212C149.267 141.55 155.465 143.469 158.096 148.499L178.706 187.903C181.337 192.933 179.406 199.168 174.392 201.831C169.378 204.493 163.181 202.573 160.55 197.543L139.94 158.14Z" fill="#EF948C"/>
<path d="M152.282 142.7C157.458 144.964 159.843 151.004 157.608 156.193C155.373 161.381 149.365 163.753 144.189 161.489L136.127 157.964C130.951 155.7 128.566 149.66 130.801 144.471C133.036 139.283 139.044 136.912 144.22 139.175L152.282 142.7Z" fill="#EF948C"/>
<path d="M130.804 144.461C131.168 143.618 131.641 142.827 132.212 142.109C130.708 147.086 133.155 152.408 137.896 154.469L138.888 154.904L142.752 156.594L145.565 161.976L162.341 194.053C163.957 197.137 167.005 199.193 170.45 199.522C173.896 199.851 177.274 198.41 179.436 195.688C178.225 199.698 174.732 202.574 170.591 202.972C166.45 203.37 162.48 201.21 160.539 197.503L140.95 160.043L136.091 157.919C133.617 156.842 131.67 154.819 130.678 152.294C129.687 149.77 129.732 146.952 130.804 144.461Z" fill="#EA8681"/>
<path d="M150.512 141.925C152.384 142.744 153.247 144.929 152.438 146.806C151.63 148.683 149.457 149.54 147.585 148.722L128.736 140.48C126.864 139.661 126.001 137.476 126.809 135.599C127.618 133.723 129.791 132.865 131.663 133.684L150.512 141.925Z" fill="#EF948C"/>
<path d="M155.907 143.905C157.02 145.598 156.557 147.883 154.872 149.008C153.186 150.134 150.917 149.673 149.804 147.98L143.494 138.387C142.381 136.694 142.844 134.409 144.53 133.284C146.215 132.158 148.484 132.619 149.598 134.312L155.907 143.905Z" fill="#EF948C"/>
<ellipse cx="149.786" cy="148.444" rx="7.2443" ry="7.29904" fill="#EF948C"/>
<ellipse cx="209.421" cy="173.148" rx="19.4763" ry="19.6235" fill="#F2E6D7"/>
<path d="M233.158 261.77C216.941 262.141 203.498 249.294 203.132 233.076L202.122 188.211C201.757 171.994 214.607 158.546 230.825 158.175C247.043 157.804 260.486 170.651 260.851 186.868L261.861 231.734C262.227 247.951 249.376 261.399 233.158 261.77Z" fill="#FAEEDE"/>
<path d="M193.676 172.32C193.436 160.218 202.979 150.211 214.99 149.969L247.721 149.31C259.733 149.068 269.665 158.682 269.905 170.784C270.301 190.752 254.557 207.262 234.74 207.661L230.273 207.751C210.457 208.149 194.073 192.286 193.676 172.32H193.676Z" fill="#FAEEDE"/>
<path d="M234.126 207.236H234.161C253.974 206.782 269.669 190.232 269.22 170.271C268.948 158.172 258.993 148.586 246.985 148.859L214.261 149.608C212.766 149.641 211.278 149.83 209.822 150.173L241.234 149.451H241.74C253.554 149.457 263.203 158.963 263.473 170.862C263.872 188.599 251.441 204.007 234.126 207.236Z" fill="#FFF7EE"/>
<path d="M219.645 133.603L220.066 152.278C220.186 158.096 224.907 162.746 230.683 162.736H230.924C233.742 162.672 236.418 161.481 238.364 159.426C240.309 157.372 241.364 154.623 241.297 151.784L241.157 145.386L240.876 133.113C240.747 127.298 236.031 122.653 230.259 122.654H230.014C224.151 122.796 219.511 127.696 219.645 133.603Z" fill="#EF948C"/>
<path d="M169.494 263.228C160.218 263.44 152.529 256.093 152.321 246.817C152.112 237.542 159.462 229.85 168.737 229.638L244.974 227.895C254.25 227.683 261.938 235.031 262.147 244.306C262.356 253.582 255.006 261.273 245.731 261.485L169.494 263.228Z" fill="#332D52"/>
<path d="M228.897 245.899V346.216H262.247V245.899C262.247 236.62 254.782 229.098 245.572 229.098C236.363 229.098 228.897 236.62 228.897 245.899Z" fill="#666DA2"/>
<path d="M228.897 245.899V346.216H237.569V261.152C237.57 255.219 240.677 249.726 245.742 246.7C250.807 243.674 257.08 243.563 262.247 246.409V245.883C262.247 236.604 254.782 229.082 245.572 229.082C236.363 229.082 228.897 236.604 228.897 245.883L228.897 245.899Z" fill="#555A8B"/>
<path d="M228.897 331.759V346.208H262.247V337.035L228.897 331.759Z" fill="#141334"/>
<path d="M118.63 334.954L148.358 346.961L151.716 338.192L184.455 252.736C187.77 244.076 183.491 234.348 174.896 231.007C166.301 227.667 156.646 231.979 153.33 240.639L122.653 320.756L118.642 331.21L118.63 334.954Z" fill="#332D52"/>
<path d="M138.728 360.48L115.394 351.404L120.329 338.524L143.663 347.601L138.728 360.48Z" fill="#EA8681"/>
<path d="M258.081 361.727H233.068V348.823H258.081V361.727Z" fill="#EF948C"/>
<path d="M219.646 133.603L220.066 152.278C220.086 153.259 220.241 154.232 220.525 155.171H221.303C229.066 155.175 236.393 151.556 241.145 145.371L240.865 133.097C240.736 127.283 236.02 122.637 230.247 122.639H230.014C227.196 122.706 224.52 123.9 222.575 125.956C220.63 128.013 219.577 130.763 219.646 133.603Z" fill="#EA8681"/>
<path d="M201.223 124.853C201.224 138.288 211.643 149.381 224.956 150.122C225.403 150.145 225.851 150.157 226.306 150.157C235.352 150.27 243.76 145.473 248.316 137.598C252.871 129.723 252.871 119.988 248.316 112.113C243.76 104.238 235.352 99.4403 226.306 99.5537C225.851 99.5537 225.403 99.5537 224.956 99.589C211.643 100.328 201.224 111.42 201.223 124.853Z" fill="#EF948C"/>
<path d="M215.973 131.682C215.974 133.18 216.568 134.616 217.622 135.673C217.751 135.802 217.887 135.924 218.011 136.037C219.016 136.871 220.278 137.324 221.579 137.319H221.809C224.725 137.31 227.147 135.05 227.38 132.121C227.38 131.964 227.38 131.808 227.38 131.651C227.383 131.357 227.268 131.074 227.061 130.867C226.854 130.661 226.574 130.547 226.283 130.549L217.015 130.573C216.427 130.596 215.964 131.089 215.973 131.682Z" fill="#962F4A"/>
<path d="M221.704 136.449C221.704 136.741 221.733 137.033 221.789 137.319H221.82C224.737 137.31 227.159 135.05 227.392 132.121C226.989 132.002 226.571 131.943 226.151 131.945C224.968 131.948 223.835 132.424 223.001 133.269C222.167 134.114 221.701 135.258 221.704 136.449Z" fill="#E1617F"/>
<path d="M217.26 130.585C217.307 131.694 219.007 132.576 221.093 132.572C223.178 132.568 224.871 131.674 224.909 130.565L217.26 130.585Z" fill="white"/>
<path d="M201.223 124.854C201.224 138.288 211.643 149.381 224.956 150.122C225.649 150.087 226.337 150.02 227.018 149.922C214.585 148.202 205.32 137.498 205.32 124.854C205.32 112.209 214.585 101.505 227.018 99.7851C226.337 99.691 225.649 99.6244 224.956 99.5891C211.643 100.328 201.224 111.42 201.223 124.854Z" fill="#EA8681"/>
<path d="M247.055 169.859V170.122C247.3 178.479 252.832 185.108 259.586 185.206H260.022C267.049 185.021 272.628 177.844 272.472 169.181C272.394 164.383 271.383 160.502 268.581 157.699C266.906 156.143 264.915 154.972 262.746 154.269C260.974 153.74 259.095 153.691 257.299 154.128C251.369 155.571 246.93 162.121 247.055 169.859Z" fill="#FAEEDE"/>
<path d="M246.553 169.534V169.8C246.767 175.833 249.716 180.992 253.902 183.52C251.719 180.568 250.496 177.008 250.401 173.328C250.401 173.238 250.401 173.152 250.401 173.062C250.233 165.198 254.774 158.558 260.905 157.131C261.648 156.953 262.407 156.855 263.17 156.841C264.311 156.818 265.448 156.972 266.543 157.299C267.498 157.586 268.413 157.994 269.266 158.514C267.632 156.269 265.33 154.608 262.695 153.771C260.863 153.22 258.919 153.162 257.057 153.603C250.922 155.041 246.382 161.674 246.553 169.534Z" fill="#F2E6D7"/>
<path d="M251.745 175.808C248.866 169.567 251.577 162.146 257.801 159.231C264.024 156.317 271.403 159.012 274.282 165.253L291.105 201.717C293.983 207.957 291.272 215.379 285.048 218.293C278.825 221.208 271.446 218.512 268.567 212.272L251.745 175.808Z" fill="#FAEEDE"/>
<ellipse cx="278.927" cy="206.719" rx="13.337" ry="13.4378" fill="#F2E6D7"/>
<path d="M251.745 175.808C248.866 169.567 251.577 162.146 257.801 159.231C264.024 156.317 271.403 159.012 274.282 165.253L291.105 201.717C293.983 207.957 291.272 215.379 285.048 218.293C278.825 221.208 271.446 218.512 268.567 212.272L251.745 175.808Z" fill="#FAEEDE"/>
<path d="M251.299 166.503C253.732 162.634 258.067 160.412 262.603 160.71C267.14 161.007 271.153 163.776 273.067 167.93L289.836 204.284C291.195 207.224 291.368 210.58 290.318 213.645C291.581 211.639 292.256 209.314 292.263 206.938C292.262 205.118 291.863 203.321 291.096 201.674L274.328 165.32C272.197 160.688 267.488 157.823 262.427 158.082C257.367 158.341 252.969 161.67 251.315 166.496L251.299 166.503Z" fill="#FFF7EE"/>
<ellipse cx="278.927" cy="206.719" rx="13.337" ry="13.4378" fill="#F2E6D7"/>
<rect x="256.388" y="119.052" width="61.5337" height="24.2413" rx="12.1206" transform="rotate(-180 256.388 119.052)" fill="#332D52"/>
<ellipse cx="249.366" cy="120.291" rx="10.3801" ry="10.4586" fill="#332D52"/>
<ellipse cx="251.222" cy="122.16" rx="8.5243" ry="8.58872" fill="#49466B"/>
<ellipse cx="251.424" cy="124.858" rx="8.32199" ry="8.38488" fill="#EF948C"/>
<path d="M250.77 127.48V122.239C250.771 121.974 250.897 121.725 251.111 121.57C251.324 121.415 251.598 121.372 251.848 121.455C253.317 121.929 254.313 123.305 254.313 124.859C254.313 126.414 253.317 127.79 251.848 128.264C251.598 128.345 251.325 128.301 251.112 128.147C250.899 127.992 250.772 127.744 250.77 127.48H250.77Z" fill="#EA8681"/>
<ellipse cx="208.725" cy="103.246" rx="15.9009" ry="16.021" fill="#332D52"/>
<path d="M194.271 103.246C194.268 107.082 195.894 110.735 198.74 113.283C201.585 115.83 205.377 117.029 209.156 116.574C202.464 115.771 197.424 110.053 197.424 103.262C197.424 96.4713 202.464 90.7529 209.156 89.9498C205.377 89.4958 201.585 90.6941 198.74 93.2417C195.894 95.7894 194.268 99.4426 194.271 103.278V103.246Z" fill="#49466B"/>
<ellipse cx="221.315" cy="93.5562" rx="10.9404" ry="11.023" fill="#332D52"/>
<path d="M209.157 122.874C209.214 124.474 210.518 125.741 212.108 125.741C213.697 125.741 215.001 124.474 215.059 122.874C215.059 122.642 215.032 122.41 214.977 122.184C214.661 123.523 213.474 124.469 212.108 124.469C210.741 124.469 209.554 123.523 209.238 122.184C209.183 122.41 209.156 122.642 209.157 122.874Z" fill="#332D52"/>
<path d="M225.369 122.874C225.369 124.517 226.691 125.849 228.322 125.849C229.953 125.849 231.275 124.517 231.275 122.874C231.275 122.642 231.248 122.41 231.193 122.184C230.874 123.521 229.687 124.464 228.322 124.464C226.956 124.464 225.769 123.521 225.45 122.184C225.395 122.41 225.368 122.642 225.369 122.874Z" fill="#332D52"/>
<path d="M228.901 368.141H260.68C260.681 360.347 255.113 353.685 247.491 352.359C246.598 352.207 245.695 352.131 244.791 352.131C240.576 352.13 236.534 353.817 233.554 356.819C230.574 359.822 228.9 363.894 228.901 368.141Z" fill="#332D52"/>
<path d="M228.901 368.14H236.239C236.242 360.994 240.769 354.646 247.49 352.362C246.598 352.211 245.695 352.135 244.79 352.135C240.577 352.134 236.535 353.82 233.555 356.821C230.575 359.823 228.901 363.895 228.901 368.14Z" fill="#49466B"/>
<path d="M224.501 365.244C224.502 365.557 224.534 365.869 224.594 366.177C224.624 366.326 224.662 366.474 224.707 366.62C224.751 366.764 224.803 366.905 224.863 367.043C225.034 367.455 225.264 367.84 225.548 368.184C225.641 368.297 225.738 368.403 225.843 368.509C225.946 368.613 226.056 368.711 226.17 368.803C226.989 369.487 228.02 369.86 229.084 369.857H262.995C264.87 369.862 266.405 368.356 266.452 366.467C266.499 364.578 265.039 362.997 263.166 362.907L237.745 361.198L229.306 360.63C228.546 360.591 227.789 360.744 227.104 361.077C226.905 361.175 226.712 361.286 226.528 361.41C226.348 361.531 226.176 361.662 226.011 361.802C225.847 361.951 225.695 362.112 225.555 362.284C225.461 362.398 225.372 362.517 225.291 362.641C224.997 363.076 224.781 363.561 224.653 364.072C224.613 364.219 224.582 364.368 224.559 364.518C224.521 364.758 224.502 365.001 224.501 365.244H224.501Z" fill="#332D52"/>
<path d="M224.501 365.244C224.502 365.557 224.534 365.869 224.594 366.177C224.622 366.327 224.66 366.475 224.707 366.62C224.749 366.764 224.801 366.906 224.863 367.043C225.034 367.455 225.264 367.84 225.548 368.184C225.641 368.297 225.738 368.403 225.843 368.509C225.946 368.613 226.056 368.711 226.17 368.803C226.989 369.487 228.02 369.86 229.084 369.857H239.958C237.865 369.863 236.034 368.437 235.512 366.395C234.99 364.352 235.909 362.212 237.745 361.198L229.306 360.63C228.546 360.591 227.789 360.744 227.104 361.077C226.706 361.27 226.338 361.519 226.011 361.818C225.847 361.967 225.695 362.128 225.555 362.3C225.459 362.413 225.371 362.532 225.291 362.656C224.997 363.092 224.781 363.576 224.653 364.087C224.613 364.234 224.582 364.384 224.559 364.534C224.522 364.769 224.502 365.006 224.501 365.244H224.501Z" fill="#49466B"/>
<path d="M140.035 364.517L114.502 353.703L118.548 344.004L139.932 353.06C141.032 353.526 141.904 354.414 142.355 355.528C142.806 356.641 142.8 357.89 142.337 358.999L140.035 364.517Z" fill="#49466B"/>
<path d="M95.2085 348.983L124.505 361.39C126.704 356.117 125.945 350.063 122.513 345.507C119.08 340.951 113.497 338.587 107.865 339.304C102.233 340.021 97.4081 343.711 95.2085 348.983H95.2085Z" fill="#332D52"/>
<path d="M95.2085 348.983L103.441 352.488C106.174 345.933 112.871 341.98 119.883 342.782C115.999 339.602 110.856 338.451 106.001 339.675C101.147 340.899 97.1479 344.355 95.2085 349.003L95.2085 348.983Z" fill="#49466B"/>
<path d="M141.974 363.111L99.8889 342.817C98.758 342.272 97.4549 342.218 96.2832 342.667C95.1115 343.116 94.1733 344.029 93.6873 345.193C93.2155 346.322 93.2082 347.593 93.6672 348.728C94.1262 349.862 95.0137 350.766 96.1345 351.241L139.145 369.458C139.989 369.816 140.94 369.821 141.788 369.472C142.636 369.124 143.311 368.45 143.666 367.599C144.38 365.888 143.635 363.913 141.974 363.111Z" fill="#332D52"/>
<path d="M93.6873 345.197C92.7074 347.547 93.8028 350.252 96.1345 351.241L106.157 355.487C104.166 354.653 103.022 352.534 103.407 350.397C103.793 348.26 105.605 346.682 107.76 346.608L99.8928 342.809C98.76 342.264 97.4547 342.211 96.2818 342.662C95.1089 343.113 94.171 344.029 93.6873 345.197Z" fill="#49466B"/>
<path d="M278.93 225.629L281.557 233.171L286.175 246.456L329.104 369.877H338.678L305.772 246.456L302.231 233.171L300.22 225.629H278.93Z" fill="#441242"/>
<path d="M281.557 233.171L286.175 246.456H305.772L302.231 233.171H281.557Z" fill="#2F073A"/>
<path d="M141.798 225.629L139.172 233.171L134.554 246.456L91.6253 369.877H82.0505L114.957 246.456L118.498 233.171L120.509 225.629H141.798Z" fill="#441242"/>
<path d="M139.172 233.171L134.554 246.456H114.957L118.498 233.171H139.172Z" fill="#2F073A"/>
<path d="M327.088 238.914L99.0331 238.914C95.8876 238.916 93.3341 236.352 93.3256 233.183V225.649L332.796 225.649V233.183C332.787 236.352 330.234 238.916 327.088 238.914Z" fill="#441242"/>
<rect x="361.551" y="229.177" width="296.981" height="10.537" rx="5.26848" transform="rotate(-180 361.551 229.177)" fill="#D8BA9F"/>
<path d="M64.5701 223.912C64.5722 226.821 66.912 229.178 69.799 229.18H356.322C359.21 229.18 361.551 226.822 361.551 223.912C361.553 223.29 361.443 222.672 361.228 222.089C360.47 224.159 358.512 225.533 356.322 225.531H69.799C68.4116 225.534 67.0806 224.978 66.103 223.986C65.5655 223.453 65.1534 222.804 64.8969 222.089C64.6806 222.672 64.5699 223.29 64.5701 223.912Z" fill="#C89F87"/>
<ellipse cx="324.12" cy="233.908" rx="1.93363" ry="1.94824" fill="#D8BA9F"/>
<ellipse cx="323.699" cy="234.037" rx="2.3577" ry="2.37552" fill="#2F073A"/>
<ellipse cx="324.12" cy="233.908" rx="1.93363" ry="1.94824" fill="#D8BA9F"/>
<path d="M322.186 233.908C322.186 234.99 323.057 235.868 324.131 235.868H324.334C323.381 235.724 322.676 234.9 322.676 233.929C322.676 232.959 323.381 232.135 324.334 231.991C324.266 231.987 324.199 231.987 324.131 231.991C323.073 231.991 322.209 232.842 322.186 233.908H322.186Z" fill="#C89F87"/>
<path d="M324.12 234.974C324.218 235.006 324.32 235.022 324.423 235.021C325.034 235.021 325.528 234.523 325.528 233.908C325.528 233.293 325.034 232.795 324.423 232.795C324.32 232.794 324.218 232.81 324.12 232.842C324.597 232.973 324.927 233.41 324.927 233.908C324.927 234.406 324.597 234.843 324.12 234.974H324.12Z" fill="#F5EAE4"/>
<ellipse cx="313.304" cy="233.908" rx="1.93363" ry="1.94824" fill="#D8BA9F"/>
<ellipse cx="312.884" cy="234.037" rx="2.3577" ry="2.37552" fill="#2F073A"/>
<ellipse cx="313.304" cy="233.908" rx="1.93363" ry="1.94824" fill="#D8BA9F"/>
<path d="M311.374 233.908C311.374 234.99 312.245 235.868 313.32 235.868H313.522C312.569 235.724 311.864 234.9 311.864 233.929C311.864 232.959 312.569 232.135 313.522 231.991C313.455 231.987 313.387 231.987 313.32 231.991C312.262 231.991 311.398 232.842 311.374 233.908H311.374Z" fill="#C89F87"/>
<path d="M313.304 234.974C313.402 235.006 313.504 235.022 313.607 235.021C314.218 235.021 314.712 234.523 314.712 233.908C314.712 233.293 314.218 232.795 313.607 232.795C313.504 232.794 313.402 232.81 313.304 232.842C313.781 232.973 314.112 233.41 314.112 233.908C314.112 234.406 313.781 234.843 313.304 234.974H313.304Z" fill="#F5EAE4"/>
<ellipse cx="103.044" cy="233.908" rx="1.93363" ry="1.94824" fill="#D8BA9F"/>
<ellipse cx="103.464" cy="234.037" rx="2.3577" ry="2.37552" fill="#2F073A"/>
<ellipse cx="103.044" cy="233.908" rx="1.93363" ry="1.94824" fill="#D8BA9F"/>
<path d="M104.978 233.908C104.978 234.99 104.107 235.868 103.033 235.868H102.83C103.783 235.724 104.488 234.9 104.488 233.929C104.488 232.959 103.783 232.135 102.83 231.991C102.898 231.987 102.965 231.987 103.033 231.991C104.09 231.991 104.955 232.842 104.978 233.908Z" fill="#C89F87"/>
<path d="M103.044 234.974C102.946 235.006 102.844 235.022 102.741 235.021C102.346 235.021 101.981 234.809 101.784 234.465C101.586 234.12 101.586 233.696 101.784 233.351C101.981 233.007 102.346 232.795 102.741 232.795C102.844 232.794 102.946 232.81 103.044 232.842C102.572 232.978 102.247 233.413 102.247 233.908C102.247 234.403 102.572 234.838 103.044 234.974Z" fill="#F5EAE4"/>
<ellipse cx="113.86" cy="233.908" rx="1.93363" ry="1.94824" fill="#D8BA9F"/>
<ellipse cx="114.28" cy="234.037" rx="2.3577" ry="2.37552" fill="#2F073A"/>
<ellipse cx="113.86" cy="233.908" rx="1.93363" ry="1.94824" fill="#D8BA9F"/>
<path d="M115.79 233.908C115.79 234.99 114.919 235.868 113.845 235.868H113.642C114.595 235.724 115.3 234.9 115.3 233.929C115.3 232.959 114.595 232.135 113.642 231.991C113.71 231.987 113.777 231.987 113.845 231.991C114.902 231.991 115.767 232.842 115.79 233.908Z" fill="#C89F87"/>
<path d="M113.86 234.974C113.762 235.006 113.66 235.022 113.557 235.021C112.946 235.021 112.452 234.523 112.452 233.908C112.452 233.293 112.946 232.795 113.557 232.795C113.66 232.794 113.762 232.81 113.86 232.842C113.383 232.973 113.052 233.41 113.052 233.908C113.052 234.406 113.383 234.843 113.86 234.974Z" fill="#F5EAE4"/>
<path d="M230.794 198.682C232.831 198.494 234.632 199.993 234.818 202.031C235.003 204.068 233.501 205.872 231.464 206.06L220.116 207.106C218.079 207.294 216.278 205.795 216.093 203.757C215.907 201.72 217.409 199.916 219.446 199.728L230.794 198.682Z" fill="#EA8681"/>
<ellipse cx="232.259" cy="205.496" rx="7.2443" ry="7.29904" fill="#EA8681"/>
<path d="M236.196 218.849C230.487 218.792 225.904 214.117 225.96 208.407C226.016 202.697 230.691 198.115 236.401 198.172L280.363 198.613C286.073 198.67 290.655 203.345 290.599 209.055C290.543 214.765 285.868 219.347 280.159 219.29L236.196 218.849Z" fill="#EF948C"/>
<path d="M228.421 200.528C232.841 197.026 239.237 197.791 242.707 202.237C246.177 206.683 245.407 213.126 240.986 216.629L234.023 222.145C229.603 225.648 223.206 224.883 219.737 220.437C216.267 215.991 217.037 209.547 221.458 206.045L228.421 200.528Z" fill="#EF948C"/>
<path d="M226.884 201.742C228.483 200.475 230.797 200.752 232.052 202.36C233.307 203.968 233.029 206.299 231.43 207.566L215.258 220.378C213.659 221.645 211.346 221.369 210.091 219.76C208.835 218.152 209.114 215.821 210.713 214.555L226.884 201.742Z" fill="#EF948C"/>
<path d="M230.794 198.682C232.831 198.494 234.632 199.993 234.818 202.031C235.003 204.068 233.501 205.872 231.464 206.06L220.116 207.106C218.079 207.294 216.278 205.795 216.093 203.757C215.907 201.72 217.409 199.916 219.446 199.728L230.794 198.682Z" fill="#EF948C"/>
<ellipse cx="232.259" cy="205.496" rx="7.2443" ry="7.29904" fill="#EF948C"/>
<path d="M236.196 218.849C230.487 218.792 225.904 214.117 225.96 208.407C226.016 202.697 230.691 198.115 236.401 198.172L280.363 198.613C286.073 198.67 290.655 203.345 290.599 209.055C290.543 214.765 285.868 219.347 280.159 219.29L236.196 218.849Z" fill="#EF948C"/>
<path d="M228.421 200.528C232.841 197.026 239.237 197.791 242.707 202.237C246.177 206.683 245.407 213.126 240.986 216.629L234.023 222.145C229.603 225.648 223.206 224.883 219.737 220.437C216.267 215.991 217.037 209.547 221.458 206.045L228.421 200.528Z" fill="#EF948C"/>
<path d="M218.751 217.848C222.221 222.294 228.612 223.065 233.025 219.569L234.192 218.64L237.18 216.288L241.39 216.327L279.199 216.719C284.866 216.775 289.506 212.193 289.563 206.484V206.378C289.564 205.54 289.462 204.705 289.26 203.893C290.13 205.439 290.586 207.187 290.583 208.965V209.071C290.527 214.781 285.889 219.364 280.222 219.31L238.204 218.89L234.041 222.187C231.326 224.335 227.716 224.949 224.452 223.818C221.188 222.687 218.716 219.965 217.887 216.589C218.144 217.03 218.432 217.45 218.751 217.848Z" fill="#F3A6A0"/>
<path d="M226.884 201.742C228.483 200.475 230.797 200.752 232.052 202.36C233.307 203.968 233.029 206.299 231.43 207.566L215.258 220.378C213.659 221.645 211.346 221.369 210.091 219.76C208.835 218.152 209.114 215.821 210.713 214.555L226.884 201.742Z" fill="#EF948C"/>
<path d="M231.88 208.392C233.276 207.286 235.296 207.527 236.392 208.931C237.488 210.335 237.244 212.37 235.848 213.476L231.16 217.191C229.764 218.297 227.744 218.055 226.648 216.651C225.553 215.247 225.796 213.212 227.192 212.106L231.88 208.392Z" fill="#F3A6A0"/>
<ellipse cx="207.18" cy="123.121" rx="10.7342" ry="10.8153" stroke="white" stroke-width="2.85"/>
<ellipse cx="232.508" cy="123.121" rx="10.7342" ry="10.8153" stroke="white" stroke-width="2.85"/>
<path d="M217.906 123.544H221.781" stroke="white" stroke-width="2.85"/>
<path d="M118.63 334.954L148.358 346.961L151.716 338.192L122.653 320.755L118.642 331.214L118.63 334.954Z" fill="#141334"/>
<path d="M162.041 215.374H155.956V214.198C155.956 213.085 156.852 212.183 157.956 212.183H160.045C161.15 212.183 162.045 213.085 162.045 214.198V215.374L162.041 215.374Z" fill="#ABB2D8"/>
<path d="M168.126 215.374H162.041V214.198C162.041 213.085 162.937 212.183 164.041 212.183H166.13C167.235 212.183 168.13 213.085 168.13 214.198V215.374L168.126 215.374Z" fill="#ABB2D8"/>
<path d="M174.215 215.374H168.13V214.198C168.13 213.085 169.025 212.183 170.13 212.183H172.219C173.323 212.183 174.219 213.085 174.219 214.198V215.374L174.215 215.374Z" fill="#ABB2D8"/>
<path d="M180.3 215.374H174.215V214.198C174.215 213.085 175.11 212.183 176.215 212.183H178.304C179.408 212.183 180.304 213.085 180.304 214.198V215.374L180.3 215.374Z" fill="#ABB2D8"/>
<path d="M186.385 215.374H180.3V214.198C180.3 213.085 181.195 212.183 182.3 212.183H184.389C185.493 212.183 186.389 213.085 186.389 214.198V215.374L186.385 215.374Z" fill="#ABB2D8"/>
<path d="M192.473 215.374H186.388V214.198C186.388 213.085 187.284 212.183 188.388 212.183H190.474C191.578 212.183 192.473 213.085 192.473 214.198V215.374L192.473 215.374Z" fill="#ABB2D8"/>
<path d="M198.554 215.374H192.47V214.198C192.47 213.085 193.365 212.183 194.469 212.183H196.559C197.663 212.183 198.558 213.085 198.558 214.198V215.374L198.554 215.374Z" fill="#ABB2D8"/>
<rect x="206.647" y="218.639" width="69.4628" height="4.998" rx="2.499" transform="rotate(-180 206.647 218.639)" fill="#5D6295"/>
<path d="M156.318 218.639H98.3482C95.9191 218.64 93.8009 216.976 93.2087 214.602L81.926 169.381C81.528 167.784 81.8828 166.092 82.8877 164.793C83.8926 163.495 85.4354 162.736 87.0694 162.736H138.223C140.652 162.736 142.77 164.4 143.362 166.774L156.318 218.639Z" fill="#666DA2"/>
<path d="M81.9221 169.385L93.2048 214.602C93.7995 216.976 95.9179 218.641 98.3482 218.643H156.318L155.069 213.645H109.277C106.846 213.644 104.727 211.979 104.134 209.604L92.8508 164.387C92.7165 163.848 92.6653 163.291 92.6991 162.736H87.0655C85.4312 162.738 83.8886 163.497 82.8838 164.796C81.8791 166.095 81.5243 167.788 81.9221 169.385Z" fill="#5D6295"/>
<ellipse cx="115.49" cy="192.183" rx="2.90239" ry="2.92432" fill="#ABB2D8"/>
<path d="M111.607 196.558C112.869 198.521 115.187 199.514 117.465 199.067C119.742 198.62 121.522 196.824 121.96 194.528C122.399 192.232 121.409 189.899 119.459 188.632C120.887 190.898 120.564 193.859 118.68 195.757C116.796 197.656 113.856 197.982 111.607 196.542L111.607 196.558Z" fill="#ABB2D8"/>
<path d="M228.897 348.901H262.248L265.648 340.265L222.828 333.492L228.897 348.901Z" fill="#332D52"/>
<ellipse cx="259.477" cy="345.303" rx="2.08147" ry="2.0972" fill="#141334"/>
<ellipse cx="259.598" cy="345.871" rx="1.51733" ry="1.5288" fill="#666DA2"/>
<path d="M259.583 346.871C259.649 346.883 259.717 346.89 259.785 346.89C260.32 346.857 260.737 346.41 260.737 345.869C260.737 345.329 260.32 344.881 259.785 344.848C259.717 344.848 259.649 344.856 259.583 344.871C260.049 344.974 260.381 345.39 260.381 345.871C260.381 346.352 260.049 346.768 259.583 346.871Z" fill="#332D52"/>
<path d="M259.831 344.593C259.746 344.574 259.658 344.565 259.571 344.566C258.884 344.603 258.346 345.176 258.346 345.869C258.346 346.562 258.884 347.134 259.571 347.172C259.658 347.173 259.746 347.164 259.831 347.145C259.235 347.015 258.809 346.484 258.809 345.869C258.809 345.254 259.235 344.723 259.831 344.593Z" fill="#9DA5D1"/>
<path d="M116.14 336.996L147.094 349.497L153.439 342.759L116.194 320.418L116.14 336.996Z" fill="#262344"/>
<ellipse cx="146.016" cy="343.856" rx="2.08147" ry="2.0972" fill="#141334"/>
<ellipse cx="146.136" cy="344.424" rx="1.51733" ry="1.5288" fill="#666DA2"/>
<path d="M146.136 345.432C146.203 345.448 146.271 345.456 146.339 345.455C146.874 345.422 147.291 344.975 147.291 344.434C147.291 343.894 146.874 343.447 146.339 343.413C146.271 343.407 146.204 343.407 146.136 343.413C146.603 343.516 146.935 343.932 146.935 344.413C146.935 344.894 146.603 345.31 146.136 345.412L146.136 345.432Z" fill="#332D52"/>
<path d="M146.366 343.147C146.28 343.127 146.193 343.118 146.105 343.119C145.418 343.157 144.881 343.729 144.881 344.423C144.881 345.116 145.418 345.688 146.105 345.726C146.193 345.727 146.28 345.718 146.366 345.699C145.77 345.569 145.344 345.037 145.344 344.423C145.344 343.808 145.77 343.276 146.366 343.147Z" fill="#9DA5D1"/>
</svg>
