<svg width="980" height="980" viewBox="0 0 980 980" fill="none" xmlns="http://www.w3.org/2000/svg">
<path d="M912.018 510.678V580.16C912.028 591.535 907.514 602.448 899.472 610.492C891.429 618.537 880.518 623.053 869.143 623.045C860.026 623.04 851.281 626.659 844.834 633.105C838.388 639.552 834.769 648.297 834.774 657.414V662.676C834.774 671.794 831.152 680.538 824.705 686.985C818.258 693.432 809.513 697.055 800.396 697.055H157.868C141.258 697.058 126.034 687.794 118.403 673.041C110.771 658.288 112.008 640.51 121.608 626.955C123.068 624.887 124.708 622.952 126.508 621.173C134.821 612.852 146.106 608.183 157.868 608.198H193.06C225.007 608.2 252.014 584.537 256.211 552.867C256.466 550.966 256.633 549.039 256.711 547.085C256.711 546.233 256.76 545.37 256.76 544.508C256.776 527.609 250.07 511.397 238.12 499.448C226.171 487.498 209.959 480.792 193.06 480.808H179.183C172.901 480.81 166.638 480.126 160.505 478.769C124.785 470.777 98.0421 441.045 93.8645 404.681C93.6391 402.721 93.4823 400.849 93.3941 398.899C93.3353 397.593 93.3059 396.26 93.3059 394.901C93.3007 372.113 102.351 350.257 118.465 334.143C134.578 318.029 156.434 308.979 179.223 308.984H180.497C193.371 308.979 205.482 302.873 213.142 292.525C220.803 282.177 223.107 268.811 219.354 256.495C218.753 254.511 217.996 252.578 217.09 250.714C210.313 236.667 196.093 227.74 180.497 227.742H164.885C141.428 227.742 122.412 208.726 122.412 185.269C122.412 184.289 122.412 183.309 122.51 182.407C122.635 180.464 122.897 178.532 123.294 176.625C127.4 156.925 144.761 142.804 164.885 142.796H453.819C472.589 142.799 487.887 157.857 488.187 176.625V177.174V191.296C488.182 200.415 491.802 209.163 498.251 215.611C504.699 222.059 513.446 225.68 522.566 225.674C540.176 225.671 554.94 238.979 556.758 256.495C556.876 257.678 556.935 258.865 556.934 260.053V274.616C556.94 293.599 572.33 308.984 591.312 308.984H639.019C658.876 308.949 678.354 314.428 695.281 324.811C698.208 326.595 701.044 328.524 703.777 330.593C707.846 333.642 711.691 336.98 715.283 340.579C731.151 356.405 741.674 376.796 745.378 398.899C745.711 400.81 745.976 402.731 746.192 404.681C746.648 408.719 746.877 412.78 746.878 416.843C746.878 425.958 750.499 434.7 756.944 441.145C763.389 447.591 772.131 451.212 781.246 451.212H852.6C868.361 451.209 883.477 457.47 894.621 468.615C905.765 479.761 912.023 494.878 912.018 510.639V510.678Z" fill="#F3F4FE"/>
<rect x="855.03" y="688.47" width="72.5788" height="17.2578" rx="8.6289" fill="#D2D6FA"/>
<rect x="54.2627" y="688.47" width="793.741" height="17.2578" rx="8.6289" fill="#D2D6FA"/>
<path d="M488.197 177.213V182.447H122.5C122.625 180.503 122.887 178.571 123.284 176.665H488.187C488.197 176.851 488.197 177.027 488.197 177.213V177.213Z" fill="#EDEEFE"/>
<path d="M556.768 256.534H219.314C218.713 254.55 217.956 252.617 217.051 250.752H555.66C556.194 252.644 556.565 254.579 556.768 256.534V256.534Z" fill="#EDEEFE"/>
<path d="M703.787 330.632H122.216C124.531 328.576 126.955 326.646 129.478 324.85H695.29C698.218 326.634 701.054 328.564 703.787 330.632V330.632Z" fill="#EDEEFE"/>
<path d="M746.202 404.74H93.8254C93.6 402.78 93.4432 400.908 93.355 398.958H745.388C745.721 400.82 745.986 402.78 746.202 404.74Z" fill="#EDEEFE"/>
<path d="M902.757 478.808H160.505C154.596 477.499 148.843 475.564 143.345 473.036H898.572C900.081 474.875 901.479 476.802 902.757 478.808V478.808Z" fill="#EDEEFE"/>
<path d="M912.017 547.124V552.906H256.192C256.446 551.005 256.613 549.077 256.691 547.124H912.017Z" fill="#EDEEFE"/>
<path d="M881.696 621.212C877.629 622.461 873.397 623.092 869.143 623.084C863.592 623.078 858.122 624.423 853.208 627.004H121.618C123.078 624.936 124.718 623.001 126.518 621.222L881.696 621.212Z" fill="#EDEEFE"/>
<path d="M190.346 628.282C177.668 616.455 176.978 596.589 188.805 583.911L286.617 479.056C298.444 466.378 318.31 465.687 330.989 477.514V477.514C343.667 489.342 344.358 509.207 332.53 521.886L234.718 626.74C222.891 639.419 203.025 640.109 190.346 628.282V628.282Z" fill="#FFA84D"/>
<path d="M190.346 628.282C177.668 616.455 176.978 596.589 188.805 583.911L286.617 479.056C298.444 466.378 318.31 465.687 330.989 477.514V477.514C343.667 489.342 344.358 509.207 332.53 521.886L234.718 626.74C222.891 639.419 203.025 640.109 190.346 628.282V628.282Z" fill="#FFA84D"/>
<path d="M341.04 500.976C339.344 497.174 336.897 493.754 333.847 490.921L333.69 490.774C327.623 485.114 319.555 482.095 311.263 482.384C302.97 482.673 295.131 486.244 289.472 492.313L191.472 597.32C186.172 602.981 183.176 610.419 183.074 618.174C177.9 606.681 180.13 593.206 188.728 583.992L286.728 478.985C292.391 472.917 300.231 469.347 308.525 469.06C316.82 468.773 324.888 471.794 330.956 477.456L331.103 477.593C337.589 483.62 341.203 492.123 341.04 500.976V500.976Z" fill="#FFBE83"/>
<path d="M526.26 685.863C518.388 688.583 509.756 688.06 502.27 684.409C494.784 680.758 489.058 674.278 486.354 666.4L474.183 630.934L467.636 611.814L434.855 517.548C431.218 506.937 433.517 495.192 440.887 486.737C448.257 478.281 459.578 474.4 470.586 476.555C481.594 478.709 490.616 486.573 494.253 497.183L521.801 576.201L545.742 646.045C551.349 662.42 542.629 680.241 526.26 685.863V685.863Z" fill="#FFA84D"/>
<path d="M528.563 684.951C527.808 685.294 527.024 685.588 526.231 685.863C518.361 688.577 509.734 688.051 502.253 684.4C494.771 680.75 489.048 674.274 486.345 666.4L451.231 563.931C447.8 553.987 449.585 542.984 455.982 534.633C462.379 526.282 472.537 521.695 483.032 522.418C468.013 528.932 460.531 545.902 465.853 561.383L500.966 663.813C505.061 675.779 515.943 684.115 528.563 684.951V684.951Z" fill="#FFBE83"/>
<path d="M310.797 526.084H462.364V688.47H310.797V526.084Z" fill="#FFDAB2"/>
<path d="M327.83 460.914H445.332C472.594 460.914 494.694 483.014 494.694 510.276C494.694 548.25 463.911 579.033 425.937 579.033H347.224C309.251 579.033 278.467 548.25 278.467 510.276C278.467 483.014 300.567 460.914 327.83 460.914V460.914Z" fill="#FFDAB2"/>
<path d="M310.797 526.084H462.364V688.47H310.797V526.084Z" fill="#FFDAB2"/>
<path d="M327.83 460.914H445.332C472.594 460.914 494.694 483.014 494.694 510.276C494.694 548.25 463.911 579.033 425.937 579.033H347.224C309.251 579.033 278.467 548.25 278.467 510.276C278.467 483.014 300.567 460.914 327.83 460.914V460.914Z" fill="#FFDAB2"/>
<rect x="484.718" y="624.926" width="179.575" height="62.7886" rx="31.3943" fill="#FF9F8C"/>
<ellipse cx="651.18" cy="652.162" rx="43.8844" ry="34.4274" transform="rotate(-24.43 651.18 652.162)" fill="#FF9F8C"/>
<path d="M691.116 634.06C690.554 632.807 689.898 631.599 689.156 630.444C693.272 646.888 681.913 666.116 661.794 675.259C659.921 676.115 658.001 676.861 656.041 677.494C648.027 680.224 639.445 680.848 631.12 679.307C630.522 679.356 629.924 679.365 629.327 679.365H617.743L512.54 679.444C501.668 679.454 491.566 673.832 485.845 664.587C489.553 678.27 501.979 687.764 516.156 687.744L632.953 687.676C633.55 687.676 634.148 687.676 634.736 687.617C644.154 689.499 655.032 688.303 665.42 683.589C687.46 673.564 698.975 651.406 691.116 634.06V634.06Z" fill="#F78F7A"/>
<path d="M444.92 460.914H420.665C433.757 460.911 446.313 466.109 455.573 475.365C464.832 484.62 470.035 497.175 470.037 510.266C470.05 530.972 460.72 550.577 444.646 563.627C440.289 567.137 437.741 572.419 437.707 578.014V688.47H462.364V568.586C482.324 556.113 494.523 534.302 494.704 510.766C494.9 483.365 472.36 460.914 444.92 460.914V460.914Z" fill="#FFECD9"/>
<path d="M642.624 608.831C645.725 604.743 651.553 603.942 655.641 607.043V607.043C659.729 610.144 660.529 615.971 657.428 620.06L642.723 639.447C639.623 643.535 633.795 644.335 629.707 641.235V641.235C625.619 638.134 624.818 632.306 627.919 628.218L642.624 608.831Z" fill="#FF9F8C"/>
<path d="M357.7 664.881H367.824C380.851 664.881 391.412 675.442 391.412 688.47H334.062C334.062 682.205 336.554 676.198 340.989 671.773C345.423 667.347 351.436 664.868 357.7 664.881Z" fill="#4970DB"/>
<path d="M340.06 650.573C341.739 665.443 332.679 679.427 318.422 683.971L317.677 684.207C316.942 684.432 316.187 684.618 315.423 684.775C315.178 684.834 314.923 684.873 314.658 684.922L313.953 685.049H313.816L313.198 685.138H313.139C311.808 685.324 310.466 685.422 309.121 685.432C308.671 685.432 308.2 685.432 307.74 685.432C307.044 685.432 306.338 685.363 305.652 685.294C304.966 685.226 304.153 685.108 303.398 684.981C302.267 684.781 301.147 684.516 300.047 684.187C298.169 683.639 296.348 682.914 294.608 682.021L292.785 681.1L198.156 632.825C188.75 628.028 182.389 618.82 181.231 608.325C181.061 606.845 180.999 605.355 181.045 603.866C181.045 603.112 181.114 602.357 181.202 601.612C181.29 600.867 181.378 600.113 181.506 599.358C181.711 598.232 181.973 597.117 182.29 596.016C182.407 595.644 182.515 595.272 182.643 594.899C182.888 594.174 183.162 593.439 183.466 592.714C183.77 591.989 184.103 591.273 184.446 590.568C184.622 590.234 184.789 589.901 184.975 589.588C185.464 588.701 186.004 587.844 186.592 587.02C186.631 586.956 186.674 586.894 186.719 586.834C186.866 586.608 187.023 586.393 187.18 586.177C192.22 579.379 199.787 574.9 208.172 573.751C208.711 573.682 209.25 573.614 209.789 573.574C215.627 573.058 221.491 574.207 226.703 576.887L323.145 626.102C332.54 630.896 338.895 640.091 340.06 650.573V650.573Z" fill="#FF9F8C"/>
<ellipse cx="318.223" cy="654.091" rx="34.4274" ry="43.8844" transform="rotate(-83.71 318.223 654.091)" fill="#FF9F8C"/>
<path d="M326.036 688.372C322.181 688.763 318.294 688.744 314.443 688.313C306.791 687.5 299.405 685.039 292.795 681.1L198.156 632.825C188.75 628.029 182.389 618.82 181.231 608.325C181.061 606.845 180.999 605.355 181.045 603.866C181.045 603.112 181.114 602.357 181.202 601.612C181.29 600.867 181.378 600.113 181.506 599.358C181.711 598.232 181.973 597.117 182.29 596.016C182.407 595.644 182.515 595.272 182.643 594.899C182.888 594.174 183.162 593.439 183.466 592.714C183.77 591.989 184.103 591.273 184.446 590.568C184.622 590.234 184.789 589.901 184.975 589.588C185.464 588.701 186.004 587.844 186.592 587.02C186.631 586.956 186.674 586.894 186.719 586.834C186.866 586.608 187.023 586.393 187.18 586.177C192.22 579.379 199.787 574.9 208.172 573.751C208.711 573.682 209.25 573.614 209.789 573.574L200.635 585.06C200.292 585.481 199.969 585.922 199.655 586.354C199.499 586.559 199.352 586.785 199.195 587.01L199.067 587.187C193.275 595.825 192.143 606.772 196.044 616.413C199.944 626.054 208.371 633.134 218.54 635.314C217.785 635.452 217.021 635.569 216.266 635.657H215.943L279.124 667.899L305.29 681.257L307.112 682.188C308.86 683.074 310.684 683.802 312.561 684.363C313.277 684.569 313.982 684.746 314.698 684.902L313.992 685.03H313.855L313.237 685.118C317.355 686.72 321.653 687.813 326.036 688.372V688.372Z" fill="#FFC3B5"/>
<path d="M323.194 619.948H322.881L323.39 620.026L323.194 619.948Z" fill="#FCB798"/>
<path d="M329.367 612.465C334.25 610.89 339.486 613.571 341.061 618.454V618.454C342.636 623.338 339.955 628.573 335.072 630.149L311.914 637.619C307.031 639.195 301.795 636.513 300.22 631.63V631.63C298.644 626.747 301.326 621.511 306.209 619.936L329.367 612.465Z" fill="#FF9F8C"/>
<path d="M378.092 653.304C382.524 655.889 384.02 661.578 381.435 666.01V666.01C378.849 670.442 373.16 671.938 368.729 669.353L335.589 650.019C331.157 647.433 329.661 641.744 332.246 637.313V637.313C334.832 632.881 340.521 631.384 344.952 633.97L378.092 653.304Z" fill="#FF9F8C"/>
<path d="M371.631 670.404C376.063 672.99 377.559 678.678 374.974 683.11V683.11C372.388 687.542 366.699 689.039 362.268 686.453L329.128 667.119C324.696 664.533 323.2 658.845 325.785 654.413V654.413C328.371 649.981 334.06 648.484 338.492 651.07L371.631 670.404Z" fill="#FF9F8C"/>
<path d="M347.423 675.692C351.855 678.277 353.351 683.966 350.766 688.398V688.398C348.18 692.83 342.491 694.327 338.059 691.741L304.92 672.407C300.488 669.821 298.991 664.133 301.577 659.701V659.701C304.163 655.269 309.851 653.772 314.283 656.358L347.423 675.692Z" fill="#FF9F8C"/>
<ellipse cx="314.741" cy="650.085" rx="17.2186" ry="21.9422" transform="rotate(-83.71 314.741 650.085)" fill="#FFC3B5"/>
<path d="M395.783 393.235L373.762 318.079C372.833 315.04 373.359 311.743 375.186 309.144C377.013 306.545 379.938 304.934 383.111 304.78C406.211 304.024 426.918 318.931 433.53 341.077C440.142 363.222 430.999 387.042 411.267 399.076C408.513 400.791 405.117 401.126 402.082 399.981C399.046 398.835 396.718 396.341 395.783 393.235V393.235Z" fill="#082A3C"/>
<path d="M411.943 406.445L411.816 432.455L411.639 463.54L343.96 464.02L344.196 418.284L344.264 406.926L411.943 406.445Z" fill="#FF9F8C"/>
<path d="M418.636 445.704C420.026 445.674 421.363 446.235 422.314 447.249C423.265 448.262 423.742 449.631 423.625 451.016L423.233 455.573L422.566 463.148C422.342 465.633 420.288 467.552 417.794 467.607L338.531 469.42C337.144 469.447 335.809 468.885 334.86 467.872C333.911 466.859 333.436 465.491 333.553 464.108L334.601 451.976C334.825 449.492 336.88 447.572 339.374 447.517L418.636 445.704Z" fill="#FFDAB2"/>
<path d="M411.953 406.818L412.011 439.53C407.713 441.834 402.914 443.046 398.037 443.058H385.63C369.064 443.122 353.557 434.922 344.284 421.194V406.906L411.953 406.818Z" fill="#FE8F77"/>
<path d="M399.621 435.039L387.234 435.074C359.76 435.151 337.427 412.941 337.35 385.468L337.247 348.385C337.224 341.202 340.056 334.304 345.12 329.21C350.184 324.116 357.065 321.243 364.248 321.222L404.301 321.111C418.064 321.072 429.253 332.199 429.292 345.962L429.456 405.037C429.503 421.56 416.145 434.993 399.621 435.039Z" fill="#FF9F8C"/>
<path d="M429.24 345.999L429.407 405.054C429.43 412.991 426.299 420.611 420.702 426.239C415.106 431.867 407.502 435.041 399.566 435.061H387.188C380.908 435.081 374.68 433.914 368.833 431.622C372.823 432.641 376.925 433.158 381.044 433.16H393.421C401.358 433.139 408.961 429.966 414.558 424.338C420.154 418.71 423.285 411.089 423.262 403.153L423.095 343.98C423.069 334.373 417.521 325.637 408.836 321.528C420.647 323.701 429.226 333.991 429.24 345.999V345.999Z" fill="#FFC3B5"/>
<path d="M410.101 395.459C410.154 397.64 409.344 399.753 407.847 401.339C407.66 401.535 407.464 401.722 407.268 401.898C405.826 403.159 403.989 403.876 402.074 403.927H401.741C397.446 404.045 393.776 400.856 393.294 396.586C393.294 396.361 393.294 396.126 393.245 395.9C393.235 395.475 393.393 395.063 393.686 394.754C393.975 394.443 394.378 394.262 394.803 394.254L408.454 393.872C408.885 393.859 409.302 394.02 409.612 394.319C409.922 394.618 410.098 395.029 410.101 395.459V395.459Z" fill="#962F4A"/>
<path d="M401.869 402.692C401.879 403.118 401.849 403.545 401.781 403.966H401.732C397.439 404.084 393.771 400.894 393.294 396.626C395.261 395.993 397.411 396.322 399.097 397.516C400.784 398.709 401.811 400.626 401.869 402.692V402.692Z" fill="#E1617F"/>
<path d="M408.141 393.96C408.141 395.587 405.671 396.959 402.594 397.047C399.517 397.135 396.988 395.9 396.88 394.283L408.141 393.96Z" fill="white"/>
<circle cx="387.071" cy="374.644" r="3.5574" fill="#541000"/>
<circle cx="418.881" cy="374.34" r="3.5574" fill="#541000"/>
<circle cx="347.498" cy="326.928" r="21.364" fill="#082A3C"/>
<circle cx="377.947" cy="314.501" r="32.1636" fill="#082A3C"/>
<circle cx="347.498" cy="326.928" r="21.364" fill="#082A3C"/>
<circle cx="377.947" cy="314.501" r="32.1636" fill="#082A3C"/>
<path d="M404.613 296.509C397.029 290.458 387.121 288.152 377.645 290.233C368.17 292.314 360.139 298.559 355.789 307.23C354.907 308.994 354.186 310.834 353.633 312.728C346.114 312.887 339.234 316.989 335.518 323.527C331.803 330.066 331.801 338.077 335.513 344.617C327.814 339.399 324.376 329.799 327.011 320.88C329.647 311.961 337.749 305.771 347.047 305.574C350.512 293.575 360.609 284.667 372.945 282.724C385.282 280.781 397.628 286.155 404.613 296.509V296.509Z" fill="#011923"/>
<circle cx="416.882" cy="310.562" r="42.1596" fill="#082A3C"/>
<circle cx="416.882" cy="310.562" r="42.1596" fill="#082A3C"/>
<path d="M459.042 310.562C459.049 322.57 453.932 334.011 444.978 342.011C436.023 350.011 424.08 353.811 412.149 352.457C433.541 350.14 449.751 332.079 449.751 310.562C449.751 289.045 433.541 270.984 412.149 268.667C424.08 267.313 436.023 271.113 444.978 279.113C453.932 287.113 459.049 298.554 459.042 310.562V310.562Z" fill="#0F4D68"/>
<path d="M330.093 379.456L328.653 331.848C328.58 329.921 329.397 328.069 330.868 326.823C332.339 325.578 334.301 325.078 336.189 325.468C349.866 328.589 359.734 340.52 360.232 354.54C360.731 368.561 351.737 381.163 338.315 385.248C336.435 385.834 334.388 385.513 332.777 384.378C331.166 383.244 330.175 381.425 330.093 379.456V379.456Z" fill="#082A3C"/>
<path d="M328.535 380.103L332.24 345.705C332.379 344.312 333.151 343.06 334.333 342.31C335.515 341.561 336.977 341.396 338.296 341.863C347.877 345.442 353.835 355.038 352.794 365.212C351.752 375.387 343.974 383.576 333.866 385.14C332.446 385.375 330.998 384.932 329.952 383.944C328.905 382.955 328.381 381.534 328.535 380.103V380.103Z" fill="#0F4D68"/>
<circle cx="340.442" cy="380.534" r="15.5232" fill="#FF9F8C"/>
<path d="M335.229 380.887C335.302 383.674 337.04 386.146 339.639 387.159C340.259 387.384 340.952 387.283 341.481 386.888C342.01 386.493 342.305 385.858 342.265 385.199L342.02 376.193C342.03 375.487 341.66 374.831 341.052 374.475C340.444 374.118 339.691 374.115 339.08 374.468C336.651 375.67 335.147 378.178 335.229 380.887V380.887Z" fill="#FB8265"/>
<path d="M693.017 367.147H753.003C775.767 367.147 794.221 385.602 794.221 408.366V579.347H693.017V367.147H693.017Z" fill="#011923"/>
<path d="M693.017 367.147H753.003C775.767 367.147 794.221 385.602 794.221 408.366V579.347H693.017V367.147H693.017Z" fill="#011923"/>
<path d="M794.212 408.366V579.347H752.64V408.366C752.64 385.624 734.222 367.18 711.48 367.147H753.042C775.787 367.174 794.212 385.621 794.212 408.366V408.366Z" fill="#082A3C"/>
<path d="M696.074 563.882C696.221 564.118 696.378 564.343 696.535 564.568C694.154 564.568 691.811 564.568 689.489 564.441C691.664 564.333 693.84 564.137 696.074 563.882Z" fill="#0F4D68"/>
<path d="M712.019 528.298C712.035 536.294 708.516 543.888 702.405 549.045L672.025 574.76L649.74 593.606L616.145 622.026C604.678 631.515 587.71 630.01 578.093 618.65C568.475 607.29 569.79 590.306 581.042 580.562L667.282 507.562C675.352 500.726 686.656 499.197 696.251 503.644C705.847 508.09 711.988 517.703 711.989 528.279L712.019 528.298Z" fill="#FFB2BF"/>
<path d="M672.025 574.76L649.74 593.606C644.726 587.967 641.963 580.679 641.978 573.133V570.821C641.964 553.822 648.717 537.517 660.745 525.505C661.941 524.31 663.166 523.173 664.45 522.085C661.045 537.482 662.55 553.559 668.752 568.057C669.752 570.36 670.849 572.604 672.025 574.76V574.76Z" fill="#FF6D8D"/>
<path d="M712.029 528.308C712.032 529.373 711.966 530.437 711.833 531.493C710.619 521.586 704.072 513.142 694.78 509.498C685.487 505.855 674.946 507.598 667.321 514.039L581.081 587.04C575.811 591.475 572.438 597.758 571.654 604.601C570.55 595.518 574.094 586.489 581.081 580.581L667.321 507.581C675.395 500.753 686.696 499.231 696.289 503.678C705.882 508.125 712.023 517.735 712.029 528.308V528.308Z" fill="#F9E0E5"/>
<path d="M666.684 574.956H751.434V688.469H666.684V574.956Z" fill="#0D9A73"/>
<path d="M751.444 574.956V597.868C725.859 613.467 696.638 622.102 666.684 622.917V574.956H751.444Z" fill="#0B8962"/>
<path d="M705.6 510.766C704.52 509.491 703.322 508.32 702.023 507.268C711.403 518.733 709.859 535.602 698.554 545.174L612.314 618.184C602.334 626.628 587.753 626.76 577.622 618.498C577.72 618.615 577.798 618.743 577.906 618.87C587.601 630.314 604.737 631.736 616.185 622.045L702.425 549.045C707.923 544.391 711.347 537.742 711.942 530.563C712.538 523.384 710.256 516.263 705.6 510.766V510.766Z" fill="#FF6D8D"/>
<path d="M625.436 599.528C626.631 614.481 615.478 627.571 600.525 628.766V628.766C585.573 629.962 572.482 618.809 571.287 603.856L563.213 502.846C562.018 487.894 573.171 474.803 588.123 473.608V473.608C603.076 472.413 616.167 483.565 617.362 498.518L625.436 599.528Z" fill="#FFB2BF"/>
<path opacity="0.38" d="M593.748 566.127C594.103 570.569 590.789 574.459 586.346 574.814V574.814C581.903 575.169 578.013 571.855 577.658 567.413L575.321 538.165C574.965 533.722 578.279 529.832 582.722 529.477V529.477C587.165 529.122 591.055 532.436 591.41 536.879L593.748 566.127Z" fill="#F9E0E5"/>
<path d="M811.723 586.333C820.711 598.342 818.261 615.364 806.251 624.352V624.352C794.242 633.34 777.22 630.89 768.232 618.88L713.983 546.389C704.995 534.38 707.445 517.358 719.455 508.37V508.37C731.464 499.382 748.486 501.832 757.474 513.842L811.723 586.333Z" fill="#FFB2BF"/>
<path d="M789.717 696.586C785.374 710.944 770.214 719.062 755.856 714.719V714.719C741.498 710.376 733.379 695.216 737.722 680.858L763.937 594.194C768.28 579.836 783.441 571.717 797.798 576.06V576.06C812.156 580.403 820.275 595.564 815.932 609.922L789.717 696.586Z" fill="#FFB2BF"/>
<ellipse cx="766.651" cy="700.927" rx="28.7336" ry="36.4462" transform="rotate(-33.18 766.651 700.927)" fill="#FFB2BF"/>
<path d="M752.973 716.733C752.083 715.372 751.265 713.966 750.523 712.519C745.408 702.562 744.486 691.782 747.475 683.119C747.632 682.364 747.828 681.61 748.054 680.865L751.974 667.929L767.242 617.449L770.182 607.561L762.832 597.702L724.377 546.311C716.357 535.579 717.355 520.603 726.729 511.031C728.791 508.985 730.238 506.401 730.904 503.573L730.962 503.308C721.688 504.969 713.935 511.315 710.475 520.078C707.015 528.841 708.341 538.772 713.979 546.321L759.833 607.6L737.656 680.894C737.43 681.659 737.234 682.413 737.087 683.178C733.677 693.046 735.382 705.718 742.575 716.733C751.513 730.394 766.095 737.313 778.434 734.843C768.986 733.04 759.5 726.68 752.973 716.733V716.733Z" fill="#FF6D8D"/>
<path d="M805.203 676.083C804.552 678.236 802.279 679.453 800.126 678.802L738.902 660.282C736.749 659.631 735.532 657.358 736.183 655.206V655.206C736.834 653.053 739.107 651.836 741.259 652.487L802.484 671.007C804.637 671.658 805.854 673.931 805.203 676.083V676.083Z" fill="#FFA84D"/>
<path d="M803.588 665.052C802.937 667.204 800.664 668.421 798.512 667.77L745.729 651.804C743.577 651.153 742.36 648.88 743.011 646.728V646.728C743.662 644.575 745.935 643.358 748.087 644.009L800.87 659.975C803.022 660.626 804.239 662.899 803.588 665.052V665.052Z" fill="#FFECD9"/>
<path d="M600.74 628.699C600.665 628.704 600.59 628.704 600.515 628.699C599.78 628.758 599.045 628.778 598.319 628.778C584.206 628.732 572.481 617.884 571.34 603.817L563.275 502.809C562.079 487.854 573.232 474.762 588.186 473.565C589.712 473.438 591.246 473.438 592.773 473.565C577.908 474.859 566.874 487.906 568.067 502.779L576.132 603.788C577.175 616.976 587.566 627.495 600.74 628.699V628.699Z" fill="#F9E0E5"/>
<path d="M774.367 564.186V566.499C774.369 574.701 771.113 582.568 765.314 588.368C759.515 594.169 751.65 597.428 743.448 597.428H677.092C660.013 597.422 646.168 583.578 646.163 566.499V564.186C646.163 528.784 674.862 500.084 710.265 500.084C745.667 500.084 774.367 528.784 774.367 564.186V564.186Z" fill="#0D9A73"/>
<path d="M645.82 564.186V566.509C645.82 583.582 659.655 597.427 676.729 597.437H704.62C675.944 580.958 661.267 547.785 668.36 515.48C667.076 516.558 665.851 517.705 664.656 518.89C661.987 521.564 659.557 524.466 657.394 527.563C649.86 538.289 645.818 551.078 645.82 564.186H645.82Z" fill="#13B887"/>
<path d="M762.852 527.544C749.982 541.238 732.365 549.494 713.607 550.623C712.117 550.721 710.598 550.77 709.069 550.77C708.138 550.77 707.217 550.77 706.296 550.711C687.603 550.038 669.865 542.281 656.678 529.014C668.144 511.599 687.862 498.889 710.265 498.889C727.973 498.889 743.996 507.277 755.59 518.871C758.264 521.539 760.695 524.442 762.852 527.544V527.544Z" fill="#FFB2BF"/>
<path d="M713.607 550.623C712.117 550.721 710.598 550.77 709.069 550.77C708.138 550.77 707.217 550.77 706.296 550.711L707.119 546.036C707.36 544.686 708.535 543.702 709.907 543.702C711.279 543.702 712.454 544.686 712.695 546.036L713.607 550.623Z" fill="#FF6D8D"/>
<ellipse cx="596.018" cy="495.058" rx="28.7336" ry="36.4462" transform="rotate(-47.95 596.018 495.058)" fill="#FFB2BF"/>
<path d="M626.651 489.863C624.367 486.126 621.555 482.74 618.302 479.808C603.347 466.333 582.62 464.951 571.987 476.741C565.127 484.385 564.147 495.704 568.429 506.386C560.972 494.136 560.746 479.808 568.968 470.694C579.601 458.934 600.328 460.286 615.273 473.761C620.248 478.187 624.141 483.696 626.651 489.863Z" fill="#F9E0E5"/>
<circle cx="747.642" cy="389.844" r="25.8524" fill="#FFA84D"/>
<circle cx="742.517" cy="390.902" r="23.7552" fill="#082A3C"/>
<path d="M702.887 364.904L714.496 364.324C734.556 363.322 751.63 378.772 752.633 398.832L754.658 439.383C755.973 465.687 735.714 488.076 709.41 489.39L705.867 489.567C679.563 490.881 657.175 470.623 655.86 444.319L654.561 418.313C653.157 390.203 674.806 366.278 702.915 364.874L702.887 364.904Z" fill="#082A3C"/>
<path d="M727.248 475.065L727.532 484.042L728.14 503.426C728.315 509.002 725.502 514.247 720.761 517.187C716.02 520.126 710.071 520.313 705.155 517.677C700.238 515.04 697.102 509.982 696.927 504.406L696.858 502.368L696.025 476.045C695.835 469.586 699.641 463.677 705.6 461.178C706.546 460.77 707.531 460.458 708.54 460.247C713.045 459.357 717.714 460.487 721.314 463.338C724.914 466.19 727.083 470.476 727.248 475.065V475.065Z" fill="#FFB2BF"/>
<path d="M727.248 475.065L727.532 484.042C719.784 493.57 708.928 500.066 696.868 502.387L696.035 476.064C695.835 469.601 699.638 463.682 705.6 461.178C706.546 460.77 707.531 460.458 708.54 460.247C713.045 459.357 717.714 460.487 721.314 463.338C724.914 466.19 727.083 470.476 727.248 475.065V475.065Z" fill="#F9A0B4"/>
<path d="M750.523 403.829L750.465 437.962C750.41 466.959 726.865 490.426 697.868 490.382C675.505 490.339 657.406 472.183 657.433 449.82V421.175C657.433 420.998 657.433 420.832 657.433 420.655C657.433 419.871 657.433 419.087 657.512 418.313C659.068 389.716 682.529 367.223 711.167 366.873H713.617C723.407 366.888 732.791 370.793 739.703 377.727C746.615 384.661 750.49 394.057 750.474 403.848L750.523 403.829Z" fill="#FFB2BF"/>
<path d="M692.674 490C676.781 484.091 666.247 468.912 666.273 451.956V423.311C666.273 423.135 666.273 422.968 666.273 422.792C666.273 422.008 666.273 421.224 666.361 420.449C667.912 391.855 691.372 369.364 720.006 369.019H722.456C723.914 369.011 725.371 369.103 726.817 369.293C724.797 368.502 722.707 367.902 720.574 367.5C718.279 367.051 715.945 366.824 713.607 366.824H711.97C711.715 366.824 711.46 366.824 711.215 366.824C682.573 367.18 659.116 389.69 657.58 418.293C657.521 419.077 657.492 419.852 657.492 420.636V421.165V449.8C657.472 470.129 672.522 487.325 692.674 490V490Z" fill="#F9A0B4"/>
<path d="M759.128 427.692L747.995 407.161C746.921 405.187 745.52 403.411 743.849 401.908L745.016 401.594C745.427 401.447 746.201 395.714 746.182 395.332C746.176 395.235 746.157 395.139 746.123 395.048C741.733 382.787 732.53 372.849 720.643 367.529C718.344 367.085 716.007 366.859 713.665 366.853H711.215C682.586 367.213 659.136 389.704 657.58 418.293C667.257 421.086 677.569 420.743 687.039 417.313L702.719 413.041C713.624 410.082 725.131 415.012 730.512 424.948C735.754 434.632 747.854 438.234 757.54 432.993C759.439 431.965 760.149 429.595 759.128 427.692V427.692Z" fill="#F9A0B4"/>
<path d="M727.186 386.858L732.785 386.578C748.529 385.797 761.929 397.922 762.721 413.666L763.526 429.786C763.68 432.873 761.303 435.5 758.217 435.654C750.645 436.032 743.235 433.385 737.617 428.295C731.999 423.205 728.636 416.09 728.268 408.518L727.186 386.858V386.858Z" fill="#082A3C"/>
<circle cx="748.504" cy="428.074" r="16.4444" fill="#FFB2BF"/>
<path d="M750.053 444.44C746.731 470.722 724.359 490.418 697.868 490.382C692.121 490.382 686.44 489.152 681.208 486.776C684.756 487.783 688.427 488.291 692.115 488.285C717.995 488.305 740.034 469.476 744.055 443.911C744.134 443.401 744.212 442.882 744.271 442.362C746.4 442.158 748.469 441.546 750.366 440.559C755.643 437.787 759.01 432.38 759.169 426.421C759.327 420.463 756.253 414.884 751.131 411.835C759.3 413.163 765.209 420.354 764.928 428.625C764.647 436.896 758.263 443.67 750.023 444.44H750.053Z" fill="#FDC3CD"/>
<path d="M751.16 411.835H750.954L750.513 411.786V411.512C750.729 411.6 750.954 411.708 751.16 411.835V411.835Z" fill="#F9E0E5"/>
<path d="M754.022 426.947C753.398 424.19 751.18 422.077 748.397 421.586C747.739 421.498 747.08 421.739 746.634 422.23C746.188 422.721 746.011 423.4 746.162 424.046L748.181 432.954C748.34 433.632 748.834 434.182 749.491 434.412C750.148 434.642 750.877 434.521 751.425 434.091C753.617 432.425 754.633 429.632 754.022 426.947V426.947Z" fill="#F9A0B4"/>
<circle cx="671.31" cy="428.035" r="3.92" fill="#473A82"/>
<circle cx="703.023" cy="429.524" r="3.92" fill="#473A82"/>
<path d="M757.097 398.779L712.658 411.111C680.631 419.999 647.463 401.241 638.575 369.214L683.023 356.879C715.051 347.991 748.219 366.749 757.107 398.776L757.097 398.779Z" fill="#082A3C"/>
<path d="M660.824 401.516C660.765 401.457 660.716 401.388 660.657 401.32C652.386 391.52 657.237 376.389 669.605 372.959L693.203 366.402C711.045 361.446 730.176 364.985 745.065 375.997C731.81 360.342 711.497 352.513 691.165 355.221C688.418 355.586 685.7 356.143 683.031 356.887L638.597 369.205C642.168 382.166 649.997 393.547 660.824 401.516V401.516Z" fill="#0F4D68"/>
<rect x="771.877" y="411.061" width="9.7804" height="124.382" rx="4.8902" fill="#0F4D68"/>
<path d="M679.14 443.94C679.079 446.12 679.886 448.235 681.384 449.82C681.57 450.016 681.766 450.202 681.962 450.379C683.405 451.638 685.242 452.355 687.156 452.407H687.499C691.791 452.521 695.455 449.333 695.937 445.067C695.937 444.842 695.937 444.616 695.986 444.381C696.002 443.957 695.847 443.543 695.556 443.234C695.265 442.925 694.862 442.745 694.438 442.735L680.786 442.352C680.355 442.336 679.936 442.497 679.626 442.796C679.315 443.096 679.14 443.509 679.14 443.94V443.94Z" fill="#962F4A"/>
<path d="M687.392 451.133C687.381 451.56 687.411 451.986 687.48 452.407C691.774 452.53 695.445 449.337 695.918 445.067C693.951 444.434 691.801 444.764 690.114 445.957C688.427 447.15 687.4 449.068 687.343 451.133H687.392Z" fill="#E1617F"/>
<path d="M681.1 442.362C681.1 443.979 683.579 445.351 686.647 445.44C689.714 445.528 692.252 444.293 692.36 442.676L681.1 442.362Z" fill="white"/>
<path d="M534.894 670.154H540.862C542.377 670.154 543.831 670.756 544.902 671.827C545.974 672.898 546.576 674.352 546.576 675.867V679.189H529.2V675.867C529.2 672.719 531.746 670.164 534.894 670.154V670.154Z" fill="#D7E2FF"/>
<path d="M517.499 670.154H523.467C526.623 670.154 529.181 672.712 529.181 675.867V679.189H511.795V675.867C511.795 672.715 514.347 670.159 517.499 670.154V670.154Z" fill="#D7E2FF"/>
<path d="M500.114 670.154H506.082C507.597 670.154 509.051 670.756 510.122 671.827C511.193 672.898 511.795 674.352 511.795 675.867V679.189H494.4V675.867C494.4 672.712 496.958 670.154 500.114 670.154V670.154Z" fill="#D7E2FF"/>
<path d="M482.719 670.154H488.687C491.842 670.154 494.4 672.712 494.4 675.867V679.189H477.015V675.867C477.015 672.715 479.567 670.159 482.719 670.154V670.154Z" fill="#D7E2FF"/>
<path d="M465.334 670.154H471.302C474.457 670.154 477.015 672.712 477.015 675.867V679.189H459.62V675.867C459.62 672.712 462.178 670.154 465.334 670.154V670.154Z" fill="#D7E2FF"/>
<path d="M447.938 670.154H453.907C457.062 670.154 459.62 672.712 459.62 675.867V679.189H442.225V675.867C442.225 672.712 444.783 670.154 447.938 670.154V670.154Z" fill="#D7E2FF"/>
<path d="M430.553 670.154H436.521C439.677 670.154 442.235 672.712 442.235 675.867V679.189H424.84V675.867C424.84 672.712 427.398 670.154 430.553 670.154V670.154Z" fill="#D7E2FF"/>
<rect x="401.722" y="674.289" width="198.489" height="14.1708" rx="7.0854" fill="#4970DB"/>
<path d="M545.537 688.46H711.157C718.102 688.467 724.162 683.749 725.857 677.013L758.118 548.8C759.257 544.271 758.243 539.469 755.371 535.787C752.499 532.104 748.088 529.953 743.418 529.955H597.251C590.305 529.955 584.248 534.676 582.551 541.411L545.537 688.46Z" fill="#5476EF"/>
<path d="M758.118 548.8L725.837 677.014C724.14 683.749 718.083 688.469 711.137 688.47H545.517L549.084 674.289H679.953C686.896 674.29 692.953 669.574 694.653 662.843L726.925 534.59C727.309 533.063 727.454 531.487 727.356 529.916H743.418C748.096 529.914 752.512 532.072 755.386 535.764C758.259 539.455 759.267 544.266 758.118 548.8V548.8Z" fill="#4970DB"/>
<circle cx="662.196" cy="613.431" r="8.2908" fill="#D7E2FF"/>
<path d="M673.26 625.838C669.682 631.449 663.043 634.312 656.506 633.061C649.969 631.81 644.856 626.699 643.602 620.163C642.348 613.626 645.208 606.986 650.818 603.406C646.72 609.833 647.64 618.244 653.031 623.633C658.422 629.022 666.835 629.939 673.26 625.838V625.838Z" fill="#D7E2FF"/>
</svg>
