<svg width="980" height="980" viewBox="0 0 980 980" fill="none" xmlns="http://www.w3.org/2000/svg">
<path d="M962.252 647.966V658.168C962.232 703.251 938.837 745.1 900.444 768.732C897.412 770.594 894.302 772.332 891.114 773.945C872.952 783.162 852.867 787.95 832.5 787.92H779.884C765.1 787.925 753.116 799.909 753.11 814.694V914.565H305.486V814.694C305.475 799.911 293.494 787.931 278.712 787.92H190.179C189.307 787.92 188.434 787.92 187.572 787.92C187.043 787.92 186.523 787.92 185.994 787.92C183.387 787.842 180.81 787.685 178.242 787.459C156.125 785.506 134.838 778.098 116.287 765.899C113.079 763.802 109.969 761.568 106.957 759.196C105.742 758.249 104.543 757.269 103.361 756.256C100.401 753.767 97.5557 751.154 94.8248 748.416C69.4967 723.153 55.2832 688.836 55.3308 653.062C55.3313 646.308 55.8357 639.563 56.84 632.884C58.0271 624.953 59.9329 617.146 62.5338 609.56C62.6514 609.178 62.7788 608.796 62.916 608.423C65.7142 600.463 69.2579 592.785 73.5 585.491C74.4735 583.825 75.473 582.192 76.4988 580.591C82.9218 570.54 90.6422 561.38 99.4602 553.347C101.891 551.132 104.403 549.006 106.996 546.967C110.002 544.609 113.112 542.375 116.326 540.264C132.63 529.548 151.08 522.524 170.383 519.684C171.588 519.508 172.794 519.341 174.009 519.194C175.42 519.028 176.851 518.881 178.282 518.753C178.889 518.704 179.507 518.645 180.124 518.606L182.946 518.43C184.495 518.351 186.053 518.293 187.611 518.263H190.218H294.098C303.395 518.274 312.313 514.582 318.882 508.003C319.568 507.317 320.215 506.601 320.842 505.866C331.945 492.805 331.945 473.622 320.842 460.561C315.493 454.216 308.064 449.979 299.88 448.605C297.985 448.289 296.068 448.132 294.147 448.134H118.796C117.953 448.134 117.12 448.134 116.287 448.134C113.164 448.04 110.049 447.765 106.957 447.311C104.409 446.949 101.891 446.459 99.421 445.861C95.9969 445.036 92.6314 443.985 89.3466 442.715C59.863 431.367 39.5339 404.075 37.1028 372.576C36.946 370.479 36.8676 368.372 36.8676 366.236C36.8488 344.501 45.4849 323.653 60.8678 308.298C63.6582 305.511 66.6416 302.924 69.7956 300.556C75.8026 296.08 82.398 292.452 89.3956 289.776C92.6804 288.506 96.0459 287.455 99.47 286.63C101.94 286.033 104.458 285.543 107.006 285.18C110.098 284.726 113.213 284.451 116.336 284.357H118.845C138.666 284.378 157.503 275.719 170.393 260.66C171.667 259.181 172.882 257.632 174.019 256.045C175.579 253.883 177.006 251.628 178.291 249.292C178.997 248.018 179.663 246.725 180.251 245.372C181.264 243.248 182.157 241.069 182.927 238.846C185.437 231.633 186.723 224.051 186.729 216.413V147.225C186.73 144.944 187.019 142.672 187.592 140.463C187.939 139.125 188.388 137.814 188.934 136.543C189.894 134.308 191.161 132.217 192.697 130.33C197.771 124.047 205.417 120.397 213.493 120.403H837.332C866.817 120.08 894.202 135.626 909.038 161.108C923.875 186.591 923.875 218.08 909.038 243.563C894.202 269.046 866.817 284.591 837.332 284.269H770.692C758.061 284.263 745.946 289.279 737.015 298.21C728.083 307.141 723.068 319.256 723.073 331.887C723.058 344.521 728.07 356.642 737.003 365.575C745.937 374.509 758.058 379.521 770.692 379.505C771.564 379.505 772.436 379.505 773.298 379.564C806.382 380.951 832.48 408.191 832.451 441.304V483.444C832.426 502.448 844.871 519.218 863.066 524.702C872.683 527.554 882.048 531.196 891.065 535.59C894.162 537.099 897.272 538.752 900.395 540.548C916.398 549.721 932.147 562.598 943.74 580.601C949.291 589.233 953.619 598.593 956.598 608.413C960.442 621.242 962.348 634.574 962.252 647.966V647.966Z" fill="#F0F3F9"/>
<g opacity="0.38">
<path opacity="0.11" d="M116.287 284.298V448.095C113.164 448.001 110.049 447.726 106.957 447.272V285.121C110.049 284.667 113.164 284.393 116.287 284.298V284.298Z" fill="#34629B"/>
<path opacity="0.11" d="M106.957 546.948C109.962 544.589 113.072 542.355 116.287 540.245V765.89C113.079 763.792 109.969 761.558 106.957 759.186V546.948Z" fill="#34629B"/>
<path opacity="0.11" d="M187.572 140.405V448.125H178.242V249.185C178.948 247.911 179.614 246.617 180.202 245.265C181.215 243.14 182.108 240.961 182.878 238.738C185.388 231.525 186.673 223.943 186.68 216.306V147.118C186.694 144.851 186.994 142.596 187.572 140.405V140.405Z" fill="#34629B"/>
<path opacity="0.11" d="M182.907 518.42C184.456 518.342 186.014 518.283 187.572 518.253V787.92C187.043 787.92 186.523 787.92 185.994 787.92C183.387 787.842 180.81 787.685 178.242 787.459V518.734C178.85 518.685 179.467 518.626 180.085 518.587L182.907 518.42Z" fill="#34629B"/>
<path opacity="0.11" d="M249.528 120.393H258.857V448.134H249.528L249.528 120.393Z" fill="#34629B"/>
<path opacity="0.11" d="M249.528 518.214H258.857V787.92H249.528L249.528 518.214Z" fill="#34629B"/>
<path opacity="0.11" d="M320.823 120.393H330.142V915.271H320.823V120.393Z" fill="#34629B"/>
<path opacity="0.11" d="M392.108 120.393H401.437V915.271H392.108V120.393Z" fill="#34629B"/>
<path opacity="0.11" d="M463.393 120.393H472.723V915.271H463.393V120.393Z" fill="#34629B"/>
<path opacity="0.11" d="M534.678 120.393H544.008V915.271H534.678V120.393Z" fill="#34629B"/>
<path opacity="0.11" d="M605.963 120.393H615.293V915.271H605.963V120.393Z" fill="#34629B"/>
<path opacity="0.11" d="M677.258 120.393H686.578V915.271H677.258V120.393Z" fill="#34629B"/>
<path opacity="0.11" d="M757.873 120.393V286.013C754.64 286.921 751.513 288.169 748.543 289.737V120.393L757.873 120.393Z" fill="#34629B"/>
<path opacity="0.11" d="M748.543 374.027C751.513 375.595 754.64 376.843 757.873 377.751V915.32H748.543V374.027Z" fill="#34629B"/>
<path opacity="0.11" d="M819.829 120.393H829.158V284.259H819.829V120.393Z" fill="#34629B"/>
<path opacity="0.11" d="M829.158 421.194V787.92H819.829V403.76C823.861 409.029 827.011 414.917 829.158 421.194V421.194Z" fill="#34629B"/>
<path opacity="0.11" d="M900.444 150.077V254.575C897.602 258.014 894.481 261.213 891.114 264.139V140.512C894.479 143.441 897.599 146.64 900.444 150.077V150.077Z" fill="#34629B"/>
<path opacity="0.11" d="M900.444 540.519V768.732C897.412 770.594 894.302 772.332 891.114 773.945V535.56C894.185 537.07 897.295 538.722 900.444 540.519Z" fill="#34629B"/>
</g>
<rect x="854.09" y="914.565" width="72.5788" height="17.2578" rx="8.6289" fill="#6E8EC8"/>
<rect x="53.3317" y="914.565" width="793.741" height="17.2578" rx="8.6289" fill="#6E8EC8"/>
<path d="M653.494 407.974H705.208C754.169 407.974 793.859 447.664 793.859 496.625V526.172H564.843V496.625C564.843 473.113 574.183 450.564 590.808 433.939C607.433 417.314 629.982 407.974 653.494 407.974V407.974Z" fill="#6E8EC8"/>
<path d="M793.869 476.035V526.152C718.242 546.791 641.831 544.968 564.813 526.152V476.035C564.787 443.143 578.954 411.839 603.68 390.148C615.626 379.642 622.927 364.844 622.927 348.939C622.929 341.275 621.288 333.699 618.115 326.722L574.888 231.476C560.825 200.498 583.463 165.297 617.527 165.297C633.332 165.297 646.143 152.485 646.143 136.681V127.861H712.607V136.681C712.604 144.269 715.617 151.548 720.982 156.915C726.347 162.281 733.625 165.297 741.213 165.297C775.278 165.297 797.975 200.498 783.853 231.476L740.625 326.722C737.455 333.68 735.804 341.234 735.784 348.88C735.784 364.785 743.085 379.574 755.021 390.04C779.765 411.762 793.925 443.109 793.869 476.035V476.035Z" fill="#6E8EC8"/>
<path d="M564.813 476.035V526.162C607.024 537.633 650.757 542.499 694.457 540.588C662.908 539.312 631.604 534.473 601.142 526.162V476.035C601.105 443.131 615.268 411.812 639.999 390.109C645.906 384.92 650.697 378.585 654.081 371.489C657.456 364.429 659.213 356.705 659.226 348.88C659.223 341.217 657.586 333.643 654.424 326.663L611.187 231.417C604.529 216.928 605.727 200.042 614.363 186.638C623 173.233 637.881 165.164 653.826 165.238C669.627 165.232 682.433 152.422 682.433 136.622V127.802H646.104V136.622C646.107 144.21 643.094 151.489 637.729 156.856C632.364 162.223 625.086 165.238 617.498 165.238C601.552 165.164 586.671 173.233 578.035 186.638C569.398 200.042 568.2 216.928 574.858 231.417L618.096 326.663C621.257 333.643 622.894 341.217 622.898 348.88C622.886 356.708 621.129 364.435 617.753 371.498C614.372 378.597 609.58 384.932 603.67 390.118C578.942 411.819 564.779 443.135 564.813 476.035V476.035Z" fill="#5A80B7"/>
<path d="M669.321 535.678H694.654V824.847H669.321V535.678Z" fill="#6E8EC8"/>
<path d="M681.374 816.556C652.406 816.554 624.791 828.816 605.366 850.307L574.006 885.009L592.292 901.541L623.652 866.859C638.403 850.543 659.37 841.233 681.365 841.232C703.375 841.231 724.355 850.553 739.106 866.888L770.417 901.541L788.753 885.009L757.393 850.307C737.965 828.815 710.346 816.552 681.374 816.556V816.556Z" fill="#6E8EC8"/>
<path d="M669.34 816.575H694.673V857.01C694.673 864.003 689.004 869.672 682.011 869.672C678.65 869.674 675.425 868.34 673.049 865.963C670.672 863.586 669.337 860.362 669.34 857V816.575V816.575Z" fill="#6E8EC8"/>
<circle cx="582.806" cy="893.574" r="20.727" fill="#6E8EC8"/>
<circle cx="778.561" cy="893.574" r="20.727" fill="#6E8EC8"/>
<path d="M452.917 120.393V632.884H56.84C58.0271 624.953 59.9329 617.146 62.5338 609.56C62.6514 609.178 62.7788 608.796 62.916 608.423C65.7142 600.463 69.2579 592.785 73.5 585.491C74.4735 583.825 75.4731 582.192 76.4988 580.591C82.9219 570.54 90.6422 561.38 99.4602 553.347C119.219 535.311 143.916 523.589 170.383 519.684C171.588 519.508 172.794 519.341 174.009 519.194C176.028 518.959 178.066 518.753 180.124 518.606L182.946 518.43C185.357 518.306 187.781 518.24 190.218 518.234H294.098C312.253 518.121 327.316 504.162 328.807 486.068C330.298 467.973 317.723 451.737 299.831 448.654C297.936 448.338 296.019 448.181 294.098 448.184H118.796C112.268 448.186 105.764 447.41 99.421 445.871C95.997 445.046 92.6315 443.995 89.3466 442.725C59.8631 431.377 39.534 404.085 37.1028 372.586H36.8088V347.567L40.3466 342.53C44.244 329.575 51.2951 317.789 60.8678 308.23C63.6583 305.443 66.6416 302.856 69.7956 300.488C75.8027 296.011 82.3981 292.384 89.3956 289.708C92.6805 288.437 96.046 287.386 99.47 286.562C105.813 285.023 112.317 284.246 118.845 284.249C138.666 284.27 157.503 275.611 170.393 260.553C171.667 259.073 172.882 257.525 174.019 255.937C176.428 252.592 178.524 249.033 180.281 245.304C181.293 243.18 182.186 241.001 182.956 238.777C185.467 231.564 186.752 223.982 186.759 216.345V147.157C186.751 143.498 187.501 139.878 188.964 136.524C189.924 134.288 191.19 132.197 192.727 130.311C197.801 124.027 205.446 120.378 213.522 120.383L452.917 120.393Z" fill="#A5B8DD"/>
<path d="M427.525 120.393V609.56H62.5338C62.6514 609.178 62.7788 608.796 62.916 608.423C65.7142 600.463 69.2579 592.785 73.5 585.491C74.4735 583.825 75.4731 582.192 76.4988 580.591C82.9219 570.54 90.6422 561.38 99.4602 553.347C119.219 535.311 143.916 523.589 170.383 519.684C171.588 519.508 172.794 519.341 174.009 519.194C176.028 518.959 178.066 518.753 180.124 518.606L182.946 518.43C185.357 518.306 187.781 518.24 190.218 518.234H294.098C312.253 518.121 327.316 504.162 328.807 486.068C330.298 467.973 317.723 451.737 299.831 448.654C297.936 448.338 296.019 448.181 294.098 448.184H118.796C112.268 448.186 105.764 447.41 99.421 445.871C95.997 445.046 92.6315 443.995 89.3466 442.725C59.8631 431.377 39.534 404.085 37.1028 372.586H36.8088V347.567L40.3466 342.53C44.244 329.575 51.2951 317.789 60.8678 308.23C63.6583 305.443 66.6416 302.856 69.7956 300.488C75.8027 296.011 82.3981 292.384 89.3956 289.708C92.6805 288.437 96.046 287.386 99.47 286.562C105.813 285.023 112.317 284.246 118.845 284.249C138.666 284.27 157.503 275.611 170.393 260.553C171.667 259.073 172.882 257.525 174.019 255.937C176.428 252.592 178.524 249.033 180.281 245.304C181.293 243.18 182.186 241.001 182.956 238.777C185.467 231.564 186.752 223.982 186.759 216.345V147.157C186.751 143.498 187.501 139.878 188.964 136.524C189.924 134.288 191.19 132.197 192.727 130.311C197.801 124.027 205.446 120.378 213.522 120.383L427.525 120.393Z" fill="#ECF2FC"/>
<path d="M99.421 286.572V445.822C95.997 444.997 92.6315 443.946 89.3466 442.676C59.8631 431.328 39.534 404.036 37.1028 372.537H36.8088V347.567L40.3466 342.53C44.244 329.575 51.2951 317.789 60.8678 308.23C63.6583 305.443 66.6416 302.856 69.7956 300.488C75.8027 296.011 82.3981 292.384 89.3956 289.708C92.6647 288.443 96.0138 287.395 99.421 286.572V286.572Z" fill="#CDDBF1"/>
<path d="M99.421 553.328V609.56H62.5338C62.6514 609.178 62.7788 608.796 62.916 608.423C65.7142 600.463 69.2579 592.785 73.5 585.491C74.4735 583.825 75.4731 582.192 76.4988 580.591C82.9219 570.54 90.6422 561.38 99.4602 553.347L99.421 553.328Z" fill="#CDDBF1"/>
<path d="M427.535 120.393V609.56H326.869V495.606C329.9 487.595 329.9 478.753 326.869 470.743V120.393L427.535 120.393Z" fill="#CDDBF1"/>
<path d="M326.869 120.393V470.743C322.445 459.093 312.171 450.666 299.88 448.605C297.985 448.289 296.068 448.132 294.147 448.134H277.487V120.393L326.869 120.393Z" fill="#B4C6E2"/>
<path d="M318.882 507.953C322.385 504.446 325.107 500.238 326.869 495.605V609.56H277.418V518.214H294.078C303.382 518.23 312.309 514.537 318.882 507.953V507.953Z" fill="#B4C6E2"/>
<path d="M221.127 518.214V609.56H173.97V519.175C175.988 518.939 178.027 518.734 180.085 518.587L182.907 518.41C185.318 518.286 187.742 518.221 190.179 518.214H221.127Z" fill="#CDDBF1"/>
<path d="M221.127 120.393V448.134H173.97V255.947C176.379 252.602 178.475 249.043 180.232 245.314C181.244 243.189 182.137 241.011 182.907 238.787C185.418 231.574 186.703 223.992 186.71 216.355V147.167C186.702 143.508 187.452 139.887 188.915 136.534C189.875 134.298 191.141 132.207 192.678 130.32C197.752 124.037 205.397 120.387 213.473 120.393H221.127Z" fill="#CDDBF1"/>
<path d="M221.127 120.393H256.123V448.134H221.127L221.127 120.393Z" fill="#B0C2DF"/>
<path d="M221.127 518.214H256.123V609.521H221.127L221.127 518.214Z" fill="#B0C2DF"/>
<path d="M89.3466 289.718V372.537H36.8088V347.567L40.3466 342.53C44.244 329.575 51.2951 317.789 60.8678 308.23C63.6583 305.443 66.6416 302.856 69.7956 300.488C75.7881 296.018 82.3667 292.394 89.3466 289.718V289.718Z" fill="#DEE7F7"/>
<path d="M89.3466 397.067V442.676C68.2408 434.517 51.4327 418.018 42.8848 397.067H89.3466Z" fill="#DEE7F7"/>
<path d="M89.3466 563.5V585.462H73.5C74.4735 583.796 75.4731 582.162 76.4988 580.562C80.3273 574.546 84.6231 568.841 89.3466 563.5V563.5Z" fill="#DEE7F7"/>
<path d="M345.724 120.393H370.352V126.253H345.724V120.393Z" fill="#DEE7F7"/>
<path d="M391.314 120.393H415.941V126.253H391.314V120.393Z" fill="#DEE7F7"/>
<path d="M345.724 148.01H370.352V161.357H345.724V148.01Z" fill="#DEE7F7"/>
<path d="M391.314 148.01H415.941V161.357H391.314V148.01Z" fill="#DEE7F7"/>
<path d="M345.724 183.123H370.352V196.47H345.724V183.123Z" fill="#DEE7F7"/>
<path d="M391.314 183.123H415.941V196.47H391.314V183.123Z" fill="#DEE7F7"/>
<path d="M345.724 218.236H370.352V231.584H345.724V218.236Z" fill="#DEE7F7"/>
<path d="M391.314 218.236H415.941V231.584H391.314V218.236Z" fill="#DEE7F7"/>
<path d="M345.724 253.35H370.352V266.697H345.724V253.35Z" fill="#DEE7F7"/>
<path d="M391.314 253.35H415.941V266.697H391.314V253.35Z" fill="#DEE7F7"/>
<path d="M345.724 288.463H370.352V301.811H345.724V288.463Z" fill="#DEE7F7"/>
<path d="M391.314 288.463H415.941V301.811H391.314V288.463Z" fill="#DEE7F7"/>
<path d="M345.724 323.567H370.352V336.914H345.724V323.567Z" fill="#DEE7F7"/>
<path d="M391.314 323.567H415.941V336.914H391.314V323.567Z" fill="#DEE7F7"/>
<path d="M345.724 358.68H370.352V372.028H345.724V358.68Z" fill="#DEE7F7"/>
<path d="M391.314 358.68H415.941V372.028H391.314V358.68Z" fill="#DEE7F7"/>
<path d="M345.724 393.793H370.352V407.141H345.724V393.793Z" fill="#DEE7F7"/>
<path d="M391.314 393.793H415.941V407.141H391.314V393.793Z" fill="#DEE7F7"/>
<path d="M345.724 428.907H370.352V442.254H345.724V428.907Z" fill="#DEE7F7"/>
<path d="M391.314 428.907H415.941V442.254H391.314V428.907Z" fill="#DEE7F7"/>
<path d="M345.724 464.02H370.352V477.368H345.724V464.02Z" fill="#DEE7F7"/>
<path d="M391.314 464.02H415.941V477.368H391.314V464.02Z" fill="#DEE7F7"/>
<path d="M345.724 499.134H370.352V512.481H345.724V499.134Z" fill="#DEE7F7"/>
<path d="M391.314 499.134H415.941V512.481H391.314V499.134Z" fill="#DEE7F7"/>
<path d="M345.724 534.247H370.352V547.595H345.724V534.247Z" fill="#DEE7F7"/>
<path d="M391.314 534.247H415.941V547.595H391.314V534.247Z" fill="#DEE7F7"/>
<path d="M345.724 569.36H370.352V582.708H345.724V569.36Z" fill="#DEE7F7"/>
<path d="M391.314 569.36H415.941V582.708H391.314V569.36Z" fill="#DEE7F7"/>
<path d="M192.678 130.34V136.553H188.915C189.875 134.318 191.141 132.227 192.678 130.34Z" fill="#DEE7F7"/>
<path d="M214.346 120.393V136.534H201.762V123.088C205.425 121.302 209.448 120.38 213.522 120.393H214.346Z" fill="#DEE7F7"/>
<path d="M186.71 155.281H214.346V174.489H186.71V155.281Z" fill="#DEE7F7"/>
<path d="M186.71 188.14H192.678V207.348H186.71V188.14Z" fill="#DEE7F7"/>
<path d="M201.762 188.14H214.355V207.348H201.762V188.14Z" fill="#DEE7F7"/>
<path d="M214.346 226.096V245.314H180.232C181.244 243.19 182.137 241.011 182.907 238.787C184.357 234.67 185.394 230.418 186.004 226.096H214.346Z" fill="#DEE7F7"/>
<path d="M180.085 258.955H192.678V278.163H180.085V258.955Z" fill="#DEE7F7"/>
<path d="M201.762 258.955H214.355V278.163H201.762V258.955Z" fill="#DEE7F7"/>
<path d="M180.085 296.352H214.346V315.56H180.085V296.352Z" fill="#DEE7F7"/>
<path d="M180.085 329.221H192.678V348.429H180.085V329.221Z" fill="#DEE7F7"/>
<path d="M201.762 329.221H214.355V348.429H201.762V329.221Z" fill="#DEE7F7"/>
<path d="M180.085 366.618H214.346V385.826H180.085V366.618Z" fill="#DEE7F7"/>
<path d="M180.085 399.478H192.678V418.686H180.085V399.478Z" fill="#DEE7F7"/>
<path d="M201.762 399.478H214.355V418.686H201.762V399.478Z" fill="#DEE7F7"/>
<path d="M180.085 436.874H214.346V448.134H180.085V436.874Z" fill="#DEE7F7"/>
<path d="M214.346 518.214V526.339H180.046V518.587L182.868 518.41C185.279 518.286 187.703 518.221 190.14 518.214H214.346Z" fill="#DEE7F7"/>
<path d="M180.085 539.99H192.678V559.198H180.085V539.99Z" fill="#DEE7F7"/>
<path d="M201.762 539.99H214.355V559.198H201.762V539.99Z" fill="#DEE7F7"/>
<path d="M182.907 238.787V448.134H170.344V260.562C171.618 259.083 172.833 257.534 173.97 255.947C176.379 252.602 178.475 249.043 180.232 245.314C181.244 243.189 182.137 241.011 182.907 238.787V238.787Z" fill="#A5B8DD"/>
<path d="M182.907 518.42V609.56H170.344V519.665C171.549 519.488 172.754 519.322 173.97 519.175C175.988 518.939 178.027 518.734 180.085 518.587L182.907 518.42Z" fill="#A5B8DD"/>
<path d="M274.9 175.547H368.607V349.125H274.9V175.547Z" fill="#4E3636"/>
<path d="M454.514 351.32C454.513 361.043 449.048 369.941 440.377 374.339C431.705 378.737 421.298 377.889 413.452 372.145L395.979 359.405L395.91 359.356L392.764 357.053L343.98 321.352C336.468 315.867 332.491 306.764 333.571 297.526C334.65 288.288 340.62 280.347 349.194 276.742C349.85 276.458 350.526 276.203 351.203 275.988C359.097 273.378 367.766 274.751 374.468 279.672L443.94 330.466C450.594 335.329 454.524 343.079 454.514 351.32V351.32Z" fill="#EF948C"/>
<path d="M454.514 351.32C454.511 356.787 452.767 362.111 449.536 366.52C448.725 367.631 447.823 368.673 446.841 369.636C452.51 358.355 449.195 344.628 439.001 337.179L369.519 286.376C359.306 278.926 345.201 279.972 336.199 288.845C336.84 287.586 337.581 286.38 338.414 285.239C342.455 279.71 348.528 276.014 355.296 274.965C362.064 273.915 368.971 275.598 374.497 279.643L443.94 330.466C450.594 335.329 454.524 343.079 454.514 351.32Z" fill="#F79F9A"/>
<path d="M444.969 374.728C435.958 382.647 422.233 381.762 414.314 372.751V372.751C406.395 363.74 407.28 350.015 416.291 342.096L486.459 280.43C495.47 272.511 509.195 273.396 517.114 282.407V282.407C525.033 291.419 524.148 305.143 515.137 313.063L444.969 374.728Z" fill="#EF948C"/>
<path d="M520.989 272.489C532.863 271.958 542.919 281.153 543.45 293.027V293.027C543.981 304.901 534.785 314.957 522.912 315.488L504.105 316.329C492.231 316.859 482.175 307.664 481.644 295.79V295.79C481.113 283.917 490.308 273.861 502.182 273.33L520.989 272.489Z" fill="#EF948C"/>
<path d="M543.518 294C543.488 305.505 534.43 314.959 522.938 315.482L511.736 315.982L444.92 374.742C426.731 394.342 395.969 359.376 395.969 359.376L395.9 359.317L392.764 357.024L343.98 321.362C333.538 313.699 330.365 299.499 336.552 288.12C337.051 295.753 340.9 302.774 347.067 307.299L399.056 345.352C399.056 345.352 430.289 376.869 448.007 360.719L454.21 355.26L498.928 315.962L514.823 301.997L521.899 301.674L526.025 301.478C533.119 301.175 539.603 297.381 543.341 291.344C543.413 291.913 543.462 292.481 543.488 293.05C543.498 293.373 543.518 293.696 543.518 294V294Z" fill="#E87A74"/>
<path d="M549.868 271.192C554.164 271 557.802 274.327 557.994 278.623V278.623C558.186 282.919 554.86 286.557 550.564 286.749L507.027 288.695C502.731 288.888 499.093 285.561 498.9 281.265V281.265C498.708 276.969 502.035 273.331 506.331 273.139L549.868 271.192Z" fill="#EF948C"/>
<path d="M515.659 259.637C519.159 257.138 524.022 257.95 526.52 261.45V261.45C529.018 264.95 528.206 269.813 524.706 272.311L504.981 286.392C501.481 288.89 496.618 288.078 494.12 284.578V284.578C491.622 281.078 492.434 276.215 495.934 273.717L515.659 259.637Z" fill="#EF948C"/>
<path d="M331.936 622.81H381.906V903.511H331.936V622.81Z" fill="#EF948C"/>
<path d="M310.67 903.501H260.699L260.699 622.8H310.67L310.67 903.501Z" fill="#EF948C"/>
<path d="M331.936 622.81H381.906V655.855H331.936V622.81Z" fill="#E87A74"/>
<path d="M310.67 655.855H260.7V622.81H310.67V655.855Z" fill="#E87A74"/>
<path d="M332.651 911.557H383.043C383.043 897.642 371.762 886.361 357.847 886.361C343.932 886.361 332.651 897.642 332.651 911.557Z" fill="#B0DFF3"/>
<path d="M384.278 915.32H330.26C325.539 915.32 321.71 911.496 321.705 906.774C321.707 904.363 322.727 902.065 324.512 900.444C326.297 898.823 328.683 898.029 331.083 898.258L384.895 903.482C387.923 903.782 390.235 906.319 390.256 909.362C390.264 910.948 389.636 912.471 388.512 913.591C387.389 914.71 385.864 915.333 384.278 915.32V915.32Z" fill="black"/>
<path d="M261.052 911.557H311.444C311.444 897.642 300.163 886.361 286.248 886.361C272.333 886.361 261.052 897.642 261.052 911.557Z" fill="#B0DFF3"/>
<path d="M312.679 915.32H258.622C253.901 915.32 250.072 911.496 250.067 906.774C250.07 904.363 251.089 902.065 252.874 900.444C254.659 898.823 257.045 898.029 259.445 898.258L313.257 903.482C316.285 903.782 318.597 906.319 318.618 909.362C318.625 910.941 318.003 912.458 316.888 913.577C315.773 914.695 314.258 915.323 312.679 915.32V915.32Z" fill="black"/>
<path d="M250.713 480.661H392.5V635.344H250.713L250.713 480.661Z" fill="black"/>
<path d="M392.539 480.661V482.885V635.344H383.768V482.885C383.768 482.14 383.768 481.405 383.768 480.661C383.768 446.498 356.073 418.803 321.91 418.803H330.642C347.055 418.793 362.798 425.305 374.407 436.907C386.017 448.508 392.539 464.248 392.539 480.661V480.661Z" fill="#191D1E"/>
<circle cx="320.362" cy="123.343" r="37.0146" fill="#4E3636"/>
<circle cx="320.362" cy="123.343" r="37.0146" fill="#4E3636"/>
<path d="M357.377 123.343C357.377 124.926 357.272 126.507 357.063 128.076C354.684 109.621 338.97 95.8033 320.362 95.8033C301.754 95.8033 286.04 109.621 283.661 128.076C283.452 126.507 283.347 124.926 283.347 123.343C283.347 102.9 299.919 86.3281 320.362 86.3281C340.805 86.3281 357.377 102.9 357.377 123.343V123.343Z" fill="#604646"/>
<circle cx="320.362" cy="151.165" r="24.3726" fill="#F9BE78"/>
<path d="M258.118 285.352C269.12 276.282 285.392 277.849 294.462 288.851V288.851C303.532 299.854 301.965 316.125 290.963 325.195L224.554 379.938C213.551 389.008 197.279 387.441 188.21 376.439V376.439C179.14 365.436 180.707 349.165 191.709 340.095L258.118 285.352Z" fill="#EF948C"/>
<path d="M304.251 229.663V274.831C304.466 283.577 311.618 290.555 320.367 290.555C329.115 290.555 336.267 283.577 336.483 274.831V229.663C336.627 223.81 333.588 218.34 328.542 215.371C323.496 212.402 317.238 212.402 312.192 215.371C307.146 218.34 304.106 223.81 304.251 229.663Z" fill="#EF948C"/>
<rect x="392.539" y="542.518" width="142.463" height="123.705" rx="61.8527" transform="rotate(-180 392.539 542.518)" fill="black"/>
<path d="M274.782 354.907V424.164C274.782 450.073 295.786 471.076 321.695 471.076C347.604 471.076 368.607 450.073 368.607 424.164V354.907H274.782Z" fill="#B0DFF3"/>
<path d="M274.782 338.619V407.905L368.607 387.58V338.619H274.782Z" fill="#9ACFE2"/>
<path d="M396.802 349.311V351.879C396.804 354.397 396.528 356.908 395.979 359.366L395.91 359.317L392.764 357.014L343.98 321.352C340.507 318.811 337.724 315.442 335.885 311.552C333.688 299.647 340.08 287.818 351.242 283.132C351.732 283.308 352.222 283.494 352.673 283.681C356.212 285.12 359.625 286.854 362.874 288.865C364.05 289.58 365.187 290.335 366.304 291.119C368.46 292.609 370.528 294.222 372.498 295.95C387.972 309.383 396.842 328.879 396.802 349.37V349.311Z" fill="#E87A74"/>
<path d="M391.324 343V345.568C391.324 364.473 375.998 379.799 357.092 379.799H283.592C264.691 379.794 249.371 364.469 249.371 345.568V343C249.347 329.82 253.021 316.898 259.974 305.701C260.651 304.584 261.376 303.486 262.121 302.418C264.5 298.984 267.186 295.772 270.147 292.824C271.264 291.697 272.44 290.599 273.655 289.531C276.198 287.304 278.904 285.27 281.75 283.445C282.269 283.112 282.73 282.789 283.308 282.465C286.978 280.204 290.849 278.289 294.872 276.742C311.735 270.283 330.424 270.482 347.145 277.301C350.691 278.74 354.11 280.475 357.367 282.485C358.523 283.2 359.67 283.935 360.787 284.739C362.945 286.226 365.013 287.839 366.981 289.57C371.849 293.788 376.11 298.659 379.642 304.045C379.995 304.584 380.348 305.123 380.681 305.682C387.656 316.878 391.344 329.809 391.324 343V343Z" fill="#B0DFF3"/>
<path d="M391.324 343V345.568C391.318 364.475 375.99 379.799 357.083 379.799H334.239C365.115 358.422 375.89 317.782 359.66 283.916L360.846 284.729C362.999 286.222 365.067 287.835 367.039 289.561C382.511 303.002 391.374 322.505 391.324 343V343Z" fill="#CAF1FF"/>
<path d="M304.251 229.663V264.522C314.377 269.413 326.115 269.72 336.483 265.364V229.663C336.627 223.81 333.588 218.34 328.542 215.371C323.496 212.402 317.238 212.402 312.192 215.371C307.146 218.34 304.106 223.81 304.251 229.663V229.663Z" fill="#E87A74"/>
<circle cx="280.045" cy="211.484" r="16.464" fill="#EF948C"/>
<ellipse cx="321.313" cy="207.397" rx="46.5304" ry="56.2226" fill="#EF948C"/>
<path d="M270.343 210.945C270.342 208.075 272.06 205.485 274.704 204.369C275.341 204.123 276.058 204.211 276.616 204.605C277.174 205 277.497 205.647 277.477 206.329V215.6C277.468 216.302 277.104 216.951 276.511 217.327C275.918 217.703 275.176 217.753 274.537 217.462C271.98 216.303 270.339 213.753 270.343 210.945V210.945Z" fill="#E87A74"/>
<circle cx="343.02" cy="213.542" r="3.5378" fill="#4E3636"/>
<circle cx="306.809" cy="213.542" r="3.5378" fill="#4E3636"/>
<path d="M333.886 230.643C333.761 233.75 332.395 236.677 330.093 238.767C329.809 239.022 329.515 239.267 329.211 239.492C327.014 241.144 324.314 241.985 321.567 241.874H321.087C318.593 241.777 316.192 240.895 314.227 239.355C311.524 237.275 309.875 234.109 309.719 230.702C309.719 230.378 309.719 230.055 309.719 229.722C309.744 229.119 310.009 228.551 310.454 228.144C310.902 227.735 311.494 227.52 312.101 227.546L331.701 228.301C332.946 228.354 333.919 229.396 333.886 230.643V230.643Z" fill="#962F4A"/>
<path d="M321.44 240.1C321.416 240.705 321.33 241.306 321.185 241.893H321.126C314.962 241.736 309.966 236.842 309.68 230.682C310.542 230.472 311.429 230.379 312.316 230.408C314.814 230.474 317.183 231.535 318.896 233.355C320.609 235.174 321.524 237.602 321.44 240.1V240.1Z" fill="#E1617F"/>
<path d="M331.24 228.271C331.064 230.565 327.398 232.26 322.988 232.093C318.578 231.927 315.06 229.947 315.05 227.654L331.24 228.271Z" fill="white"/>
<path d="M329.211 239.492C327.014 241.144 324.314 241.985 321.567 241.874H321.087C318.594 241.775 316.195 240.898 314.227 239.365C315.472 236.993 318.51 235.445 321.999 235.533C324.925 235.521 327.65 237.017 329.211 239.492V239.492Z" fill="white"/>
<path d="M188.288 374.026C180.44 364.952 181.433 351.235 190.506 343.387V343.387C199.579 335.538 213.297 336.531 221.145 345.604L282.257 416.254C290.106 425.327 289.113 439.045 280.039 446.893V446.893C270.966 454.741 257.249 453.748 249.401 444.675L188.288 374.026Z" fill="#EF948C"/>
<path d="M289.93 450.93C290.367 462.807 281.093 472.791 269.216 473.228V473.228C257.338 473.666 247.355 464.392 246.917 452.515L246.224 433.701C245.786 421.824 255.06 411.841 266.938 411.403V411.403C278.815 410.965 288.799 420.239 289.236 432.117L289.93 450.93Z" fill="#EF948C"/>
<path d="M269.216 473.232C271.146 473.165 273.058 472.835 274.9 472.252C272.8 472.091 270.736 471.619 268.775 470.851C260.776 467.736 255.387 460.172 255.055 451.594L254.976 449.301L254.653 440.392L246.294 430.73L196.451 373.115C191.667 367.575 189.992 359.999 191.993 352.957C193.995 345.916 199.405 340.354 206.388 338.159C197.604 337.473 189.276 342.16 185.303 350.025C181.331 357.889 182.502 367.374 188.268 374.037L246.47 441.323L246.882 452.525C247.086 458.232 249.552 463.624 253.736 467.51C257.921 471.397 263.48 473.459 269.186 473.242L269.216 473.232Z" fill="#E87A74"/>
<circle cx="363.649" cy="211.484" r="16.464" fill="#EF948C"/>
<path d="M371.42 210.916C371.418 213.784 369.701 216.374 367.059 217.491C366.422 217.733 365.707 217.642 365.151 217.249C364.595 216.856 364.271 216.212 364.286 215.531V206.251C364.293 205.549 364.657 204.898 365.251 204.524C365.845 204.149 366.589 204.102 367.226 204.399C369.785 205.556 371.427 208.107 371.42 210.916V210.916Z" fill="#E87A74"/>
<circle cx="339.06" cy="160.358" r="27.5282" fill="#4E3636"/>
<circle cx="304.251" cy="171.186" r="23.7552" fill="#4E3636"/>
<circle cx="283.2" cy="186.122" r="18.1006" fill="#4E3636"/>
<circle cx="363.129" cy="183.946" r="15.9348" fill="#4E3636"/>
<circle cx="339.06" cy="160.358" r="27.5282" fill="#4E3636"/>
<circle cx="304.251" cy="171.186" r="23.7552" fill="#4E3636"/>
<circle cx="283.2" cy="186.122" r="18.1006" fill="#4E3636"/>
<circle cx="363.129" cy="183.946" r="15.9348" fill="#4E3636"/>
<path d="M366.598 160.357C366.599 162.261 366.399 164.16 366.001 166.022C364.53 155.307 356.921 146.446 346.552 143.372C336.183 140.298 324.975 143.581 317.902 151.763C316.077 153.882 314.58 156.264 313.463 158.828C312.868 158.565 312.259 158.332 311.64 158.133C309.161 157.267 306.553 156.829 303.927 156.839C295.725 156.832 288.101 161.065 283.769 168.031C282.405 170.207 281.412 172.595 280.829 175.096C280.625 175.923 280.472 176.761 280.368 177.605C273.413 178.585 267.65 183.496 265.58 190.208C265.277 188.867 265.123 187.496 265.119 186.121C265.119 177.101 271.76 169.457 280.692 168.197C281.637 160.766 286.031 154.215 292.549 150.521C299.067 146.828 306.944 146.423 313.806 149.43C318.99 137.448 331.875 130.752 344.66 133.398C357.444 136.043 366.615 147.302 366.618 160.357H366.598Z" fill="#604646"/>
<path d="M379.064 183.946C379.065 185.735 378.764 187.511 378.172 189.199C376.523 183.072 371.388 178.515 365.109 177.605C365.875 175.063 366.262 172.421 366.255 169.765C366.255 169.275 366.255 168.785 366.255 168.315C373.701 169.812 379.059 176.351 379.064 183.946V183.946Z" fill="#604646"/>
<path d="M380.72 305.682C366.02 316.354 344.46 323.077 320.372 323.077C296.283 323.077 274.723 316.354 260.014 305.691C260.69 304.574 261.415 303.477 262.16 302.408C264.539 298.974 267.226 295.763 270.186 292.814C271.303 291.687 272.479 290.59 273.694 289.521C276.238 287.294 278.943 285.26 281.789 283.436C282.309 283.102 282.769 282.779 283.347 282.456C287.017 280.195 290.888 278.279 294.911 276.732C311.774 270.273 330.464 270.472 347.185 277.291C350.731 278.731 354.15 280.465 357.406 282.475C358.562 283.191 359.709 283.926 360.826 284.729C362.984 286.216 365.052 287.83 367.02 289.561C371.888 293.778 376.149 298.649 379.681 304.035C380.034 304.584 380.387 305.123 380.72 305.682V305.682Z" fill="#EF948C"/>
<rect x="301.125" y="266.658" width="38.4846" height="9.3982" rx="4.6991" fill="#9ACFE2"/>
<rect x="357.847" y="699.279" width="14.3668" height="145.442" rx="7.1834" fill="#F79F9A"/>
</svg>
