<svg width="980" height="980" viewBox="0 0 980 980" fill="none" xmlns="http://www.w3.org/2000/svg">
<path d="M660.608 443.94C660.49 445.155 660.422 446.38 660.422 447.625V448.703C660.422 448.703 660.422 449.281 660.422 449.565C660.422 449.849 660.422 450.143 660.422 450.428L660.48 451.192L660.598 452.172C660.598 452.544 660.706 452.917 660.755 453.289L660.872 453.916C660.872 454.171 660.951 454.416 661.01 454.671C661.127 455.22 661.245 455.769 661.392 456.308C661.419 456.471 661.462 456.632 661.519 456.788C661.588 457.072 661.666 457.356 661.745 457.631C661.823 457.905 661.911 458.189 662.019 458.473C662.293 459.336 662.607 460.179 662.93 461.002C663.117 461.423 663.293 461.835 663.479 462.237C663.504 462.304 663.534 462.369 663.567 462.433C663.646 462.609 663.724 462.785 663.812 462.952C663.901 463.119 663.969 463.285 664.057 463.442C664.146 463.599 664.273 463.863 664.381 464.069C664.489 464.275 664.587 464.442 664.675 464.628C664.89 465.03 665.116 465.422 665.361 465.804L665.704 466.343C665.939 466.725 666.184 467.097 666.439 467.47C666.694 467.842 667.037 468.332 667.35 468.754L667.448 468.871C667.732 469.244 668.017 469.616 668.311 469.969C668.398 470.062 668.48 470.16 668.556 470.263C668.82 470.576 669.085 470.88 669.369 471.184L669.487 471.321C669.849 471.713 670.202 472.086 670.565 472.458L671.545 473.379C671.711 473.516 671.868 473.663 672.015 473.801C672.329 474.075 672.642 474.349 672.995 474.604L673.652 475.143L673.828 475.28L674.808 476.006C674.931 476.1 675.058 476.189 675.19 476.27C675.229 476.311 675.276 476.345 675.327 476.368C675.543 476.535 675.778 476.692 676.013 476.848L676.993 477.476C677.199 477.613 677.425 477.74 677.64 477.858L678.258 478.211C678.47 478.346 678.689 478.471 678.914 478.583L679.11 478.681C679.443 478.867 679.806 479.044 680.149 479.22L680.384 479.318C680.747 479.504 681.119 479.671 681.492 479.828C681.654 479.909 681.821 479.981 681.991 480.043C682.325 480.19 682.687 480.327 683.04 480.465L683.677 480.69C683.834 480.759 684.02 480.817 684.196 480.876C684.735 481.062 685.284 481.239 685.833 481.386C686.117 481.474 686.401 481.543 686.676 481.611C687.509 481.837 688.371 482.023 689.224 482.17L689.949 482.297L691.037 482.444C691.713 482.532 692.409 482.601 693.105 482.64H693.222C693.957 482.689 694.692 482.709 695.437 482.709H799.317C800.64 482.709 801.973 482.709 803.237 482.768H804.344C806.363 482.839 808.366 482.957 810.352 483.12L811.273 483.199L811.92 483.258L813.311 483.395L814.899 483.571C815.389 483.62 815.879 483.679 816.359 483.748C817.476 483.885 818.603 484.042 819.711 484.218L821.298 484.463H821.504L822.935 484.708C824.17 484.924 825.414 485.159 826.649 485.423L829.021 485.933L831.402 486.482C832.872 486.844 834.342 487.227 835.783 487.638L836.096 487.726C836.684 487.883 837.263 488.05 837.831 488.226C838.811 488.52 839.791 488.834 840.771 489.147L842.339 489.667C843.241 489.971 844.162 490.284 845.063 490.647C845.965 491.009 846.798 491.274 847.641 491.627H847.749C848.64 491.97 849.532 492.323 850.414 492.685C851.296 493.048 852.178 493.42 853.041 493.802C853.903 494.185 854.471 494.43 855.187 494.782C855.53 494.92 855.843 495.076 856.167 495.223H856.216C856.902 495.537 857.568 495.851 858.244 496.203C859.95 497.027 861.625 497.899 863.291 498.8C864.598 499.519 865.905 500.257 867.211 501.015C867.79 501.348 868.348 501.682 868.907 501.995L870.377 502.897C873.983 505.131 877.462 507.526 880.814 510.08L882.137 511.109C884.342 512.834 886.517 514.627 888.615 516.489C888.997 516.832 889.389 517.175 889.761 517.528L890.33 518.038C890.741 518.42 891.153 518.792 891.555 519.184C891.956 519.576 892.26 519.851 892.623 520.164C895.014 522.451 897.301 524.823 899.483 527.279C899.963 527.808 900.463 528.347 900.914 528.886L901.786 529.866L903.138 531.454C903.707 532.16 904.295 532.865 904.863 533.59C906.607 535.779 908.27 538.017 909.851 540.303C910.282 540.901 910.694 541.499 911.096 542.107C911.331 542.45 911.556 542.802 911.792 543.155C912.184 543.733 912.556 544.312 912.938 544.9C926.763 566.559 934.095 591.724 934.067 617.42V620.663C934.067 620.663 934.008 622.81 933.949 623.888C933.891 624.966 933.94 626.132 933.94 627.2C933.94 628.268 933.773 629.327 933.675 630.385C933.587 631.267 933.499 632.149 933.401 633.021C933.401 633.384 933.312 633.737 933.263 634.099C933.165 634.962 933.058 635.824 932.93 636.686L932.46 639.744C932.464 639.773 932.464 639.803 932.46 639.832C932.293 640.812 932.107 641.88 931.911 642.89C931.8 643.497 931.682 644.105 931.558 644.713C931.45 645.261 931.323 645.81 931.215 646.359C931.019 647.241 930.823 648.123 930.608 649.005C930.392 649.887 930.137 650.965 929.873 651.945C929.608 652.925 929.304 654.091 929 655.15C928.697 656.208 928.422 657.061 928.138 658.001C927.854 658.942 927.53 659.893 927.158 660.824C927.164 660.86 927.164 660.896 927.158 660.932C926.835 661.912 926.482 662.892 926.178 663.803C926.184 663.849 926.184 663.895 926.178 663.94C925.825 664.871 925.492 665.792 925.129 666.704C924.767 667.615 924.404 668.527 924.032 669.428C924.005 669.485 923.982 669.544 923.963 669.605C923.561 670.526 923.179 671.447 922.768 672.349C922.356 673.25 921.925 674.201 921.494 675.122C921.131 675.867 920.778 676.621 920.406 677.356C920.288 677.621 920.151 677.876 920.024 678.14C919.7 678.758 919.396 679.365 919.044 679.973C918.828 680.404 918.593 680.835 918.358 681.257L917.681 682.492C917.446 682.933 917.201 683.374 916.946 683.805C916.692 684.236 916.349 684.873 916.045 685.402C915.829 685.775 915.614 686.147 915.378 686.51C915.055 687.039 914.712 687.558 914.398 688.107C914.253 688.377 914.092 688.639 913.918 688.891C913.487 689.606 913.026 690.312 912.566 691.008C912.017 691.851 911.468 692.693 910.9 693.526C910.331 694.359 909.792 695.124 909.234 695.908C907.47 698.397 905.608 700.821 903.648 703.179C903.011 703.954 902.374 704.718 901.688 705.482C901.002 706.247 900.384 707.001 899.728 707.746C899.071 708.491 898.13 709.51 897.297 710.373C896.464 711.235 895.563 712.186 894.671 713.068C891.986 715.753 889.193 718.33 886.282 720.77C885.067 721.75 883.832 722.799 882.578 723.769C882.274 724.024 881.941 724.269 881.598 724.504L881.392 724.661C880.138 725.634 878.867 726.575 877.58 727.483C877.051 727.866 876.502 728.248 875.963 728.62L874.836 729.394C873.356 730.374 871.896 731.354 870.328 732.334C869.701 732.736 869.054 733.128 868.368 733.51H868.319C867.535 733.971 866.751 734.432 865.937 734.882C865.124 735.333 864.32 735.794 863.487 736.235C862.654 736.676 861.87 737.107 861.037 737.528L860.939 737.587L858.45 738.832C857.117 739.479 855.775 740.106 854.403 740.713C853.834 740.978 853.237 741.233 852.649 741.488C851.267 742.076 849.895 742.644 848.503 743.183C847.866 743.438 847.239 743.673 846.602 743.908L844.72 744.604L842.535 745.359C840.987 745.878 839.438 746.339 837.86 746.838C837.194 747.034 836.528 747.23 835.842 747.417C835.156 747.603 834.479 747.799 833.784 747.975C833.088 748.152 832.392 748.338 831.696 748.504L829.864 748.945C823.589 750.381 817.218 751.364 810.803 751.885L809.146 752.013C808.549 752.013 807.931 752.101 807.333 752.13C806.118 752.209 804.893 752.258 803.668 752.297C802.277 752.297 800.885 752.356 799.484 752.356H710.843C707.488 752.346 704.162 752.975 701.043 754.208C700.719 754.326 700.425 754.453 700.121 754.59L699.484 754.874C699.2 755.002 698.926 755.139 698.651 755.286C698.377 755.433 698.24 755.492 698.034 755.609C697.255 756.025 696.499 756.483 695.77 756.981C695.506 757.158 695.241 757.354 694.967 757.55C694.359 757.991 693.781 758.461 693.212 758.951C693.16 758.986 693.114 759.029 693.075 759.079C692.83 759.284 692.605 759.5 692.36 759.725C692.311 759.785 692.255 759.838 692.193 759.882L691.625 760.46C691.243 760.852 690.87 761.254 690.527 761.656C690.184 762.058 690.027 762.254 689.782 762.558C689.517 762.871 689.268 763.198 689.038 763.538C688.308 764.54 687.653 765.595 687.078 766.693C687.047 766.723 687.023 766.76 687.009 766.801C686.872 767.085 686.715 767.379 686.588 767.673C686.362 768.134 686.156 768.653 685.96 769.075L685.529 770.221C685.412 770.594 685.274 770.976 685.167 771.358C685.162 771.41 685.162 771.463 685.167 771.515C685.039 771.897 684.941 772.279 684.843 772.671C684.745 773.063 684.657 773.494 684.569 773.916C684.49 774.327 684.422 774.749 684.343 775.17C684.339 775.203 684.339 775.236 684.343 775.268C684.343 775.67 684.245 776.091 684.206 776.503C684.167 776.915 684.128 777.228 684.108 777.591C684.089 777.953 684.108 778.571 684.108 779.08V879.06H236.454V779.149C236.454 778.424 236.454 777.718 236.356 777.013C235.248 763.117 223.66 752.398 209.72 752.375H157.094C155.134 752.375 153.196 752.333 151.282 752.248C150.302 752.248 149.401 752.15 148.46 752.091C147.519 752.032 146.804 751.974 146 751.905C144.902 751.817 143.834 751.709 142.756 751.591C141.904 751.503 141.08 751.395 140.238 751.288L139.395 751.18L137.552 750.915L136.984 750.827C136.112 750.69 135.259 750.553 134.387 750.396C72.4288 739.411 27.2868 685.548 27.3024 622.623V612.422C27.2856 606.609 27.6128 600.801 28.2824 595.027C29.1399 587.507 30.6783 580.081 32.8786 572.839C35.8567 563.017 40.1874 553.656 45.746 545.027C51.8959 535.527 59.4153 526.987 68.0606 519.684C86.9354 503.573 108.985 494.341 126.42 489.128C144.619 483.639 157.068 466.869 157.054 447.86V405.72C157.049 374.028 181.04 347.478 212.571 344.284C213.774 344.16 214.989 344.071 216.217 344.019C217.079 344.019 217.952 343.96 218.814 343.96C243.577 343.955 264.207 324.978 266.275 300.301C266.364 298.998 266.432 297.675 266.432 296.381C266.427 270.085 245.111 248.769 218.814 248.763H201.174C171.689 249.086 144.304 233.54 129.467 208.058C114.631 182.575 114.631 151.086 129.467 125.603C144.304 100.12 171.689 84.5749 201.174 84.8974H706.854C759.85 84.9028 802.81 127.863 802.816 180.859C802.824 216.348 830.151 245.848 865.536 248.567C867.251 248.695 868.966 248.763 870.7 248.763C892.438 248.731 913.29 257.369 928.638 272.763C931.241 275.372 933.667 278.151 935.9 281.084C946.785 295.331 952.668 312.771 952.638 330.701C952.638 332.436 952.569 334.17 952.471 335.875C951.237 355.784 942.759 374.552 928.638 388.639L927.07 390.167L925.492 391.618C924.963 392.098 924.404 392.598 923.865 393.039C923.326 393.48 922.885 393.872 922.376 394.274C921.719 394.822 921.062 395.352 920.416 395.861C919.935 396.234 919.436 396.596 918.946 396.959C918.269 397.459 917.564 397.939 916.858 398.429C916.378 398.762 915.878 399.085 915.388 399.409L915.182 399.556C914.712 399.86 914.202 400.154 913.752 400.448C913.017 400.908 912.272 401.359 911.507 401.79C910.743 402.221 910.233 402.506 909.606 402.849C908.979 403.192 908.322 403.535 907.646 403.829C906.97 404.123 906.343 404.485 905.686 404.809C905.03 405.132 904.383 405.416 903.726 405.7C903.705 405.711 903.679 405.711 903.658 405.7C903.021 405.994 902.354 406.269 901.698 406.533H901.609C900.953 406.798 900.286 407.063 899.649 407.317C897.689 408.072 895.582 408.758 893.515 409.356L892.437 409.66L891.025 410.032C890.408 410.199 889.791 410.336 889.183 410.483C888.017 410.747 886.841 410.992 885.655 411.208L883.822 411.522L882.392 411.737L881.666 411.835L879.942 412.051C878.864 412.168 877.766 412.276 876.659 412.345C876.002 412.345 875.345 412.433 874.699 412.462L872.905 412.531C872.2 412.531 871.494 412.531 870.779 412.531H695.466C694.751 412.531 694.036 412.531 693.32 412.6L692.409 412.668L690.998 412.815C690.576 412.874 690.155 412.923 689.724 413.001C689.292 413.08 688.871 413.148 688.45 413.237L688.028 413.325C687.764 413.384 687.479 413.442 687.205 413.521C686.931 413.599 686.656 413.648 686.382 413.727C686.107 413.805 685.813 413.874 685.539 413.962L684.902 414.158C684.575 414.256 684.249 414.364 683.922 414.481L683.285 414.707C682.442 415.01 681.619 415.344 680.815 415.687L679.679 416.235C677.385 417.397 675.226 418.807 673.24 420.44C672.838 420.753 672.476 421.077 672.093 421.42C671.711 421.763 671.349 422.086 671.006 422.4C670.663 422.713 670.3 423.095 669.967 423.458C669.643 423.801 669.33 424.154 668.987 424.507L668.918 424.565C668.918 424.565 668.869 424.614 668.869 424.644C668.605 424.918 668.379 425.202 668.134 425.496C667.889 425.79 667.605 426.173 667.35 426.525C663.559 431.608 661.228 437.629 660.608 443.94V443.94Z" fill="#F3F4FE"/>
<path d="M669.418 405.779C669.426 412.131 668.862 418.471 667.733 424.722C667.635 425.379 667.507 426.035 667.38 426.682C663.604 431.717 661.264 437.681 660.608 443.94C660.49 445.155 660.422 446.38 660.422 447.625V448.703C659.082 451.741 657.612 454.7 656.012 457.582C654.81 459.744 653.532 461.861 652.18 463.932C650.279 466.866 648.244 469.688 646.075 472.399C627.762 495.356 600.792 509.743 571.526 512.168C568.586 512.403 565.646 512.53 562.657 512.53C543.77 512.546 525.219 507.541 508.904 498.026C506.114 496.399 503.403 494.649 500.77 492.773C484.076 480.871 471.15 464.425 463.53 445.39C462.203 442.074 461.045 438.692 460.061 435.257C455.695 419.969 454.777 403.903 457.376 388.217C438.154 375.436 426.959 353.581 427.816 330.513C428.674 307.446 441.462 286.483 461.58 275.164C470.109 270.367 479.6 267.532 489.363 266.864C490.901 266.756 492.45 266.697 494.028 266.697C517.63 266.68 539.458 279.229 551.318 299.635C555.082 299.238 558.863 299.039 562.647 299.037C590.971 298.998 618.147 310.231 638.178 330.256C658.209 350.282 669.449 377.455 669.418 405.779V405.779Z" fill="#C5CAEF"/>
<circle cx="822.621" cy="299.027" r="66.3166" fill="#C5CAEF"/>
<path d="M631.443 252.438C612.774 280.988 575.494 290.722 545.25 274.942C515.007 259.163 501.665 223.016 514.403 191.372C527.141 159.727 561.805 142.904 594.546 152.478C606.878 122.494 636.34 103.143 668.756 103.736C701.172 104.329 729.905 124.745 741.132 155.16C752.359 185.576 743.781 219.764 719.524 241.276C695.267 262.788 660.299 267.219 631.443 252.438V252.438Z" fill="#C5CAEF"/>
<path d="M490.48 571.948C490.488 601.893 473.492 629.246 446.639 642.501C419.787 655.755 387.737 652.612 363.972 634.393C356.039 652.624 338.193 664.545 318.313 664.891C330.626 690.357 328.323 720.473 312.279 743.769C296.235 767.066 268.921 779.959 240.739 777.537C212.556 775.115 187.842 757.752 176.008 732.06C170.311 729.188 164.989 725.627 160.161 721.456C153.03 732.325 144.332 742.081 134.348 750.406C72.4015 739.403 27.2787 685.539 27.3024 622.623V612.422C27.2856 606.609 27.6128 600.8 28.2824 595.027C29.1399 587.507 30.6783 580.081 32.8786 572.839C35.8567 563.017 40.1874 553.656 45.746 545.027C51.8959 535.527 59.4153 526.987 68.0606 519.684C112.632 525.759 150.987 554.236 169.696 595.144C200.844 575.646 241.34 580.313 267.236 606.385C269.531 591.639 278.198 578.65 290.932 570.87C303.666 563.089 319.178 561.304 333.347 565.989C336.461 524.988 370.627 493.303 411.747 493.283C413.638 493.283 415.51 493.352 417.372 493.479C458.549 496.414 490.461 530.666 490.48 571.948V571.948Z" fill="#C5CAEF"/>
<path d="M660.608 443.94C660.49 445.155 660.422 446.38 660.422 447.625V448.703C660.422 448.703 660.422 449.281 660.422 449.565C660.422 449.849 660.422 450.143 660.422 450.428L660.48 451.192L660.598 452.172C660.598 452.544 660.706 452.917 660.755 453.289L660.872 453.916C660.872 454.171 660.951 454.416 661.01 454.671C661.127 455.22 661.245 455.769 661.392 456.308C661.419 456.471 661.462 456.632 661.519 456.788C661.588 457.072 661.666 457.356 661.745 457.631C661.823 457.905 661.911 458.189 662.019 458.473C662.293 459.336 662.607 460.179 662.93 461.002C663.117 461.423 663.293 461.835 663.479 462.237C663.504 462.304 663.534 462.369 663.567 462.433C663.646 462.609 663.724 462.785 663.812 462.952C663.901 463.119 663.969 463.285 664.057 463.442C664.146 463.599 664.273 463.863 664.381 464.069C664.489 464.275 664.587 464.442 664.675 464.628C664.89 465.03 665.116 465.422 665.361 465.804C665.465 465.99 665.579 466.17 665.704 466.343C665.939 466.725 666.184 467.097 666.439 467.47C666.694 467.842 667.037 468.332 667.35 468.754L667.448 468.871C667.732 469.244 668.017 469.616 668.311 469.969C668.398 470.062 668.48 470.16 668.556 470.263C668.82 470.576 669.085 470.88 669.369 471.184L669.487 471.321C669.849 471.713 670.202 472.086 670.565 472.458L671.545 473.379C671.711 473.516 671.868 473.663 672.015 473.801C672.329 474.075 672.642 474.349 672.995 474.604L673.652 475.143L673.828 475.28L674.808 476.006C674.931 476.1 675.058 476.189 675.19 476.27C675.229 476.311 675.276 476.345 675.327 476.368C675.546 476.543 675.775 476.703 676.013 476.848L676.993 477.476C677.199 477.613 677.425 477.74 677.64 477.858L678.258 478.211C678.47 478.346 678.689 478.471 678.914 478.583L679.11 478.681C679.443 478.877 679.806 479.053 680.149 479.22L680.384 479.318C680.747 479.504 681.119 479.671 681.492 479.828C681.654 479.909 681.821 479.981 681.991 480.043C682.325 480.19 682.687 480.327 683.04 480.465L683.677 480.69C683.834 480.759 684.02 480.817 684.196 480.876C684.735 481.062 685.284 481.239 685.833 481.386C686.117 481.474 686.401 481.543 686.676 481.611C687.509 481.837 688.371 482.023 689.224 482.17L689.949 482.297L691.037 482.444C691.713 482.532 692.409 482.601 693.105 482.64H693.222C693.957 482.689 694.692 482.709 695.437 482.709H799.317C800.64 482.709 801.973 482.709 803.237 482.768H804.344C806.363 482.839 808.366 482.957 810.352 483.12L811.273 483.199L811.92 483.258L813.311 483.395L814.899 483.571C815.389 483.62 815.879 483.679 816.359 483.748C817.476 483.885 818.603 484.042 819.711 484.218L821.298 484.463H821.504L822.935 484.708C824.17 484.924 825.414 485.159 826.649 485.423L829.021 485.933L831.402 486.482C832.872 486.844 834.342 487.227 835.783 487.638L836.096 487.726C836.684 487.883 837.263 488.05 837.831 488.226C838.811 488.52 839.791 488.834 840.771 489.147L842.339 489.667C843.241 489.971 844.162 490.284 845.063 490.647C845.965 491.009 846.798 491.274 847.641 491.627H847.749C848.64 491.97 849.532 492.323 850.414 492.685C851.296 493.048 852.178 493.42 853.041 493.802C853.903 494.185 854.471 494.43 855.187 494.782C855.53 494.92 855.843 495.076 856.167 495.223H856.216C856.902 495.537 857.568 495.851 858.244 496.203C859.95 497.027 861.625 497.899 863.291 498.8C864.598 499.519 865.905 500.257 867.211 501.015C867.79 501.348 868.348 501.682 868.907 501.995L870.377 502.897C873.983 505.131 877.462 507.526 880.814 510.08L882.137 511.109C884.342 512.834 886.517 514.627 888.615 516.489C888.997 516.832 889.389 517.175 889.761 517.528L890.33 518.038C890.741 518.42 891.153 518.792 891.555 519.184C891.956 519.576 892.26 519.851 892.623 520.164C895.014 522.451 897.301 524.823 899.483 527.279C899.963 527.808 900.463 528.347 900.914 528.886L901.786 529.866L903.138 531.454C903.707 532.16 904.295 532.865 904.863 533.59C906.607 535.779 908.27 538.017 909.851 540.303C910.282 540.901 910.694 541.499 911.096 542.107C911.331 542.45 911.556 542.802 911.792 543.155C912.184 543.733 912.556 544.312 912.938 544.9C926.763 566.559 934.095 591.724 934.067 617.42V620.663C934.067 620.663 934.008 622.81 933.949 623.888C933.891 624.966 933.94 626.132 933.94 627.2C933.94 628.268 933.773 629.327 933.675 630.385C933.587 631.267 933.499 632.149 933.401 633.021C933.401 633.384 933.312 633.737 933.263 634.099C933.165 634.962 933.058 635.824 932.93 636.686L932.46 639.744C932.464 639.773 932.464 639.803 932.46 639.832C932.293 640.812 932.107 641.88 931.911 642.89C931.8 643.497 931.682 644.105 931.558 644.713C931.45 645.261 931.323 645.81 931.215 646.359C931.019 647.241 930.823 648.123 930.608 649.005C930.392 649.887 930.137 650.965 929.873 651.945C929.608 652.925 929.304 654.091 929 655.15C928.697 656.208 928.422 657.061 928.138 658.001C927.854 658.942 927.53 659.893 927.158 660.824C927.164 660.859 927.164 660.896 927.158 660.932C926.835 661.912 926.482 662.892 926.178 663.803C926.184 663.849 926.184 663.895 926.178 663.94C925.825 664.871 925.492 665.792 925.129 666.704C924.767 667.615 924.404 668.527 924.032 669.428C924.005 669.485 923.982 669.544 923.963 669.605C923.561 670.526 923.179 671.447 922.768 672.349C922.356 673.25 921.925 674.201 921.494 675.122C921.131 675.867 920.778 676.621 920.406 677.356C920.288 677.621 920.151 677.876 920.024 678.14C919.7 678.758 919.396 679.365 919.044 679.973C918.828 680.404 918.593 680.835 918.358 681.257L917.681 682.492C917.446 682.933 917.201 683.374 916.946 683.805C916.692 684.236 916.349 684.873 916.045 685.402C915.741 685.931 915.584 686.196 915.339 686.588L914.359 688.156C914.212 688.401 914.065 688.646 913.899 688.891C913.467 689.606 913.007 690.312 912.546 691.008C911.997 691.851 911.449 692.693 910.88 693.526C910.312 694.359 909.773 695.124 909.214 695.908C907.45 698.397 905.588 700.821 903.628 703.179C902.991 703.954 902.354 704.718 901.668 705.482C900.982 706.247 900.365 707.001 899.708 707.746C899.052 708.491 898.111 709.51 897.278 710.373C896.445 711.235 895.631 712.088 894.798 712.93C892.067 715.668 889.219 718.281 886.253 720.77C885.047 721.75 883.803 722.799 882.558 723.769C882.254 724.024 881.921 724.269 881.578 724.504L881.372 724.661C880.118 725.634 878.847 726.575 877.56 727.483C877.031 727.866 876.482 728.248 875.943 728.62L874.816 729.394C873.336 730.374 871.876 731.354 870.308 732.334C869.681 732.736 869.034 733.128 868.348 733.51H868.299C867.515 733.971 866.731 734.432 865.918 734.882C865.104 735.333 864.301 735.794 863.468 736.235C862.635 736.676 861.851 737.107 861.018 737.528L860.92 737.587L858.431 738.832C857.098 739.479 855.755 740.106 854.383 740.713C853.815 740.978 853.217 741.233 852.629 741.488C851.247 742.076 849.875 742.644 848.484 743.183C847.847 743.438 847.219 743.673 846.582 743.908L844.701 744.604L842.515 745.359C840.967 745.878 839.419 746.339 837.841 746.838C837.174 747.034 836.508 747.23 835.822 747.417C835.136 747.603 834.46 747.799 833.764 747.975C833.068 748.152 832.372 748.338 831.677 748.504L829.844 748.945C823.569 750.381 817.199 751.364 810.783 751.885L809.127 752.013C808.529 752.013 807.912 752.101 807.314 752.13C806.099 752.209 804.874 752.258 803.649 752.297C802.257 752.297 800.865 752.356 799.464 752.356H710.843C707.488 752.346 704.162 752.975 701.043 754.208C700.719 754.326 700.425 754.453 700.121 754.59L699.484 754.874C699.2 755.002 698.926 755.139 698.651 755.286C698.377 755.433 698.24 755.492 698.034 755.609C697.255 756.025 696.499 756.483 695.77 756.981L694.967 757.55C694.359 757.991 693.781 758.461 693.212 758.951C693.16 758.986 693.114 759.029 693.075 759.079C692.83 759.284 692.605 759.5 692.36 759.725C692.311 759.785 692.255 759.838 692.193 759.882L691.625 760.46C691.243 760.852 690.87 761.254 690.527 761.656C690.184 762.058 690.018 762.254 689.782 762.558C689.517 762.871 689.268 763.198 689.038 763.538C688.308 764.54 687.653 765.595 687.078 766.693C687.047 766.723 687.023 766.76 687.009 766.801C686.862 767.085 686.715 767.379 686.588 767.673C686.362 768.134 686.156 768.653 685.96 769.075C685.764 769.496 685.676 769.829 685.529 770.221C685.382 770.613 685.274 770.976 685.167 771.358C685.162 771.41 685.162 771.463 685.167 771.515C685.039 771.897 684.941 772.279 684.843 772.671C684.745 773.063 684.647 773.504 684.569 773.916C684.481 774.327 684.412 774.749 684.343 775.17C684.339 775.203 684.339 775.236 684.343 775.268C684.343 775.67 684.245 776.091 684.206 776.503C684.167 776.915 684.128 777.228 684.108 777.591C684.089 777.953 684.108 778.571 684.108 779.08V879.06H236.454V779.149C236.454 778.424 236.454 777.718 236.356 777.013C218.382 774.463 201.85 765.756 189.581 752.375H157.054C155.094 752.375 153.157 752.333 151.243 752.248C150.263 752.248 149.361 752.15 148.421 752.091C147.48 752.032 146.764 751.974 145.961 751.905C144.863 751.817 143.795 751.709 142.717 751.591C141.864 751.503 141.041 751.395 140.198 751.288L139.356 751.18L137.513 750.915L136.945 750.827C136.073 750.69 135.22 750.553 134.348 750.396C72.4052 739.394 27.2834 685.535 27.3024 622.623V612.422C27.2856 606.609 27.6128 600.8 28.2824 595.027C62.8956 605.015 86.7275 636.695 86.7296 672.721C86.7346 680.772 85.5389 688.778 83.182 696.476H83.4172C102.762 696.481 119.948 708.828 126.126 727.16C132.437 701.008 155.134 682.078 181.994 680.564C208.853 679.049 233.534 695.308 242.746 720.584C245.522 693.963 259.716 669.858 281.649 654.517C303.583 639.177 331.094 634.112 357.053 640.636C356.688 637.769 356.502 634.882 356.494 631.992C356.499 629.412 356.643 626.834 356.925 624.27C358.749 607.771 366.426 592.472 378.564 581.15C388.61 571.736 401.234 565.529 414.824 563.324C412.668 555.048 411.403 546.565 411.051 538.02C410.953 536.256 410.914 534.472 410.914 532.689C410.914 530.053 411.012 527.436 411.159 524.849C413.45 489.224 431.345 456.426 460.061 435.218C461.188 434.375 462.344 433.542 463.53 432.739C474.871 424.923 487.466 419.106 500.77 415.54C503.455 414.824 506.16 414.197 508.904 413.668C514.676 412.547 520.523 411.856 526.397 411.6C526.024 409.207 525.775 406.796 525.652 404.377C525.652 403.584 525.583 402.79 525.583 401.986C525.607 396.274 526.398 390.592 527.935 385.091C526.759 384.64 525.613 384.18 524.466 383.69C519.072 381.42 513.882 378.692 508.953 375.536C506.15 373.752 503.435 371.822 500.819 369.774C475.576 350.089 460.832 319.856 460.864 287.846C460.864 287.169 460.864 286.503 460.864 285.837C460.922 282.265 461.174 278.699 461.619 275.155C465.56 243.044 484.222 214.597 512.108 198.195C538.343 182.774 570.014 179.611 598.78 189.542C628.87 166.357 669.266 161.584 703.931 177.117C738.596 192.65 761.921 225.977 764.645 263.865C765.252 263.806 765.85 263.757 766.438 263.728C767.418 263.659 768.476 263.63 769.505 263.63C780.174 263.623 790.533 267.218 798.905 273.832C805.41 278.963 810.475 285.692 813.605 293.363C834.117 279.595 858.126 271.954 882.823 271.333C883.969 271.333 885.126 271.284 886.302 271.284C903.31 271.262 920.157 274.575 935.89 281.035C946.775 295.282 952.658 312.722 952.628 330.652C952.628 332.387 952.56 334.121 952.462 335.826C951.227 355.735 942.75 374.503 928.628 388.59L927.06 390.118L925.482 391.569C924.953 392.049 924.394 392.549 923.855 392.99C923.316 393.431 922.875 393.823 922.366 394.225C921.709 394.773 921.053 395.303 920.406 395.812C919.926 396.185 919.426 396.547 918.936 396.91C918.26 397.41 917.554 397.89 916.848 398.38C916.368 398.713 915.868 399.036 915.378 399.36L915.173 399.507C914.702 399.811 914.193 400.105 913.742 400.399C913.007 400.859 912.262 401.31 911.498 401.741C910.733 402.172 910.224 402.457 909.596 402.8C908.969 403.143 908.313 403.486 907.636 403.78C906.96 404.074 906.333 404.436 905.676 404.76C905.02 405.083 904.373 405.367 903.716 405.651C903.695 405.662 903.669 405.662 903.648 405.651C903.011 405.945 902.344 406.22 901.688 406.484H901.6C900.943 406.749 900.277 407.014 899.64 407.268C897.68 408.023 895.573 408.709 893.505 409.307L892.427 409.611L891.016 409.983C890.418 410.14 889.83 410.277 889.242 410.414C888.046 410.689 886.851 410.943 885.645 411.159L883.813 411.473L882.382 411.688L881.657 411.786L879.932 412.002C878.854 412.119 877.756 412.227 876.649 412.296C875.992 412.296 875.336 412.384 874.689 412.413L872.895 412.482C872.19 412.482 871.484 412.482 870.769 412.482H695.466C694.722 412.482 693.987 412.482 693.252 412.56L692.399 412.619L691.056 412.756C690.615 412.815 690.174 412.874 689.724 412.952C689.273 413.031 688.871 413.099 688.45 413.188L688.028 413.276C687.764 413.335 687.479 413.393 687.205 413.472C686.931 413.55 686.656 413.599 686.382 413.678C686.107 413.756 685.813 413.825 685.539 413.913L684.902 414.109C684.575 414.207 684.249 414.315 683.922 414.432L683.285 414.658C682.442 414.971 681.609 415.314 680.796 415.638L679.679 416.177C677.385 417.338 675.226 418.748 673.24 420.381C672.838 420.694 672.476 421.018 672.093 421.361C671.711 421.704 671.349 422.027 671.006 422.341C670.663 422.654 670.3 423.037 669.967 423.399C669.643 423.742 669.32 424.085 668.987 424.448L668.918 424.507C668.918 424.507 668.869 424.556 668.869 424.585C668.605 424.859 668.379 425.144 668.134 425.438C667.889 425.732 667.605 426.114 667.35 426.467C663.549 431.566 661.217 437.609 660.608 443.94V443.94Z" fill="#C9CEF7"/>
<path opacity="0.36" d="M491.783 322.234C501.455 346.296 521.826 364.448 546.84 371.293C511.479 349.726 497.4 305.412 513.829 267.391C530.258 229.37 572.178 209.254 612.117 220.226C581.536 201.574 542.444 204.62 515.12 227.783C487.796 250.945 478.391 289.011 491.783 322.234V322.234Z" fill="white"/>
<path opacity="0.36" d="M952.698 330.652C952.698 332.387 952.629 334.121 952.531 335.826C951.384 334.494 950.189 333.18 948.954 331.906C926.67 308.871 893.299 300.375 862.712 309.95C832.126 319.524 809.556 345.533 804.384 377.163C803.821 372.353 803.664 367.505 803.914 362.669C805.722 329.004 827.307 299.61 858.888 287.808C890.468 276.006 926.04 284.04 949.483 308.269C949.542 308.328 949.601 308.377 949.65 308.435C951.674 315.667 952.7 323.142 952.698 330.652V330.652Z" fill="white"/>
<path d="M218.834 248.714H201.664V223.44L253.114 171.99V263.248C244.141 253.94 231.762 248.692 218.834 248.714V248.714Z" fill="#D9DCFB"/>
<path d="M571.546 333.778V878.962H151.243V469.508C155.06 462.933 157.065 455.463 157.055 447.86V405.72C157.049 374.027 181.041 347.478 212.572 344.284C213.774 344.16 214.989 344.071 216.217 344.019C217.08 344.019 217.952 343.96 218.814 343.96C243.577 343.955 264.207 324.978 266.276 300.301H276.36V246.294L321.273 236.18L414.079 285.856H500.78L571.546 333.778Z" fill="#D9DCFB"/>
<path d="M249.008 364.197V878.962H151.243V469.508C155.06 462.933 157.065 455.463 157.055 447.86V405.72C157.049 374.028 181.041 347.478 212.572 344.284L249.008 364.197Z" fill="#C5CAEF"/>
<path d="M463.521 285.846H500.79V878.962H463.521V285.846Z" fill="#C5CAEF"/>
<path d="M899.64 294.216V407.347C890.409 410.821 880.624 412.595 870.76 412.58H798.975V256.946L899.64 294.216Z" fill="#D9DCFB"/>
<path d="M899.64 527.358V878.962H798.975V482.67H799.386C800.709 482.67 802.042 482.67 803.306 482.728H804.414C806.432 482.8 808.435 482.918 810.421 483.081L811.342 483.16L811.989 483.218L813.381 483.356L814.968 483.532C815.458 483.581 815.948 483.64 816.428 483.708C817.546 483.846 818.673 484.002 819.78 484.179L821.368 484.424H821.573L823.004 484.669C824.239 484.884 825.484 485.12 826.718 485.384L829.09 485.894L831.471 486.443C832.941 486.805 834.411 487.187 835.852 487.599L836.166 487.687C836.754 487.844 837.332 488.011 837.9 488.187C838.88 488.481 839.86 488.795 840.84 489.108L842.408 489.628C843.31 489.931 844.231 490.245 845.133 490.608C846.034 490.97 846.867 491.235 847.71 491.588H847.818C848.71 491.931 849.601 492.283 850.483 492.646C851.365 493.009 852.247 493.381 853.11 493.763C853.972 494.145 854.541 494.39 855.256 494.743C855.599 494.88 855.913 495.037 856.236 495.184H856.285C856.971 495.498 857.637 495.811 858.314 496.164C860.019 496.997 861.695 497.86 863.361 498.761C864.667 499.48 865.974 500.218 867.281 500.976C867.859 501.309 868.417 501.642 868.976 501.956L870.446 502.858C874.052 505.092 877.531 507.486 880.883 510.041L882.206 511.07C884.411 512.795 886.587 514.588 888.684 516.45C889.066 516.793 889.458 517.136 889.83 517.489L890.399 517.999C890.81 518.381 891.222 518.753 891.624 519.145C892.026 519.537 892.329 519.812 892.692 520.125C895.129 522.49 897.445 524.901 899.64 527.358V527.358Z" fill="#D9DCFB"/>
<path d="M798.974 328.447V412.59H749.543V358.112L798.974 328.447Z" fill="#C5CAEF"/>
<path d="M749.533 482.67H798.974V878.962H749.533V482.67Z" fill="#C5CAEF"/>
<path d="M660.609 443.94C660.491 445.155 660.422 446.38 660.422 447.625V448.703C660.422 448.703 660.422 449.281 660.422 449.565C660.422 449.849 660.422 450.143 660.422 450.428L660.481 451.192L660.599 452.172C660.599 452.544 660.707 452.917 660.756 453.289L660.873 453.916C660.873 454.171 660.952 454.416 661.01 454.671C661.128 455.22 661.246 455.769 661.393 456.308C661.42 456.471 661.463 456.632 661.52 456.788C661.589 457.072 661.667 457.356 661.745 457.631C661.824 457.905 661.912 458.189 662.02 458.473C662.294 459.336 662.608 460.179 662.931 461.002C663.117 461.423 663.294 461.835 663.48 462.237C663.666 462.638 663.852 463.04 664.058 463.442C664.264 463.844 664.342 464.01 664.499 464.285C664.558 464.402 664.627 464.51 664.676 464.628C664.891 465.03 665.117 465.422 665.362 465.804L665.705 466.343C665.94 466.725 666.185 467.097 666.44 467.47C666.694 467.842 667.037 468.332 667.351 468.754L667.449 468.871C667.733 469.244 668.017 469.616 668.311 469.969C668.399 470.062 668.481 470.16 668.556 470.263C668.821 470.576 669.086 470.88 669.37 471.184L669.487 471.321C669.85 471.713 670.203 472.086 670.565 472.458L671.545 473.379C671.712 473.516 671.869 473.663 672.016 473.801C672.329 474.075 672.643 474.349 672.996 474.604L673.652 475.143L673.829 475.28L674.809 476.006C674.931 476.1 675.059 476.189 675.191 476.27C675.23 476.311 675.277 476.345 675.328 476.368C675.544 476.535 675.779 476.692 676.014 476.848L676.994 477.476C677.2 477.613 677.425 477.74 677.641 477.858L678.258 478.211C678.47 478.346 678.69 478.471 678.915 478.583L679.111 478.681C679.444 478.867 679.807 479.044 680.15 479.22L680.385 479.318C680.748 479.504 681.12 479.671 681.492 479.828C681.655 479.909 681.822 479.981 681.992 480.043C682.325 480.19 682.688 480.327 683.041 480.465L683.678 480.69C683.835 480.759 684.021 480.817 684.197 480.876C684.736 481.062 685.285 481.239 685.834 481.386C686.118 481.474 686.402 481.543 686.677 481.611C687.51 481.837 688.372 482.023 689.225 482.17L689.95 482.297L691.038 482.444C691.714 482.532 692.41 482.601 693.105 482.64H693.223V878.962H646.095V310.19L693.252 290.413V412.668L692.4 412.727L691.057 412.864C690.616 412.923 690.175 412.982 689.724 413.06C689.274 413.139 688.872 413.207 688.45 413.295L688.029 413.384C687.764 413.442 687.48 413.501 687.206 413.58C686.931 413.658 686.657 413.707 686.383 413.785C686.108 413.864 685.814 413.932 685.54 414.021L684.903 414.217C684.576 414.315 684.249 414.422 683.923 414.54L683.286 414.765C682.443 415.079 681.61 415.422 680.797 415.745L679.679 416.284C677.386 417.446 675.227 418.856 673.241 420.489C672.839 420.802 672.476 421.126 672.094 421.469C671.712 421.812 671.349 422.135 671.006 422.449C670.663 422.762 670.301 423.144 669.968 423.507C669.644 423.85 669.331 424.203 668.988 424.556L668.919 424.614C668.919 424.614 668.87 424.663 668.87 424.693C668.605 424.967 668.38 425.251 668.135 425.545C667.89 425.839 667.606 426.222 667.351 426.574C663.568 431.643 661.237 437.647 660.609 443.94Z" fill="#D9DCFB"/>
<path d="M728.238 302.585V412.58H695.467C694.722 412.58 693.987 412.58 693.252 412.658V290.413L728.238 302.585Z" fill="#C5CAEF"/>
<path d="M695.467 482.67H728.238V878.962H693.252V482.601C693.987 482.65 694.722 482.67 695.467 482.67V482.67Z" fill="#C5CAEF"/>
<path d="M288.61 309.416H411.698V322.587H288.61V309.416Z" fill="#F3F4FE"/>
<path d="M561.471 384.905L508.924 383.2V316.001L561.471 351.33V384.905Z" fill="#F3F4FE"/>
<path d="M288.61 352.506H411.698V365.677H288.61V352.506Z" fill="#F3F4FE"/>
<path d="M288.61 395.606H411.698V408.778H288.61V395.606Z" fill="#F3F4FE"/>
<path d="M288.61 438.697H411.698V451.868H288.61V438.697Z" fill="#F3F4FE"/>
<path d="M288.61 481.797H411.698V494.969H288.61V481.797Z" fill="#F3F4FE"/>
<path d="M288.61 524.888H411.698V538.059H288.61V524.888Z" fill="#F3F4FE"/>
<path d="M288.61 567.989H411.698V581.16H288.61V567.989Z" fill="#F3F4FE"/>
<path d="M288.61 611.079H411.698V624.25H288.61V611.079Z" fill="#F3F4FE"/>
<path d="M288.61 654.17H411.698V667.341H288.61V654.17Z" fill="#F3F4FE"/>
<path d="M288.61 697.27H411.698V710.441H288.61V697.27Z" fill="#F3F4FE"/>
<path d="M288.61 740.361H411.698V753.532H288.61V740.361Z" fill="#F3F4FE"/>
<path d="M288.61 783.461H411.698V796.632H288.61V783.461Z" fill="#F3F4FE"/>
<path d="M288.61 826.552H411.698V839.723H288.61V826.552Z" fill="#F3F4FE"/>
<path d="M508.924 404.387H561.462V510.923H508.924V404.387Z" fill="#F3F4FE"/>
<path d="M508.924 535.443H561.462V641.978H508.924V535.443Z" fill="#F3F4FE"/>
<path d="M508.924 666.508H561.462V773.044H508.924V666.508Z" fill="#F3F4FE"/>
<path d="M508.924 790.037H561.462V854.932H508.924V790.037Z" fill="#F3F4FE"/>
<path d="M817.84 312.12H842.467V325.468H817.84V312.12Z" fill="#F3F4FE"/>
<path d="M652.2 342.314H686.471V303.251L652.2 319.333V342.314Z" fill="#F3F4FE"/>
<path d="M863.429 312.12H888.056V325.468H863.429V312.12Z" fill="#F3F4FE"/>
<path d="M817.84 347.234H842.467V360.581H817.84V347.234Z" fill="#F3F4FE"/>
<path d="M863.429 347.234H888.056V360.581H863.429V347.234Z" fill="#F3F4FE"/>
<path d="M817.84 382.347H842.467V395.695H817.84V382.347Z" fill="#F3F4FE"/>
<path d="M863.429 382.347H888.056V395.695H863.429V382.347Z" fill="#F3F4FE"/>
<path d="M842.477 489.706V501.035H817.84V487.677H835.94L836.254 487.766C836.842 487.922 837.42 488.089 837.989 488.265C838.969 488.559 839.949 488.873 840.929 489.187L842.477 489.706Z" fill="#F3F4FE"/>
<path d="M867.349 501.035H863.429V498.82C864.762 499.539 866.068 500.277 867.349 501.035Z" fill="#F3F4FE"/>
<path d="M817.84 522.791H842.467V536.138H817.84V522.791Z" fill="#F3F4FE"/>
<path d="M863.429 522.791H888.056V536.138H863.429V522.791Z" fill="#F3F4FE"/>
<path d="M817.84 557.904H842.467V571.252H817.84V557.904Z" fill="#F3F4FE"/>
<path d="M863.429 557.904H888.056V571.252H863.429V557.904Z" fill="#F3F4FE"/>
<path d="M817.84 593.018H842.467V606.365H817.84V593.018Z" fill="#F3F4FE"/>
<path d="M863.429 593.018H888.056V606.365H863.429V593.018Z" fill="#F3F4FE"/>
<path d="M817.84 628.131H842.467V641.479H817.84V628.131Z" fill="#F3F4FE"/>
<path d="M863.429 628.131H888.056V641.479H863.429V628.131Z" fill="#F3F4FE"/>
<path d="M817.84 663.244H842.467V676.592H817.84V663.244Z" fill="#F3F4FE"/>
<path d="M863.429 663.244H888.056V676.592H863.429V663.244Z" fill="#F3F4FE"/>
<path d="M817.84 698.358H842.467V711.706H817.84V698.358Z" fill="#F3F4FE"/>
<path d="M863.429 698.358H888.056V711.706H863.429V698.358Z" fill="#F3F4FE"/>
<path d="M817.84 733.461H842.467V746.809H817.84V733.461Z" fill="#F3F4FE"/>
<path d="M863.429 733.461H888.056V746.809H863.429V733.461Z" fill="#F3F4FE"/>
<path d="M817.84 768.575H842.467V781.923H817.84V768.575Z" fill="#F3F4FE"/>
<path d="M863.429 768.575H888.056V781.923H863.429V768.575Z" fill="#F3F4FE"/>
<path d="M817.84 803.688H842.467V817.036H817.84V803.688Z" fill="#F3F4FE"/>
<path d="M863.429 803.688H888.056V817.036H863.429V803.688Z" fill="#F3F4FE"/>
<path d="M817.84 838.802H842.467V852.149H817.84V838.802Z" fill="#F3F4FE"/>
<path d="M863.429 838.802H888.056V852.149H863.429V838.802Z" fill="#F3F4FE"/>
<path d="M652.2 353.907H686.461V373.115H652.2V353.907Z" fill="#F3F4FE"/>
<path d="M652.2 386.767H664.793V405.975H652.2V386.767Z" fill="#F3F4FE"/>
<path d="M673.878 386.767H686.471V405.975H673.878V386.767Z" fill="#F3F4FE"/>
<path d="M668.948 424.722C668.948 424.722 668.899 424.771 668.899 424.801C668.635 425.075 668.409 425.359 668.164 425.653C667.919 425.947 667.635 426.329 667.38 426.682C663.605 431.717 661.265 437.681 660.609 443.94H652.2V424.722H668.948Z" fill="#F3F4FE"/>
<path d="M664.783 464.579V476.799H652.2V457.582H661.853C662.567 460.016 663.55 462.362 664.783 464.579V464.579Z" fill="#F3F4FE"/>
<path d="M676.044 476.799H673.878V475.231C674.574 475.78 675.299 476.28 676.044 476.799Z" fill="#F3F4FE"/>
<path d="M652.2 495.547H686.461V514.755H652.2V495.547Z" fill="#F3F4FE"/>
<path d="M652.2 528.406H664.793V547.614H652.2V528.406Z" fill="#F3F4FE"/>
<path d="M673.878 528.406H686.471V547.614H673.878V528.406Z" fill="#F3F4FE"/>
<path d="M652.2 565.803H686.461V585.011H652.2V565.803Z" fill="#F3F4FE"/>
<path d="M652.2 598.663H664.793V617.871H652.2V598.663Z" fill="#F3F4FE"/>
<path d="M673.878 598.663H686.471V617.871H673.878V598.663Z" fill="#F3F4FE"/>
<path d="M652.2 636.059H686.461V655.267H652.2V636.059Z" fill="#F3F4FE"/>
<path d="M652.2 668.919H664.793V688.127H652.2V668.919Z" fill="#F3F4FE"/>
<path d="M673.878 668.919H686.471V688.127H673.878V668.919Z" fill="#F3F4FE"/>
<path d="M652.2 706.315H686.461V725.523H652.2V706.315Z" fill="#F3F4FE"/>
<path d="M652.2 739.175H664.793V758.383H652.2V739.175Z" fill="#F3F4FE"/>
<path d="M673.878 739.175H686.471V758.383H673.878V739.175Z" fill="#F3F4FE"/>
<path d="M652.2 776.572H686.461V795.78H652.2V776.572Z" fill="#F3F4FE"/>
<path d="M652.2 809.431H664.793V828.639H652.2V809.431Z" fill="#F3F4FE"/>
<path d="M673.878 809.431H686.471V828.639H673.878V809.431Z" fill="#F3F4FE"/>
<rect x="134.956" y="896.269" width="72.5788" height="17.2578" rx="8.6289" transform="rotate(-180 134.956 896.269)" fill="#7986BF"/>
<rect x="935.724" y="896.269" width="793.741" height="17.2578" rx="8.6289" transform="rotate(-180 935.724 896.269)" fill="#7986BF"/>
<circle cx="714.224" cy="853.747" r="25.0586" fill="#FF9F29"/>
<path d="M714.224 873.66C713.482 873.747 712.736 873.79 711.989 873.788C701.091 873.547 692.382 864.643 692.382 853.742C692.382 842.841 701.091 833.937 711.989 833.696C712.736 833.699 713.482 833.741 714.224 833.823C704.074 834.951 696.395 843.53 696.395 853.742C696.395 863.954 704.074 872.533 714.224 873.66V873.66Z" fill="#FFD42C"/>
<path d="M714.822 831.412C715.563 831.314 716.309 831.265 717.057 831.265C728.121 831.265 737.098 841.33 737.098 853.747C737.098 866.163 728.14 876.218 717.057 876.218C716.31 876.222 715.563 876.176 714.822 876.081C724.838 874.836 732.629 865.301 732.629 853.747C732.629 842.192 724.838 832.647 714.822 831.412H714.822Z" fill="#F07927"/>
<circle cx="714.224" cy="853.747" r="12.8772" fill="#F07927"/>
<circle cx="714.224" cy="853.747" r="6.4778" fill="#FFD42C"/>
<circle cx="344.95" cy="853.747" r="25.0586" fill="#FF9F29"/>
<path d="M344.96 873.66C344.222 873.747 343.479 873.79 342.735 873.788C331.837 873.547 323.128 864.643 323.128 853.742C323.128 842.841 331.837 833.937 342.735 833.696C343.479 833.698 344.221 833.741 344.96 833.823C334.81 834.951 327.132 843.53 327.132 853.742C327.132 863.954 334.81 872.533 344.96 873.66Z" fill="#FFD42C"/>
<path d="M345.558 831.412C346.295 831.314 347.038 831.265 347.782 831.265C358.856 831.265 367.823 841.33 367.823 853.747C367.823 866.163 358.856 876.218 347.782 876.218C347.038 876.222 346.295 876.176 345.558 876.081C355.573 874.836 363.364 865.301 363.364 853.747C363.364 842.192 355.573 832.647 345.558 831.412V831.412Z" fill="#F07927"/>
<circle cx="344.95" cy="853.747" r="12.8772" fill="#F07927"/>
<circle cx="344.95" cy="853.747" r="6.4778" fill="#FFD42C"/>
<path d="M487.953 602.958C480.733 624.45 457.457 636.02 435.965 628.799L230.605 559.808L256.75 481.987L462.118 550.982C483.61 558.202 495.18 581.478 487.96 602.97L487.953 602.958Z" fill="#652682"/>
<path d="M500.854 435.274L570.098 480.69L483.791 612.28C471.25 631.402 445.582 636.736 426.461 624.195C407.339 611.653 402.005 585.986 414.547 566.864L500.854 435.274V435.274Z" fill="#652682"/>
<path d="M254.311 489.273L233.06 552.527L207.374 543.897L228.624 480.643L254.311 489.273Z" fill="#EA8681"/>
<path fill-rule="evenodd" clip-rule="evenodd" d="M529.219 457.356C529.417 457.464 529.639 457.521 529.864 457.523H529.807C530.351 457.554 530.863 457.267 531.121 456.788L536.501 446.909C536.741 446.468 536.727 445.933 536.465 445.504C536.203 445.076 535.732 444.82 535.23 444.833C534.728 444.846 534.271 445.126 534.031 445.567L528.651 455.445C528.281 456.13 528.535 456.985 529.219 457.356ZM519.106 477.289C518.869 477.288 518.637 477.227 518.43 477.113C517.75 476.742 517.5 475.891 517.871 475.212L523.251 465.324C523.651 464.699 524.467 464.491 525.117 464.848C525.767 465.204 526.031 466.003 525.721 466.676L520.341 476.554C520.079 477.012 519.583 477.285 519.057 477.26L519.106 477.289ZM507.64 496.86C507.846 496.98 508.079 497.044 508.318 497.046L508.311 497.046H508.326L508.318 497.046C508.823 497.041 509.287 496.764 509.531 496.321L514.911 486.443C515.151 486.001 515.138 485.466 514.875 485.038C514.613 484.609 514.143 484.353 513.641 484.366C513.139 484.379 512.682 484.659 512.442 485.1L507.071 494.949C506.702 495.634 506.956 496.489 507.64 496.86ZM497.546 516.813C497.309 516.811 497.077 516.751 496.87 516.636C496.19 516.266 495.94 515.414 496.311 514.735L501.691 504.847C502.091 504.223 502.907 504.015 503.557 504.371C504.207 504.727 504.471 505.526 504.161 506.199L498.82 516.078C498.568 516.544 498.075 516.828 497.546 516.813ZM486.736 536.55C486.504 536.552 486.274 536.495 486.07 536.383C485.728 536.205 485.474 535.895 485.367 535.525C485.259 535.155 485.308 534.757 485.502 534.423L490.98 524.614C491.22 524.172 491.677 523.893 492.179 523.88C492.681 523.867 493.151 524.123 493.413 524.551C493.676 524.979 493.689 525.515 493.449 525.956L488.04 535.835C487.791 536.294 487.308 536.578 486.785 536.57L486.736 536.55ZM265.776 537.52C265.923 537.575 266.079 537.602 266.236 537.599L266.246 537.618C266.844 537.611 267.371 537.225 267.559 536.658C267.814 535.925 267.429 535.123 266.697 534.864L256.064 531.18C255.59 531.015 255.063 531.116 254.684 531.445C254.304 531.773 254.128 532.279 254.223 532.773C254.318 533.266 254.668 533.671 255.143 533.835L265.776 537.52ZM287.493 544.968C287.336 544.967 287.18 544.94 287.032 544.89L276.399 541.205C275.925 541.04 275.574 540.635 275.479 540.142C275.385 539.649 275.56 539.143 275.94 538.814C276.32 538.486 276.846 538.385 277.32 538.549L287.953 542.224C288.603 542.45 288.995 543.112 288.881 543.791C288.767 544.469 288.181 544.967 287.493 544.968ZM476.025 556.317C475.788 556.315 475.556 556.254 475.349 556.14C474.67 555.769 474.42 554.918 474.79 554.239L480.2 544.37C480.6 543.746 481.415 543.538 482.066 543.894C482.716 544.251 482.98 545.049 482.669 545.723L477.26 555.601C477.016 556.052 476.547 556.333 476.035 556.336L476.025 556.317ZM329.544 559.619C329.693 559.67 329.848 559.696 330.005 559.698C330.693 559.696 331.28 559.199 331.394 558.52C331.507 557.842 331.115 557.18 330.466 556.954L319.833 553.279C319.099 553.024 318.299 553.413 318.044 554.146C317.79 554.879 318.178 555.68 318.911 555.934L329.544 559.619ZM351.261 567.057C351.104 567.056 350.949 567.03 350.801 566.979L340.168 563.294C339.434 563.04 339.046 562.239 339.3 561.506C339.555 560.772 340.355 560.384 341.089 560.638L351.722 564.323C352.357 564.559 352.736 565.213 352.623 565.881C352.511 566.549 351.939 567.043 351.261 567.057ZM465.078 575.966C464.558 575.966 464.08 575.678 463.837 575.217C463.594 574.757 463.627 574.2 463.922 573.77C464.661 572.694 465.342 571.579 465.96 570.429L469.4 564.117C469.64 563.676 470.097 563.397 470.599 563.384C471.101 563.371 471.572 563.627 471.834 564.055C472.096 564.483 472.11 565.019 471.87 565.46L468.44 571.771C467.764 573.006 467.029 574.211 466.245 575.358C465.989 575.743 465.56 575.978 465.098 575.985L465.078 575.966ZM393.323 581.708C393.471 581.759 393.627 581.785 393.783 581.787C394.461 581.773 395.033 581.279 395.145 580.61C395.258 579.942 394.88 579.288 394.244 579.053L383.611 575.368C382.878 575.113 382.077 575.502 381.823 576.235C381.568 576.969 381.956 577.769 382.69 578.024L393.323 581.708ZM446.492 588.83C446.624 589.482 447.194 589.953 447.86 589.96C448.045 589.957 448.227 589.921 448.399 589.852C451.989 588.354 455.346 586.347 458.365 583.894C458.903 583.387 458.959 582.551 458.493 581.978C458.028 581.404 457.198 581.286 456.592 581.708C453.781 583.994 450.655 585.862 447.311 587.255C446.701 587.521 446.359 588.177 446.492 588.83ZM425.575 592.371C427.942 592.802 430.342 593.018 432.748 593.018C434.222 593.018 435.694 592.937 437.158 592.773C437.657 592.717 438.088 592.399 438.289 591.939C438.49 591.478 438.43 590.946 438.132 590.542C437.834 590.138 437.344 589.924 436.845 589.98C433.252 590.369 429.622 590.243 426.065 589.607C425.301 589.472 424.573 589.981 424.438 590.744C424.303 591.507 424.811 592.236 425.575 592.371ZM415.04 589.147C414.883 589.149 414.728 589.125 414.579 589.078L403.946 585.393C403.213 585.139 402.824 584.338 403.079 583.605C403.333 582.871 404.134 582.483 404.867 582.737L415.52 586.432C416.155 586.667 416.534 587.321 416.421 587.99C416.309 588.658 415.737 589.152 415.059 589.166L415.04 589.147ZM372.057 574.349C372.206 574.398 372.361 574.424 372.517 574.427C373.205 574.425 373.792 573.928 373.906 573.249C374.02 572.571 373.628 571.909 372.978 571.683L362.355 568.008C361.88 567.843 361.354 567.945 360.975 568.273C360.595 568.602 360.419 569.108 360.514 569.601C360.609 570.094 360.959 570.499 361.434 570.664L372.057 574.349ZM308.288 552.25C308.436 552.303 308.592 552.33 308.749 552.328C309.444 552.342 310.044 551.845 310.159 551.16C310.275 550.474 309.87 549.808 309.209 549.594L298.576 545.909C298.102 545.746 297.577 545.849 297.199 546.178C296.82 546.508 296.647 547.014 296.743 547.506C296.839 547.998 297.191 548.402 297.665 548.565L308.288 552.25ZM244.539 530.18C244.688 530.229 244.843 530.255 245 530.258C245.688 530.257 246.274 529.759 246.388 529.081C246.502 528.402 246.11 527.741 245.46 527.514L242.893 526.623C242.167 526.403 241.398 526.796 241.15 527.512C240.902 528.229 241.265 529.013 241.972 529.288L244.539 530.18Z" fill="#A877C5"/>
<path d="M503.827 530.58C483.624 519.869 475.928 494.808 486.639 474.604V474.604C497.35 454.4 522.411 446.704 542.615 457.415L645.071 511.732C665.275 522.443 672.97 547.504 662.259 567.708V567.708C651.548 587.911 626.487 595.607 606.283 584.896L503.827 530.58Z" fill="#813AAB"/>
<path d="M488.035 459.526L500.887 435.282L598.728 487.152L585.876 511.396C571.552 538.414 538.038 548.705 511.02 534.382C484.002 520.058 473.711 486.544 488.035 459.526L488.035 459.526Z" fill="#813AAB"/>
<path d="M633.362 507.292C644.073 509.284 653.552 515.452 659.713 524.437C665.874 533.422 668.211 544.488 666.209 555.197L626.395 768.145L545.65 753.049L585.464 540.1C589.631 517.814 611.075 503.125 633.362 507.292V507.292Z" fill="#813AAB"/>
<path d="M554.385 750.117L619.894 762.149L615.11 788.195L549.601 776.163L554.385 750.117Z" fill="#EF948C"/>
<rect x="253.585" y="810.96" width="523.389" height="32.0656" rx="16.0328" fill="#FFB829"/>
<path d="M776.964 826.993C776.966 831.246 775.278 835.325 772.271 838.332C769.263 841.34 765.184 843.028 760.931 843.025H269.608C260.756 843.02 253.581 835.845 253.575 826.993C253.575 825.825 253.706 824.661 253.967 823.523C255.604 830.865 262.125 836.082 269.647 836.067H760.931C768.453 836.082 774.974 830.865 776.611 823.523C776.854 824.664 776.972 825.827 776.964 826.993V826.993Z" fill="#FF9F29"/>
<path d="M532.434 452.819C532.245 452.818 532.058 452.778 531.885 452.701C531.541 452.554 531.269 452.277 531.129 451.929C530.99 451.582 530.994 451.193 531.141 450.849L533.355 445.684C533.696 445.03 534.484 444.749 535.162 445.039C535.84 445.33 536.181 446.093 535.943 446.792L533.728 451.956C533.51 452.479 533 452.819 532.434 452.819V452.819Z" fill="#A877C5"/>
<path fill-rule="evenodd" clip-rule="evenodd" d="M524.947 473.34H525.133C525.823 473.344 526.413 472.845 526.524 472.164C526.96 468.901 527.84 465.712 529.141 462.687L529.415 462.05C529.66 461.581 529.621 461.013 529.315 460.581C529.008 460.149 528.485 459.925 527.961 460.002C527.437 460.078 526.999 460.442 526.828 460.943L526.554 461.58C525.157 464.83 524.211 468.256 523.741 471.762C523.691 472.131 523.79 472.505 524.016 472.801C524.243 473.098 524.577 473.291 524.947 473.34ZM528.504 494.635C527.962 494.637 527.467 494.329 527.23 493.842C525.584 490.43 524.439 486.8 523.829 483.062C523.754 482.317 524.273 481.643 525.013 481.526C525.752 481.409 526.454 481.889 526.613 482.621C527.171 486.092 528.234 489.463 529.768 492.626C530.099 493.325 529.806 494.159 529.112 494.498C528.945 494.588 528.761 494.641 528.573 494.655L528.504 494.635ZM542.361 510.325C542.577 510.456 542.825 510.523 543.077 510.521L543.175 510.541C543.808 510.546 544.366 510.125 544.535 509.515C544.705 508.905 544.445 508.257 543.9 507.934C540.817 506.157 538.017 503.931 535.589 501.329C535.069 500.771 534.198 500.732 533.629 501.241C533.081 501.766 533.043 502.629 533.541 503.201C536.118 505.993 539.09 508.393 542.361 510.325ZM562.618 520.321C562.4 520.319 562.186 520.269 561.991 520.174L552.191 515.274C551.699 515.076 551.359 514.618 551.313 514.089C551.266 513.561 551.52 513.051 551.97 512.769C552.42 512.488 552.99 512.483 553.445 512.756L563.245 517.656C563.84 517.94 564.156 518.6 564.005 519.241C563.854 519.882 563.277 520.332 562.618 520.321ZM581.591 529.974C581.786 530.069 582 530.119 582.218 530.121L582.277 530.18C582.804 530.145 583.268 529.82 583.482 529.337C583.648 529.003 583.674 528.617 583.555 528.264C583.435 527.911 583.18 527.62 582.845 527.456L573.045 522.556C572.59 522.283 572.02 522.288 571.57 522.569C571.12 522.851 570.866 523.361 570.913 523.889C570.959 524.418 571.299 524.876 571.791 525.074L581.591 529.974ZM601.818 539.872C601.599 539.871 601.384 539.818 601.191 539.715L591.391 534.815C590.899 534.617 590.559 534.159 590.513 533.63C590.466 533.102 590.72 532.592 591.17 532.31C591.62 532.029 592.19 532.024 592.645 532.297L602.445 537.197C602.78 537.361 603.035 537.652 603.155 538.005C603.274 538.358 603.248 538.745 603.082 539.078C602.858 539.553 602.391 539.866 601.867 539.892L601.818 539.872ZM617.566 552.73C617.829 553.108 618.262 553.332 618.723 553.328L618.772 553.347C619.045 553.333 619.308 553.238 619.526 553.073C620.16 552.625 620.314 551.749 619.869 551.113C617.689 548.014 615.068 545.251 612.088 542.91C611.479 542.431 610.597 542.537 610.118 543.145C609.639 543.754 609.745 544.636 610.354 545.115C613.115 547.29 615.545 549.855 617.566 552.73ZM625.583 573.8C624.821 573.795 624.198 573.19 624.172 572.428C624.058 568.918 623.427 565.444 622.3 562.118C622.056 561.382 622.456 560.588 623.192 560.344C623.928 560.101 624.722 560.5 624.965 561.236C626.164 564.83 626.824 568.582 626.925 572.369C626.947 573.145 626.339 573.793 625.563 573.819L625.583 573.8ZM621.976 595.36H622.251L622.3 595.389C622.966 595.361 623.522 594.871 623.633 594.213L625.769 583.482C625.867 582.99 625.695 582.483 625.318 582.153C624.941 581.822 624.416 581.717 623.941 581.878C623.466 582.039 623.113 582.442 623.015 582.933L620.869 593.713C620.797 594.079 620.873 594.458 621.081 594.766C621.289 595.075 621.611 595.289 621.976 595.36ZM617.968 616.822C617.877 616.832 617.785 616.832 617.694 616.822C616.932 616.669 616.436 615.929 616.586 615.166L618.733 604.386C618.887 603.625 619.628 603.134 620.389 603.288C621.149 603.442 621.641 604.184 621.486 604.944L619.36 615.724C619.224 616.384 618.642 616.856 617.968 616.851V616.822ZM613.411 638.284C613.502 638.294 613.594 638.294 613.686 638.284V638.313C614.372 638.304 614.954 637.805 615.067 637.127L617.204 626.396C617.355 625.636 616.862 624.897 616.101 624.745C615.341 624.594 614.602 625.087 614.45 625.848L612.304 636.628C612.154 637.391 612.649 638.131 613.411 638.284ZM609.403 659.736H609.129C608.37 659.579 607.877 658.842 608.021 658.08L610.167 647.349C610.265 646.857 610.618 646.455 611.094 646.294C611.569 646.133 612.093 646.237 612.47 646.568C612.847 646.899 613.019 647.406 612.921 647.898L610.785 658.678C610.634 659.318 610.061 659.769 609.403 659.765V659.736ZM604.846 681.198C604.937 681.208 605.029 681.208 605.12 681.198V681.227C605.775 681.232 606.348 680.786 606.502 680.149L608.639 669.369C608.79 668.609 608.297 667.87 607.536 667.718C606.776 667.567 606.036 668.06 605.885 668.821L603.739 679.542C603.589 680.305 604.084 681.045 604.846 681.198ZM600.838 702.66C600.747 702.67 600.655 702.67 600.563 702.66C599.801 702.507 599.306 701.767 599.456 701.004L601.602 690.273C601.757 689.512 602.498 689.021 603.258 689.175C604.019 689.33 604.51 690.071 604.356 690.831L602.21 701.553C602.071 702.199 601.499 702.661 600.838 702.66ZM596.281 724.142H596.555C597.233 724.142 597.813 723.653 597.927 722.985L600.073 712.254C600.224 711.491 599.728 710.751 598.966 710.598C598.601 710.523 598.22 710.599 597.911 710.807C597.601 711.015 597.388 711.339 597.32 711.705L595.173 722.485C595.023 723.248 595.519 723.989 596.281 724.142ZM591.998 745.604C592.089 745.614 592.181 745.614 592.273 745.604C592.96 745.631 593.563 745.152 593.694 744.477L595.84 733.746C595.942 733.005 595.45 732.314 594.717 732.168C593.984 732.023 593.264 732.474 593.076 733.197L590.94 743.918C590.855 744.282 590.919 744.665 591.118 744.981C591.317 745.298 591.634 745.522 591.998 745.604Z" fill="#A877C5"/>
<path d="M588.98 761.891C588.889 761.901 588.797 761.901 588.706 761.891C588.341 761.82 588.019 761.607 587.811 761.298C587.603 760.989 587.527 760.61 587.599 760.245L588.696 754.727C588.768 754.208 589.121 753.772 589.614 753.594C590.107 753.415 590.658 753.525 591.045 753.878C591.432 754.231 591.592 754.769 591.46 755.276L590.362 760.794C590.215 761.438 589.641 761.894 588.98 761.891V761.891Z" fill="#A877C5"/>
<path d="M640.322 799.974H578.925C578.935 797.437 579.264 794.912 579.905 792.457C582.104 783.763 587.993 776.464 596.026 772.475C605.542 767.756 616.821 768.29 625.848 773.888C634.876 779.486 640.368 789.352 640.371 799.974H640.322Z" fill="#FFE7E9"/>
<path d="M615.734 781.814H617.233C631.127 781.814 642.39 793.077 642.39 806.971C642.39 807.283 642.266 807.582 642.045 807.803C641.825 808.023 641.526 808.147 641.214 808.147H591.753C591.441 808.147 591.142 808.023 590.922 807.803C590.701 807.582 590.577 807.283 590.577 806.971C590.577 793.077 601.84 781.814 615.734 781.814V781.814Z" fill="#652682"/>
<path d="M640.322 787.979L614.46 789.88L579.856 792.448C582.058 783.754 587.946 776.456 595.977 772.465L551.289 764.106L542.989 801.013C542.447 803.427 543.032 805.957 544.577 807.889C546.123 809.821 548.462 810.947 550.936 810.95H640.714C644.011 810.812 646.574 808.034 646.447 804.737V794.182C646.522 792.529 645.903 790.92 644.74 789.742C643.578 788.564 641.976 787.925 640.322 787.979V787.979Z" fill="#813AAB"/>
<path d="M568.694 794.78C567.668 798.084 564.478 800.227 561.031 799.929C557.584 799.63 554.81 796.971 554.367 793.539C553.923 790.108 555.93 786.831 559.188 785.666C559.122 785.866 559.067 786.068 559.022 786.274C558.602 788.18 558.956 790.175 560.008 791.82C561.059 793.465 562.721 794.625 564.627 795.045C565.98 795.349 567.392 795.257 568.694 794.78V794.78Z" fill="#652682"/>
<path d="M567.048 799.954C564.284 803.441 559.426 804.459 555.494 802.377C551.562 800.294 549.675 795.703 551.006 791.458C551.643 789.395 552.99 787.625 554.808 786.46C551.996 790 552.162 795.055 555.199 798.404C558.236 801.752 563.252 802.408 567.048 799.954V799.954Z" fill="#652682"/>
<circle cx="564.872" cy="789.929" r="3.822" fill="#652682"/>
<path d="M181.564 562.03L195.226 502.181C197.696 502.735 200.086 503.598 202.34 504.749C216.129 511.794 222.515 528.003 217.235 542.56C211.955 557.116 196.663 565.463 181.564 562.03H181.564Z" fill="#FFE7E9"/>
<path d="M204.729 542.119L204.395 543.581C201.303 557.126 187.816 565.6 174.271 562.508C173.637 562.363 173.241 561.732 173.386 561.099L184.394 512.879C184.539 512.246 185.169 511.85 185.803 511.995C192.307 513.48 197.955 517.488 201.505 523.137C205.054 528.787 206.214 535.615 204.729 542.119H204.729Z" fill="#4F1F68"/>
<path d="M193.246 564.696L197.166 539.069L202.37 504.769C210.362 508.844 216.17 516.214 218.265 524.937L236.366 483.228L202.232 466.921C200 465.852 197.402 465.857 195.173 466.935C192.944 468.012 191.326 470.044 190.776 472.458L170.765 559.972C170.162 563.219 172.302 566.34 175.547 566.95L185.837 569.292C187.433 569.732 189.14 569.486 190.546 568.613C191.953 567.741 192.931 566.321 193.246 564.696V564.696Z" fill="#652682"/>
<path d="M202.546 493.362C199.562 491.624 198.187 488.047 199.24 484.758C200.292 481.47 203.488 479.355 206.926 479.673C210.364 479.99 213.119 482.655 213.551 486.08L212.993 485.776C211.227 484.94 209.201 484.841 207.362 485.501C205.523 486.161 204.023 487.526 203.193 489.295C202.59 490.56 202.365 491.972 202.546 493.362V493.362Z" fill="#4F1F68"/>
<path d="M197.881 490.608C195.606 487.75 195.229 483.82 196.92 480.583C198.611 477.345 202.052 475.41 205.697 475.645C209.342 475.88 212.506 478.242 213.767 481.67C211.866 479.284 208.908 477.993 205.866 478.22C202.824 478.448 200.092 480.165 198.567 482.807C197.187 485.175 196.935 488.035 197.881 490.608V490.608Z" fill="#4F1F68"/>
<circle cx="208.141" cy="490.715" r="3.822" fill="#4F1F68"/>
<path d="M683.532 222.164L701.459 227.196L692.719 258.333C690.04 267.874 680.134 273.438 670.593 270.759L652.666 265.727L661.406 234.59C664.085 225.049 673.991 219.486 683.532 222.164V222.164Z" fill="#54233A"/>
<path d="M721.105 421.159C728.973 430.522 727.761 444.49 718.398 452.357V452.357C709.035 460.225 695.067 459.012 687.2 449.65L617.415 366.601C609.548 357.238 610.76 343.27 620.122 335.403V335.403C629.485 327.536 643.453 328.748 651.32 338.111L721.105 421.159Z" fill="#EF948C"/>
<path d="M721.77 448.84C720.79 450.136 719.666 451.317 718.418 452.358C709.055 460.227 695.085 459.016 687.215 449.653L617.4 366.647C611.956 360.188 610.661 351.194 614.064 343.462C617.467 335.73 624.973 330.609 633.413 330.26C627.12 338.498 627.388 350.001 634.06 357.935L703.846 441C708.053 446.013 714.266 448.902 720.81 448.889L721.77 448.84Z" fill="#EA8681"/>
<path d="M720.897 449.749C713 459.087 699.029 460.255 689.691 452.358V452.358C680.353 444.461 679.185 430.49 687.081 421.152L757.127 338.323C765.024 328.985 778.995 327.817 788.333 335.713V335.713C797.671 343.61 798.839 357.581 790.943 366.919L720.897 449.749Z" fill="#EF948C"/>
<circle cx="634.687" cy="355.975" r="37.9554" fill="#FFD9D9"/>
<path d="M653.66 383.582L598.78 487.138L500.878 435.267L523.222 393.127L555.778 331.701C565.045 314.216 582.937 303.003 602.713 302.287C622.49 301.57 641.146 311.459 651.655 328.227C662.163 344.996 662.928 366.097 653.66 383.582Z" fill="white"/>
<path d="M655.169 299.527L645.418 317.912L642.047 324.272C639.211 329.878 633.568 333.515 627.292 333.783C621.015 334.051 615.083 330.908 611.78 325.564C608.476 320.22 608.317 313.509 611.363 308.014L612.235 306.368L624.475 283.22C626.571 279.268 630.152 276.31 634.428 274.998C638.705 273.686 643.328 274.126 647.28 276.223L648.162 276.683C652.126 278.778 655.094 282.364 656.409 286.65C657.723 290.937 657.277 295.57 655.169 299.527V299.527Z" fill="#EF948C"/>
<path d="M655.169 299.527L645.418 317.912C633.78 315.983 622.557 312.079 612.235 306.368L624.476 283.22C626.571 279.268 630.152 276.31 634.429 274.998C638.705 273.686 643.328 274.126 647.28 276.223L648.162 276.683C652.127 278.778 655.094 282.364 656.409 286.65C657.723 290.937 657.277 295.57 655.169 299.527V299.527Z" fill="#EA8681"/>
<path d="M693.899 234.798C693.869 235.526 693.8 236.253 693.693 236.974C693.595 237.679 693.468 238.385 693.321 239.1L692.949 240.933L692.576 242.668L692.272 244.128L683.766 284.592C683.639 285.209 683.492 285.827 683.325 286.434C678.862 302.845 662.375 312.928 645.732 309.425L632.473 306.642C613.882 302.698 600.695 286.13 601.025 267.128C601.025 266.834 601.025 266.55 601.025 266.266C601.118 264.082 601.391 261.909 601.838 259.769L602.406 257.074L602.465 256.799L608.61 227.536L608.972 225.841L609.413 223.763L609.805 221.803L610.07 220.52L611.148 215.424L611.834 212.141L612.118 210.808L612.549 208.75C614.286 200.654 621.835 195.161 630.072 196C630.661 196.047 631.247 196.132 631.826 196.255L670.693 204.428C672.423 204.779 674.117 205.294 675.75 205.967C683.409 209.096 689.384 215.324 692.194 223.107C692.478 223.871 692.723 224.655 692.939 225.449C693.523 227.608 693.852 229.828 693.919 232.064C693.968 232.946 693.958 233.867 693.899 234.798V234.798Z" fill="#EF948C"/>
<circle cx="565.862" cy="341.853" r="37.9554" fill="#FFD9D9"/>
<circle cx="563.99" cy="343.529" r="24.3628" fill="#F7BCBC"/>
<path d="M391.083 429.633C379.614 433.878 366.875 428.022 362.631 416.553V416.553C358.386 405.084 364.242 392.345 375.711 388.1L553.432 322.324C564.901 318.079 577.64 323.936 581.884 335.405V335.405C586.129 346.874 580.273 359.612 568.804 363.857L391.083 429.633Z" fill="#EF948C"/>
<path d="M337.167 426.873C332.524 426.141 329.353 421.784 330.085 417.14V417.14C330.817 412.497 335.175 409.326 339.818 410.058L365.985 414.184C370.628 414.916 373.798 419.274 373.066 423.917V423.917C372.334 428.56 367.977 431.731 363.333 430.999L337.167 426.873Z" fill="#EA8681"/>
<path d="M345.933 422.118C334.023 416.933 328.572 403.074 333.758 391.164V391.164C338.944 379.255 352.803 373.804 364.712 378.99L383.581 387.206C395.491 392.392 400.941 406.25 395.756 418.16V418.16C390.57 430.07 376.711 435.52 364.801 430.335L345.933 422.118Z" fill="#EF948C"/>
<path d="M581.904 335.415C577.666 323.956 564.947 318.097 553.484 322.322L381.053 386.12L364.736 379.005C356.348 375.35 346.601 376.891 339.75 382.956C332.899 389.021 330.187 398.509 332.798 407.278C332.64 403.707 333.311 400.149 334.758 396.88C339.945 384.975 353.799 379.527 365.706 384.709L374.585 388.57L382.043 391.814L387.923 389.648L554.445 328.016C565.905 323.801 578.614 329.652 582.865 341.099C583.012 341.51 583.149 341.932 583.276 342.353C583.197 339.981 582.734 337.638 581.904 335.415V335.415Z" fill="#F3A6A0"/>
<path d="M316.953 409.49C312.643 407.614 310.671 402.599 312.547 398.289V398.289C314.424 393.979 319.439 392.007 323.749 393.883L367.426 412.902C371.736 414.778 373.708 419.793 371.831 424.103V424.103C369.955 428.413 364.94 430.386 360.63 428.509L316.953 409.49Z" fill="#EF948C"/>
<ellipse cx="367.204" cy="411.88" rx="11.4464" ry="14.7392" transform="rotate(-73.59 367.204 411.88)" fill="#F3A6A0"/>
<path d="M790.579 323.174C802.059 320.936 813.179 328.429 815.417 339.909V339.909C817.655 351.389 810.162 362.509 798.682 364.747L780.502 368.291C769.022 370.528 757.902 363.036 755.664 351.556V351.556C753.426 340.076 760.919 328.955 772.399 326.718L790.579 323.174Z" fill="#EF948C"/>
<path d="M818.509 317.732C822.661 316.922 826.682 319.632 827.492 323.783V323.783C828.301 327.935 825.591 331.957 821.44 332.766L779.337 340.973C775.186 341.782 771.164 339.072 770.355 334.921V334.921C769.546 330.769 772.255 326.747 776.407 325.938L818.509 317.732Z" fill="#EF948C"/>
<path d="M783.436 311.425C786.48 308.488 791.328 308.575 794.266 311.618V311.618C797.203 314.662 797.116 319.51 794.073 322.448L776.908 339.011C773.865 341.949 769.016 341.862 766.079 338.819V338.819C763.142 335.775 763.228 330.926 766.272 327.989L783.436 311.425Z" fill="#EA8681"/>
<circle cx="775.004" cy="339.423" r="15.092" fill="#EA8681"/>
<path d="M622.117 209.433L633.609 212.659L626.392 238.37C624.379 245.541 616.934 249.722 609.764 247.709L598.272 244.483L605.487 218.781C606.451 215.336 608.746 212.415 611.865 210.661C614.984 208.908 618.672 208.466 622.117 209.433V209.433Z" fill="#54233A"/>
<path d="M614.99 220.568L623.897 223.069L619.064 240.288C618.372 242.75 616.731 244.837 614.501 246.09C612.272 247.342 609.635 247.657 607.173 246.966L598.266 244.466L603.1 227.246C604.539 222.119 609.863 219.129 614.99 220.568V220.568Z" fill="#662F49"/>
<circle cx="605.072" cy="244.53" r="14.8568" fill="#EF948C"/>
<path d="M598.074 242.256C597.676 244.147 598.184 246.115 599.446 247.577C598.808 246.326 598.621 244.893 598.917 243.52C599.256 241.912 600.22 240.505 601.596 239.608C602.973 238.711 604.65 238.398 606.257 238.738C607.59 239.011 608.794 239.721 609.677 240.757C608.491 238.409 605.954 237.064 603.345 237.401C600.737 237.738 598.624 239.684 598.074 242.256V242.256Z" fill="#EA8681"/>
<path d="M697.584 229.977L604.592 213.209C609.222 187.53 633.793 170.466 659.472 175.097C685.151 179.727 702.214 204.297 697.584 229.977V229.977Z" fill="#813AAB"/>
<path d="M697.956 215.433C691.644 196.356 673.959 183.355 653.867 183.021C633.775 182.688 615.669 195.096 608.727 213.954L604.592 213.219C608.74 190.313 628.949 173.838 652.221 174.39C675.493 174.942 694.899 192.357 697.956 215.433V215.433Z" fill="#8942B7"/>
<path d="M598.105 210.819C598.655 207.766 601.576 205.738 604.628 206.289L714.527 226.102C717.579 226.652 719.607 229.573 719.057 232.625V232.625C718.507 235.677 715.586 237.705 712.534 237.155L602.635 217.341C599.583 216.791 597.555 213.871 598.105 210.819V210.819Z" fill="#652682"/>
<path d="M605.131 212.072C604.584 215.127 606.614 218.047 609.668 218.599L602.641 217.335C599.8 216.798 597.828 214.195 598.081 211.315C598.335 208.434 600.73 206.215 603.621 206.182C603.951 206.183 604.279 206.216 604.601 206.28L611.608 207.544C611.286 207.48 610.958 207.447 610.628 207.446C607.922 207.465 605.612 209.408 605.131 212.072V212.072Z" fill="#813AAB"/>
<path d="M643.86 202.429C641.338 205.537 636.991 206.469 633.416 204.668C629.841 202.867 628.003 198.819 629 194.942C629.996 191.065 633.559 188.406 637.559 188.552C637.398 188.737 637.251 188.934 637.118 189.14C635.373 191.703 635.161 195.011 636.564 197.776C637.966 200.541 640.762 202.323 643.86 202.429V202.429Z" fill="#FFB829"/>
<path d="M639.862 207.26C636.188 209.356 631.623 209.086 628.221 206.572C624.819 204.059 623.221 199.774 624.145 195.647C625.07 191.519 628.343 188.326 632.492 187.503C627.943 190.098 625.946 195.608 627.776 200.515C629.607 205.422 634.725 208.278 639.862 207.26V207.26Z" fill="#FFB829"/>
<circle cx="641.822" cy="195.549" r="4.4296" fill="#FFB829"/>
<path d="M647.967 385.679C645.444 388.787 641.098 389.719 637.522 387.918C633.947 386.117 632.109 382.069 633.106 378.192C634.103 374.315 637.665 371.656 641.665 371.802C641.504 371.989 641.353 372.185 641.215 372.39C639.462 374.953 639.247 378.267 640.653 381.035C642.06 383.803 644.864 385.583 647.967 385.679V385.679Z" fill="#813AAB"/>
<path d="M643.988 390.52C639.522 393.049 633.89 392.048 630.569 388.135C627.248 384.223 627.175 378.503 630.395 374.507C631.962 372.562 634.167 371.236 636.618 370.763C635.463 371.414 634.442 372.279 633.61 373.311C630.785 376.809 630.45 381.7 632.772 385.55C635.094 389.4 639.576 391.386 643.988 390.52V390.52Z" fill="#813AAB"/>
<circle cx="645.947" cy="378.809" r="4.4296" fill="#813AAB"/>
<circle cx="673.995" cy="249.949" r="3.5182" fill="#54233A"/>
<circle cx="646.33" cy="243.677" r="3.5182" fill="#54233A"/>
<path d="M479.866 376.399C482.541 375.409 485.513 376.774 486.503 379.449V379.449C487.493 382.124 486.127 385.096 483.452 386.086L445.807 400.018C443.132 401.008 440.16 399.643 439.17 396.968V396.968C438.18 394.293 439.546 391.321 442.221 390.331L479.866 376.399Z" fill="#F3A6A0"/>
<path d="M667.89 262.581C667.274 265.349 665.586 267.759 663.196 269.284C662.902 269.471 662.598 269.637 662.294 269.794C660.085 270.923 657.551 271.246 655.13 270.705L654.709 270.607C649.273 269.408 645.669 264.235 646.428 258.72C646.428 258.426 646.526 258.132 646.585 257.838C646.838 256.726 647.94 256.026 649.054 256.27L666.312 260.102C666.85 260.221 667.319 260.55 667.615 261.015C667.911 261.48 668.01 262.043 667.89 262.581V262.581Z" fill="#962F4A"/>
<path d="M655.277 269.049C655.155 269.591 654.981 270.119 654.757 270.627C649.293 269.449 645.661 264.257 646.427 258.72C647.229 258.662 648.034 258.722 648.818 258.896C651.023 259.383 652.943 260.728 654.154 262.633C655.366 264.537 655.77 266.846 655.277 269.049V269.049Z" fill="#E1617F"/>
<path d="M665.93 260.023C665.391 262.052 661.872 262.963 657.992 262.13C654.111 261.297 651.308 258.926 651.69 256.858L665.93 260.023Z" fill="white"/>
</svg>
