<svg width="980" height="980" viewBox="0 0 980 980" fill="none" xmlns="http://www.w3.org/2000/svg">
<path d="M963.095 513.736C963.105 542.373 951.734 569.841 931.484 590.091C911.234 610.341 883.766 621.713 855.128 621.702H767.085C756.531 621.702 747.975 630.258 747.975 640.812C747.975 651.366 756.531 659.922 767.085 659.922H793.379C825.989 659.922 853.683 683.801 858.48 716.057C858.945 719.24 859.177 722.453 859.176 725.67C859.17 762.009 829.717 791.467 793.379 791.477H787.234C769.065 791.475 751.64 798.691 738.793 811.538C725.946 824.386 718.729 841.811 718.732 859.979H237.552V826.307C237.552 807.071 221.958 791.477 202.723 791.477C185.403 791.499 168.778 784.668 156.477 772.475L156.192 772.201C135.439 751.479 130.892 719.529 145.04 693.84C146.464 691.257 148.069 688.778 149.842 686.421C151.799 683.77 153.958 681.273 156.3 678.954C168.616 666.713 185.28 659.848 202.644 659.863H321.91C332.464 659.863 341.02 651.308 341.02 640.753C341.02 630.199 332.464 621.643 321.91 621.643H124.881C73.4322 621.618 29.1444 585.302 19.0413 534.855C18.7963 533.698 18.5905 532.522 18.3945 531.346C17.4715 525.787 16.9898 520.164 16.9539 514.529C16.6991 480.416 32.7907 449.849 57.7611 429.857C77.1608 414.252 101.307 405.736 126.204 405.72H244.784C249.487 405.72 253.994 403.843 257.306 400.505C260.619 397.167 262.461 392.645 262.424 387.943C262.356 378.143 254.094 370.401 244.314 370.401H202.684C176.921 370.396 153.531 355.358 142.832 331.922C132.134 308.485 136.095 280.962 152.968 261.493C153.448 260.935 153.948 260.376 154.458 259.837C166.893 246.402 184.377 238.774 202.684 238.797H408.905C418.404 238.819 427.52 235.056 434.238 228.34C435.586 226.997 436.822 225.545 437.932 223.999C442.365 217.898 444.747 210.548 444.734 203.007C444.731 193.503 448.505 184.387 455.224 177.666C461.944 170.945 471.058 167.168 480.562 167.168H730.335C739.842 167.161 748.961 170.934 755.682 177.657C762.403 184.38 766.174 193.501 766.164 203.007V210.102C766.168 223.403 775.296 234.964 788.234 238.052C790.416 238.578 792.653 238.841 794.898 238.836C818.598 238.547 840.622 251.025 852.557 271.503C864.491 291.981 864.491 317.295 852.557 337.773C840.622 358.251 818.598 370.729 794.898 370.44H708.952C699.209 370.44 691.312 378.338 691.312 388.08C691.312 397.822 699.209 405.72 708.952 405.72H855.128C859.508 405.716 863.884 405.981 868.231 406.514C869.433 406.658 870.629 406.824 871.818 407.014C909.9 412.982 941.92 438.781 955.853 474.722L955.911 474.879C959.294 483.671 961.505 492.871 962.487 502.24V502.289C962.87 505.831 963.07 509.39 963.085 512.952C963.095 513.275 963.095 513.52 963.095 513.736Z" fill="#F3F4FE"/>
<rect x="77.1357" y="857.794" width="793.741" height="17.2578" rx="8.6289" fill="#D2D6FA"/>
<path d="M640.401 611.794L590.401 737.097L495.223 652.425L319.911 496.468L316.246 369.303L313.904 287.777L373.066 346.489L640.401 611.794Z" fill="#BDC7EF"/>
<path d="M561.853 645.869L495.213 652.426L149.871 686.432C151.829 683.78 153.988 681.283 156.329 678.964C168.645 666.723 185.309 659.859 202.674 659.874H321.94C332.494 659.874 341.05 651.318 341.05 640.764C341.05 630.209 332.494 621.654 321.94 621.654H124.881C72.0724 621.645 27.0137 583.451 18.3552 531.356L170.765 405.769L213.64 370.44L250.125 340.364L313.933 287.768L368.911 367.148L561.853 645.869Z" fill="#CBD2F7"/>
<path d="M859.176 725.671C859.17 762.009 829.717 791.467 793.378 791.478H787.234C769.065 791.475 751.64 798.691 738.793 811.538C725.946 824.386 718.729 841.811 718.732 859.98H237.552V826.307C237.552 807.071 221.958 791.478 202.723 791.478C185.403 791.499 168.778 784.668 156.476 772.475L156.192 772.201C137.35 753.39 131.706 725.075 141.896 700.478C152.085 675.88 176.098 659.85 202.723 659.873H321.989C330.573 659.877 338.103 654.145 340.383 645.869H748.72C751.01 654.143 758.539 659.872 767.124 659.873H793.418C810.869 659.871 827.606 666.802 839.946 679.142C852.286 691.482 859.217 708.219 859.215 725.671H859.176Z" fill="#CBD2F7"/>
<path d="M963.095 513.735C963.105 542.373 951.734 569.841 931.484 590.091C911.234 610.341 883.766 621.713 855.128 621.702H767.085C756.531 621.702 747.975 630.258 747.975 640.812C747.975 651.366 756.531 659.922 767.085 659.922H793.379C825.989 659.922 853.683 683.801 858.48 716.056H691.086L561.854 645.869L871.818 407.062C909.9 413.031 941.92 438.83 955.853 474.771L955.912 474.927C959.294 483.72 961.505 492.92 962.487 502.289V502.338C962.83 507.238 963.046 510.962 963.085 513.001C963.095 513.275 963.095 513.52 963.095 513.735Z" fill="#CBD2F7"/>
<path d="M122.284 479.495L19.002 534.914C18.757 533.757 18.5512 532.581 18.3552 531.405C17.4322 525.846 16.9505 520.223 16.9146 514.589C16.6598 480.475 32.7514 449.909 57.7218 429.917L122.284 479.495Z" fill="#CBD2F7"/>
<path d="M373.066 346.489L368.882 367.176L313.904 287.777L373.066 346.489Z" fill="#F0F1F7"/>
<path d="M368.882 367.176L337.375 349.85L321.597 373.517L316.246 369.303L295.568 353.006L267.177 365.628L250.096 340.373L313.904 287.777L368.882 367.176Z" fill="white"/>
<circle cx="490.216" cy="116.473" r="11.515" fill="#5787A0"/>
<path d="M501.701 117.306C501.481 120.354 500.057 123.189 497.745 125.187C495.433 127.185 492.421 128.182 489.373 127.958C488.094 127.866 486.84 127.564 485.659 127.067C489.897 125.251 492.646 121.084 492.646 116.473C492.646 111.862 489.897 107.695 485.659 105.879C489.354 104.305 493.602 104.767 496.871 107.1C500.14 109.433 501.959 113.3 501.672 117.306H501.701Z" fill="#44788E"/>
<path d="M635.734 424.955C636.602 429.424 633.683 433.749 629.215 434.617C624.746 435.485 620.421 432.566 619.553 428.098L614.103 400.035C613.235 395.567 616.154 391.241 620.623 390.373C625.091 389.506 629.417 392.425 630.285 396.893L635.734 424.955Z" fill="#FFB2BF"/>
<path d="M763.812 851.757C763.714 852.639 763.035 853.345 762.158 853.478C761.281 853.611 760.424 853.139 760.068 852.326L638.47 465.765L634.55 453.25L633.001 448.35L648.985 443.587L650.387 448.556L653.944 461.178L763.753 851.218C763.798 851.395 763.817 851.576 763.812 851.757Z" fill="#5787A0"/>
<path d="M763.812 851.757C763.717 852.635 763.046 853.341 762.173 853.481C761.301 853.621 760.443 853.16 760.078 852.355L650.269 462.315L646.712 449.692L645.32 444.792L648.976 443.705L650.377 448.673L653.935 461.296L763.744 851.336C763.782 851.473 763.805 851.614 763.812 851.757Z" fill="#619BB5"/>
<path d="M653.924 461.159L638.47 465.765L634.53 453.25L650.367 448.536L653.924 461.159Z" fill="#427084"/>
<path d="M625.15 392.802C630.929 391.08 637.009 394.369 638.73 400.147L651.456 442.862L630.512 449.102L617.783 406.378C616.959 403.6 617.272 400.609 618.653 398.063C620.035 395.517 622.372 393.624 625.15 392.802Z" fill="#5787A0"/>
<path d="M621.681 458.562C620.647 455.091 622.622 451.44 626.092 450.406L655.846 441.542C659.316 440.508 662.967 442.483 664.001 445.953C665.035 449.423 663.06 453.075 659.59 454.109L629.836 462.973C626.366 464.007 622.714 462.032 621.681 458.562Z" fill="#5787A0"/>
<path d="M659.599 454.083L649.279 457.16C651.951 455.763 653.324 452.722 652.604 449.794C651.883 446.867 649.256 444.81 646.241 444.812C645.605 444.813 644.972 444.902 644.36 445.077L639.94 446.4V446.272L627.2 403.691C626.152 400.138 623.361 397.366 619.801 396.341C621.869 393.8 624.973 392.328 628.249 392.333C633.07 392.333 637.32 395.496 638.705 400.114L651.445 442.832L655.875 441.509C656.479 441.327 657.106 441.235 657.737 441.235C661.003 441.221 663.782 443.614 664.253 446.846C664.724 450.078 662.743 453.164 659.609 454.083H659.599Z" fill="#619BB5"/>
<path d="M532.963 810.676H459.973L437.864 396.832H510.845L532.963 810.676Z" fill="#5787A0"/>
<path d="M532.953 810.676H521.477L499.359 396.832H510.844L532.953 810.676Z" fill="#699CB2"/>
<path d="M540.715 861.616L536.579 792.722L534.365 755.835L532.405 723.622C532.187 719.939 529.136 717.065 525.447 717.066H452.417C450.489 717.067 448.648 717.866 447.329 719.273C446.011 720.681 445.334 722.57 445.459 724.494L447.468 755.854L449.82 792.722L452.319 831.657C433.23 833.358 418.598 849.351 418.597 868.515C418.595 869.089 418.821 869.64 419.225 870.046C419.63 870.452 420.18 870.681 420.753 870.681H532.14C534.505 870.696 536.771 869.73 538.397 868.011C540.022 866.293 540.862 863.977 540.715 861.616Z" fill="#FFD9CD"/>
<path d="M540.715 861.616L536.579 792.722L534.365 755.835L532.405 723.622C532.187 719.939 529.136 717.065 525.447 717.066H452.417C450.489 717.067 448.648 717.866 447.329 719.273C446.011 720.681 445.334 722.57 445.459 724.494L447.468 755.854L449.82 792.722L452.319 831.657C433.23 833.358 418.598 849.351 418.597 868.515C418.595 869.089 418.821 869.64 419.225 870.046C419.63 870.452 420.18 870.681 420.753 870.681H532.14C534.505 870.696 536.771 869.73 538.397 868.011C540.022 866.293 540.862 863.977 540.715 861.616Z" fill="#FFD9CD"/>
<path d="M532.14 870.671H518.106C520.463 870.675 522.717 869.705 524.333 867.99C525.95 866.275 526.786 863.968 526.642 861.616L522.507 792.722L520.292 755.835L518.332 723.622C518.114 719.939 515.063 717.065 511.374 717.066H525.476C529.165 717.065 532.216 719.939 532.434 723.622L534.394 755.835L536.609 792.722L540.744 861.616C540.889 863.98 540.044 866.298 538.412 868.015C536.781 869.733 534.509 870.695 532.14 870.671Z" fill="#F9E5E1"/>
<path d="M536.579 792.722H449.83L447.468 755.835H534.365L536.579 792.722Z" fill="#CC488E"/>
<path d="M485.1 143.482H487.168C495.745 143.482 503.971 146.889 510.036 152.954C516.101 159.019 519.508 167.245 519.508 175.822V252.203C519.508 259.753 513.387 265.874 505.837 265.874H453.426C445.876 265.874 439.755 259.753 439.755 252.203V188.778C439.755 176.756 444.534 165.227 453.039 156.731C461.545 148.235 473.078 143.469 485.1 143.482Z" fill="#2B2137"/>
<path d="M469.587 291.511L425.487 321.41L406.19 334.493C399.401 339.304 390.541 340.069 383.027 336.493C375.514 332.917 370.52 325.559 369.973 317.255C369.425 308.952 373.408 301.002 380.387 296.469L402.388 281.554L404.965 279.8L443.764 253.477C454.266 246.357 468.552 249.099 475.672 259.602C482.792 270.105 480.05 284.391 469.547 291.511H469.587Z" fill="#F9CABD"/>
<path d="M415.354 321.029C413.336 328.678 407.527 334.752 399.975 337.107C392.423 339.463 384.19 337.768 378.182 332.622L377.516 332.024C377.29 331.818 377.094 331.622 376.889 331.417L376.644 331.172L376.242 330.74C375.918 330.388 375.595 330.035 375.311 329.662C375.027 329.29 374.889 329.133 374.684 328.859C374.057 328.021 373.491 327.14 372.988 326.223C372.841 325.968 372.714 325.713 372.586 325.448C372.459 325.184 372.322 324.919 372.204 324.645C371.94 324.057 371.685 323.449 371.469 322.832L348.527 257.868L345.94 250.625C345.644 249.783 345.392 248.926 345.186 248.058C342.257 236.092 349.289 223.947 361.123 220.529C372.957 217.11 385.382 223.634 389.286 235.318L414.766 307.524C416.318 311.863 416.523 316.571 415.354 321.029Z" fill="#F9CABD"/>
<path d="M397.596 258.828L358.112 275.38L355.172 276.625L348.586 258.005L348.537 257.858L347.479 254.859L345.94 250.625C345.649 249.779 345.4 248.919 345.195 248.048C342.588 236.592 349.042 225.014 360.158 221.208C371.273 217.401 383.469 222.591 388.433 233.24C388.737 233.906 389.021 234.612 389.285 235.318L397.596 258.828Z" fill="#FFB2BF"/>
<path d="M415.344 321.028C413.329 328.677 407.522 334.752 399.971 337.108C392.42 339.464 384.188 337.769 378.182 332.622C377.966 332.426 377.731 332.23 377.516 332.024C377.3 331.818 377.084 331.622 376.888 331.416L376.643 331.171C376.506 331.034 376.379 330.887 376.232 330.75C375.918 330.397 375.595 330.034 375.252 329.662L374.634 328.858C374.009 328.02 373.443 327.139 372.939 326.222C372.792 325.958 372.665 325.713 372.547 325.458C372.402 325.196 372.274 324.924 372.165 324.644C371.89 324.056 371.645 323.449 371.42 322.831L355.113 276.664L397.547 258.828L414.756 307.524C416.313 311.862 416.518 316.571 415.344 321.028Z" fill="#F9CABD"/>
<ellipse cx="359.476" cy="236.242" rx="24.304" ry="30.8308" transform="rotate(-69.46 359.476 236.242)" fill="#FFB2BF"/>
<path d="M401.653 336.512L400.8 336.836C393.051 339.574 384.43 337.972 378.182 332.631L377.516 332.024C377.29 331.828 377.084 331.622 376.888 331.416L376.643 331.171C376.506 331.034 376.379 330.887 376.232 330.75C375.918 330.397 375.595 330.034 375.252 329.672L374.634 328.868C374.012 328.024 373.445 327.14 372.939 326.222C372.795 325.975 372.664 325.719 372.547 325.458C372.396 325.198 372.268 324.926 372.165 324.644C371.89 324.056 371.645 323.449 371.42 322.831L355.113 276.664L358.053 275.419L374.438 321.861C374.664 322.469 374.909 323.076 375.173 323.674C375.29 323.945 375.421 324.21 375.565 324.468C375.682 324.736 375.813 324.998 375.957 325.252C376.463 326.166 377.026 327.046 377.643 327.888L378.28 328.692C378.564 329.054 378.888 329.417 379.211 329.76C379.338 329.917 379.476 330.044 379.613 330.191C379.69 330.278 379.771 330.359 379.858 330.436C380.055 330.651 380.264 330.854 380.485 331.044L381.151 331.651C386.801 336.483 394.435 338.293 401.653 336.512Z" fill="#FFD9CD"/>
<path d="M358.112 275.38L355.172 276.624L348.586 258.004C347.488 257.514 346.43 256.966 345.401 256.387L344.784 256.025C344.548 255.897 344.313 255.76 344.098 255.623C343.882 255.486 343.402 255.182 343.059 254.947C342.716 254.712 342.373 254.486 342.079 254.251C341.785 254.016 341.422 253.771 341.099 253.526C340.775 253.281 340.726 253.242 340.55 253.085C340.374 252.928 340.031 252.683 339.786 252.467C339.541 252.252 339.384 252.124 339.188 251.948C338.992 251.772 338.649 251.468 338.384 251.213C338.12 250.958 337.816 250.684 337.551 250.4C336.993 249.841 336.473 249.273 335.993 248.704C335.738 248.42 335.503 248.116 335.268 247.832C335.002 247.519 334.753 247.192 334.523 246.852C334.094 246.296 333.695 245.717 333.327 245.117C332.171 243.295 331.236 241.341 330.544 239.296C330.446 238.983 330.338 238.659 330.25 238.316C330.162 237.973 330.074 237.66 329.995 237.336C329.917 237.013 329.878 236.827 329.829 236.582C329.03 232.858 329.305 228.983 330.623 225.41C330.77 225.018 330.936 224.626 331.103 224.243C331.103 224.185 331.152 224.126 331.181 224.077C331.495 223.43 331.828 222.793 332.161 222.185C332.269 222.019 332.357 221.852 332.475 221.695C332.681 221.372 332.886 221.058 333.122 220.715C333.367 220.382 333.631 220.049 333.906 219.735C334.18 219.422 334.474 219.069 334.778 218.755L335.464 218.069L335.768 217.805C336.071 217.501 336.395 217.236 336.748 216.962C337.1 216.688 337.453 216.403 337.816 216.149C338.178 215.894 338.531 215.629 338.923 215.384L339.041 215.306C339.335 215.11 339.658 214.914 340.021 214.737C341.701 213.786 343.479 213.017 345.323 212.444C345.754 212.307 346.195 212.189 346.636 212.072C340.589 214.385 335.856 218.657 333.67 224.469C329.652 235.19 335.719 247.734 347.518 254.849C348.848 255.663 350.229 256.39 351.653 257.024L352.545 259.514L358.112 275.38Z" fill="#F9A0B4"/>
<path d="M620.379 816.33H547.409L479.671 421.772H553.249L620.379 816.33Z" fill="#8AB6C9"/>
<path d="M521.478 485.62C475.299 485.62 437.864 448.185 437.864 402.006V366.128H521.478V485.62Z" fill="#8AB6C9"/>
<rect x="528.534" y="379.534" width="97.7158" height="13.4064" rx="6.7032" transform="rotate(-180 528.534 379.534)" fill="#5787A0"/>
<path d="M521.478 366.138H437.864V305.613H521.478V366.138Z" fill="#FFF2EE"/>
<path d="M521.478 305.603H437.864V333.308L521.478 326.085V305.603Z" fill="#FFD9CD"/>
<path d="M654.944 390.255C655.419 399.648 650.105 408.378 641.544 412.27C632.982 416.163 622.911 414.428 616.146 407.895L525.986 320.803L496.586 292.383C487.482 283.59 487.23 269.083 496.022 259.979C504.815 250.876 519.322 250.623 528.426 259.416L647.986 374.899C652.178 378.943 654.667 384.437 654.944 390.255Z" fill="#FFF2EE"/>
<path d="M648.544 407.376C644.323 411.751 638.536 414.269 632.458 414.376C626.379 414.482 620.508 412.169 616.136 407.945L615.43 407.259L603.68 395.92L610.677 386.992L632.1 359.66L647.976 374.987C657.073 383.785 657.323 398.29 648.535 407.396L648.544 407.376Z" fill="#FFB2BF"/>
<ellipse cx="641.943" cy="400.412" rx="25.9112" ry="30.7524" transform="rotate(-51.26 641.943 400.412)" fill="#FFB2BF"/>
<path d="M610.657 386.963L603.68 395.92L496.566 292.461C496.233 292.148 495.906 291.821 495.586 291.481L495.468 291.364C495.213 291.079 494.959 290.776 494.714 290.491L494.567 290.286C494.341 290.011 494.126 289.727 493.92 289.443C493.862 289.379 493.81 289.31 493.763 289.237L493.136 288.326C493.115 288.272 493.085 288.223 493.048 288.179C492.359 287.083 491.762 285.933 491.264 284.739C491.264 284.69 491.264 284.631 491.215 284.582C491.068 284.249 490.941 283.906 490.823 283.602L490.745 283.377C490.627 283.043 490.529 282.71 490.431 282.397C490.416 282.333 490.396 282.271 490.372 282.21C490.264 281.818 490.176 281.446 490.088 281.054C490.086 281.038 490.086 281.021 490.088 281.005C488.412 273.495 490.621 265.645 495.968 260.111C496.047 260.053 496.116 259.984 496.174 259.906C501.074 255.104 508.914 260.503 506.425 266.903C503.101 275.495 505.252 285.242 511.883 291.638L610.657 386.963Z" fill="#FFD9CD"/>
<path d="M665.93 419.665C663.288 422.931 659.789 425.398 655.826 426.79C655.773 426.815 655.717 426.832 655.659 426.839C654.605 427.212 653.528 427.517 652.435 427.75L652.033 427.819L650.651 428.044C650.545 428.071 650.437 428.087 650.328 428.093C649.769 428.172 649.201 428.221 648.633 428.26C648.535 428.25 648.436 428.25 648.339 428.26C647.849 428.26 647.359 428.26 646.878 428.26H646.447C645.281 428.26 644.115 428.162 642.939 428.025L642.517 427.956C642.027 427.897 641.537 427.819 641.038 427.711L640.714 427.662C640.126 427.545 639.528 427.407 638.931 427.251L638.646 427.172C638.147 427.045 637.666 426.888 637.137 426.731L636.735 426.604C635.533 426.197 634.352 425.729 633.198 425.202L632.855 425.036C632.335 424.791 631.875 424.536 631.326 424.262C631.251 424.228 631.179 424.189 631.11 424.144C630.522 423.83 629.924 423.497 629.356 423.164L629.209 423.056C628.67 422.733 628.16 422.39 627.641 422.027C627.555 421.971 627.473 421.909 627.396 421.841C626.828 421.439 626.269 421.028 625.72 420.587C622.362 417.916 619.519 414.654 617.331 410.963C617.331 410.963 617.331 410.904 617.263 410.865C617.245 410.83 617.228 410.794 617.214 410.757C616.546 409.62 615.95 408.442 615.43 407.229L603.68 395.92L610.677 386.992L613.705 389.932L630.806 406.455C631.15 409.409 632.463 412.167 634.54 414.295C641.655 421.949 657.08 424.458 665.645 412.335C668.291 408.817 669.961 404.662 670.487 400.291C671.692 407.229 670.32 414.217 665.93 419.665Z" fill="#F9A0B4"/>
<path d="M498.82 231.731L497.536 239.12L494.792 254.966C494.229 259.722 491.088 263.778 486.625 265.512C482.161 267.246 477.105 266.375 473.48 263.247C469.854 260.119 468.251 255.245 469.312 250.576L469.596 248.91L473.32 227.35C473.89 222.6 477.034 218.551 481.495 216.822C485.956 215.092 491.007 215.965 494.63 219.09C498.253 222.215 499.857 227.084 498.8 231.75L498.82 231.731Z" fill="#FFB2BF"/>
<path d="M537.148 295.842V296.617C537.152 305.794 531.846 314.145 523.536 318.039L495.664 288.12C491.627 283.799 489.424 278.079 489.52 272.166H513.52C519.793 272.171 525.808 274.668 530.239 279.109C534.67 283.55 537.156 289.569 537.148 295.842Z" fill="#FFD9CD"/>
<path d="M523.634 295.343L424.654 295.343C424.654 270.332 444.929 250.057 469.939 250.057H478.397C503.407 250.057 523.683 270.332 523.683 295.343H523.634Z" fill="#FFF2EE"/>
<rect x="533.002" y="320.274" width="121.167" height="48.0788" rx="24.0394" transform="rotate(-180 533.002 320.274)" fill="#FFF2EE"/>
<path d="M526.966 312.405C522.472 317.413 516.054 320.266 509.326 320.245H435.492C429.219 320.25 423.201 317.762 418.762 313.329C414.323 308.896 411.828 302.88 411.825 296.607V295.813C411.821 287.989 415.698 280.672 422.174 276.282C418.541 280.546 416.55 285.968 416.559 291.57V292.364C416.559 305.424 427.146 316.011 440.206 316.011H514.079C518.527 316.016 522.886 314.763 526.652 312.395L526.966 312.405Z" fill="#FFD9CD"/>
<circle cx="505.67" cy="431.719" r="48.5982" fill="#8AB6C9"/>
<path d="M620.34 816.34H547.399L546.781 812.754H610.775L549.525 452.692L544.263 421.783L544.194 421.381L543.694 418.392V418.235C540.644 403.667 531.089 391.299 517.763 384.67C535.72 389.273 549.503 403.679 553.308 421.822L553.916 425.379C553.907 425.447 553.907 425.517 553.916 425.585L620.34 816.34Z" fill="#A8D4E5"/>
<path d="M543.655 418.186V418.342C543.659 418.29 543.659 418.238 543.655 418.186Z" fill="#A8D4E5"/>
<path d="M544.194 421.4L544.263 421.802C544.233 421.645 544.204 421.498 544.194 421.4Z" fill="#A8D4E5"/>
<path d="M553.857 425.32L553.249 421.763C553.494 422.939 553.7 424.124 553.857 425.32Z" fill="#A8D4E5"/>
<path d="M543.675 418.342C543.679 418.29 543.679 418.238 543.675 418.186V418.342Z" fill="#A8D4E5"/>
<path d="M544.263 421.772C544.263 421.645 544.263 421.498 544.214 421.371L544.263 421.772Z" fill="#A8D4E5"/>
<path d="M498.82 231.731L497.536 239.12C489.648 245.567 479.744 249.036 469.557 248.92L473.281 227.36C473.851 222.609 476.995 218.561 481.456 216.831C485.917 215.102 490.968 215.974 494.591 219.1C498.214 222.225 499.817 227.094 498.761 231.76L498.82 231.731Z" fill="#F9A0B4"/>
<path d="M519.4 174.832L517.94 203.105C516.695 227.121 496.219 245.582 472.203 244.343C463.305 243.885 454.953 239.91 448.986 233.294C443.018 226.677 439.924 217.961 440.383 209.063L441.608 185.338V184.906C441.608 184.25 441.696 183.613 441.764 182.946C444.226 159.316 464.604 141.652 488.344 142.57H488.951L490.372 142.649C492.309 142.743 494.233 143.025 496.115 143.492C510.395 146.992 520.171 160.149 519.4 174.832Z" fill="#FFB2BF"/>
<path d="M525.564 194.961L517.195 177.488C516.384 175.809 515.298 174.279 513.98 172.96L514.96 172.754C515.313 172.646 516.185 167.972 516.185 167.619C516.2 167.541 516.2 167.462 516.185 167.384C513.063 157.043 505.852 148.426 496.223 143.531C494.34 143.064 492.417 142.782 490.48 142.688L489.059 142.609H488.451C464.711 141.691 444.333 159.355 441.872 182.985C449.77 185.706 458.326 185.853 466.313 183.407L479.514 180.526C488.67 178.523 498.002 183.079 502.054 191.531C505.997 199.766 515.869 203.245 524.104 199.302C525.704 198.505 526.357 196.563 525.564 194.961Z" fill="#F9A0B4"/>
<path d="M500.78 159.818H504.896C516.484 159.818 525.878 169.212 525.878 180.8V197.46C525.878 199.733 524.035 201.576 521.762 201.576C516.19 201.576 510.848 199.36 506.912 195.417C502.976 191.474 500.77 186.127 500.78 180.555V159.818Z" fill="#2B2137"/>
<circle cx="516.754" cy="194.834" r="13.6416" fill="#FFB2BF"/>
<path d="M521.36 194.785C521.494 192.446 520.206 190.257 518.097 189.238C517.593 189.013 517.011 189.053 516.542 189.343C516.073 189.634 515.778 190.137 515.754 190.688L515.343 198.254C515.317 198.831 515.587 199.382 516.059 199.715C516.531 200.048 517.14 200.118 517.675 199.9C519.791 199.053 521.227 197.06 521.36 194.785Z" fill="#F9A0B4"/>
<path d="M453.299 366.138H458.219V379.544H453.299V366.138Z" fill="#8AB6C9"/>
<path d="M474.124 366.138H479.044V379.544H474.124V366.138Z" fill="#8AB6C9"/>
<path d="M494.949 366.138H499.869V379.544H494.949V366.138Z" fill="#8AB6C9"/>
<circle cx="453.907" cy="189.414" r="3.2438" fill="#FFD9CD"/>
<circle cx="483.493" cy="189.414" r="3.2438" fill="#FFD9CD"/>
<ellipse cx="468.537" cy="207.312" rx="3.6652" ry="4.3904" transform="rotate(-89.58 468.537 207.312)" fill="#DB5A9A"/>
<ellipse cx="475.23" cy="207.362" rx="3.6652" ry="4.3904" transform="rotate(-89.58 475.23 207.362)" fill="#DB5A9A"/>
<path d="M464.148 207.28L479.612 207.388C479.612 210.68 476.113 213.326 471.841 213.268C467.568 213.209 464.128 210.573 464.148 207.28Z" fill="#DB5A9A"/>
<path d="M475.222 208.279C475.222 209.416 473.634 210.328 471.684 210.318C469.734 210.308 468.175 209.338 468.185 208.23" fill="#EA8BBF"/>
<path d="M633.668 831.501H547.232L539.696 792.722L532.532 755.835L526.809 726.435C526.364 724.138 526.969 721.763 528.457 719.958C529.946 718.153 532.162 717.107 534.502 717.105H605.64C609.414 717.102 612.655 719.787 613.353 723.495L619.429 755.835L626.377 792.722L633.668 831.501Z" fill="#FFF2EE"/>
<path d="M637.294 849.435L632.952 827.728L626.386 792.722L619.438 755.835L613.362 723.495C612.68 719.767 609.429 717.061 605.64 717.066H534.492C532.152 717.067 529.936 718.113 528.447 719.918C526.959 721.723 526.354 724.099 526.799 726.396L532.522 755.796L539.686 792.683L547.222 831.461H547.271V831.589C528.018 833.102 513.164 849.164 513.157 868.476C513.155 869.049 513.381 869.6 513.785 870.007C514.19 870.413 514.74 870.642 515.313 870.642H619.869C625.183 870.64 630.217 868.259 633.591 864.154C636.964 860.048 638.323 854.648 637.294 849.435Z" fill="#FFF2EE"/>
<path d="M619.87 870.671H602.612C607.933 870.675 612.976 868.291 616.351 864.178C619.726 860.064 621.079 854.653 620.036 849.435L615.705 827.728L609.129 792.722L602.181 755.835L596.105 723.495C595.407 719.787 592.166 717.102 588.392 717.105H605.64C609.414 717.102 612.655 719.787 613.353 723.495L619.429 755.835L626.377 792.722L632.943 827.728L637.274 849.435C638.32 854.65 636.971 860.06 633.6 864.174C630.228 868.288 625.189 870.672 619.87 870.671Z" fill="#FFFDFD"/>
<path d="M626.387 792.722H539.696L532.522 755.835H619.438L626.387 792.722Z" fill="#DB5A9A"/>
<path d="M626.387 792.722H569.939L554.504 776.67L565.264 755.835H619.487L626.387 792.722Z" fill="#8AB6C9"/>
<path d="M536.579 792.722H486.08L470.645 776.67L481.405 755.835H534.365L536.579 792.722Z" fill="#5787A0"/>
<path d="M536.579 792.722H522.507L520.292 755.835H534.365L536.579 792.722Z" fill="#8AB6C9"/>
<path d="M457.52 189.463L458.112 181.498L484.871 183.486L484.279 191.451L457.52 189.463Z" fill="#2B2137"/>
<path d="M502.485 208.22L490.206 207.309C485.781 206.981 481.667 204.908 478.771 201.546C475.874 198.185 474.432 193.81 474.761 189.385L475.241 182.917C475.466 179.89 478.093 177.613 481.121 177.821L504.582 179.565C507.609 179.79 509.886 182.417 509.678 185.445L508.365 203.085C508.27 204.547 507.596 205.911 506.492 206.875C505.389 207.838 503.947 208.323 502.485 208.22Z" fill="#2B2137"/>
<path d="M440.383 203.605L452.662 204.516C457.089 204.848 461.466 203.407 464.83 200.51C468.193 197.613 470.268 193.498 470.596 189.071L471.076 182.613C471.284 179.585 469.007 176.958 465.98 176.733L442.519 174.989C439.493 174.786 436.869 177.06 436.639 180.085L435.326 197.725C435.117 200.738 437.372 203.36 440.383 203.605Z" fill="#2B2137"/>
<path d="M467.597 183.711C467.607 183.835 467.607 183.959 467.597 184.083L467.215 189.287C466.947 192.851 465.273 196.163 462.562 198.492C459.85 200.821 456.324 201.976 452.76 201.703L447.86 201.341L442.96 200.998H442.813C441.636 200.913 440.542 200.363 439.771 199.469C439.001 198.575 438.618 197.412 438.707 196.235L439.03 191.923L439.765 182.035C439.953 179.59 442.083 177.758 444.528 177.938L453.858 178.634L462.795 179.291L463.403 179.35C464.344 179.409 465.24 179.778 465.951 180.398C466.954 181.211 467.555 182.42 467.597 183.711Z" fill="#382F44"/>
<path d="M505.915 186.592L504.857 200.782C504.674 203.231 502.542 205.069 500.094 204.889L490.225 204.163C487.439 203.956 484.787 202.883 482.64 201.096C481.885 200.472 481.198 199.769 480.592 198.999C479.17 197.176 478.248 195.015 477.916 192.727C477.759 191.735 477.72 190.729 477.799 189.728L478.191 184.544C478.271 183.367 478.818 182.271 479.711 181.5C480.604 180.728 481.768 180.346 482.944 180.438L490.97 181.035L499.908 181.692L501.819 181.839C502.429 181.881 503.023 182.051 503.563 182.339C504.65 182.912 505.451 183.908 505.778 185.093C505.907 185.581 505.954 186.088 505.915 186.592Z" fill="#382F44"/>
<path opacity="0.1" d="M499.908 181.692L480.592 198.999C479.17 197.176 478.248 195.014 477.917 192.727L490.98 181.035L499.908 181.692Z" fill="#F3F4FE"/>
<path opacity="0.1" d="M505.778 185.092L485.757 203.036C484.631 202.531 483.582 201.872 482.64 201.076L503.563 182.319C504.654 182.896 505.456 183.901 505.778 185.092Z" fill="#F3F4FE"/>
<path opacity="0.1" d="M462.874 179.271L440.089 199.704C439.164 198.789 438.687 197.513 438.785 196.216L439.109 191.904L453.936 178.615L462.874 179.271Z" fill="#F3F4FE"/>
<path opacity="0.1" d="M467.597 183.711L447.909 201.351L443.009 201.008L466 180.428C466.977 181.243 467.559 182.438 467.597 183.711Z" fill="#F3F4FE"/>
<path d="M455.21 173.901L508.453 177.762C512.993 178.091 517.477 176.603 520.919 173.626C524.362 170.648 526.48 166.425 526.809 161.886C527.615 150.778 523.975 139.805 516.689 131.382C509.404 122.959 499.07 117.775 487.962 116.973L484.247 116.698C461.118 115.025 441.011 132.416 439.334 155.545C439.005 160.085 440.493 164.569 443.47 168.011C446.448 171.454 450.671 173.572 455.21 173.901Z" fill="#DB5A9A"/>
<path d="M526.926 158.76C526.926 159.74 526.926 160.818 526.809 161.847C526.48 166.387 524.362 170.61 520.919 173.587C517.477 176.564 512.993 178.052 508.453 177.723L496.576 176.861C503.102 174.635 507.666 168.724 508.169 161.847C508.248 160.818 508.287 159.779 508.287 158.76C508.267 138.176 493.327 120.642 473.007 117.355C476.716 116.622 480.506 116.391 484.277 116.669L487.981 116.924C509.911 118.529 526.893 136.772 526.926 158.76Z" fill="#CC488E"/>
<path d="M466.598 245.392H496.978C499.511 245.392 501.564 247.445 501.564 249.978V258.005H462.011V249.978C462.011 248.762 462.494 247.596 463.355 246.735C464.215 245.875 465.381 245.392 466.598 245.392V245.392Z" fill="#FFF2EE"/>
<path d="M630.162 354.373C633.89 350.181 640.31 349.806 644.502 353.534C648.694 357.262 649.07 363.683 645.342 367.874L614.594 402.445C610.866 406.637 604.446 407.013 600.254 403.284C596.062 399.556 595.686 393.136 599.414 388.944L630.162 354.373Z" fill="#FFF2EE"/>
<path d="M391.897 247.738C397.092 245.621 403.02 248.116 405.137 253.312C407.253 258.507 404.758 264.434 399.563 266.551L356.718 284.01C351.522 286.127 345.595 283.632 343.478 278.436C341.361 273.241 343.856 267.313 349.051 265.197L391.897 247.738Z" fill="#F9CABD"/>
<path d="M432.824 159.379C433.339 152.283 439.509 146.948 446.605 147.463L520.772 152.844C527.868 153.359 533.203 159.529 532.688 166.625C532.173 173.721 526.004 179.056 518.908 178.541L444.74 173.16C437.644 172.645 432.309 166.475 432.824 159.379Z" fill="#5787A0"/>
<path d="M439.207 161.051C439.432 157.95 442.128 155.618 445.229 155.843L487.601 158.917C490.702 159.142 493.034 161.839 492.809 164.94C492.584 168.041 489.887 170.373 486.786 170.148L444.414 167.074C441.313 166.849 438.982 164.152 439.207 161.051Z" fill="#6197AF"/>
<path d="M532.738 165.62V166.6C532.221 173.698 526.047 179.034 518.949 178.517L505.386 177.537C508.788 177.779 512.148 176.66 514.725 174.425C517.301 172.19 518.885 169.023 519.126 165.62C519.126 165.297 519.126 164.983 519.126 164.64C519.122 157.892 513.901 152.295 507.17 151.822L520.743 152.802C527.483 153.269 532.718 158.864 532.738 165.62Z" fill="#44788E"/>
<path d="M449.605 146.265C449.384 146.264 449.165 146.224 448.958 146.148C447.956 145.779 447.433 144.677 447.782 143.668C455.053 123.265 472.115 121.736 472.84 121.677C473.923 121.596 474.866 122.408 474.947 123.49C475.029 124.572 474.217 125.516 473.134 125.597C472.488 125.597 457.827 127.087 451.437 145.021C451.142 145.774 450.414 146.268 449.605 146.265Z" fill="#E288B9"/>
<path d="M538.298 528.752C537.781 525.554 539.954 522.542 543.152 522.026C546.35 521.509 549.361 523.682 549.878 526.88L578.436 703.594C578.953 706.792 576.779 709.803 573.582 710.32C570.384 710.837 567.372 708.664 566.856 705.466L538.298 528.752Z" fill="#A8D4E5"/>
</svg>
